<?xml version="1.0" encoding="UTF-8" standalone="no"?>
<!DOCTYPE svg PUBLIC "-//W3C//DTD SVG 1.1//EN"
 "http://www.w3.org/Graphics/SVG/1.1/DTD/svg11.dtd">
<!-- Generated by graphviz version 2.43.0 (0)
 -->
<!-- Title: src/pinyo/src/bun/bun.h Pages: 1 -->
<svg width="490pt" height="587pt"
 viewBox="0.00 0.00 489.74 587.00" xmlns="http://www.w3.org/2000/svg" xmlns:xlink="http://www.w3.org/1999/xlink">
<g id="graph0" class="graph" transform="scale(1 1) rotate(0) translate(4 583)">
<title>src/pinyo/src/bun/bun.h</title>
<polygon fill="white" stroke="transparent" points="-4,4 -4,-583 485.74,-583 485.74,4 -4,4"/>
<!-- Node1 -->
<g id="node1" class="node">
<title>Node1</title>
<g id="a_node1"><a xlink:title=" ">
<polygon fill="#bfbfbf" stroke="black" points="0,-559.5 0,-578.5 129,-578.5 129,-559.5 0,-559.5"/>
<text text-anchor="middle" x="64.5" y="-566.5" font-family="Helvetica,sans-Serif" font-size="10.00">src/pinyo/src/bun/bun.h</text>
</a>
</g>
</g>
<!-- Node2 -->
<g id="node2" class="node">
<title>Node2</title>
<g id="a_node2"><a xlink:href="lpart_8h.html" target="_top" xlink:title=" ">
<polygon fill="white" stroke="black" points="71.5,-492.5 71.5,-522.5 175.5,-522.5 175.5,-492.5 71.5,-492.5"/>
<text text-anchor="start" x="79.5" y="-510.5" font-family="Helvetica,sans-Serif" font-size="10.00">src/pinyo/src/lpart</text>
<text text-anchor="middle" x="123.5" y="-499.5" font-family="Helvetica,sans-Serif" font-size="10.00">/lpart.h</text>
</a>
</g>
</g>
<!-- Node1&#45;&gt;Node2 -->
<g id="edge1" class="edge">
<title>Node1&#45;&gt;Node2</title>
<path fill="none" stroke="midnightblue" d="M80,-552.37C89.18,-543.11 100.71,-531.48 109.59,-522.52"/>
<polygon fill="midnightblue" stroke="midnightblue" points="77.51,-549.91 72.95,-559.48 82.48,-554.84 77.51,-549.91"/>
</g>
<!-- Node4 -->
<g id="node4" class="node">
<title>Node4</title>
<g id="a_node4"><a xlink:href="pinyo_8h.html" target="_top" xlink:title=" ">
<polygon fill="white" stroke="black" points="44,-369.5 44,-388.5 161,-388.5 161,-369.5 44,-369.5"/>
<text text-anchor="middle" x="102.5" y="-376.5" font-family="Helvetica,sans-Serif" font-size="10.00">src/pinyo/src/pinyo.h</text>
</a>
</g>
</g>
<!-- Node1&#45;&gt;Node4 -->
<g id="edge22" class="edge">
<title>Node1&#45;&gt;Node4</title>
<path fill="none" stroke="midnightblue" d="M62.63,-549.23C60.55,-521.18 59.36,-467.1 75.5,-425 80.65,-411.56 89.73,-397.57 95.92,-388.83"/>
<polygon fill="midnightblue" stroke="midnightblue" points="59.15,-549.59 63.49,-559.25 66.12,-548.98 59.15,-549.59"/>
</g>
<!-- Node3 -->
<g id="node3" class="node">
<title>Node3</title>
<g id="a_node3"><a xlink:href="shape__part_8h.html" target="_top" xlink:title=" ">
<polygon fill="white" stroke="black" points="90.5,-425.5 90.5,-455.5 194.5,-455.5 194.5,-425.5 90.5,-425.5"/>
<text text-anchor="start" x="98.5" y="-443.5" font-family="Helvetica,sans-Serif" font-size="10.00">src/pinyo/src/lpart</text>
<text text-anchor="middle" x="142.5" y="-432.5" font-family="Helvetica,sans-Serif" font-size="10.00">/shape_part.h</text>
</a>
</g>
</g>
<!-- Node2&#45;&gt;Node3 -->
<g id="edge2" class="edge">
<title>Node2&#45;&gt;Node3</title>
<path fill="none" stroke="midnightblue" d="M130.46,-482.7C133.12,-473.59 136.07,-463.49 138.39,-455.58"/>
<polygon fill="midnightblue" stroke="midnightblue" points="127.07,-481.82 127.62,-492.4 133.79,-483.78 127.07,-481.82"/>
</g>
<!-- Node2&#45;&gt;Node4 -->
<g id="edge21" class="edge">
<title>Node2&#45;&gt;Node4</title>
<path fill="none" stroke="midnightblue" d="M100.04,-485.05C92.64,-476.78 85.38,-466.73 81.5,-456 72.84,-432.06 87.85,-402.79 96.71,-388.57"/>
<polygon fill="midnightblue" stroke="midnightblue" points="97.64,-487.6 107.09,-492.4 102.69,-482.76 97.64,-487.6"/>
</g>
<!-- Node13 -->
<g id="node13" class="node">
<title>Node13</title>
<g id="a_node13"><a xlink:href="transfer__part_8h.html" target="_top" xlink:title=" ">
<polygon fill="white" stroke="black" points="212.5,-425.5 212.5,-455.5 316.5,-455.5 316.5,-425.5 212.5,-425.5"/>
<text text-anchor="start" x="220.5" y="-443.5" font-family="Helvetica,sans-Serif" font-size="10.00">src/pinyo/src/lpart</text>
<text text-anchor="middle" x="264.5" y="-432.5" font-family="Helvetica,sans-Serif" font-size="10.00">/transfer_part.h</text>
</a>
</g>
</g>
<!-- Node2&#45;&gt;Node13 -->
<g id="edge19" class="edge">
<title>Node2&#45;&gt;Node13</title>
<path fill="none" stroke="midnightblue" d="M163.35,-488.13C185.75,-477.8 213.28,-465.11 233.96,-455.58"/>
<polygon fill="midnightblue" stroke="midnightblue" points="161.71,-485.03 154.09,-492.4 164.64,-491.39 161.71,-485.03"/>
</g>
<!-- Node3&#45;&gt;Node4 -->
<g id="edge3" class="edge">
<title>Node3&#45;&gt;Node4</title>
<path fill="none" stroke="midnightblue" d="M127.24,-416.8C120.63,-406.96 113.28,-396.03 108.32,-388.66"/>
<polygon fill="midnightblue" stroke="midnightblue" points="124.54,-419.05 133.02,-425.4 130.35,-415.15 124.54,-419.05"/>
</g>
<!-- Node5 -->
<g id="node5" class="node">
<title>Node5</title>
<g id="a_node5"><a xlink:href="lseq_8h.html" target="_top" xlink:title=" ">
<polygon fill="white" stroke="black" points="150.5,-112.5 150.5,-131.5 260.5,-131.5 260.5,-112.5 150.5,-112.5"/>
<text text-anchor="middle" x="205.5" y="-119.5" font-family="Helvetica,sans-Serif" font-size="10.00">src/pewit/src/lseq.h</text>
</a>
</g>
</g>
<!-- Node4&#45;&gt;Node5 -->
<g id="edge4" class="edge">
<title>Node4&#45;&gt;Node5</title>
<path fill="none" stroke="midnightblue" d="M102.05,-358.81C102.01,-319.75 106.52,-229.54 145.5,-168 155.81,-151.72 174.25,-139.22 187.98,-131.58"/>
<polygon fill="midnightblue" stroke="midnightblue" points="98.55,-359.24 102.17,-369.19 105.55,-359.15 98.55,-359.24"/>
</g>
<!-- Node7 -->
<g id="node7" class="node">
<title>Node7</title>
<g id="a_node7"><a xlink:href="robintrace_8h.html" target="_top" xlink:title=" ">
<polygon fill="white" stroke="black" points="90,-0.5 90,-19.5 203,-19.5 203,-0.5 90,-0.5"/>
<text text-anchor="middle" x="146.5" y="-7.5" font-family="Helvetica,sans-Serif" font-size="10.00">include/robintrace.h</text>
</a>
</g>
</g>
<!-- Node4&#45;&gt;Node7 -->
<g id="edge18" class="edge">
<title>Node4&#45;&gt;Node7</title>
<path fill="none" stroke="midnightblue" d="M88.71,-361.15C71.84,-338.79 45.5,-297.41 45.5,-257 45.5,-257 45.5,-257 45.5,-121 45.5,-72 100.55,-35.39 129.37,-19.59"/>
<polygon fill="midnightblue" stroke="midnightblue" points="86.13,-363.54 95.05,-369.26 91.65,-359.23 86.13,-363.54"/>
</g>
<!-- Node8 -->
<g id="node8" class="node">
<title>Node8</title>
<g id="a_node8"><a xlink:href="lseq__part_8h.html" target="_top" xlink:title=" ">
<polygon fill="white" stroke="black" points="155,-168.5 155,-198.5 256,-198.5 256,-168.5 155,-168.5"/>
<text text-anchor="start" x="163" y="-186.5" font-family="Helvetica,sans-Serif" font-size="10.00">src/pewit/src/lseq</text>
<text text-anchor="middle" x="205.5" y="-175.5" font-family="Helvetica,sans-Serif" font-size="10.00">_part.h</text>
</a>
</g>
</g>
<!-- Node4&#45;&gt;Node8 -->
<g id="edge7" class="edge">
<title>Node4&#45;&gt;Node8</title>
<path fill="none" stroke="midnightblue" d="M109.55,-359.75C120.57,-331.98 143.26,-277.84 168.5,-235 176.11,-222.08 186.27,-208.41 194.02,-198.56"/>
<polygon fill="midnightblue" stroke="midnightblue" points="106.19,-358.73 105.8,-369.32 112.71,-361.29 106.19,-358.73"/>
</g>
<!-- Node9 -->
<g id="node9" class="node">
<title>Node9</title>
<g id="a_node9"><a xlink:href="ray__pack_8h.html" target="_top" xlink:title=" ">
<polygon fill="white" stroke="black" points="251.5,-313.5 251.5,-332.5 385.5,-332.5 385.5,-313.5 251.5,-313.5"/>
<text text-anchor="middle" x="318.5" y="-320.5" font-family="Helvetica,sans-Serif" font-size="10.00">src/pewit/src/ray_pack.h</text>
</a>
</g>
</g>
<!-- Node4&#45;&gt;Node9 -->
<g id="edge9" class="edge">
<title>Node4&#45;&gt;Node9</title>
<path fill="none" stroke="midnightblue" d="M146.66,-366.96C187.46,-356.76 247.21,-341.82 284.43,-332.52"/>
<polygon fill="midnightblue" stroke="midnightblue" points="145.58,-363.62 136.73,-369.44 147.28,-370.41 145.58,-363.62"/>
</g>
<!-- Node6 -->
<g id="node6" class="node">
<title>Node6</title>
<g id="a_node6"><a xlink:href="pewit_8h.html" target="_top" xlink:title=" ">
<polygon fill="white" stroke="black" points="147,-56.5 147,-75.5 264,-75.5 264,-56.5 147,-56.5"/>
<text text-anchor="middle" x="205.5" y="-63.5" font-family="Helvetica,sans-Serif" font-size="10.00">src/pewit/src/pewit.h</text>
</a>
</g>
</g>
<!-- Node5&#45;&gt;Node6 -->
<g id="edge5" class="edge">
<title>Node5&#45;&gt;Node6</title>
<path fill="none" stroke="midnightblue" d="M205.5,-101.8C205.5,-92.91 205.5,-82.78 205.5,-75.75"/>
<polygon fill="midnightblue" stroke="midnightblue" points="202,-102.08 205.5,-112.08 209,-102.08 202,-102.08"/>
</g>
<!-- Node6&#45;&gt;Node7 -->
<g id="edge6" class="edge">
<title>Node6&#45;&gt;Node7</title>
<path fill="none" stroke="midnightblue" d="M188.61,-49.54C178.09,-39.91 164.93,-27.87 156.15,-19.83"/>
<polygon fill="midnightblue" stroke="midnightblue" points="186.28,-52.15 196.02,-56.32 191.01,-46.99 186.28,-52.15"/>
</g>
<!-- Node8&#45;&gt;Node5 -->
<g id="edge8" class="edge">
<title>Node8&#45;&gt;Node5</title>
<path fill="none" stroke="midnightblue" d="M205.5,-158.29C205.5,-148.86 205.5,-138.65 205.5,-131.66"/>
<polygon fill="midnightblue" stroke="midnightblue" points="202,-158.4 205.5,-168.4 209,-158.4 202,-158.4"/>
</g>
<!-- Node9&#45;&gt;Node6 -->
<g id="edge17" class="edge">
<title>Node9&#45;&gt;Node6</title>
<path fill="none" stroke="midnightblue" d="M383.29,-311.5C421.28,-303.87 464.03,-292.23 475.5,-277 486.73,-262.09 479.73,-253.18 475.5,-235 467.97,-202.67 466.61,-190.82 442.5,-168 386.8,-115.27 299.36,-87.86 247.71,-75.51"/>
<polygon fill="midnightblue" stroke="midnightblue" points="382.39,-308.11 373.24,-313.45 383.72,-314.98 382.39,-308.11"/>
</g>
<!-- Node9&#45;&gt;Node8 -->
<g id="edge12" class="edge">
<title>Node9&#45;&gt;Node8</title>
<path fill="none" stroke="midnightblue" d="M241.5,-314.92C217.42,-308.65 193.3,-297.31 178.5,-277 161.06,-253.07 180.64,-218.01 194.39,-198.65"/>
<polygon fill="midnightblue" stroke="midnightblue" points="240.9,-318.38 251.43,-317.24 242.49,-311.56 240.9,-318.38"/>
</g>
<!-- Node10 -->
<g id="node10" class="node">
<title>Node10</title>
<g id="a_node10"><a xlink:href="lseq__rays_8h.html" target="_top" xlink:title=" ">
<polygon fill="white" stroke="black" points="328,-168.5 328,-198.5 433,-198.5 433,-168.5 328,-168.5"/>
<text text-anchor="start" x="336" y="-186.5" font-family="Helvetica,sans-Serif" font-size="10.00">src/pewit/src/lseq</text>
<text text-anchor="middle" x="380.5" y="-175.5" font-family="Helvetica,sans-Serif" font-size="10.00">_input/lseq_rays.h</text>
</a>
</g>
</g>
<!-- Node9&#45;&gt;Node10 -->
<g id="edge10" class="edge">
<title>Node9&#45;&gt;Node10</title>
<path fill="none" stroke="midnightblue" d="M395.5,-314.92C419.58,-308.65 443.7,-297.31 458.5,-277 469.5,-261.92 467.42,-251.4 458.5,-235 449.56,-218.56 432.71,-206.65 416.95,-198.54"/>
<polygon fill="midnightblue" stroke="midnightblue" points="394.51,-311.56 385.57,-317.24 396.1,-318.38 394.51,-311.56"/>
</g>
<!-- Node11 -->
<g id="node11" class="node">
<title>Node11</title>
<g id="a_node11"><a xlink:href="lseq__part__global__rays_8h.html" target="_top" xlink:title=" ">
<polygon fill="white" stroke="black" points="187.5,-235.5 187.5,-276.5 309.5,-276.5 309.5,-235.5 187.5,-235.5"/>
<text text-anchor="start" x="195.5" y="-264.5" font-family="Helvetica,sans-Serif" font-size="10.00">src/pewit/src/lseq</text>
<text text-anchor="start" x="195.5" y="-253.5" font-family="Helvetica,sans-Serif" font-size="10.00">_part_result/lseq_part</text>
<text text-anchor="middle" x="248.5" y="-242.5" font-family="Helvetica,sans-Serif" font-size="10.00">_global_rays.h</text>
</a>
</g>
</g>
<!-- Node9&#45;&gt;Node11 -->
<g id="edge13" class="edge">
<title>Node9&#45;&gt;Node11</title>
<path fill="none" stroke="midnightblue" d="M301.65,-306.36C292.01,-297.4 279.82,-286.08 269.55,-276.54"/>
<polygon fill="midnightblue" stroke="midnightblue" points="299.35,-308.99 309.06,-313.23 304.11,-303.86 299.35,-308.99"/>
</g>
<!-- Node12 -->
<g id="node12" class="node">
<title>Node12</title>
<g id="a_node12"><a xlink:href="lseq__part__rays_8h.html" target="_top" xlink:title=" ">
<polygon fill="white" stroke="black" points="327.5,-235.5 327.5,-276.5 449.5,-276.5 449.5,-235.5 327.5,-235.5"/>
<text text-anchor="start" x="335.5" y="-264.5" font-family="Helvetica,sans-Serif" font-size="10.00">src/pewit/src/lseq</text>
<text text-anchor="start" x="335.5" y="-253.5" font-family="Helvetica,sans-Serif" font-size="10.00">_part_result/lseq_part</text>
<text text-anchor="middle" x="388.5" y="-242.5" font-family="Helvetica,sans-Serif" font-size="10.00">_rays.h</text>
</a>
</g>
</g>
<!-- Node9&#45;&gt;Node12 -->
<g id="edge15" class="edge">
<title>Node9&#45;&gt;Node12</title>
<path fill="none" stroke="midnightblue" d="M335.35,-306.36C344.99,-297.4 357.18,-286.08 367.45,-276.54"/>
<polygon fill="midnightblue" stroke="midnightblue" points="332.89,-303.86 327.94,-313.23 337.65,-308.99 332.89,-303.86"/>
</g>
<!-- Node10&#45;&gt;Node5 -->
<g id="edge11" class="edge">
<title>Node10&#45;&gt;Node5</title>
<path fill="none" stroke="midnightblue" d="M329.25,-165.08C296.84,-154.05 256.36,-140.29 230.71,-131.57"/>
<polygon fill="midnightblue" stroke="midnightblue" points="328.43,-168.49 339.03,-168.4 330.69,-161.87 328.43,-168.49"/>
</g>
<!-- Node11&#45;&gt;Node8 -->
<g id="edge14" class="edge">
<title>Node11&#45;&gt;Node8</title>
<path fill="none" stroke="midnightblue" d="M231.15,-226.55C225.35,-217.05 219.14,-206.86 214.28,-198.89"/>
<polygon fill="midnightblue" stroke="midnightblue" points="228.33,-228.65 236.52,-235.36 234.3,-225 228.33,-228.65"/>
</g>
<!-- Node12&#45;&gt;Node8 -->
<g id="edge16" class="edge">
<title>Node12&#45;&gt;Node8</title>
<path fill="none" stroke="midnightblue" d="M328.06,-231.72C299.6,-220.75 266.58,-208.03 242,-198.56"/>
<polygon fill="midnightblue" stroke="midnightblue" points="326.93,-235.03 337.52,-235.36 329.45,-228.5 326.93,-235.03"/>
</g>
<!-- Node13&#45;&gt;Node4 -->
<g id="edge20" class="edge">
<title>Node13&#45;&gt;Node4</title>
<path fill="none" stroke="midnightblue" d="M216.7,-421.94C186.85,-410.98 149.73,-397.35 126.07,-388.66"/>
<polygon fill="midnightblue" stroke="midnightblue" points="215.51,-425.24 226.11,-425.4 217.93,-418.67 215.51,-425.24"/>
</g>
</g>
</svg>
