<?xml version="1.0" encoding="UTF-8" standalone="no"?>
<!DOCTYPE svg PUBLIC "-//W3C//DTD SVG 1.1//EN"
 "http://www.w3.org/Graphics/SVG/1.1/DTD/svg11.dtd">
<!-- Generated by graphviz version 2.43.0 (0)
 -->
<!-- Title: lseq Pages: 1 -->
<svg width="366pt" height="240pt"
 viewBox="0.00 0.00 366.00 240.00" xmlns="http://www.w3.org/2000/svg" xmlns:xlink="http://www.w3.org/1999/xlink">
<g id="graph0" class="graph" transform="scale(1 1) rotate(0) translate(4 236)">
<title>lseq</title>
<polygon fill="white" stroke="transparent" points="-4,4 -4,-236 362,-236 362,4 -4,4"/>
<!-- Node1 -->
<g id="node1" class="node">
<title>Node1</title>
<g id="a_node1"><a xlink:title="Top&#45;level API for robintrace. Holds parts, rays and manages the computations.">
<polygon fill="#bfbfbf" stroke="black" points="231.5,-0.5 231.5,-19.5 268.5,-19.5 268.5,-0.5 231.5,-0.5"/>
<text text-anchor="middle" x="250" y="-7.5" font-family="Helvetica,sans-Serif" font-size="10.00">lseq</text>
</a>
</g>
</g>
<!-- Node2 -->
<g id="node2" class="node">
<title>Node2</title>
<g id="a_node2"><a xlink:title=" ">
<polygon fill="white" stroke="#bfbfbf" points="66,-67.5 66,-86.5 202,-86.5 202,-67.5 66,-67.5"/>
<text text-anchor="middle" x="134" y="-74.5" font-family="Helvetica,sans-Serif" font-size="10.00">std::vector&lt; lseq_part &gt;</text>
</a>
</g>
</g>
<!-- Node2&#45;&gt;Node1 -->
<g id="edge1" class="edge">
<title>Node2&#45;&gt;Node1</title>
<path fill="none" stroke="#9a32cd" stroke-dasharray="5,2" d="M158.47,-62.29C181.46,-49.4 215.16,-30.52 234.6,-19.63"/>
<polygon fill="#9a32cd" stroke="#9a32cd" points="156.66,-59.29 149.64,-67.23 160.08,-65.4 156.66,-59.29"/>
<text text-anchor="middle" x="213" y="-41" font-family="Helvetica,sans-Serif" font-size="10.00"> parts</text>
</g>
<!-- Node3 -->
<g id="node3" class="node">
<title>Node3</title>
<g id="a_node3"><a xlink:href="classlseq__part.html" target="_top" xlink:title="A part in a lseq. It contains both data and methods relative to a single part.">
<polygon fill="white" stroke="black" points="103,-134.5 103,-153.5 165,-153.5 165,-134.5 103,-134.5"/>
<text text-anchor="middle" x="134" y="-141.5" font-family="Helvetica,sans-Serif" font-size="10.00">lseq_part</text>
</a>
</g>
</g>
<!-- Node3&#45;&gt;Node2 -->
<g id="edge2" class="edge">
<title>Node3&#45;&gt;Node2</title>
<path fill="none" stroke="#9a32cd" stroke-dasharray="5,2" d="M134,-124.04C134,-111.67 134,-96.12 134,-86.63"/>
<polygon fill="#9a32cd" stroke="#9a32cd" points="130.5,-124.23 134,-134.23 137.5,-124.23 130.5,-124.23"/>
<text text-anchor="middle" x="158.5" y="-108" font-family="Helvetica,sans-Serif" font-size="10.00"> elements</text>
</g>
<!-- Node4 -->
<g id="node4" class="node">
<title>Node4</title>
<g id="a_node4"><a xlink:href="classtype__map.html" target="_top" xlink:title=" ">
<polygon fill="white" stroke="black" points="0,-201.5 0,-231.5 122,-231.5 122,-201.5 0,-201.5"/>
<text text-anchor="start" x="8" y="-219.5" font-family="Helvetica,sans-Serif" font-size="10.00">type_map&lt; lseq_part</text>
<text text-anchor="middle" x="61" y="-208.5" font-family="Helvetica,sans-Serif" font-size="10.00">_result &gt;</text>
</a>
</g>
</g>
<!-- Node4&#45;&gt;Node3 -->
<g id="edge3" class="edge">
<title>Node4&#45;&gt;Node3</title>
<path fill="none" stroke="#9a32cd" stroke-dasharray="5,2" d="M83.12,-194.14C97.08,-180.65 114.39,-163.94 124.79,-153.89"/>
<polygon fill="#9a32cd" stroke="#9a32cd" points="80.53,-191.77 75.77,-201.23 85.4,-196.8 80.53,-191.77"/>
<text text-anchor="middle" x="123.5" y="-175" font-family="Helvetica,sans-Serif" font-size="10.00"> results</text>
</g>
<!-- Node5 -->
<g id="node5" class="node">
<title>Node5</title>
<g id="a_node5"><a xlink:title=" ">
<polygon fill="white" stroke="#bfbfbf" points="140,-207 140,-226 274,-226 274,-207 140,-207"/>
<text text-anchor="middle" x="207" y="-214" font-family="Helvetica,sans-Serif" font-size="10.00">std::unique_ptr&lt; lpart &gt;</text>
</a>
</g>
</g>
<!-- Node5&#45;&gt;Node3 -->
<g id="edge4" class="edge">
<title>Node5&#45;&gt;Node3</title>
<path fill="none" stroke="#9a32cd" stroke-dasharray="5,2" d="M190.63,-199.69C175.93,-185.49 154.88,-165.17 143.02,-153.72"/>
<polygon fill="#9a32cd" stroke="#9a32cd" points="188.42,-202.43 198.05,-206.86 193.29,-197.39 188.42,-202.43"/>
<text text-anchor="middle" x="184.5" y="-175" font-family="Helvetica,sans-Serif" font-size="10.00"> part</text>
</g>
<!-- Node6 -->
<g id="node6" class="node">
<title>Node6</title>
<g id="a_node6"><a xlink:href="classtype__map.html" target="_top" xlink:title=" ">
<polygon fill="white" stroke="black" points="220,-67.5 220,-86.5 358,-86.5 358,-67.5 220,-67.5"/>
<text text-anchor="middle" x="289" y="-74.5" font-family="Helvetica,sans-Serif" font-size="10.00">type_map&lt; lseq_input &gt;</text>
</a>
</g>
</g>
<!-- Node6&#45;&gt;Node1 -->
<g id="edge5" class="edge">
<title>Node6&#45;&gt;Node1</title>
<path fill="none" stroke="#9a32cd" stroke-dasharray="5,2" d="M278.52,-58.53C270.97,-45.95 261.1,-29.51 255.18,-19.63"/>
<polygon fill="#9a32cd" stroke="#9a32cd" points="275.59,-60.46 283.74,-67.23 281.6,-56.86 275.59,-60.46"/>
<text text-anchor="middle" x="288" y="-41" font-family="Helvetica,sans-Serif" font-size="10.00"> inputs</text>
</g>
</g>
</svg>
