<?xml version="1.0" encoding="UTF-8" standalone="no"?>
<!DOCTYPE svg PUBLIC "-//W3C//DTD SVG 1.1//EN"
 "http://www.w3.org/Graphics/SVG/1.1/DTD/svg11.dtd">
<!-- Generated by graphviz version 2.43.0 (0)
 -->
<!-- Title: lseq_part_result Pages: 1 -->
<svg width="280pt" height="192pt"
 viewBox="0.00 0.00 280.00 192.00" xmlns="http://www.w3.org/2000/svg" xmlns:xlink="http://www.w3.org/1999/xlink">
<g id="graph0" class="graph" transform="scale(1 1) rotate(0) translate(4 188)">
<title>lseq_part_result</title>
<polygon fill="white" stroke="transparent" points="-4,4 -4,-188 276,-188 276,4 -4,4"/>
<!-- Node1 -->
<g id="node1" class="node">
<title>Node1</title>
<g id="a_node1"><a xlink:title="A result relative to a lseq part.">
<polygon fill="#bfbfbf" stroke="black" points="0,-82.5 0,-101.5 95,-101.5 95,-82.5 0,-82.5"/>
<text text-anchor="middle" x="47.5" y="-89.5" font-family="Helvetica,sans-Serif" font-size="10.00">lseq_part_result</text>
</a>
</g>
</g>
<!-- Node2 -->
<g id="node2" class="node">
<title>Node2</title>
<g id="a_node2"><a xlink:href="classlseq__part__global__position.html" target="_top" xlink:title="The global coordinates position of a lseq renderable part.">
<polygon fill="white" stroke="black" points="131,-164.5 131,-183.5 272,-183.5 272,-164.5 131,-164.5"/>
<text text-anchor="middle" x="201.5" y="-171.5" font-family="Helvetica,sans-Serif" font-size="10.00">lseq_part_global_position</text>
</a>
</g>
</g>
<!-- Node1&#45;&gt;Node2 -->
<g id="edge1" class="edge">
<title>Node1&#45;&gt;Node2</title>
<path fill="none" stroke="midnightblue" d="M65.73,-108.37C81.55,-122.58 106.24,-142.75 131,-155 138.62,-158.77 147.1,-161.88 155.44,-164.41"/>
<polygon fill="midnightblue" stroke="midnightblue" points="68.04,-105.74 58.31,-101.56 63.31,-110.9 68.04,-105.74"/>
</g>
<!-- Node3 -->
<g id="node3" class="node">
<title>Node3</title>
<g id="a_node3"><a xlink:href="classlseq__part__global__rays.html" target="_top" xlink:title="Saved ray states at a lseq part expressed in global coordinates.">
<polygon fill="white" stroke="black" points="140,-126.5 140,-145.5 263,-145.5 263,-126.5 140,-126.5"/>
<text text-anchor="middle" x="201.5" y="-133.5" font-family="Helvetica,sans-Serif" font-size="10.00">lseq_part_global_rays</text>
</a>
</g>
</g>
<!-- Node1&#45;&gt;Node3 -->
<g id="edge2" class="edge">
<title>Node1&#45;&gt;Node3</title>
<path fill="none" stroke="midnightblue" d="M89.21,-104.58C102.51,-108.62 117.36,-113.07 131,-117 141.94,-120.15 153.88,-123.46 164.73,-126.42"/>
<polygon fill="midnightblue" stroke="midnightblue" points="89.98,-101.15 79.39,-101.58 87.93,-107.85 89.98,-101.15"/>
</g>
<!-- Node4 -->
<g id="node4" class="node">
<title>Node4</title>
<g id="a_node4"><a xlink:href="classlseq__part__propagation__direction.html" target="_top" xlink:title="Propagation direction of the lseq_part_rays.">
<polygon fill="white" stroke="black" points="139,-77 139,-107 264,-107 264,-77 139,-77"/>
<text text-anchor="start" x="147" y="-95" font-family="Helvetica,sans-Serif" font-size="10.00">lseq_part_propagation</text>
<text text-anchor="middle" x="201.5" y="-84" font-family="Helvetica,sans-Serif" font-size="10.00">_direction</text>
</a>
</g>
</g>
<!-- Node1&#45;&gt;Node4 -->
<g id="edge3" class="edge">
<title>Node1&#45;&gt;Node4</title>
<path fill="none" stroke="midnightblue" d="M105.59,-92C116.49,-92 127.94,-92 138.97,-92"/>
<polygon fill="midnightblue" stroke="midnightblue" points="105.35,-88.5 95.35,-92 105.35,-95.5 105.35,-88.5"/>
</g>
<!-- Node5 -->
<g id="node5" class="node">
<title>Node5</title>
<g id="a_node5"><a xlink:href="classlseq__part__rays.html" target="_top" xlink:title="Saved ray states at a lseq part.">
<polygon fill="white" stroke="black" points="157.5,-38.5 157.5,-57.5 245.5,-57.5 245.5,-38.5 157.5,-38.5"/>
<text text-anchor="middle" x="201.5" y="-45.5" font-family="Helvetica,sans-Serif" font-size="10.00">lseq_part_rays</text>
</a>
</g>
</g>
<!-- Node1&#45;&gt;Node5 -->
<g id="edge4" class="edge">
<title>Node1&#45;&gt;Node5</title>
<path fill="none" stroke="midnightblue" d="M91.33,-79.51C104.09,-75.8 118.11,-71.73 131,-68 142.82,-64.58 155.77,-60.85 167.26,-57.54"/>
<polygon fill="midnightblue" stroke="midnightblue" points="90.04,-76.25 81.41,-82.4 91.99,-82.97 90.04,-76.25"/>
</g>
<!-- Node6 -->
<g id="node6" class="node">
<title>Node6</title>
<g id="a_node6"><a xlink:href="classlseq__part__semi__diameter.html" target="_top" xlink:title="Part semi&#45;diameter from the ray states results.">
<polygon fill="white" stroke="black" points="131.5,-0.5 131.5,-19.5 271.5,-19.5 271.5,-0.5 131.5,-0.5"/>
<text text-anchor="middle" x="201.5" y="-7.5" font-family="Helvetica,sans-Serif" font-size="10.00">lseq_part_semi_diameter</text>
</a>
</g>
</g>
<!-- Node1&#45;&gt;Node6 -->
<g id="edge5" class="edge">
<title>Node1&#45;&gt;Node6</title>
<path fill="none" stroke="midnightblue" d="M65.73,-75.63C81.55,-61.42 106.24,-41.25 131,-29 138.62,-25.23 147.1,-22.12 155.44,-19.59"/>
<polygon fill="midnightblue" stroke="midnightblue" points="63.31,-73.1 58.31,-82.44 68.04,-78.26 63.31,-73.1"/>
</g>
</g>
</svg>
