<?xml version="1.0" encoding="UTF-8" standalone="no"?>
<!DOCTYPE svg PUBLIC "-//W3C//DTD SVG 1.1//EN"
 "http://www.w3.org/Graphics/SVG/1.1/DTD/svg11.dtd">
<!-- Generated by graphviz version 2.43.0 (0)
 -->
<!-- Title: lseq_part::compute_global_rays Pages: 1 -->
<svg width="381pt" height="116pt"
 viewBox="0.00 0.00 381.00 115.50" xmlns="http://www.w3.org/2000/svg" xmlns:xlink="http://www.w3.org/1999/xlink">
<g id="graph0" class="graph" transform="scale(1 1) rotate(0) translate(4 111.5)">
<title>lseq_part::compute_global_rays</title>
<polygon fill="white" stroke="transparent" points="-4,4 -4,-111.5 377,-111.5 377,4 -4,4"/>
<!-- Node1 -->
<g id="node1" class="node">
<title>Node1</title>
<g id="a_node1"><a xlink:title="Convert the lseq_part_rays to lseq_part_global_rays.">
<polygon fill="#bfbfbf" stroke="black" points="0,-44.5 0,-74.5 110,-74.5 110,-44.5 0,-44.5"/>
<text text-anchor="start" x="8" y="-62.5" font-family="Helvetica,sans-Serif" font-size="10.00">lseq_part::compute</text>
<text text-anchor="middle" x="55" y="-51.5" font-family="Helvetica,sans-Serif" font-size="10.00">_global_rays</text>
</a>
</g>
</g>
<!-- Node2 -->
<g id="node2" class="node">
<title>Node2</title>
<g id="a_node2"><a xlink:href="classtype__map.html#ab394f2de087619b06e3fa57a75eba5d2" target="_top" xlink:title="Add an element of a type derived from element_type.">
<polygon fill="white" stroke="black" points="153.5,-88 153.5,-107 242.5,-107 242.5,-88 153.5,-88"/>
<text text-anchor="middle" x="198" y="-95" font-family="Helvetica,sans-Serif" font-size="10.00">type_map::add</text>
</a>
</g>
</g>
<!-- Node1&#45;&gt;Node2 -->
<g id="edge1" class="edge">
<title>Node1&#45;&gt;Node2</title>
<path fill="none" stroke="midnightblue" d="M110.11,-74.08C123.85,-77.79 138.47,-81.73 151.72,-85.3"/>
<polygon fill="midnightblue" stroke="midnightblue" points="150.98,-88.72 161.54,-87.94 152.8,-81.96 150.98,-88.72"/>
</g>
<!-- Node3 -->
<g id="node3" class="node">
<title>Node3</title>
<g id="a_node3"><a xlink:href="classtype__map.html#a27e8039ae2b3b19ab57e5fe51126bbcf" target="_top" xlink:title="Get a reference to an element of the map.">
<polygon fill="white" stroke="black" points="286,-28 286,-47 373,-47 373,-28 286,-28"/>
<text text-anchor="middle" x="329.5" y="-35" font-family="Helvetica,sans-Serif" font-size="10.00">type_map::get</text>
</a>
</g>
</g>
<!-- Node1&#45;&gt;Node3 -->
<g id="edge2" class="edge">
<title>Node1&#45;&gt;Node3</title>
<path fill="none" stroke="midnightblue" d="M110.16,-55.13C158.17,-51.25 227.86,-45.63 275.51,-41.78"/>
<polygon fill="midnightblue" stroke="midnightblue" points="275.94,-45.25 285.62,-40.96 275.38,-38.28 275.94,-45.25"/>
</g>
<!-- Node4 -->
<g id="node4" class="node">
<title>Node4</title>
<g id="a_node4"><a xlink:href="classlseq__part.html#aad2940fd8e842caac4cb15aa09100e8a" target="_top" xlink:title="Convert a ray_pack in the part&#39;s LCS to a ray_pack in global coordinates.">
<polygon fill="white" stroke="black" points="146,-0.5 146,-30.5 250,-30.5 250,-0.5 146,-0.5"/>
<text text-anchor="start" x="154" y="-18.5" font-family="Helvetica,sans-Serif" font-size="10.00">lseq_part::rays_to</text>
<text text-anchor="middle" x="198" y="-7.5" font-family="Helvetica,sans-Serif" font-size="10.00">_global</text>
</a>
</g>
</g>
<!-- Node1&#45;&gt;Node4 -->
<g id="edge3" class="edge">
<title>Node1&#45;&gt;Node4</title>
<path fill="none" stroke="midnightblue" d="M104.13,-44.48C115.35,-40.98 127.41,-37.22 139.01,-33.6"/>
<polygon fill="midnightblue" stroke="midnightblue" points="140.1,-36.92 148.61,-30.6 138.02,-30.24 140.1,-36.92"/>
</g>
<!-- Node4&#45;&gt;Node3 -->
<g id="edge4" class="edge">
<title>Node4&#45;&gt;Node3</title>
<path fill="none" stroke="midnightblue" d="M250.18,-24.19C258.53,-25.61 267.18,-27.08 275.57,-28.51"/>
<polygon fill="midnightblue" stroke="midnightblue" points="275.18,-31.99 285.62,-30.22 276.35,-25.09 275.18,-31.99"/>
</g>
</g>
</svg>
