<?xml version="1.0" encoding="UTF-8" standalone="no"?>
<!DOCTYPE svg PUBLIC "-//W3C//DTD SVG 1.1//EN"
 "http://www.w3.org/Graphics/SVG/1.1/DTD/svg11.dtd">
<!-- Generated by graphviz version 2.43.0 (0)
 -->
<!-- Title: lseq_part_global_position Pages: 1 -->
<svg width="262pt" height="106pt"
 viewBox="0.00 0.00 262.00 106.00" xmlns="http://www.w3.org/2000/svg" xmlns:xlink="http://www.w3.org/1999/xlink">
<g id="graph0" class="graph" transform="scale(1 1) rotate(0) translate(4 102)">
<title>lseq_part_global_position</title>
<polygon fill="white" stroke="transparent" points="-4,4 -4,-102 258,-102 258,4 -4,4"/>
<!-- Node1 -->
<g id="node1" class="node">
<title>Node1</title>
<g id="a_node1"><a xlink:title="The global coordinates position of a lseq renderable part.">
<polygon fill="#bfbfbf" stroke="black" points="45,-0.5 45,-19.5 186,-19.5 186,-0.5 45,-0.5"/>
<text text-anchor="middle" x="115.5" y="-7.5" font-family="Helvetica,sans-Serif" font-size="10.00">lseq_part_global_position</text>
</a>
</g>
</g>
<!-- Node2 -->
<g id="node2" class="node">
<title>Node2</title>
<g id="a_node2"><a xlink:href="classlseq__part__result.html" target="_top" xlink:title="A result relative to a lseq part.">
<polygon fill="white" stroke="black" points="0,-73 0,-92 95,-92 95,-73 0,-73"/>
<text text-anchor="middle" x="47.5" y="-80" font-family="Helvetica,sans-Serif" font-size="10.00">lseq_part_result</text>
</a>
</g>
</g>
<!-- Node2&#45;&gt;Node1 -->
<g id="edge1" class="edge">
<title>Node2&#45;&gt;Node1</title>
<path fill="none" stroke="midnightblue" d="M63.13,-65.3C76.81,-51.12 96.15,-31.06 107.09,-19.72"/>
<polygon fill="midnightblue" stroke="midnightblue" points="60.26,-63.23 55.84,-72.86 65.3,-68.09 60.26,-63.23"/>
</g>
<!-- Node3 -->
<g id="node3" class="node">
<title>Node3</title>
<g id="a_node3"><a xlink:href="structlseq__part__global__position_1_1position.html" target="_top" xlink:title="Global coordinates position of the part.">
<polygon fill="white" stroke="black" points="113,-67.5 113,-97.5 254,-97.5 254,-67.5 113,-67.5"/>
<text text-anchor="start" x="121" y="-85.5" font-family="Helvetica,sans-Serif" font-size="10.00">lseq_part_global_position</text>
<text text-anchor="middle" x="183.5" y="-74.5" font-family="Helvetica,sans-Serif" font-size="10.00">::position</text>
</a>
</g>
</g>
<!-- Node3&#45;&gt;Node1 -->
<g id="edge2" class="edge">
<title>Node3&#45;&gt;Node1</title>
<path fill="none" stroke="#9a32cd" stroke-dasharray="5,2" d="M162.53,-59.76C149.59,-46.34 133.68,-29.85 124.08,-19.89"/>
<polygon fill="#9a32cd" stroke="#9a32cd" points="160.28,-62.47 169.74,-67.23 165.32,-57.61 160.28,-62.47"/>
<text text-anchor="middle" x="165" y="-41" font-family="Helvetica,sans-Serif" font-size="10.00"> pose</text>
</g>
</g>
</svg>
