<?xml version="1.0" encoding="UTF-8" standalone="no"?>
<!DOCTYPE svg PUBLIC "-//W3C//DTD SVG 1.1//EN"
 "http://www.w3.org/Graphics/SVG/1.1/DTD/svg11.dtd">
<!-- Generated by graphviz version 2.43.0 (0)
 -->
<!-- Title: lseq_rays Pages: 1 -->
<svg width="202pt" height="296pt"
 viewBox="0.00 0.00 202.00 296.00" xmlns="http://www.w3.org/2000/svg" xmlns:xlink="http://www.w3.org/1999/xlink">
<g id="graph0" class="graph" transform="scale(1 1) rotate(0) translate(4 292)">
<title>lseq_rays</title>
<polygon fill="white" stroke="transparent" points="-4,4 -4,-292 198,-292 198,4 -4,4"/>
<!-- Node1 -->
<g id="node1" class="node">
<title>Node1</title>
<g id="a_node1"><a xlink:title="Input rays to lseq.">
<polygon fill="#bfbfbf" stroke="black" points="36,-0.5 36,-19.5 99,-19.5 99,-0.5 36,-0.5"/>
<text text-anchor="middle" x="67.5" y="-7.5" font-family="Helvetica,sans-Serif" font-size="10.00">lseq_rays</text>
</a>
</g>
</g>
<!-- Node2 -->
<g id="node2" class="node">
<title>Node2</title>
<g id="a_node2"><a xlink:href="classlseq__input.html" target="_top" xlink:title="An input to lseq.">
<polygon fill="white" stroke="black" points="0,-67.5 0,-86.5 67,-86.5 67,-67.5 0,-67.5"/>
<text text-anchor="middle" x="33.5" y="-74.5" font-family="Helvetica,sans-Serif" font-size="10.00">lseq_input</text>
</a>
</g>
</g>
<!-- Node2&#45;&gt;Node1 -->
<g id="edge1" class="edge">
<title>Node2&#45;&gt;Node1</title>
<path fill="none" stroke="midnightblue" d="M42.83,-58.16C49.39,-45.63 57.87,-29.41 62.99,-19.63"/>
<polygon fill="midnightblue" stroke="midnightblue" points="39.62,-56.75 38.09,-67.23 45.82,-60 39.62,-56.75"/>
</g>
<!-- Node3 -->
<g id="node3" class="node">
<title>Node3</title>
<g id="a_node3"><a xlink:title=" ">
<polygon fill="white" stroke="#bfbfbf" points="85,-67.5 85,-86.5 194,-86.5 194,-67.5 85,-67.5"/>
<text text-anchor="middle" x="139.5" y="-74.5" font-family="Helvetica,sans-Serif" font-size="10.00">std::vector&lt; bun &gt;</text>
</a>
</g>
</g>
<!-- Node3&#45;&gt;Node1 -->
<g id="edge2" class="edge">
<title>Node3&#45;&gt;Node1</title>
<path fill="none" stroke="#9a32cd" stroke-dasharray="5,2" d="M122.17,-60.36C108.02,-47.58 88.54,-29.99 77.06,-19.63"/>
<polygon fill="#9a32cd" stroke="#9a32cd" points="120.02,-63.13 129.79,-67.23 124.71,-57.93 120.02,-63.13"/>
<text text-anchor="middle" x="131.5" y="-41" font-family="Helvetica,sans-Serif" font-size="10.00"> ray_buns</text>
</g>
<!-- Node4 -->
<g id="node4" class="node">
<title>Node4</title>
<g id="a_node4"><a xlink:href="classbun.html" target="_top" xlink:title="Class for ray bundles.">
<polygon fill="white" stroke="black" points="122,-134.5 122,-153.5 157,-153.5 157,-134.5 122,-134.5"/>
<text text-anchor="middle" x="139.5" y="-141.5" font-family="Helvetica,sans-Serif" font-size="10.00">bun</text>
</a>
</g>
</g>
<!-- Node4&#45;&gt;Node3 -->
<g id="edge3" class="edge">
<title>Node4&#45;&gt;Node3</title>
<path fill="none" stroke="#9a32cd" stroke-dasharray="5,2" d="M139.5,-124.04C139.5,-111.67 139.5,-96.12 139.5,-86.63"/>
<polygon fill="#9a32cd" stroke="#9a32cd" points="136,-124.23 139.5,-134.23 143,-124.23 136,-124.23"/>
<text text-anchor="middle" x="164" y="-108" font-family="Helvetica,sans-Serif" font-size="10.00"> elements</text>
</g>
<!-- Node5 -->
<g id="node5" class="node">
<title>Node5</title>
<g id="a_node5"><a xlink:title=" ">
<polygon fill="white" stroke="#bfbfbf" points="86,-201.5 86,-220.5 193,-220.5 193,-201.5 86,-201.5"/>
<text text-anchor="middle" x="139.5" y="-208.5" font-family="Helvetica,sans-Serif" font-size="10.00">std::vector&lt; ray &gt;</text>
</a>
</g>
</g>
<!-- Node5&#45;&gt;Node4 -->
<g id="edge4" class="edge">
<title>Node5&#45;&gt;Node4</title>
<path fill="none" stroke="#9a32cd" stroke-dasharray="5,2" d="M139.5,-191.04C139.5,-178.67 139.5,-163.12 139.5,-153.63"/>
<polygon fill="#9a32cd" stroke="#9a32cd" points="136,-191.23 139.5,-201.23 143,-191.23 136,-191.23"/>
<text text-anchor="middle" x="152" y="-175" font-family="Helvetica,sans-Serif" font-size="10.00"> rays</text>
</g>
<!-- Node6 -->
<g id="node6" class="node">
<title>Node6</title>
<g id="a_node6"><a xlink:href="classray.html" target="_top" xlink:title="Class for individual rays.">
<polygon fill="white" stroke="black" points="123.5,-268.5 123.5,-287.5 155.5,-287.5 155.5,-268.5 123.5,-268.5"/>
<text text-anchor="middle" x="139.5" y="-275.5" font-family="Helvetica,sans-Serif" font-size="10.00">ray</text>
</a>
</g>
</g>
<!-- Node6&#45;&gt;Node5 -->
<g id="edge5" class="edge">
<title>Node6&#45;&gt;Node5</title>
<path fill="none" stroke="#9a32cd" stroke-dasharray="5,2" d="M139.5,-258.04C139.5,-245.67 139.5,-230.12 139.5,-220.63"/>
<polygon fill="#9a32cd" stroke="#9a32cd" points="136,-258.23 139.5,-268.23 143,-258.23 136,-258.23"/>
<text text-anchor="middle" x="164" y="-242" font-family="Helvetica,sans-Serif" font-size="10.00"> elements</text>
</g>
</g>
</svg>
