<?xml version="1.0" encoding="UTF-8" standalone="no"?>
<!DOCTYPE svg PUBLIC "-//W3C//DTD SVG 1.1//EN"
 "http://www.w3.org/Graphics/SVG/1.1/DTD/svg11.dtd">
<!-- Generated by graphviz version 2.43.0 (0)
 -->
<!-- Title: lseq_part_global_rays Pages: 1 -->
<svg width="230pt" height="296pt"
 viewBox="0.00 0.00 230.00 296.00" xmlns="http://www.w3.org/2000/svg" xmlns:xlink="http://www.w3.org/1999/xlink">
<g id="graph0" class="graph" transform="scale(1 1) rotate(0) translate(4 292)">
<title>lseq_part_global_rays</title>
<polygon fill="white" stroke="transparent" points="-4,4 -4,-292 226,-292 226,4 -4,4"/>
<!-- Node1 -->
<g id="node1" class="node">
<title>Node1</title>
<g id="a_node1"><a xlink:title="Saved ray states at a lseq part expressed in global coordinates.">
<polygon fill="#bfbfbf" stroke="black" points="24,-0.5 24,-19.5 147,-19.5 147,-0.5 24,-0.5"/>
<text text-anchor="middle" x="85.5" y="-7.5" font-family="Helvetica,sans-Serif" font-size="10.00">lseq_part_global_rays</text>
</a>
</g>
</g>
<!-- Node2 -->
<g id="node2" class="node">
<title>Node2</title>
<g id="a_node2"><a xlink:href="classlseq__part__result.html" target="_top" xlink:title="A result relative to a lseq part.">
<polygon fill="white" stroke="black" points="0,-67.5 0,-86.5 95,-86.5 95,-67.5 0,-67.5"/>
<text text-anchor="middle" x="47.5" y="-74.5" font-family="Helvetica,sans-Serif" font-size="10.00">lseq_part_result</text>
</a>
</g>
</g>
<!-- Node2&#45;&gt;Node1 -->
<g id="edge1" class="edge">
<title>Node2&#45;&gt;Node1</title>
<path fill="none" stroke="midnightblue" d="M57.71,-58.53C65.07,-45.95 74.68,-29.51 80.46,-19.63"/>
<polygon fill="midnightblue" stroke="midnightblue" points="54.65,-56.83 52.62,-67.23 60.69,-60.37 54.65,-56.83"/>
</g>
<!-- Node3 -->
<g id="node3" class="node">
<title>Node3</title>
<g id="a_node3"><a xlink:title=" ">
<polygon fill="white" stroke="#bfbfbf" points="113,-67.5 113,-86.5 222,-86.5 222,-67.5 113,-67.5"/>
<text text-anchor="middle" x="167.5" y="-74.5" font-family="Helvetica,sans-Serif" font-size="10.00">std::vector&lt; bun &gt;</text>
</a>
</g>
</g>
<!-- Node3&#45;&gt;Node1 -->
<g id="edge2" class="edge">
<title>Node3&#45;&gt;Node1</title>
<path fill="none" stroke="#9a32cd" stroke-dasharray="5,2" d="M148.22,-60.71C132.06,-47.91 109.58,-30.09 96.38,-19.63"/>
<polygon fill="#9a32cd" stroke="#9a32cd" points="146.43,-63.76 156.44,-67.23 150.78,-58.28 146.43,-63.76"/>
<text text-anchor="middle" x="154.5" y="-41" font-family="Helvetica,sans-Serif" font-size="10.00"> ray_buns</text>
</g>
<!-- Node4 -->
<g id="node4" class="node">
<title>Node4</title>
<g id="a_node4"><a xlink:href="classbun.html" target="_top" xlink:title="Class for ray bundles.">
<polygon fill="white" stroke="black" points="150,-134.5 150,-153.5 185,-153.5 185,-134.5 150,-134.5"/>
<text text-anchor="middle" x="167.5" y="-141.5" font-family="Helvetica,sans-Serif" font-size="10.00">bun</text>
</a>
</g>
</g>
<!-- Node4&#45;&gt;Node3 -->
<g id="edge3" class="edge">
<title>Node4&#45;&gt;Node3</title>
<path fill="none" stroke="#9a32cd" stroke-dasharray="5,2" d="M167.5,-124.04C167.5,-111.67 167.5,-96.12 167.5,-86.63"/>
<polygon fill="#9a32cd" stroke="#9a32cd" points="164,-124.23 167.5,-134.23 171,-124.23 164,-124.23"/>
<text text-anchor="middle" x="192" y="-108" font-family="Helvetica,sans-Serif" font-size="10.00"> elements</text>
</g>
<!-- Node5 -->
<g id="node5" class="node">
<title>Node5</title>
<g id="a_node5"><a xlink:title=" ">
<polygon fill="white" stroke="#bfbfbf" points="114,-201.5 114,-220.5 221,-220.5 221,-201.5 114,-201.5"/>
<text text-anchor="middle" x="167.5" y="-208.5" font-family="Helvetica,sans-Serif" font-size="10.00">std::vector&lt; ray &gt;</text>
</a>
</g>
</g>
<!-- Node5&#45;&gt;Node4 -->
<g id="edge4" class="edge">
<title>Node5&#45;&gt;Node4</title>
<path fill="none" stroke="#9a32cd" stroke-dasharray="5,2" d="M167.5,-191.04C167.5,-178.67 167.5,-163.12 167.5,-153.63"/>
<polygon fill="#9a32cd" stroke="#9a32cd" points="164,-191.23 167.5,-201.23 171,-191.23 164,-191.23"/>
<text text-anchor="middle" x="180" y="-175" font-family="Helvetica,sans-Serif" font-size="10.00"> rays</text>
</g>
<!-- Node6 -->
<g id="node6" class="node">
<title>Node6</title>
<g id="a_node6"><a xlink:href="classray.html" target="_top" xlink:title="Class for individual rays.">
<polygon fill="white" stroke="black" points="151.5,-268.5 151.5,-287.5 183.5,-287.5 183.5,-268.5 151.5,-268.5"/>
<text text-anchor="middle" x="167.5" y="-275.5" font-family="Helvetica,sans-Serif" font-size="10.00">ray</text>
</a>
</g>
</g>
<!-- Node6&#45;&gt;Node5 -->
<g id="edge5" class="edge">
<title>Node6&#45;&gt;Node5</title>
<path fill="none" stroke="#9a32cd" stroke-dasharray="5,2" d="M167.5,-258.04C167.5,-245.67 167.5,-230.12 167.5,-220.63"/>
<polygon fill="#9a32cd" stroke="#9a32cd" points="164,-258.23 167.5,-268.23 171,-258.23 164,-258.23"/>
<text text-anchor="middle" x="192" y="-242" font-family="Helvetica,sans-Serif" font-size="10.00"> elements</text>
</g>
</g>
</svg>
