<?xml version="1.0" encoding="UTF-8" standalone="no"?>
<!DOCTYPE svg PUBLIC "-//W3C//DTD SVG 1.1//EN"
 "http://www.w3.org/Graphics/SVG/1.1/DTD/svg11.dtd">
<!-- Generated by graphviz version 2.43.0 (0)
 -->
<!-- Title: transfer_part Pages: 1 -->
<svg width="120pt" height="95pt"
 viewBox="0.00 0.00 120.00 95.00" xmlns="http://www.w3.org/2000/svg" xmlns:xlink="http://www.w3.org/1999/xlink">
<g id="graph0" class="graph" transform="scale(1 1) rotate(0) translate(4 91)">
<title>transfer_part</title>
<polygon fill="white" stroke="transparent" points="-4,4 -4,-91 116,-91 116,4 -4,4"/>
<!-- Node1 -->
<g id="node1" class="node">
<title>Node1</title>
<g id="a_node1"><a xlink:title="Part which applies a transfer operation to rays.">
<polygon fill="#bfbfbf" stroke="black" points="11.5,-0.5 11.5,-19.5 91.5,-19.5 91.5,-0.5 11.5,-0.5"/>
<text text-anchor="middle" x="51.5" y="-7.5" font-family="Helvetica,sans-Serif" font-size="10.00">transfer_part</text>
</a>
</g>
</g>
<!-- Node2 -->
<g id="node2" class="node">
<title>Node2</title>
<g id="a_node2"><a xlink:href="classlpart.html" target="_top" xlink:title="Virtual class for elementary optical parts which can be applied to ray bundles.">
<polygon fill="white" stroke="black" points="0,-67.5 0,-86.5 39,-86.5 39,-67.5 0,-67.5"/>
<text text-anchor="middle" x="19.5" y="-74.5" font-family="Helvetica,sans-Serif" font-size="10.00">lpart</text>
</a>
</g>
</g>
<!-- Node2&#45;&gt;Node1 -->
<g id="edge1" class="edge">
<title>Node2&#45;&gt;Node1</title>
<path fill="none" stroke="midnightblue" d="M28.28,-58.16C34.45,-45.63 42.44,-29.41 47.25,-19.63"/>
<polygon fill="midnightblue" stroke="midnightblue" points="25.09,-56.72 23.82,-67.23 31.37,-59.81 25.09,-56.72"/>
</g>
<!-- Node3 -->
<g id="node3" class="node">
<title>Node3</title>
<g id="a_node3"><a xlink:href="classtransfer.html" target="_top" xlink:title="Transfer operation over a ray.">
<polygon fill="white" stroke="black" points="57,-67.5 57,-86.5 112,-86.5 112,-67.5 57,-67.5"/>
<text text-anchor="middle" x="84.5" y="-74.5" font-family="Helvetica,sans-Serif" font-size="10.00">transfer</text>
</a>
</g>
</g>
<!-- Node3&#45;&gt;Node1 -->
<g id="edge2" class="edge">
<title>Node3&#45;&gt;Node1</title>
<path fill="none" stroke="#9a32cd" stroke-dasharray="5,2" d="M75.44,-58.16C69.08,-45.63 60.85,-29.41 55.88,-19.63"/>
<polygon fill="#9a32cd" stroke="#9a32cd" points="72.4,-59.9 80.05,-67.23 78.64,-56.73 72.4,-59.9"/>
<text text-anchor="middle" x="77" y="-41" font-family="Helvetica,sans-Serif" font-size="10.00"> trf</text>
</g>
</g>
</svg>
