<?xml version="1.0" encoding="UTF-8" standalone="no"?>
<!DOCTYPE svg PUBLIC "-//W3C//DTD SVG 1.1//EN"
 "http://www.w3.org/Graphics/SVG/1.1/DTD/svg11.dtd">
<!-- Generated by graphviz version 2.43.0 (0)
 -->
<!-- Title: lpart Pages: 1 -->
<svg width="397pt" height="84pt"
 viewBox="0.00 0.00 396.50 84.00" xmlns="http://www.w3.org/2000/svg" xmlns:xlink="http://www.w3.org/1999/xlink">
<g id="graph0" class="graph" transform="scale(1 1) rotate(0) translate(4 80)">
<title>lpart</title>
<polygon fill="white" stroke="transparent" points="-4,4 -4,-80 392.5,-80 392.5,4 -4,4"/>
<!-- Node1 -->
<g id="node1" class="node">
<title>Node1</title>
<g id="a_node1"><a xlink:title="Virtual class for elementary optical parts which can be applied to ray bundles.">
<polygon fill="#bfbfbf" stroke="black" points="202,-56.5 202,-75.5 241,-75.5 241,-56.5 202,-56.5"/>
<text text-anchor="middle" x="221.5" y="-63.5" font-family="Helvetica,sans-Serif" font-size="10.00">lpart</text>
</a>
</g>
</g>
<!-- Node2 -->
<g id="node2" class="node">
<title>Node2</title>
<g id="a_node2"><a xlink:href="classshape__reflect__part.html" target="_top" xlink:title="Class template implementing the specialized lparts for reflective shape parts.">
<polygon fill="white" stroke="black" points="0,-0.5 0,-19.5 135,-19.5 135,-0.5 0,-0.5"/>
<text text-anchor="middle" x="67.5" y="-7.5" font-family="Helvetica,sans-Serif" font-size="10.00">shape_reflect_part&lt; T &gt;</text>
</a>
</g>
</g>
<!-- Node1&#45;&gt;Node2 -->
<g id="edge1" class="edge">
<title>Node1&#45;&gt;Node2</title>
<path fill="none" stroke="midnightblue" d="M192.4,-54.8C163.35,-44.61 119.2,-29.13 91.92,-19.56"/>
<polygon fill="midnightblue" stroke="midnightblue" points="191.4,-58.15 202,-58.16 193.72,-51.55 191.4,-58.15"/>
</g>
<!-- Node3 -->
<g id="node3" class="node">
<title>Node3</title>
<g id="a_node3"><a xlink:href="classshape__refract__part.html" target="_top" xlink:title="Class template implementing the specialized lparts for refractive shape parts.">
<polygon fill="white" stroke="black" points="153,-0.5 153,-19.5 290,-19.5 290,-0.5 153,-0.5"/>
<text text-anchor="middle" x="221.5" y="-7.5" font-family="Helvetica,sans-Serif" font-size="10.00">shape_refract_part&lt; T &gt;</text>
</a>
</g>
</g>
<!-- Node1&#45;&gt;Node3 -->
<g id="edge2" class="edge">
<title>Node1&#45;&gt;Node3</title>
<path fill="none" stroke="midnightblue" d="M221.5,-45.8C221.5,-36.91 221.5,-26.78 221.5,-19.75"/>
<polygon fill="midnightblue" stroke="midnightblue" points="218,-46.08 221.5,-56.08 225,-46.08 218,-46.08"/>
</g>
<!-- Node4 -->
<g id="node4" class="node">
<title>Node4</title>
<g id="a_node4"><a xlink:href="classtransfer__part.html" target="_top" xlink:title="Part which applies a transfer operation to rays.">
<polygon fill="white" stroke="black" points="308.5,-0.5 308.5,-19.5 388.5,-19.5 388.5,-0.5 308.5,-0.5"/>
<text text-anchor="middle" x="348.5" y="-7.5" font-family="Helvetica,sans-Serif" font-size="10.00">transfer_part</text>
</a>
</g>
</g>
<!-- Node1&#45;&gt;Node4 -->
<g id="edge3" class="edge">
<title>Node1&#45;&gt;Node4</title>
<path fill="none" stroke="midnightblue" d="M250.31,-52.75C274.09,-42.64 307.24,-28.55 328.28,-19.6"/>
<polygon fill="midnightblue" stroke="midnightblue" points="248.9,-49.55 241.07,-56.68 251.64,-55.99 248.9,-49.55"/>
</g>
</g>
</svg>
