<?xml version="1.0" encoding="UTF-8" standalone="no"?>
<!DOCTYPE svg PUBLIC "-//W3C//DTD SVG 1.1//EN"
 "http://www.w3.org/Graphics/SVG/1.1/DTD/svg11.dtd">
<!-- Generated by graphviz version 2.43.0 (0)
 -->
<!-- Title: src/pinyo/src Pages: 1 -->
<svg width="113pt" height="303pt"
 viewBox="0.00 0.00 113.00 303.00" xmlns="http://www.w3.org/2000/svg" xmlns:xlink="http://www.w3.org/1999/xlink">
<g id="graph0" class="graph" transform="scale(1 1) rotate(0) translate(4 299)">
<title>src/pinyo/src</title>
<polygon fill="white" stroke="transparent" points="-4,4 -4,-299 109,-299 109,4 -4,4"/>
<g id="clust1" class="cluster">
<title>clusterdir_c6fca281b1af8dc0c1caba68f1484a97</title>
<g id="a_clust1"><a xlink:href="dir_c6fca281b1af8dc0c1caba68f1484a97.html" target="_top" xlink:title="pinyo">
<polygon fill="#ddddee" stroke="black" points="8,-56 8,-287 94,-287 94,-56 8,-56"/>
<text text-anchor="middle" x="51" y="-275" font-family="Helvetica,sans-Serif" font-size="10.00">pinyo</text>
</a>
</g>
</g>
<g id="clust2" class="cluster">
<title>clusterdir_6a9bba52620ea513663b01d2e3f3cad0</title>
<g id="a_clust2"><a xlink:href="dir_6a9bba52620ea513663b01d2e3f3cad0.html" target="_top">
<polygon fill="#eeeeff" stroke="black" points="16,-64 16,-260 86,-260 86,-64 16,-64"/>
</a>
</g>
</g>
<!-- dir_6a9bba52620ea513663b01d2e3f3cad0 -->
<g id="node1" class="node">
<title>dir_6a9bba52620ea513663b01d2e3f3cad0</title>
<text text-anchor="middle" x="51" y="-231.5" font-family="Helvetica,sans-Serif" font-size="10.00">src</text>
</g>
<!-- dir_e935eabe7539dd494083ff7e3d1bb016 -->
<g id="node3" class="node">
<title>dir_e935eabe7539dd494083ff7e3d1bb016</title>
<g id="a_node3"><a xlink:href="dir_e935eabe7539dd494083ff7e3d1bb016.html" target="_top" xlink:title="lpart">
<polygon fill="white" stroke="black" points="78,-180 24,-180 24,-144 78,-144 78,-180"/>
<text text-anchor="middle" x="51" y="-159.5" font-family="Helvetica,sans-Serif" font-size="10.00">lpart</text>
</a>
</g>
</g>
<!-- dir_6a9bba52620ea513663b01d2e3f3cad0&#45;&gt;dir_e935eabe7539dd494083ff7e3d1bb016 -->
<g id="edge1" class="edge">
<title>dir_6a9bba52620ea513663b01d2e3f3cad0&#45;&gt;dir_e935eabe7539dd494083ff7e3d1bb016</title>
<path fill="none" stroke="black" d="M51,-215.7C51,-207.98 51,-198.71 51,-190.11"/>
<polygon fill="black" stroke="black" points="54.5,-190.1 51,-180.1 47.5,-190.1 54.5,-190.1"/>
<g id="a_edge1&#45;headlabel"><a xlink:href="dir_000008_000010.html" target="_top" xlink:title="3">
<text text-anchor="middle" x="57.34" y="-191.2" font-family="Helvetica,sans-Serif" font-size="10.00">3</text>
</a>
</g>
</g>
<!-- dir_024448a7990ce35bf5a5191da0737bfe -->
<g id="node2" class="node">
<title>dir_024448a7990ce35bf5a5191da0737bfe</title>
<g id="a_node2"><a xlink:href="dir_024448a7990ce35bf5a5191da0737bfe.html" target="_top" xlink:title="bun">
<polygon fill="white" stroke="black" points="78,-108 24,-108 24,-72 78,-72 78,-108"/>
<text text-anchor="middle" x="51" y="-87.5" font-family="Helvetica,sans-Serif" font-size="10.00">bun</text>
</a>
</g>
</g>
<!-- dir_ef0729d358a3efbbde6a371d60ca8e59 -->
<g id="node4" class="node">
<title>dir_ef0729d358a3efbbde6a371d60ca8e59</title>
<g id="a_node4"><a xlink:href="dir_ef0729d358a3efbbde6a371d60ca8e59.html" target="_top" xlink:title="poaky">
<polygon fill="white" stroke="red" points="105,-36 51,-36 51,0 105,0 105,-36"/>
<text text-anchor="middle" x="78" y="-15.5" font-family="Helvetica,sans-Serif" font-size="10.00">poaky</text>
</a>
</g>
</g>
<!-- dir_024448a7990ce35bf5a5191da0737bfe&#45;&gt;dir_ef0729d358a3efbbde6a371d60ca8e59 -->
<g id="edge4" class="edge">
<title>dir_024448a7990ce35bf5a5191da0737bfe&#45;&gt;dir_ef0729d358a3efbbde6a371d60ca8e59</title>
<path fill="none" stroke="black" d="M57.67,-71.7C60.71,-63.81 64.38,-54.3 67.76,-45.55"/>
<polygon fill="black" stroke="black" points="71.07,-46.69 71.4,-36.1 64.54,-44.17 71.07,-46.69"/>
<g id="a_edge4&#45;headlabel"><a xlink:href="dir_000009_000011.html" target="_top" xlink:title="1">
<text text-anchor="middle" x="72.42" y="-48.57" font-family="Helvetica,sans-Serif" font-size="10.00">1</text>
</a>
</g>
</g>
<!-- dir_e935eabe7539dd494083ff7e3d1bb016&#45;&gt;dir_024448a7990ce35bf5a5191da0737bfe -->
<g id="edge2" class="edge">
<title>dir_e935eabe7539dd494083ff7e3d1bb016&#45;&gt;dir_024448a7990ce35bf5a5191da0737bfe</title>
<path fill="none" stroke="black" d="M51,-143.7C51,-135.98 51,-126.71 51,-118.11"/>
<polygon fill="black" stroke="black" points="54.5,-118.1 51,-108.1 47.5,-118.1 54.5,-118.1"/>
<g id="a_edge2&#45;headlabel"><a xlink:href="dir_000010_000009.html" target="_top" xlink:title="1">
<text text-anchor="middle" x="57.34" y="-119.2" font-family="Helvetica,sans-Serif" font-size="10.00">1</text>
</a>
</g>
</g>
<!-- dir_e935eabe7539dd494083ff7e3d1bb016&#45;&gt;dir_ef0729d358a3efbbde6a371d60ca8e59 -->
<g id="edge3" class="edge">
<title>dir_e935eabe7539dd494083ff7e3d1bb016&#45;&gt;dir_ef0729d358a3efbbde6a371d60ca8e59</title>
<path fill="none" stroke="black" d="M66.61,-143.77C74.37,-134.03 82.95,-121.18 87,-108 93.22,-87.77 90.27,-63.87 86.15,-45.92"/>
<polygon fill="black" stroke="black" points="89.51,-44.95 83.65,-36.12 82.73,-46.68 89.51,-44.95"/>
<g id="a_edge3&#45;headlabel"><a xlink:href="dir_000010_000011.html" target="_top" xlink:title="2">
<text text-anchor="middle" x="93.15" y="-45.23" font-family="Helvetica,sans-Serif" font-size="10.00">2</text>
</a>
</g>
</g>
</g>
</svg>
