<?xml version="1.0" encoding="UTF-8" standalone="no"?>
<!DOCTYPE svg PUBLIC "-//W3C//DTD SVG 1.1//EN"
 "http://www.w3.org/Graphics/SVG/1.1/DTD/svg11.dtd">
<!-- Generated by graphviz version 2.43.0 (0)
 -->
<!-- Title: src/pewit/src Pages: 1 -->
<svg width="374pt" height="231pt"
 viewBox="0.00 0.00 374.00 231.00" xmlns="http://www.w3.org/2000/svg" xmlns:xlink="http://www.w3.org/1999/xlink">
<g id="graph0" class="graph" transform="scale(1 1) rotate(0) translate(4 227)">
<title>src/pewit/src</title>
<polygon fill="white" stroke="transparent" points="-4,4 -4,-227 370,-227 370,4 -4,4"/>
<g id="clust1" class="cluster">
<title>clusterdir_7fcbd8a0235fa4958859382322a6b434</title>
<g id="a_clust1"><a xlink:href="dir_7fcbd8a0235fa4958859382322a6b434.html" target="_top" xlink:title="pewit">
<polygon fill="#ddddee" stroke="black" points="8,-56 8,-215 304,-215 304,-56 8,-56"/>
<text text-anchor="middle" x="156" y="-203" font-family="Helvetica,sans-Serif" font-size="10.00">pewit</text>
</a>
</g>
</g>
<g id="clust2" class="cluster">
<title>clusterdir_e594e71d69e76d9dfec8ababe8977b3e</title>
<g id="a_clust2"><a xlink:href="dir_e594e71d69e76d9dfec8ababe8977b3e.html" target="_top">
<polygon fill="#eeeeff" stroke="black" points="16,-64 16,-188 296,-188 296,-64 16,-64"/>
</a>
</g>
</g>
<!-- dir_e594e71d69e76d9dfec8ababe8977b3e -->
<g id="node1" class="node">
<title>dir_e594e71d69e76d9dfec8ababe8977b3e</title>
<text text-anchor="middle" x="206" y="-159.5" font-family="Helvetica,sans-Serif" font-size="10.00">src</text>
</g>
<!-- dir_f826e10d2875c7bb9e7e4de0d9574e7c -->
<g id="node2" class="node">
<title>dir_f826e10d2875c7bb9e7e4de0d9574e7c</title>
<g id="a_node2"><a xlink:href="dir_f826e10d2875c7bb9e7e4de0d9574e7c.html" target="_top" xlink:title="lseq_input">
<polygon fill="white" stroke="black" points="91.5,-108 24.5,-108 24.5,-72 91.5,-72 91.5,-108"/>
<text text-anchor="middle" x="58" y="-87.5" font-family="Helvetica,sans-Serif" font-size="10.00">lseq_input</text>
</a>
</g>
</g>
<!-- dir_e594e71d69e76d9dfec8ababe8977b3e&#45;&gt;dir_f826e10d2875c7bb9e7e4de0d9574e7c -->
<g id="edge4" class="edge">
<title>dir_e594e71d69e76d9dfec8ababe8977b3e&#45;&gt;dir_f826e10d2875c7bb9e7e4de0d9574e7c</title>
<path fill="none" stroke="black" d="M178.85,-148.16C157.1,-137.87 126.17,-123.24 101.04,-111.36"/>
<polygon fill="black" stroke="black" points="102.26,-108.06 91.73,-106.95 99.27,-114.39 102.26,-108.06"/>
<g id="a_edge4&#45;headlabel"><a xlink:href="dir_000003_000004.html" target="_top" xlink:title="2">
<text text-anchor="middle" x="106.73" y="-104.53" font-family="Helvetica,sans-Serif" font-size="10.00">2</text>
</a>
</g>
</g>
<!-- dir_a29c9ebfc3e25d8de0b8aec59e4a1c4c -->
<g id="node3" class="node">
<title>dir_a29c9ebfc3e25d8de0b8aec59e4a1c4c</title>
<g id="a_node3"><a xlink:href="dir_a29c9ebfc3e25d8de0b8aec59e4a1c4c.html" target="_top" xlink:title="lseq_part_result">
<polygon fill="white" stroke="black" points="204.5,-108 109.5,-108 109.5,-72 204.5,-72 204.5,-108"/>
<text text-anchor="middle" x="157" y="-87.5" font-family="Helvetica,sans-Serif" font-size="10.00">lseq_part_result</text>
</a>
</g>
</g>
<!-- dir_e594e71d69e76d9dfec8ababe8977b3e&#45;&gt;dir_a29c9ebfc3e25d8de0b8aec59e4a1c4c -->
<g id="edge2" class="edge">
<title>dir_e594e71d69e76d9dfec8ababe8977b3e&#45;&gt;dir_a29c9ebfc3e25d8de0b8aec59e4a1c4c</title>
<path fill="none" stroke="black" d="M193.89,-143.7C188.13,-135.47 181.14,-125.48 174.79,-116.42"/>
<polygon fill="black" stroke="black" points="177.58,-114.29 168.97,-108.1 171.84,-118.3 177.58,-114.29"/>
<g id="a_edge2&#45;headlabel"><a xlink:href="dir_000003_000005.html" target="_top" xlink:title="5">
<text text-anchor="middle" x="181.96" y="-113.11" font-family="Helvetica,sans-Serif" font-size="10.00">5</text>
</a>
</g>
</g>
<!-- dir_782cfb18699927a06abe17ea083a7417 -->
<g id="node4" class="node">
<title>dir_782cfb18699927a06abe17ea083a7417</title>
<g id="a_node4"><a xlink:href="dir_782cfb18699927a06abe17ea083a7417.html" target="_top" xlink:title="type_map">
<polygon fill="white" stroke="black" points="287.5,-108 222.5,-108 222.5,-72 287.5,-72 287.5,-108"/>
<text text-anchor="middle" x="255" y="-87.5" font-family="Helvetica,sans-Serif" font-size="10.00">type_map</text>
</a>
</g>
</g>
<!-- dir_e594e71d69e76d9dfec8ababe8977b3e&#45;&gt;dir_782cfb18699927a06abe17ea083a7417 -->
<g id="edge1" class="edge">
<title>dir_e594e71d69e76d9dfec8ababe8977b3e&#45;&gt;dir_782cfb18699927a06abe17ea083a7417</title>
<path fill="none" stroke="black" d="M218.11,-143.7C223.87,-135.47 230.86,-125.48 237.21,-116.42"/>
<polygon fill="black" stroke="black" points="240.16,-118.3 243.03,-108.1 234.42,-114.29 240.16,-118.3"/>
<g id="a_edge1&#45;headlabel"><a xlink:href="dir_000003_000006.html" target="_top" xlink:title="2">
<text text-anchor="middle" x="240.42" y="-120.38" font-family="Helvetica,sans-Serif" font-size="10.00">2</text>
</a>
</g>
</g>
<!-- dir_c6fca281b1af8dc0c1caba68f1484a97 -->
<g id="node5" class="node">
<title>dir_c6fca281b1af8dc0c1caba68f1484a97</title>
<g id="a_node5"><a xlink:href="dir_c6fca281b1af8dc0c1caba68f1484a97.html" target="_top" xlink:title="pinyo">
<polygon fill="white" stroke="red" points="366,-108 312,-108 312,-72 366,-72 366,-108"/>
<text text-anchor="middle" x="339" y="-87.5" font-family="Helvetica,sans-Serif" font-size="10.00">pinyo</text>
</a>
</g>
</g>
<!-- dir_e594e71d69e76d9dfec8ababe8977b3e&#45;&gt;dir_c6fca281b1af8dc0c1caba68f1484a97 -->
<g id="edge3" class="edge">
<title>dir_e594e71d69e76d9dfec8ababe8977b3e&#45;&gt;dir_c6fca281b1af8dc0c1caba68f1484a97</title>
<path fill="none" stroke="black" d="M233.24,-146.67C253.32,-136.1 280.84,-121.61 302.78,-110.06"/>
<polygon fill="black" stroke="black" points="304.58,-113.07 311.8,-105.32 301.32,-106.88 304.58,-113.07"/>
<g id="a_edge3&#45;headlabel"><a xlink:href="dir_000003_000007.html" target="_top" xlink:title="3">
<text text-anchor="middle" x="302.72" y="-114.76" font-family="Helvetica,sans-Serif" font-size="10.00">3</text>
</a>
</g>
</g>
<!-- dir_ef0729d358a3efbbde6a371d60ca8e59 -->
<g id="node6" class="node">
<title>dir_ef0729d358a3efbbde6a371d60ca8e59</title>
<g id="a_node6"><a xlink:href="dir_ef0729d358a3efbbde6a371d60ca8e59.html" target="_top" xlink:title="poaky">
<polygon fill="white" stroke="red" points="275,-36 221,-36 221,0 275,0 275,-36"/>
<text text-anchor="middle" x="248" y="-15.5" font-family="Helvetica,sans-Serif" font-size="10.00">poaky</text>
</a>
</g>
</g>
<!-- dir_a29c9ebfc3e25d8de0b8aec59e4a1c4c&#45;&gt;dir_ef0729d358a3efbbde6a371d60ca8e59 -->
<g id="edge5" class="edge">
<title>dir_a29c9ebfc3e25d8de0b8aec59e4a1c4c&#45;&gt;dir_ef0729d358a3efbbde6a371d60ca8e59</title>
<path fill="none" stroke="black" d="M179.49,-71.7C190.96,-62.88 205.06,-52.03 217.48,-42.47"/>
<polygon fill="black" stroke="black" points="219.97,-44.98 225.76,-36.1 215.7,-39.43 219.97,-44.98"/>
<g id="a_edge5&#45;headlabel"><a xlink:href="dir_000005_000011.html" target="_top" xlink:title="1">
<text text-anchor="middle" x="218.85" y="-46.92" font-family="Helvetica,sans-Serif" font-size="10.00">1</text>
</a>
</g>
</g>
<!-- dir_c6fca281b1af8dc0c1caba68f1484a97&#45;&gt;dir_ef0729d358a3efbbde6a371d60ca8e59 -->
<g id="edge6" class="edge">
<title>dir_c6fca281b1af8dc0c1caba68f1484a97&#45;&gt;dir_ef0729d358a3efbbde6a371d60ca8e59</title>
<path fill="none" stroke="black" d="M319.42,-71.88C313.29,-66.67 306.44,-61.01 300,-56 294.04,-51.37 287.58,-46.59 281.3,-42.07"/>
<polygon fill="black" stroke="black" points="283.08,-39.04 272.91,-36.09 279.02,-44.74 283.08,-39.04"/>
<g id="a_edge6&#45;headlabel"><a xlink:href="dir_000007_000011.html" target="_top" xlink:title="3">
<text text-anchor="middle" x="287.66" y="-36.32" font-family="Helvetica,sans-Serif" font-size="10.00">3</text>
</a>
</g>
</g>
</g>
</svg>
