<?xml version="1.0" encoding="UTF-8" standalone="no"?>
<!DOCTYPE svg PUBLIC "-//W3C//DTD SVG 1.1//EN"
 "http://www.w3.org/Graphics/SVG/1.1/DTD/svg11.dtd">
<!-- Generated by graphviz version 2.43.0 (0)
 -->
<!-- Title: src/poaky/src Pages: 1 -->
<svg width="256pt" height="327pt"
 viewBox="0.00 0.00 256.00 327.00" xmlns="http://www.w3.org/2000/svg" xmlns:xlink="http://www.w3.org/1999/xlink">
<g id="graph0" class="graph" transform="scale(1 1) rotate(0) translate(4 323)">
<title>src/poaky/src</title>
<polygon fill="white" stroke="transparent" points="-4,4 -4,-323 252,-323 252,4 -4,4"/>
<g id="clust1" class="cluster">
<title>clusterdir_ef0729d358a3efbbde6a371d60ca8e59</title>
<g id="a_clust1"><a xlink:href="dir_ef0729d358a3efbbde6a371d60ca8e59.html" target="_top" xlink:title="poaky">
<polygon fill="#ddddee" stroke="black" points="8,-8 8,-311 240,-311 240,-8 8,-8"/>
<text text-anchor="middle" x="124" y="-299" font-family="Helvetica,sans-Serif" font-size="10.00">poaky</text>
</a>
</g>
</g>
<g id="clust2" class="cluster">
<title>clusterdir_e7530d4cdd90fff341d258fb1dddb748</title>
<g id="a_clust2"><a xlink:href="dir_e7530d4cdd90fff341d258fb1dddb748.html" target="_top">
<polygon fill="#eeeeff" stroke="black" points="16,-16 16,-284 232,-284 232,-16 16,-16"/>
</a>
</g>
</g>
<!-- dir_e7530d4cdd90fff341d258fb1dddb748 -->
<g id="node1" class="node">
<title>dir_e7530d4cdd90fff341d258fb1dddb748</title>
<text text-anchor="middle" x="123" y="-255.5" font-family="Helvetica,sans-Serif" font-size="10.00">src</text>
</g>
<!-- dir_d55f5d07856f435860c4aa9080c7385e -->
<g id="node4" class="node">
<title>dir_d55f5d07856f435860c4aa9080c7385e</title>
<g id="a_node4"><a xlink:href="dir_d55f5d07856f435860c4aa9080c7385e.html" target="_top" xlink:title="rop">
<polygon fill="white" stroke="black" points="78,-204 24,-204 24,-168 78,-168 78,-204"/>
<text text-anchor="middle" x="51" y="-183.5" font-family="Helvetica,sans-Serif" font-size="10.00">rop</text>
</a>
</g>
</g>
<!-- dir_e7530d4cdd90fff341d258fb1dddb748&#45;&gt;dir_d55f5d07856f435860c4aa9080c7385e -->
<g id="edge10" class="edge">
<title>dir_e7530d4cdd90fff341d258fb1dddb748&#45;&gt;dir_d55f5d07856f435860c4aa9080c7385e</title>
<path fill="none" stroke="black" d="M105.2,-239.7C96.4,-231.14 85.62,-220.66 76,-211.3"/>
<polygon fill="black" stroke="black" points="78.2,-208.57 68.59,-204.1 73.32,-213.58 78.2,-208.57"/>
<g id="a_edge10&#45;headlabel"><a xlink:href="dir_000012_000015.html" target="_top" xlink:title="1">
<text text-anchor="middle" x="82.76" y="-206.54" font-family="Helvetica,sans-Serif" font-size="10.00">1</text>
</a>
</g>
</g>
<!-- dir_82720d025eae398b4aeb2fa1dcbd636b -->
<g id="node5" class="node">
<title>dir_82720d025eae398b4aeb2fa1dcbd636b</title>
<g id="a_node5"><a xlink:href="dir_82720d025eae398b4aeb2fa1dcbd636b.html" target="_top" xlink:title="shape">
<polygon fill="white" stroke="black" points="150,-204 96,-204 96,-168 150,-168 150,-204"/>
<text text-anchor="middle" x="123" y="-183.5" font-family="Helvetica,sans-Serif" font-size="10.00">shape</text>
</a>
</g>
</g>
<!-- dir_e7530d4cdd90fff341d258fb1dddb748&#45;&gt;dir_82720d025eae398b4aeb2fa1dcbd636b -->
<g id="edge8" class="edge">
<title>dir_e7530d4cdd90fff341d258fb1dddb748&#45;&gt;dir_82720d025eae398b4aeb2fa1dcbd636b</title>
<path fill="none" stroke="black" d="M123,-239.7C123,-231.98 123,-222.71 123,-214.11"/>
<polygon fill="black" stroke="black" points="126.5,-214.1 123,-204.1 119.5,-214.1 126.5,-214.1"/>
<g id="a_edge8&#45;headlabel"><a xlink:href="dir_000012_000016.html" target="_top" xlink:title="2">
<text text-anchor="middle" x="129.34" y="-215.2" font-family="Helvetica,sans-Serif" font-size="10.00">2</text>
</a>
</g>
</g>
<!-- dir_c738475b2c4a38396515b155139d58a1 -->
<g id="node6" class="node">
<title>dir_c738475b2c4a38396515b155139d58a1</title>
<g id="a_node6"><a xlink:href="dir_c738475b2c4a38396515b155139d58a1.html" target="_top" xlink:title="transfer">
<polygon fill="white" stroke="black" points="223.5,-204 168.5,-204 168.5,-168 223.5,-168 223.5,-204"/>
<text text-anchor="middle" x="196" y="-183.5" font-family="Helvetica,sans-Serif" font-size="10.00">transfer</text>
</a>
</g>
</g>
<!-- dir_e7530d4cdd90fff341d258fb1dddb748&#45;&gt;dir_c738475b2c4a38396515b155139d58a1 -->
<g id="edge9" class="edge">
<title>dir_e7530d4cdd90fff341d258fb1dddb748&#45;&gt;dir_c738475b2c4a38396515b155139d58a1</title>
<path fill="none" stroke="black" d="M141.04,-239.7C150.06,-231.05 161.12,-220.45 170.94,-211.03"/>
<polygon fill="black" stroke="black" points="173.37,-213.55 178.16,-204.1 168.52,-208.5 173.37,-213.55"/>
<g id="a_edge9&#45;headlabel"><a xlink:href="dir_000012_000017.html" target="_top" xlink:title="1">
<text text-anchor="middle" x="172.74" y="-215.59" font-family="Helvetica,sans-Serif" font-size="10.00">1</text>
</a>
</g>
</g>
<!-- dir_e62833a922df8ac05c1c92179cd42d85 -->
<g id="node2" class="node">
<title>dir_e62833a922df8ac05c1c92179cd42d85</title>
<g id="a_node2"><a xlink:href="dir_e62833a922df8ac05c1c92179cd42d85.html" target="_top" xlink:title="base">
<polygon fill="white" stroke="black" points="165,-60 111,-60 111,-24 165,-24 165,-60"/>
<text text-anchor="middle" x="138" y="-39.5" font-family="Helvetica,sans-Serif" font-size="10.00">base</text>
</a>
</g>
</g>
<!-- dir_089e7c72db46f3cd5b9d0b0941f69794 -->
<g id="node3" class="node">
<title>dir_089e7c72db46f3cd5b9d0b0941f69794</title>
<g id="a_node3"><a xlink:href="dir_089e7c72db46f3cd5b9d0b0941f69794.html" target="_top" xlink:title="ray">
<polygon fill="white" stroke="black" points="142,-132 88,-132 88,-96 142,-96 142,-132"/>
<text text-anchor="middle" x="115" y="-111.5" font-family="Helvetica,sans-Serif" font-size="10.00">ray</text>
</a>
</g>
</g>
<!-- dir_089e7c72db46f3cd5b9d0b0941f69794&#45;&gt;dir_e62833a922df8ac05c1c92179cd42d85 -->
<g id="edge1" class="edge">
<title>dir_089e7c72db46f3cd5b9d0b0941f69794&#45;&gt;dir_e62833a922df8ac05c1c92179cd42d85</title>
<path fill="none" stroke="black" d="M120.69,-95.7C123.25,-87.9 126.33,-78.51 129.18,-69.83"/>
<polygon fill="black" stroke="black" points="132.58,-70.7 132.38,-60.1 125.93,-68.51 132.58,-70.7"/>
<g id="a_edge1&#45;headlabel"><a xlink:href="dir_000014_000013.html" target="_top" xlink:title="1">
<text text-anchor="middle" x="134.16" y="-72.5" font-family="Helvetica,sans-Serif" font-size="10.00">1</text>
</a>
</g>
</g>
<!-- dir_d55f5d07856f435860c4aa9080c7385e&#45;&gt;dir_e62833a922df8ac05c1c92179cd42d85 -->
<g id="edge5" class="edge">
<title>dir_d55f5d07856f435860c4aa9080c7385e&#45;&gt;dir_e62833a922df8ac05c1c92179cd42d85</title>
<path fill="none" stroke="black" d="M53.62,-167.78C57.08,-148.95 64.54,-118.47 79,-96 85.99,-85.15 95.77,-75.13 105.36,-66.8"/>
<polygon fill="black" stroke="black" points="107.84,-69.29 113.31,-60.22 103.38,-63.9 107.84,-69.29"/>
<g id="a_edge5&#45;headlabel"><a xlink:href="dir_000015_000013.html" target="_top" xlink:title="1">
<text text-anchor="middle" x="106.88" y="-71.27" font-family="Helvetica,sans-Serif" font-size="10.00">1</text>
</a>
</g>
</g>
<!-- dir_d55f5d07856f435860c4aa9080c7385e&#45;&gt;dir_089e7c72db46f3cd5b9d0b0941f69794 -->
<g id="edge4" class="edge">
<title>dir_d55f5d07856f435860c4aa9080c7385e&#45;&gt;dir_089e7c72db46f3cd5b9d0b0941f69794</title>
<path fill="none" stroke="black" d="M66.82,-167.7C74.57,-159.22 84.04,-148.86 92.52,-139.58"/>
<polygon fill="black" stroke="black" points="95.2,-141.85 99.36,-132.1 90.03,-137.12 95.2,-141.85"/>
<g id="a_edge4&#45;headlabel"><a xlink:href="dir_000015_000014.html" target="_top" xlink:title="1">
<text text-anchor="middle" x="94.87" y="-143.92" font-family="Helvetica,sans-Serif" font-size="10.00">1</text>
</a>
</g>
</g>
<!-- dir_82720d025eae398b4aeb2fa1dcbd636b&#45;&gt;dir_e62833a922df8ac05c1c92179cd42d85 -->
<g id="edge3" class="edge">
<title>dir_82720d025eae398b4aeb2fa1dcbd636b&#45;&gt;dir_e62833a922df8ac05c1c92179cd42d85</title>
<path fill="none" stroke="black" d="M134.89,-167.72C141.01,-157.76 147.84,-144.73 151,-132 156.09,-111.47 152.16,-87.76 147.32,-69.97"/>
<polygon fill="black" stroke="black" points="150.64,-68.84 144.43,-60.26 143.93,-70.84 150.64,-68.84"/>
<g id="a_edge3&#45;headlabel"><a xlink:href="dir_000016_000013.html" target="_top" xlink:title="1">
<text text-anchor="middle" x="154.38" y="-68.98" font-family="Helvetica,sans-Serif" font-size="10.00">1</text>
</a>
</g>
</g>
<!-- dir_82720d025eae398b4aeb2fa1dcbd636b&#45;&gt;dir_089e7c72db46f3cd5b9d0b0941f69794 -->
<g id="edge2" class="edge">
<title>dir_82720d025eae398b4aeb2fa1dcbd636b&#45;&gt;dir_089e7c72db46f3cd5b9d0b0941f69794</title>
<path fill="none" stroke="black" d="M121.02,-167.7C120.14,-159.98 119.08,-150.71 118.1,-142.11"/>
<polygon fill="black" stroke="black" points="121.57,-141.64 116.95,-132.1 114.61,-142.44 121.57,-141.64"/>
<g id="a_edge2&#45;headlabel"><a xlink:href="dir_000016_000014.html" target="_top" xlink:title="1">
<text text-anchor="middle" x="124.8" y="-142.39" font-family="Helvetica,sans-Serif" font-size="10.00">1</text>
</a>
</g>
</g>
<!-- dir_c738475b2c4a38396515b155139d58a1&#45;&gt;dir_e62833a922df8ac05c1c92179cd42d85 -->
<g id="edge7" class="edge">
<title>dir_c738475b2c4a38396515b155139d58a1&#45;&gt;dir_e62833a922df8ac05c1c92179cd42d85</title>
<path fill="none" stroke="black" d="M189,-167.87C179.03,-143.46 160.64,-98.43 148.88,-69.64"/>
<polygon fill="black" stroke="black" points="152.04,-68.12 145.02,-60.19 145.56,-70.77 152.04,-68.12"/>
<g id="a_edge7&#45;headlabel"><a xlink:href="dir_000017_000013.html" target="_top" xlink:title="2">
<text text-anchor="middle" x="156.03" y="-67.88" font-family="Helvetica,sans-Serif" font-size="10.00">2</text>
</a>
</g>
</g>
<!-- dir_c738475b2c4a38396515b155139d58a1&#45;&gt;dir_089e7c72db46f3cd5b9d0b0941f69794 -->
<g id="edge6" class="edge">
<title>dir_c738475b2c4a38396515b155139d58a1&#45;&gt;dir_089e7c72db46f3cd5b9d0b0941f69794</title>
<path fill="none" stroke="black" d="M175.98,-167.7C165.87,-158.97 153.46,-148.24 142.48,-138.75"/>
<polygon fill="black" stroke="black" points="144.65,-135.99 134.79,-132.1 140.07,-141.29 144.65,-135.99"/>
<g id="a_edge6&#45;headlabel"><a xlink:href="dir_000017_000014.html" target="_top" xlink:title="1">
<text text-anchor="middle" x="149.22" y="-133.7" font-family="Helvetica,sans-Serif" font-size="10.00">1</text>
</a>
</g>
</g>
</g>
</svg>
