<?xml version="1.0" encoding="UTF-8" standalone="no"?>
<!DOCTYPE svg PUBLIC "-//W3C//DTD SVG 1.1//EN"
 "http://www.w3.org/Graphics/SVG/1.1/DTD/svg11.dtd">
<!-- Generated by graphviz version 2.43.0 (0)
 -->
<!-- Title: src Pages: 1 -->
<svg width="166pt" height="220pt"
 viewBox="0.00 0.00 166.00 220.00" xmlns="http://www.w3.org/2000/svg" xmlns:xlink="http://www.w3.org/1999/xlink">
<g id="graph0" class="graph" transform="scale(1 1) rotate(0) translate(4 216)">
<title>src</title>
<polygon fill="white" stroke="transparent" points="-4,4 -4,-216 162,-216 162,4 -4,4"/>
<g id="clust1" class="cluster">
<title>clusterdir_68267d1309a1af8e8297ef4c3efbcdba</title>
<g id="a_clust1"><a xlink:href="dir_68267d1309a1af8e8297ef4c3efbcdba.html" target="_top">
<polygon fill="#eeeeff" stroke="black" points="8,-8 8,-204 150,-204 150,-8 8,-8"/>
</a>
</g>
</g>
<!-- dir_68267d1309a1af8e8297ef4c3efbcdba -->
<g id="node1" class="node">
<title>dir_68267d1309a1af8e8297ef4c3efbcdba</title>
<text text-anchor="middle" x="115" y="-175.5" font-family="Helvetica,sans-Serif" font-size="10.00">src</text>
</g>
<!-- dir_7fcbd8a0235fa4958859382322a6b434 -->
<g id="node2" class="node">
<title>dir_7fcbd8a0235fa4958859382322a6b434</title>
<g id="a_node2"><a xlink:href="dir_7fcbd8a0235fa4958859382322a6b434.html" target="_top" xlink:title="pewit">
<polygon fill="white" stroke="red" points="70,-196 16,-196 16,-160 70,-160 70,-196"/>
<text text-anchor="middle" x="43" y="-175.5" font-family="Helvetica,sans-Serif" font-size="10.00">pewit</text>
</a>
</g>
</g>
<!-- dir_c6fca281b1af8dc0c1caba68f1484a97 -->
<g id="node3" class="node">
<title>dir_c6fca281b1af8dc0c1caba68f1484a97</title>
<g id="a_node3"><a xlink:href="dir_c6fca281b1af8dc0c1caba68f1484a97.html" target="_top" xlink:title="pinyo">
<polygon fill="white" stroke="red" points="70,-124 16,-124 16,-88 70,-88 70,-124"/>
<text text-anchor="middle" x="43" y="-103.5" font-family="Helvetica,sans-Serif" font-size="10.00">pinyo</text>
</a>
</g>
</g>
<!-- dir_7fcbd8a0235fa4958859382322a6b434&#45;&gt;dir_c6fca281b1af8dc0c1caba68f1484a97 -->
<g id="edge3" class="edge">
<title>dir_7fcbd8a0235fa4958859382322a6b434&#45;&gt;dir_c6fca281b1af8dc0c1caba68f1484a97</title>
<path fill="none" stroke="black" d="M43,-159.7C43,-151.98 43,-142.71 43,-134.11"/>
<polygon fill="black" stroke="black" points="46.5,-134.1 43,-124.1 39.5,-134.1 46.5,-134.1"/>
<g id="a_edge3&#45;headlabel"><a xlink:href="dir_000002_000007.html" target="_top" xlink:title="3">
<text text-anchor="middle" x="49.34" y="-135.2" font-family="Helvetica,sans-Serif" font-size="10.00">3</text>
</a>
</g>
</g>
<!-- dir_ef0729d358a3efbbde6a371d60ca8e59 -->
<g id="node4" class="node">
<title>dir_ef0729d358a3efbbde6a371d60ca8e59</title>
<g id="a_node4"><a xlink:href="dir_ef0729d358a3efbbde6a371d60ca8e59.html" target="_top" xlink:title="poaky">
<polygon fill="white" stroke="red" points="93,-52 39,-52 39,-16 93,-16 93,-52"/>
<text text-anchor="middle" x="66" y="-31.5" font-family="Helvetica,sans-Serif" font-size="10.00">poaky</text>
</a>
</g>
</g>
<!-- dir_7fcbd8a0235fa4958859382322a6b434&#45;&gt;dir_ef0729d358a3efbbde6a371d60ca8e59 -->
<g id="edge2" class="edge">
<title>dir_7fcbd8a0235fa4958859382322a6b434&#45;&gt;dir_ef0729d358a3efbbde6a371d60ca8e59</title>
<path fill="none" stroke="black" d="M58.61,-159.77C66.37,-150.03 74.95,-137.18 79,-124 85.28,-103.57 81.13,-79.54 75.9,-61.6"/>
<polygon fill="black" stroke="black" points="79.24,-60.53 72.86,-52.07 72.57,-62.66 79.24,-60.53"/>
<g id="a_edge2&#45;headlabel"><a xlink:href="dir_000002_000011.html" target="_top" xlink:title="1">
<text text-anchor="middle" x="83.03" y="-60.59" font-family="Helvetica,sans-Serif" font-size="10.00">1</text>
</a>
</g>
</g>
<!-- dir_c6fca281b1af8dc0c1caba68f1484a97&#45;&gt;dir_ef0729d358a3efbbde6a371d60ca8e59 -->
<g id="edge1" class="edge">
<title>dir_c6fca281b1af8dc0c1caba68f1484a97&#45;&gt;dir_ef0729d358a3efbbde6a371d60ca8e59</title>
<path fill="none" stroke="black" d="M48.69,-87.7C51.25,-79.9 54.33,-70.51 57.18,-61.83"/>
<polygon fill="black" stroke="black" points="60.58,-62.7 60.38,-52.1 53.93,-60.51 60.58,-62.7"/>
<g id="a_edge1&#45;headlabel"><a xlink:href="dir_000007_000011.html" target="_top" xlink:title="3">
<text text-anchor="middle" x="62.16" y="-64.5" font-family="Helvetica,sans-Serif" font-size="10.00">3</text>
</a>
</g>
</g>
</g>
</svg>
