<?xml version="1.0" encoding="UTF-8" standalone="no"?>
<!DOCTYPE svg PUBLIC "-//W3C//DTD SVG 1.1//EN"
 "http://www.w3.org/Graphics/SVG/1.1/DTD/svg11.dtd">
<!-- Generated by graphviz version 2.43.0 (0)
 -->
<!-- Title: src/pewit Pages: 1 -->
<svg width="182pt" height="247pt"
 viewBox="0.00 0.00 182.00 247.00" xmlns="http://www.w3.org/2000/svg" xmlns:xlink="http://www.w3.org/1999/xlink">
<g id="graph0" class="graph" transform="scale(1 1) rotate(0) translate(4 243)">
<title>src/pewit</title>
<polygon fill="white" stroke="transparent" points="-4,4 -4,-243 178,-243 178,4 -4,4"/>
<g id="clust1" class="cluster">
<title>clusterdir_68267d1309a1af8e8297ef4c3efbcdba</title>
<g id="a_clust1"><a xlink:href="dir_68267d1309a1af8e8297ef4c3efbcdba.html" target="_top" xlink:title="src">
<polygon fill="#ddddee" stroke="black" points="8,-8 8,-231 166,-231 166,-8 8,-8"/>
<text text-anchor="middle" x="87" y="-219" font-family="Helvetica,sans-Serif" font-size="10.00">src</text>
</a>
</g>
</g>
<g id="clust2" class="cluster">
<title>clusterdir_7fcbd8a0235fa4958859382322a6b434</title>
<g id="a_clust2"><a xlink:href="dir_7fcbd8a0235fa4958859382322a6b434.html" target="_top">
<polygon fill="#eeeeff" stroke="black" points="16,-152 16,-204 158,-204 158,-152 16,-152"/>
</a>
</g>
</g>
<!-- dir_ef0729d358a3efbbde6a371d60ca8e59 -->
<g id="node1" class="node">
<title>dir_ef0729d358a3efbbde6a371d60ca8e59</title>
<g id="a_node1"><a xlink:href="dir_ef0729d358a3efbbde6a371d60ca8e59.html" target="_top" xlink:title="poaky">
<polygon fill="white" stroke="red" points="86,-52 32,-52 32,-16 86,-16 86,-52"/>
<text text-anchor="middle" x="59" y="-31.5" font-family="Helvetica,sans-Serif" font-size="10.00">poaky</text>
</a>
</g>
</g>
<!-- dir_c6fca281b1af8dc0c1caba68f1484a97 -->
<g id="node2" class="node">
<title>dir_c6fca281b1af8dc0c1caba68f1484a97</title>
<g id="a_node2"><a xlink:href="dir_c6fca281b1af8dc0c1caba68f1484a97.html" target="_top" xlink:title="pinyo">
<polygon fill="white" stroke="red" points="103,-124 49,-124 49,-88 103,-88 103,-124"/>
<text text-anchor="middle" x="76" y="-103.5" font-family="Helvetica,sans-Serif" font-size="10.00">pinyo</text>
</a>
</g>
</g>
<!-- dir_c6fca281b1af8dc0c1caba68f1484a97&#45;&gt;dir_ef0729d358a3efbbde6a371d60ca8e59 -->
<g id="edge3" class="edge">
<title>dir_c6fca281b1af8dc0c1caba68f1484a97&#45;&gt;dir_ef0729d358a3efbbde6a371d60ca8e59</title>
<path fill="none" stroke="black" d="M71.8,-87.7C69.9,-79.9 67.62,-70.51 65.52,-61.83"/>
<polygon fill="black" stroke="black" points="68.92,-61 63.15,-52.1 62.11,-62.65 68.92,-61"/>
<g id="a_edge3&#45;headlabel"><a xlink:href="dir_000007_000011.html" target="_top" xlink:title="3">
<text text-anchor="middle" x="72.52" y="-61.32" font-family="Helvetica,sans-Serif" font-size="10.00">3</text>
</a>
</g>
</g>
<!-- dir_7fcbd8a0235fa4958859382322a6b434 -->
<g id="node3" class="node">
<title>dir_7fcbd8a0235fa4958859382322a6b434</title>
<text text-anchor="middle" x="123" y="-175.5" font-family="Helvetica,sans-Serif" font-size="10.00">pewit</text>
</g>
<!-- dir_e594e71d69e76d9dfec8ababe8977b3e -->
<g id="node4" class="node">
<title>dir_e594e71d69e76d9dfec8ababe8977b3e</title>
<g id="a_node4"><a xlink:href="dir_e594e71d69e76d9dfec8ababe8977b3e.html" target="_top" xlink:title="src">
<polygon fill="white" stroke="red" points="78,-196 24,-196 24,-160 78,-160 78,-196"/>
<text text-anchor="middle" x="51" y="-175.5" font-family="Helvetica,sans-Serif" font-size="10.00">src</text>
</a>
</g>
</g>
<!-- dir_e594e71d69e76d9dfec8ababe8977b3e&#45;&gt;dir_ef0729d358a3efbbde6a371d60ca8e59 -->
<g id="edge2" class="edge">
<title>dir_e594e71d69e76d9dfec8ababe8977b3e&#45;&gt;dir_ef0729d358a3efbbde6a371d60ca8e59</title>
<path fill="none" stroke="black" d="M45.89,-159.86C41.23,-141.89 35.68,-112.85 40,-88 41.52,-79.24 44.36,-70.01 47.39,-61.75"/>
<polygon fill="black" stroke="black" points="50.72,-62.84 51.11,-52.25 44.21,-60.29 50.72,-62.84"/>
<g id="a_edge2&#45;headlabel"><a xlink:href="dir_000003_000011.html" target="_top" xlink:title="1">
<text text-anchor="middle" x="52.06" y="-64.72" font-family="Helvetica,sans-Serif" font-size="10.00">1</text>
</a>
</g>
</g>
<!-- dir_e594e71d69e76d9dfec8ababe8977b3e&#45;&gt;dir_c6fca281b1af8dc0c1caba68f1484a97 -->
<g id="edge1" class="edge">
<title>dir_e594e71d69e76d9dfec8ababe8977b3e&#45;&gt;dir_c6fca281b1af8dc0c1caba68f1484a97</title>
<path fill="none" stroke="black" d="M57.18,-159.7C60,-151.81 63.39,-142.3 66.52,-133.55"/>
<polygon fill="black" stroke="black" points="69.82,-134.7 69.89,-124.1 63.23,-132.34 69.82,-134.7"/>
<g id="a_edge1&#45;headlabel"><a xlink:href="dir_000003_000007.html" target="_top" xlink:title="3">
<text text-anchor="middle" x="71.29" y="-136.54" font-family="Helvetica,sans-Serif" font-size="10.00">3</text>
</a>
</g>
</g>
</g>
</svg>
