<?xml version="1.0" encoding="UTF-8" standalone="no"?>
<!DOCTYPE svg PUBLIC "-//W3C//DTD SVG 1.1//EN"
 "http://www.w3.org/Graphics/SVG/1.1/DTD/svg11.dtd">
<!-- Generated by graphviz version 2.43.0 (0)
 -->
<!-- Title: src/pewit/src/lseq_part_result Pages: 1 -->
<svg width="136pt" height="151pt"
 viewBox="0.00 0.00 136.00 151.00" xmlns="http://www.w3.org/2000/svg" xmlns:xlink="http://www.w3.org/1999/xlink">
<g id="graph0" class="graph" transform="scale(1 1) rotate(0) translate(4 147)">
<title>src/pewit/src/lseq_part_result</title>
<polygon fill="white" stroke="transparent" points="-4,4 -4,-147 132,-147 132,4 -4,4"/>
<g id="clust1" class="cluster">
<title>clusterdir_e594e71d69e76d9dfec8ababe8977b3e</title>
<g id="a_clust1"><a xlink:href="dir_e594e71d69e76d9dfec8ababe8977b3e.html" target="_top" xlink:title="src">
<polygon fill="#ddddee" stroke="black" points="8,-64 8,-135 120,-135 120,-64 8,-64"/>
<text text-anchor="middle" x="64" y="-123" font-family="Helvetica,sans-Serif" font-size="10.00">src</text>
</a>
</g>
</g>
<!-- dir_a29c9ebfc3e25d8de0b8aec59e4a1c4c -->
<g id="node1" class="node">
<title>dir_a29c9ebfc3e25d8de0b8aec59e4a1c4c</title>
<g id="a_node1"><a xlink:href="dir_a29c9ebfc3e25d8de0b8aec59e4a1c4c.html" target="_top" xlink:title="lseq_part_result">
<polygon fill="#eeeeff" stroke="black" points="111.5,-108 16.5,-108 16.5,-72 111.5,-72 111.5,-108"/>
<text text-anchor="middle" x="64" y="-87.5" font-family="Helvetica,sans-Serif" font-size="10.00">lseq_part_result</text>
</a>
</g>
</g>
<!-- dir_ef0729d358a3efbbde6a371d60ca8e59 -->
<g id="node2" class="node">
<title>dir_ef0729d358a3efbbde6a371d60ca8e59</title>
<g id="a_node2"><a xlink:href="dir_ef0729d358a3efbbde6a371d60ca8e59.html" target="_top" xlink:title="poaky">
<polygon fill="white" stroke="red" points="91,-36 37,-36 37,0 91,0 91,-36"/>
<text text-anchor="middle" x="64" y="-15.5" font-family="Helvetica,sans-Serif" font-size="10.00">poaky</text>
</a>
</g>
</g>
<!-- dir_a29c9ebfc3e25d8de0b8aec59e4a1c4c&#45;&gt;dir_ef0729d358a3efbbde6a371d60ca8e59 -->
<g id="edge1" class="edge">
<title>dir_a29c9ebfc3e25d8de0b8aec59e4a1c4c&#45;&gt;dir_ef0729d358a3efbbde6a371d60ca8e59</title>
<path fill="none" stroke="black" d="M64,-71.7C64,-63.98 64,-54.71 64,-46.11"/>
<polygon fill="black" stroke="black" points="67.5,-46.1 64,-36.1 60.5,-46.1 67.5,-46.1"/>
<g id="a_edge1&#45;headlabel"><a xlink:href="dir_000005_000011.html" target="_top" xlink:title="1">
<text text-anchor="middle" x="70.34" y="-47.2" font-family="Helvetica,sans-Serif" font-size="10.00">1</text>
</a>
</g>
</g>
</g>
</svg>
