<?xml version="1.0" encoding="UTF-8" standalone="no"?>
<!DOCTYPE svg PUBLIC "-//W3C//DTD SVG 1.1//EN"
 "http://www.w3.org/Graphics/SVG/1.1/DTD/svg11.dtd">
<!-- Generated by graphviz version 2.43.0 (0)
 -->
<!-- Title: Graphical Class Hierarchy Pages: 1 -->
<svg width="220pt" height="104pt"
 viewBox="0.00 0.00 220.00 104.00" xmlns="http://www.w3.org/2000/svg" xmlns:xlink="http://www.w3.org/1999/xlink">
<g id="graph0" class="graph" transform="scale(1 1) rotate(0) translate(4 100)">
<title>Graphical Class Hierarchy</title>
<polygon fill="white" stroke="transparent" points="-4,4 -4,-100 216,-100 216,4 -4,4"/>
<!-- Node0 -->
<g id="node1" class="node">
<title>Node0</title>
<g id="a_node1"><a xlink:href="classlpart.html" target="_top" xlink:title="Virtual class for elementary optical parts which can be applied to ray bundles.">
<polygon fill="white" stroke="black" points="0,-38.5 0,-57.5 39,-57.5 39,-38.5 0,-38.5"/>
<text text-anchor="middle" x="19.5" y="-45.5" font-family="Helvetica,sans-Serif" font-size="10.00">lpart</text>
</a>
</g>
</g>
<!-- Node1 -->
<g id="node2" class="node">
<title>Node1</title>
<g id="a_node2"><a xlink:href="classshape__reflect__part.html" target="_top" xlink:title="Class template implementing the specialized lparts for reflective shape parts.">
<polygon fill="white" stroke="black" points="76,-76.5 76,-95.5 211,-95.5 211,-76.5 76,-76.5"/>
<text text-anchor="middle" x="143.5" y="-83.5" font-family="Helvetica,sans-Serif" font-size="10.00">shape_reflect_part&lt; T &gt;</text>
</a>
</g>
</g>
<!-- Node0&#45;&gt;Node1 -->
<g id="edge1" class="edge">
<title>Node0&#45;&gt;Node1</title>
<path fill="none" stroke="midnightblue" d="M48.52,-58.14C56.99,-61.1 66.34,-64.28 75,-67 85.34,-70.25 96.64,-73.54 107,-76.45"/>
<polygon fill="midnightblue" stroke="midnightblue" points="49.67,-54.83 39.07,-54.79 47.33,-61.43 49.67,-54.83"/>
</g>
<!-- Node2 -->
<g id="node3" class="node">
<title>Node2</title>
<g id="a_node3"><a xlink:href="classshape__refract__part.html" target="_top" xlink:title="Class template implementing the specialized lparts for refractive shape parts.">
<polygon fill="white" stroke="black" points="75,-38.5 75,-57.5 212,-57.5 212,-38.5 75,-38.5"/>
<text text-anchor="middle" x="143.5" y="-45.5" font-family="Helvetica,sans-Serif" font-size="10.00">shape_refract_part&lt; T &gt;</text>
</a>
</g>
</g>
<!-- Node0&#45;&gt;Node2 -->
<g id="edge2" class="edge">
<title>Node0&#45;&gt;Node2</title>
<path fill="none" stroke="midnightblue" d="M49.06,-48C56.94,-48 65.84,-48 74.93,-48"/>
<polygon fill="midnightblue" stroke="midnightblue" points="49.03,-44.5 39.03,-48 49.03,-51.5 49.03,-44.5"/>
</g>
<!-- Node3 -->
<g id="node4" class="node">
<title>Node3</title>
<g id="a_node4"><a xlink:href="classtransfer__part.html" target="_top" xlink:title="Part which applies a transfer operation to rays.">
<polygon fill="white" stroke="black" points="103.5,-0.5 103.5,-19.5 183.5,-19.5 183.5,-0.5 103.5,-0.5"/>
<text text-anchor="middle" x="143.5" y="-7.5" font-family="Helvetica,sans-Serif" font-size="10.00">transfer_part</text>
</a>
</g>
</g>
<!-- Node0&#45;&gt;Node3 -->
<g id="edge3" class="edge">
<title>Node0&#45;&gt;Node3</title>
<path fill="none" stroke="midnightblue" d="M48.52,-37.86C56.99,-34.9 66.34,-31.72 75,-29 85.34,-25.75 96.64,-22.46 107,-19.55"/>
<polygon fill="midnightblue" stroke="midnightblue" points="47.33,-34.57 39.07,-41.21 49.67,-41.17 47.33,-34.57"/>
</g>
</g>
</svg>
