<?xml version="1.0" encoding="UTF-8" standalone="no"?>
<!DOCTYPE svg PUBLIC "-//W3C//DTD SVG 1.1//EN"
 "http://www.w3.org/Graphics/SVG/1.1/DTD/svg11.dtd">
<!-- Generated by graphviz version 2.43.0 (0)
 -->
<!-- Title: src/pinyo/src/lpart/lpart.h Pages: 1 -->
<svg width="453pt" height="531pt"
 viewBox="0.00 0.00 452.81 531.00" xmlns="http://www.w3.org/2000/svg" xmlns:xlink="http://www.w3.org/1999/xlink">
<g id="graph0" class="graph" transform="scale(1 1) rotate(0) translate(4 527)">
<title>src/pinyo/src/lpart/lpart.h</title>
<polygon fill="white" stroke="transparent" points="-4,4 -4,-527 448.81,-527 448.81,4 -4,4"/>
<!-- Node1 -->
<g id="node1" class="node">
<title>Node1</title>
<g id="a_node1"><a xlink:title=" ">
<polygon fill="#bfbfbf" stroke="black" points="13.57,-492.5 13.57,-522.5 117.57,-522.5 117.57,-492.5 13.57,-492.5"/>
<text text-anchor="start" x="21.57" y="-510.5" font-family="Helvetica,sans-Serif" font-size="10.00">src/pinyo/src/lpart</text>
<text text-anchor="middle" x="65.57" y="-499.5" font-family="Helvetica,sans-Serif" font-size="10.00">/lpart.h</text>
</a>
</g>
</g>
<!-- Node2 -->
<g id="node2" class="node">
<title>Node2</title>
<g id="a_node2"><a xlink:href="shape__part_8h.html" target="_top" xlink:title=" ">
<polygon fill="white" stroke="black" points="13.57,-425.5 13.57,-455.5 117.57,-455.5 117.57,-425.5 13.57,-425.5"/>
<text text-anchor="start" x="21.57" y="-443.5" font-family="Helvetica,sans-Serif" font-size="10.00">src/pinyo/src/lpart</text>
<text text-anchor="middle" x="65.57" y="-432.5" font-family="Helvetica,sans-Serif" font-size="10.00">/shape_part.h</text>
</a>
</g>
</g>
<!-- Node1&#45;&gt;Node2 -->
<g id="edge1" class="edge">
<title>Node1&#45;&gt;Node2</title>
<path fill="none" stroke="midnightblue" d="M65.57,-482.11C65.57,-473.15 65.57,-463.32 65.57,-455.58"/>
<polygon fill="midnightblue" stroke="midnightblue" points="62.07,-482.4 65.57,-492.4 69.07,-482.4 62.07,-482.4"/>
</g>
<!-- Node3 -->
<g id="node3" class="node">
<title>Node3</title>
<g id="a_node3"><a xlink:href="pinyo_8h.html" target="_top" xlink:title=" ">
<polygon fill="white" stroke="black" points="7.07,-369.5 7.07,-388.5 124.07,-388.5 124.07,-369.5 7.07,-369.5"/>
<text text-anchor="middle" x="65.57" y="-376.5" font-family="Helvetica,sans-Serif" font-size="10.00">src/pinyo/src/pinyo.h</text>
</a>
</g>
</g>
<!-- Node1&#45;&gt;Node3 -->
<g id="edge20" class="edge">
<title>Node1&#45;&gt;Node3</title>
<path fill="none" stroke="midnightblue" d="M31.05,-486.43C20.56,-478.42 10.3,-468.17 4.57,-456 -1.29,-443.53 -1.64,-437.3 4.57,-425 13.11,-408.08 31.35,-395.96 45.67,-388.59"/>
<polygon fill="midnightblue" stroke="midnightblue" points="29.25,-489.44 39.43,-492.37 33.3,-483.73 29.25,-489.44"/>
</g>
<!-- Node12 -->
<g id="node12" class="node">
<title>Node12</title>
<g id="a_node12"><a xlink:href="transfer__part_8h.html" target="_top" xlink:title=" ">
<polygon fill="white" stroke="black" points="135.57,-425.5 135.57,-455.5 239.57,-455.5 239.57,-425.5 135.57,-425.5"/>
<text text-anchor="start" x="143.57" y="-443.5" font-family="Helvetica,sans-Serif" font-size="10.00">src/pinyo/src/lpart</text>
<text text-anchor="middle" x="187.57" y="-432.5" font-family="Helvetica,sans-Serif" font-size="10.00">/transfer_part.h</text>
</a>
</g>
</g>
<!-- Node1&#45;&gt;Node12 -->
<g id="edge18" class="edge">
<title>Node1&#45;&gt;Node12</title>
<path fill="none" stroke="midnightblue" d="M101.09,-487.57C120.28,-477.35 143.58,-464.94 161.15,-455.58"/>
<polygon fill="midnightblue" stroke="midnightblue" points="99.22,-484.6 92.04,-492.4 102.51,-490.78 99.22,-484.6"/>
</g>
<!-- Node2&#45;&gt;Node3 -->
<g id="edge2" class="edge">
<title>Node2&#45;&gt;Node3</title>
<path fill="none" stroke="midnightblue" d="M65.57,-415.29C65.57,-405.86 65.57,-395.65 65.57,-388.66"/>
<polygon fill="midnightblue" stroke="midnightblue" points="62.07,-415.4 65.57,-425.4 69.07,-415.4 62.07,-415.4"/>
</g>
<!-- Node4 -->
<g id="node4" class="node">
<title>Node4</title>
<g id="a_node4"><a xlink:href="lseq_8h.html" target="_top" xlink:title=" ">
<polygon fill="white" stroke="black" points="113.57,-112.5 113.57,-131.5 223.57,-131.5 223.57,-112.5 113.57,-112.5"/>
<text text-anchor="middle" x="168.57" y="-119.5" font-family="Helvetica,sans-Serif" font-size="10.00">src/pewit/src/lseq.h</text>
</a>
</g>
</g>
<!-- Node3&#45;&gt;Node4 -->
<g id="edge3" class="edge">
<title>Node3&#45;&gt;Node4</title>
<path fill="none" stroke="midnightblue" d="M65.12,-358.81C65.08,-319.75 69.59,-229.54 108.57,-168 118.88,-151.72 137.33,-139.22 151.05,-131.58"/>
<polygon fill="midnightblue" stroke="midnightblue" points="61.62,-359.24 65.24,-369.19 68.62,-359.15 61.62,-359.24"/>
</g>
<!-- Node6 -->
<g id="node6" class="node">
<title>Node6</title>
<g id="a_node6"><a xlink:href="robintrace_8h.html" target="_top" xlink:title=" ">
<polygon fill="white" stroke="black" points="53.07,-0.5 53.07,-19.5 166.07,-19.5 166.07,-0.5 53.07,-0.5"/>
<text text-anchor="middle" x="109.57" y="-7.5" font-family="Helvetica,sans-Serif" font-size="10.00">include/robintrace.h</text>
</a>
</g>
</g>
<!-- Node3&#45;&gt;Node6 -->
<g id="edge17" class="edge">
<title>Node3&#45;&gt;Node6</title>
<path fill="none" stroke="midnightblue" d="M51.78,-361.15C34.91,-338.79 8.57,-297.41 8.57,-257 8.57,-257 8.57,-257 8.57,-121 8.57,-72 63.62,-35.39 92.44,-19.59"/>
<polygon fill="midnightblue" stroke="midnightblue" points="49.2,-363.54 58.12,-369.26 54.72,-359.23 49.2,-363.54"/>
</g>
<!-- Node7 -->
<g id="node7" class="node">
<title>Node7</title>
<g id="a_node7"><a xlink:href="lseq__part_8h.html" target="_top" xlink:title=" ">
<polygon fill="white" stroke="black" points="118.07,-168.5 118.07,-198.5 219.07,-198.5 219.07,-168.5 118.07,-168.5"/>
<text text-anchor="start" x="126.07" y="-186.5" font-family="Helvetica,sans-Serif" font-size="10.00">src/pewit/src/lseq</text>
<text text-anchor="middle" x="168.57" y="-175.5" font-family="Helvetica,sans-Serif" font-size="10.00">_part.h</text>
</a>
</g>
</g>
<!-- Node3&#45;&gt;Node7 -->
<g id="edge6" class="edge">
<title>Node3&#45;&gt;Node7</title>
<path fill="none" stroke="midnightblue" d="M72.62,-359.75C83.64,-331.98 106.33,-277.84 131.57,-235 139.18,-222.08 149.34,-208.41 157.09,-198.56"/>
<polygon fill="midnightblue" stroke="midnightblue" points="69.26,-358.73 68.87,-369.32 75.78,-361.29 69.26,-358.73"/>
</g>
<!-- Node8 -->
<g id="node8" class="node">
<title>Node8</title>
<g id="a_node8"><a xlink:href="ray__pack_8h.html" target="_top" xlink:title=" ">
<polygon fill="white" stroke="black" points="214.57,-313.5 214.57,-332.5 348.57,-332.5 348.57,-313.5 214.57,-313.5"/>
<text text-anchor="middle" x="281.57" y="-320.5" font-family="Helvetica,sans-Serif" font-size="10.00">src/pewit/src/ray_pack.h</text>
</a>
</g>
</g>
<!-- Node3&#45;&gt;Node8 -->
<g id="edge8" class="edge">
<title>Node3&#45;&gt;Node8</title>
<path fill="none" stroke="midnightblue" d="M109.74,-366.96C150.53,-356.76 210.28,-341.82 247.51,-332.52"/>
<polygon fill="midnightblue" stroke="midnightblue" points="108.65,-363.62 99.8,-369.44 110.35,-370.41 108.65,-363.62"/>
</g>
<!-- Node5 -->
<g id="node5" class="node">
<title>Node5</title>
<g id="a_node5"><a xlink:href="pewit_8h.html" target="_top" xlink:title=" ">
<polygon fill="white" stroke="black" points="110.07,-56.5 110.07,-75.5 227.07,-75.5 227.07,-56.5 110.07,-56.5"/>
<text text-anchor="middle" x="168.57" y="-63.5" font-family="Helvetica,sans-Serif" font-size="10.00">src/pewit/src/pewit.h</text>
</a>
</g>
</g>
<!-- Node4&#45;&gt;Node5 -->
<g id="edge4" class="edge">
<title>Node4&#45;&gt;Node5</title>
<path fill="none" stroke="midnightblue" d="M168.57,-101.8C168.57,-92.91 168.57,-82.78 168.57,-75.75"/>
<polygon fill="midnightblue" stroke="midnightblue" points="165.07,-102.08 168.57,-112.08 172.07,-102.08 165.07,-102.08"/>
</g>
<!-- Node5&#45;&gt;Node6 -->
<g id="edge5" class="edge">
<title>Node5&#45;&gt;Node6</title>
<path fill="none" stroke="midnightblue" d="M151.68,-49.54C141.16,-39.91 128,-27.87 119.22,-19.83"/>
<polygon fill="midnightblue" stroke="midnightblue" points="149.35,-52.15 159.09,-56.32 154.08,-46.99 149.35,-52.15"/>
</g>
<!-- Node7&#45;&gt;Node4 -->
<g id="edge7" class="edge">
<title>Node7&#45;&gt;Node4</title>
<path fill="none" stroke="midnightblue" d="M168.57,-158.29C168.57,-148.86 168.57,-138.65 168.57,-131.66"/>
<polygon fill="midnightblue" stroke="midnightblue" points="165.07,-158.4 168.57,-168.4 172.07,-158.4 165.07,-158.4"/>
</g>
<!-- Node8&#45;&gt;Node5 -->
<g id="edge16" class="edge">
<title>Node8&#45;&gt;Node5</title>
<path fill="none" stroke="midnightblue" d="M346.36,-311.5C384.35,-303.87 427.1,-292.23 438.57,-277 449.81,-262.09 442.81,-253.18 438.57,-235 431.04,-202.67 429.68,-190.82 405.57,-168 349.87,-115.27 262.43,-87.86 210.78,-75.51"/>
<polygon fill="midnightblue" stroke="midnightblue" points="345.46,-308.11 336.31,-313.45 346.79,-314.98 345.46,-308.11"/>
</g>
<!-- Node8&#45;&gt;Node7 -->
<g id="edge11" class="edge">
<title>Node8&#45;&gt;Node7</title>
<path fill="none" stroke="midnightblue" d="M204.58,-314.92C180.49,-308.65 156.38,-297.31 141.57,-277 124.13,-253.07 143.71,-218.01 157.46,-198.65"/>
<polygon fill="midnightblue" stroke="midnightblue" points="203.97,-318.38 214.5,-317.24 205.56,-311.56 203.97,-318.38"/>
</g>
<!-- Node9 -->
<g id="node9" class="node">
<title>Node9</title>
<g id="a_node9"><a xlink:href="lseq__rays_8h.html" target="_top" xlink:title=" ">
<polygon fill="white" stroke="black" points="291.07,-168.5 291.07,-198.5 396.07,-198.5 396.07,-168.5 291.07,-168.5"/>
<text text-anchor="start" x="299.07" y="-186.5" font-family="Helvetica,sans-Serif" font-size="10.00">src/pewit/src/lseq</text>
<text text-anchor="middle" x="343.57" y="-175.5" font-family="Helvetica,sans-Serif" font-size="10.00">_input/lseq_rays.h</text>
</a>
</g>
</g>
<!-- Node8&#45;&gt;Node9 -->
<g id="edge9" class="edge">
<title>Node8&#45;&gt;Node9</title>
<path fill="none" stroke="midnightblue" d="M358.57,-314.92C382.65,-308.65 406.77,-297.31 421.57,-277 432.57,-261.92 430.49,-251.4 421.57,-235 412.63,-218.56 395.78,-206.65 380.02,-198.54"/>
<polygon fill="midnightblue" stroke="midnightblue" points="357.58,-311.56 348.64,-317.24 359.17,-318.38 357.58,-311.56"/>
</g>
<!-- Node10 -->
<g id="node10" class="node">
<title>Node10</title>
<g id="a_node10"><a xlink:href="lseq__part__global__rays_8h.html" target="_top" xlink:title=" ">
<polygon fill="white" stroke="black" points="150.57,-235.5 150.57,-276.5 272.57,-276.5 272.57,-235.5 150.57,-235.5"/>
<text text-anchor="start" x="158.57" y="-264.5" font-family="Helvetica,sans-Serif" font-size="10.00">src/pewit/src/lseq</text>
<text text-anchor="start" x="158.57" y="-253.5" font-family="Helvetica,sans-Serif" font-size="10.00">_part_result/lseq_part</text>
<text text-anchor="middle" x="211.57" y="-242.5" font-family="Helvetica,sans-Serif" font-size="10.00">_global_rays.h</text>
</a>
</g>
</g>
<!-- Node8&#45;&gt;Node10 -->
<g id="edge12" class="edge">
<title>Node8&#45;&gt;Node10</title>
<path fill="none" stroke="midnightblue" d="M264.72,-306.36C255.08,-297.4 242.89,-286.08 232.62,-276.54"/>
<polygon fill="midnightblue" stroke="midnightblue" points="262.42,-308.99 272.13,-313.23 267.18,-303.86 262.42,-308.99"/>
</g>
<!-- Node11 -->
<g id="node11" class="node">
<title>Node11</title>
<g id="a_node11"><a xlink:href="lseq__part__rays_8h.html" target="_top" xlink:title=" ">
<polygon fill="white" stroke="black" points="290.57,-235.5 290.57,-276.5 412.57,-276.5 412.57,-235.5 290.57,-235.5"/>
<text text-anchor="start" x="298.57" y="-264.5" font-family="Helvetica,sans-Serif" font-size="10.00">src/pewit/src/lseq</text>
<text text-anchor="start" x="298.57" y="-253.5" font-family="Helvetica,sans-Serif" font-size="10.00">_part_result/lseq_part</text>
<text text-anchor="middle" x="351.57" y="-242.5" font-family="Helvetica,sans-Serif" font-size="10.00">_rays.h</text>
</a>
</g>
</g>
<!-- Node8&#45;&gt;Node11 -->
<g id="edge14" class="edge">
<title>Node8&#45;&gt;Node11</title>
<path fill="none" stroke="midnightblue" d="M298.42,-306.36C308.06,-297.4 320.25,-286.08 330.53,-276.54"/>
<polygon fill="midnightblue" stroke="midnightblue" points="295.96,-303.86 291.01,-313.23 300.72,-308.99 295.96,-303.86"/>
</g>
<!-- Node9&#45;&gt;Node4 -->
<g id="edge10" class="edge">
<title>Node9&#45;&gt;Node4</title>
<path fill="none" stroke="midnightblue" d="M292.32,-165.08C259.91,-154.05 219.43,-140.29 193.78,-131.57"/>
<polygon fill="midnightblue" stroke="midnightblue" points="291.5,-168.49 302.1,-168.4 293.76,-161.87 291.5,-168.49"/>
</g>
<!-- Node10&#45;&gt;Node7 -->
<g id="edge13" class="edge">
<title>Node10&#45;&gt;Node7</title>
<path fill="none" stroke="midnightblue" d="M194.22,-226.55C188.42,-217.05 182.21,-206.86 177.35,-198.89"/>
<polygon fill="midnightblue" stroke="midnightblue" points="191.4,-228.65 199.59,-235.36 197.37,-225 191.4,-228.65"/>
</g>
<!-- Node11&#45;&gt;Node7 -->
<g id="edge15" class="edge">
<title>Node11&#45;&gt;Node7</title>
<path fill="none" stroke="midnightblue" d="M291.14,-231.72C262.67,-220.75 229.66,-208.03 205.07,-198.56"/>
<polygon fill="midnightblue" stroke="midnightblue" points="290.01,-235.03 300.6,-235.36 292.52,-228.5 290.01,-235.03"/>
</g>
<!-- Node12&#45;&gt;Node3 -->
<g id="edge19" class="edge">
<title>Node12&#45;&gt;Node3</title>
<path fill="none" stroke="midnightblue" d="M149.52,-420.94C127.41,-410.16 100.6,-397.08 83.32,-388.66"/>
<polygon fill="midnightblue" stroke="midnightblue" points="148.14,-424.16 158.66,-425.4 151.21,-417.87 148.14,-424.16"/>
</g>
</g>
</svg>
