<?xml version="1.0" encoding="UTF-8" standalone="no"?>
<!DOCTYPE svg PUBLIC "-//W3C//DTD SVG 1.1//EN"
 "http://www.w3.org/Graphics/SVG/1.1/DTD/svg11.dtd">
<!-- Generated by graphviz version 2.43.0 (0)
 -->
<!-- Title: src/pinyo/src/lpart/lpart.h Pages: 1 -->
<svg width="763pt" height="431pt"
 viewBox="0.00 0.00 762.50 431.00" xmlns="http://www.w3.org/2000/svg" xmlns:xlink="http://www.w3.org/1999/xlink">
<g id="graph0" class="graph" transform="scale(1 1) rotate(0) translate(4 427)">
<title>src/pinyo/src/lpart/lpart.h</title>
<polygon fill="white" stroke="transparent" points="-4,4 -4,-427 758.5,-427 758.5,4 -4,4"/>
<!-- Node1 -->
<g id="node1" class="node">
<title>Node1</title>
<g id="a_node1"><a xlink:title=" ">
<polygon fill="#bfbfbf" stroke="black" points="106,-392.5 106,-422.5 210,-422.5 210,-392.5 106,-392.5"/>
<text text-anchor="start" x="114" y="-410.5" font-family="Helvetica,sans-Serif" font-size="10.00">src/pinyo/src/lpart</text>
<text text-anchor="middle" x="158" y="-399.5" font-family="Helvetica,sans-Serif" font-size="10.00">/lpart.h</text>
</a>
</g>
</g>
<!-- Node2 -->
<g id="node2" class="node">
<title>Node2</title>
<g id="a_node2"><a xlink:href="bun_8h.html" target="_top" xlink:title=" ">
<polygon fill="white" stroke="black" points="212.5,-336.5 212.5,-355.5 277.5,-355.5 277.5,-336.5 212.5,-336.5"/>
<text text-anchor="middle" x="245" y="-343.5" font-family="Helvetica,sans-Serif" font-size="10.00">bun/bun.h</text>
</a>
</g>
</g>
<!-- Node1&#45;&gt;Node2 -->
<g id="edge1" class="edge">
<title>Node1&#45;&gt;Node2</title>
<path fill="none" stroke="midnightblue" d="M178.62,-392.4C192.3,-383.04 210.21,-370.79 223.98,-361.38"/>
<polygon fill="midnightblue" stroke="midnightblue" points="226.06,-364.19 232.34,-355.66 222.11,-358.41 226.06,-364.19"/>
</g>
<!-- Node15 -->
<g id="node15" class="node">
<title>Node15</title>
<g id="a_node15"><a xlink:title=" ">
<polygon fill="white" stroke="#bfbfbf" points="66,-112.5 66,-131.5 110,-131.5 110,-112.5 66,-112.5"/>
<text text-anchor="middle" x="88" y="-119.5" font-family="Helvetica,sans-Serif" font-size="10.00">string</text>
</a>
</g>
</g>
<!-- Node1&#45;&gt;Node15 -->
<g id="edge39" class="edge">
<title>Node1&#45;&gt;Node15</title>
<path fill="none" stroke="midnightblue" d="M106.7,-392.44C60.57,-376.3 0,-344.86 0,-291 0,-291 0,-291 0,-233 0,-191.03 39.54,-155.9 65.61,-137.3"/>
<polygon fill="midnightblue" stroke="midnightblue" points="67.6,-140.18 73.86,-131.64 63.64,-134.41 67.6,-140.18"/>
</g>
<!-- Node16 -->
<g id="node16" class="node">
<title>Node16</title>
<g id="a_node16"><a xlink:title=" ">
<polygon fill="white" stroke="#bfbfbf" points="128,-112.5 128,-131.5 184,-131.5 184,-112.5 128,-112.5"/>
<text text-anchor="middle" x="156" y="-119.5" font-family="Helvetica,sans-Serif" font-size="10.00">sstream</text>
</a>
</g>
</g>
<!-- Node1&#45;&gt;Node16 -->
<g id="edge40" class="edge">
<title>Node1&#45;&gt;Node16</title>
<path fill="none" stroke="midnightblue" d="M150.75,-392.33C140.5,-370.96 123,-328.92 123,-291 123,-291 123,-291 123,-233 123,-199.25 137.43,-162.03 147.21,-140.69"/>
<polygon fill="midnightblue" stroke="midnightblue" points="150.41,-142.11 151.55,-131.58 144.09,-139.1 150.41,-142.11"/>
</g>
<!-- Node20 -->
<g id="node20" class="node">
<title>Node20</title>
<g id="a_node20"><a xlink:title=" ">
<polygon fill="white" stroke="#bfbfbf" points="296,-336.5 296,-355.5 354,-355.5 354,-336.5 296,-336.5"/>
<text text-anchor="middle" x="325" y="-343.5" font-family="Helvetica,sans-Serif" font-size="10.00">memory</text>
</a>
</g>
</g>
<!-- Node1&#45;&gt;Node20 -->
<g id="edge38" class="edge">
<title>Node1&#45;&gt;Node20</title>
<path fill="none" stroke="midnightblue" d="M197.58,-392.4C226.1,-382.24 264.17,-368.67 291.26,-359.02"/>
<polygon fill="midnightblue" stroke="midnightblue" points="292.45,-362.31 300.7,-355.66 290.11,-355.72 292.45,-362.31"/>
</g>
<!-- Node3 -->
<g id="node3" class="node">
<title>Node3</title>
<g id="a_node3"><a xlink:href="poaky_8h.html" target="_top" xlink:title=" ">
<polygon fill="white" stroke="black" points="376.5,-280.5 376.5,-299.5 429.5,-299.5 429.5,-280.5 376.5,-280.5"/>
<text text-anchor="middle" x="403" y="-287.5" font-family="Helvetica,sans-Serif" font-size="10.00">poaky.h</text>
</a>
</g>
</g>
<!-- Node2&#45;&gt;Node3 -->
<g id="edge2" class="edge">
<title>Node2&#45;&gt;Node3</title>
<path fill="none" stroke="midnightblue" d="M270.04,-336.44C296.62,-327.36 338.81,-312.94 368.52,-302.78"/>
<polygon fill="midnightblue" stroke="midnightblue" points="369.75,-306.06 378.08,-299.52 367.49,-299.44 369.75,-306.06"/>
</g>
<!-- Node18 -->
<g id="node18" class="node">
<title>Node18</title>
<g id="a_node18"><a xlink:title=" ">
<polygon fill="white" stroke="#bfbfbf" points="447.5,-280.5 447.5,-299.5 494.5,-299.5 494.5,-280.5 447.5,-280.5"/>
<text text-anchor="middle" x="471" y="-287.5" font-family="Helvetica,sans-Serif" font-size="10.00">vector</text>
</a>
</g>
</g>
<!-- Node2&#45;&gt;Node18 -->
<g id="edge36" class="edge">
<title>Node2&#45;&gt;Node18</title>
<path fill="none" stroke="midnightblue" d="M277.53,-337.8C314.01,-329.65 375.18,-315.72 437.27,-300.11"/>
<polygon fill="midnightblue" stroke="midnightblue" points="438.4,-303.44 447.23,-297.59 436.68,-296.65 438.4,-303.44"/>
</g>
<!-- Node19 -->
<g id="node19" class="node">
<title>Node19</title>
<g id="a_node19"><a xlink:title=" ">
<polygon fill="white" stroke="#bfbfbf" points="202,-280.5 202,-299.5 288,-299.5 288,-280.5 202,-280.5"/>
<text text-anchor="middle" x="245" y="-287.5" font-family="Helvetica,sans-Serif" font-size="10.00">unordered_set</text>
</a>
</g>
</g>
<!-- Node2&#45;&gt;Node19 -->
<g id="edge37" class="edge">
<title>Node2&#45;&gt;Node19</title>
<path fill="none" stroke="midnightblue" d="M245,-336.08C245,-329.01 245,-318.86 245,-309.99"/>
<polygon fill="midnightblue" stroke="midnightblue" points="248.5,-309.75 245,-299.75 241.5,-309.75 248.5,-309.75"/>
</g>
<!-- Node4 -->
<g id="node4" class="node">
<title>Node4</title>
<g id="a_node4"><a xlink:href="Vec3_8h.html" target="_top" xlink:title=" ">
<polygon fill="white" stroke="black" points="389.5,-56.5 389.5,-75.5 464.5,-75.5 464.5,-56.5 389.5,-56.5"/>
<text text-anchor="middle" x="427" y="-63.5" font-family="Helvetica,sans-Serif" font-size="10.00">base/Vec3.h</text>
</a>
</g>
</g>
<!-- Node3&#45;&gt;Node4 -->
<g id="edge3" class="edge">
<title>Node3&#45;&gt;Node4</title>
<path fill="none" stroke="midnightblue" d="M403.8,-280.15C406.17,-254.26 413.43,-176.42 421,-112 422.01,-103.38 423.26,-93.85 424.36,-85.79"/>
<polygon fill="midnightblue" stroke="midnightblue" points="427.87,-86 425.77,-75.62 420.93,-85.04 427.87,-86"/>
</g>
<!-- Node8 -->
<g id="node8" class="node">
<title>Node8</title>
<g id="a_node8"><a xlink:href="Vec2_8h.html" target="_top" xlink:title=" ">
<polygon fill="white" stroke="black" points="584.5,-112.5 584.5,-131.5 659.5,-131.5 659.5,-112.5 584.5,-112.5"/>
<text text-anchor="middle" x="622" y="-119.5" font-family="Helvetica,sans-Serif" font-size="10.00">base/Vec2.h</text>
</a>
</g>
</g>
<!-- Node3&#45;&gt;Node8 -->
<g id="edge7" class="edge">
<title>Node3&#45;&gt;Node8</title>
<path fill="none" stroke="midnightblue" d="M429.84,-280.73C483.33,-263.62 599.91,-223.02 621,-188 629.36,-174.12 628.66,-155.35 626.43,-141.56"/>
<polygon fill="midnightblue" stroke="midnightblue" points="629.86,-140.86 624.45,-131.74 622.99,-142.24 629.86,-140.86"/>
</g>
<!-- Node9 -->
<g id="node9" class="node">
<title>Node9</title>
<g id="a_node9"><a xlink:href="Mat3_8h.html" target="_top" xlink:title=" ">
<polygon fill="white" stroke="black" points="677.5,-112.5 677.5,-131.5 754.5,-131.5 754.5,-112.5 677.5,-112.5"/>
<text text-anchor="middle" x="716" y="-119.5" font-family="Helvetica,sans-Serif" font-size="10.00">base/Mat3.h</text>
</a>
</g>
</g>
<!-- Node3&#45;&gt;Node9 -->
<g id="edge11" class="edge">
<title>Node3&#45;&gt;Node9</title>
<path fill="none" stroke="midnightblue" d="M429.73,-281.91C474.36,-270.03 559.82,-247.1 566,-244 602.23,-225.81 606.42,-213.42 638,-188 658.85,-171.21 682.42,-151.46 698.13,-138.18"/>
<polygon fill="midnightblue" stroke="midnightblue" points="700.62,-140.66 705.99,-131.52 696.1,-135.32 700.62,-140.66"/>
</g>
<!-- Node10 -->
<g id="node10" class="node">
<title>Node10</title>
<g id="a_node10"><a xlink:href="ray_8h.html" target="_top" xlink:title=" ">
<polygon fill="white" stroke="black" points="430.5,-112.5 430.5,-131.5 489.5,-131.5 489.5,-112.5 430.5,-112.5"/>
<text text-anchor="middle" x="460" y="-119.5" font-family="Helvetica,sans-Serif" font-size="10.00">ray/ray.h</text>
</a>
</g>
</g>
<!-- Node3&#45;&gt;Node10 -->
<g id="edge13" class="edge">
<title>Node3&#45;&gt;Node10</title>
<path fill="none" stroke="midnightblue" d="M411.1,-280.43C418.71,-271.87 429.84,-258.01 436,-244 451.03,-209.81 456.72,-166.06 458.82,-141.63"/>
<polygon fill="midnightblue" stroke="midnightblue" points="462.32,-141.83 459.57,-131.59 455.34,-141.31 462.32,-141.83"/>
</g>
<!-- Node11 -->
<g id="node11" class="node">
<title>Node11</title>
<g id="a_node11"><a xlink:href="transfer_8h.html" target="_top" xlink:title=" ">
<polygon fill="white" stroke="black" points="508,-168.5 508,-187.5 612,-187.5 612,-168.5 508,-168.5"/>
<text text-anchor="middle" x="560" y="-175.5" font-family="Helvetica,sans-Serif" font-size="10.00">transfer/transfer.h</text>
</a>
</g>
</g>
<!-- Node3&#45;&gt;Node11 -->
<g id="edge16" class="edge">
<title>Node3&#45;&gt;Node11</title>
<path fill="none" stroke="midnightblue" d="M425.05,-280.44C444.18,-272.48 472.17,-259.53 494,-244 513.75,-229.95 533.12,-209.91 545.71,-195.81"/>
<polygon fill="midnightblue" stroke="midnightblue" points="548.68,-197.73 552.62,-187.9 543.41,-193.13 548.68,-197.73"/>
</g>
<!-- Node12 -->
<g id="node12" class="node">
<title>Node12</title>
<g id="a_node12"><a xlink:href="rop_8h.html" target="_top" xlink:title=" ">
<polygon fill="white" stroke="black" points="316,-168.5 316,-187.5 376,-187.5 376,-168.5 316,-168.5"/>
<text text-anchor="middle" x="346" y="-175.5" font-family="Helvetica,sans-Serif" font-size="10.00">rop/rop.h</text>
</a>
</g>
</g>
<!-- Node3&#45;&gt;Node12 -->
<g id="edge20" class="edge">
<title>Node3&#45;&gt;Node12</title>
<path fill="none" stroke="midnightblue" d="M398.53,-280.37C389.2,-262.38 367.53,-220.55 355.13,-196.63"/>
<polygon fill="midnightblue" stroke="midnightblue" points="358.16,-194.86 350.45,-187.59 351.95,-198.08 358.16,-194.86"/>
</g>
<!-- Node13 -->
<g id="node13" class="node">
<title>Node13</title>
<g id="a_node13"><a xlink:href="plane_8h.html" target="_top" xlink:title=" ">
<polygon fill="white" stroke="black" points="151.5,-224.5 151.5,-243.5 236.5,-243.5 236.5,-224.5 151.5,-224.5"/>
<text text-anchor="middle" x="194" y="-231.5" font-family="Helvetica,sans-Serif" font-size="10.00">shape/plane.h</text>
</a>
</g>
</g>
<!-- Node3&#45;&gt;Node13 -->
<g id="edge24" class="edge">
<title>Node3&#45;&gt;Node13</title>
<path fill="none" stroke="midnightblue" d="M376.1,-282.05C340.86,-272.95 278.65,-256.87 236.87,-246.08"/>
<polygon fill="midnightblue" stroke="midnightblue" points="237.54,-242.64 226.99,-243.52 235.79,-249.41 237.54,-242.64"/>
</g>
<!-- Node17 -->
<g id="node17" class="node">
<title>Node17</title>
<g id="a_node17"><a xlink:href="standard_8h.html" target="_top" xlink:title=" ">
<polygon fill="white" stroke="black" points="254.5,-224.5 254.5,-243.5 355.5,-243.5 355.5,-224.5 254.5,-224.5"/>
<text text-anchor="middle" x="305" y="-231.5" font-family="Helvetica,sans-Serif" font-size="10.00">shape/standard.h</text>
</a>
</g>
</g>
<!-- Node3&#45;&gt;Node17 -->
<g id="edge33" class="edge">
<title>Node3&#45;&gt;Node17</title>
<path fill="none" stroke="midnightblue" d="M387.25,-280.32C371.68,-271.74 347.62,-258.49 329.54,-248.52"/>
<polygon fill="midnightblue" stroke="midnightblue" points="331.15,-245.42 320.71,-243.65 327.78,-251.55 331.15,-245.42"/>
</g>
<!-- Node5 -->
<g id="node5" class="node">
<title>Node5</title>
<g id="a_node5"><a xlink:title=" ">
<polygon fill="white" stroke="#bfbfbf" points="243.5,-0.5 243.5,-19.5 290.5,-19.5 290.5,-0.5 243.5,-0.5"/>
<text text-anchor="middle" x="267" y="-7.5" font-family="Helvetica,sans-Serif" font-size="10.00">cmath</text>
</a>
</g>
</g>
<!-- Node4&#45;&gt;Node5 -->
<g id="edge4" class="edge">
<title>Node4&#45;&gt;Node5</title>
<path fill="none" stroke="midnightblue" d="M401.65,-56.44C374.26,-47.2 330.49,-32.43 300.33,-22.25"/>
<polygon fill="midnightblue" stroke="midnightblue" points="301.26,-18.87 290.67,-18.99 299.02,-25.5 301.26,-18.87"/>
</g>
<!-- Node6 -->
<g id="node6" class="node">
<title>Node6</title>
<g id="a_node6"><a xlink:title=" ">
<polygon fill="white" stroke="#bfbfbf" points="463,-0.5 463,-19.5 523,-19.5 523,-0.5 463,-0.5"/>
<text text-anchor="middle" x="493" y="-7.5" font-family="Helvetica,sans-Serif" font-size="10.00">iostream</text>
</a>
</g>
</g>
<!-- Node4&#45;&gt;Node6 -->
<g id="edge5" class="edge">
<title>Node4&#45;&gt;Node6</title>
<path fill="none" stroke="midnightblue" d="M437.6,-56.32C447.46,-48.26 462.35,-36.08 474.22,-26.37"/>
<polygon fill="midnightblue" stroke="midnightblue" points="476.68,-28.88 482.2,-19.83 472.25,-23.46 476.68,-28.88"/>
</g>
<!-- Node7 -->
<g id="node7" class="node">
<title>Node7</title>
<g id="a_node7"><a xlink:title=" ">
<polygon fill="white" stroke="#bfbfbf" points="593.5,-0.5 593.5,-19.5 670.5,-19.5 670.5,-0.5 593.5,-0.5"/>
<text text-anchor="middle" x="632" y="-7.5" font-family="Helvetica,sans-Serif" font-size="10.00">Eigen/Dense</text>
</a>
</g>
</g>
<!-- Node4&#45;&gt;Node7 -->
<g id="edge6" class="edge">
<title>Node4&#45;&gt;Node7</title>
<path fill="none" stroke="midnightblue" d="M459.48,-56.44C494.72,-47.16 551.1,-32.31 589.76,-22.13"/>
<polygon fill="midnightblue" stroke="midnightblue" points="590.89,-25.45 599.67,-19.52 589.11,-18.68 590.89,-25.45"/>
</g>
<!-- Node8&#45;&gt;Node4 -->
<g id="edge10" class="edge">
<title>Node8&#45;&gt;Node4</title>
<path fill="none" stroke="midnightblue" d="M591.1,-112.44C557.73,-103.2 504.41,-88.44 467.65,-78.26"/>
<polygon fill="midnightblue" stroke="midnightblue" points="468.33,-74.81 457.75,-75.52 466.46,-81.56 468.33,-74.81"/>
</g>
<!-- Node8&#45;&gt;Node6 -->
<g id="edge9" class="edge">
<title>Node8&#45;&gt;Node6</title>
<path fill="none" stroke="midnightblue" d="M616.47,-112.16C607.79,-98.79 589.9,-73.19 570,-56 555.25,-43.26 536.39,-32.17 521.03,-24.18"/>
<polygon fill="midnightblue" stroke="midnightblue" points="522.49,-21 511.98,-19.63 519.34,-27.25 522.49,-21"/>
</g>
<!-- Node8&#45;&gt;Node7 -->
<g id="edge8" class="edge">
<title>Node8&#45;&gt;Node7</title>
<path fill="none" stroke="midnightblue" d="M622.78,-112.37C624.4,-94.62 628.12,-53.67 630.31,-29.6"/>
<polygon fill="midnightblue" stroke="midnightblue" points="633.8,-29.87 631.22,-19.59 626.83,-29.23 633.8,-29.87"/>
</g>
<!-- Node9&#45;&gt;Node7 -->
<g id="edge12" class="edge">
<title>Node9&#45;&gt;Node7</title>
<path fill="none" stroke="midnightblue" d="M709.41,-112.37C695.48,-94.14 662.87,-51.43 644.73,-27.68"/>
<polygon fill="midnightblue" stroke="midnightblue" points="647.41,-25.41 638.56,-19.59 641.85,-29.66 647.41,-25.41"/>
</g>
<!-- Node10&#45;&gt;Node4 -->
<g id="edge14" class="edge">
<title>Node10&#45;&gt;Node4</title>
<path fill="none" stroke="midnightblue" d="M454.55,-112.08C449.99,-104.61 443.33,-93.72 437.71,-84.52"/>
<polygon fill="midnightblue" stroke="midnightblue" points="440.55,-82.46 432.35,-75.75 434.58,-86.11 440.55,-82.46"/>
</g>
<!-- Node10&#45;&gt;Node6 -->
<g id="edge15" class="edge">
<title>Node10&#45;&gt;Node6</title>
<path fill="none" stroke="midnightblue" d="M462.59,-112.37C467.94,-94.54 480.31,-53.3 487.52,-29.27"/>
<polygon fill="midnightblue" stroke="midnightblue" points="490.9,-30.18 490.42,-19.59 484.2,-28.16 490.9,-30.18"/>
</g>
<!-- Node11&#45;&gt;Node4 -->
<g id="edge17" class="edge">
<title>Node11&#45;&gt;Node4</title>
<path fill="none" stroke="midnightblue" d="M553.11,-168.33C542.41,-155.19 520.76,-129.88 499,-112 484.43,-100.02 466.43,-88.78 452.08,-80.52"/>
<polygon fill="midnightblue" stroke="midnightblue" points="453.67,-77.4 443.24,-75.55 450.24,-83.51 453.67,-77.4"/>
</g>
<!-- Node11&#45;&gt;Node9 -->
<g id="edge18" class="edge">
<title>Node11&#45;&gt;Node9</title>
<path fill="none" stroke="midnightblue" d="M584.72,-168.44C610.85,-159.4 652.26,-145.06 681.58,-134.92"/>
<polygon fill="midnightblue" stroke="midnightblue" points="683.09,-138.1 691.4,-131.52 680.8,-131.48 683.09,-138.1"/>
</g>
<!-- Node11&#45;&gt;Node10 -->
<g id="edge19" class="edge">
<title>Node11&#45;&gt;Node10</title>
<path fill="none" stroke="midnightblue" d="M543.93,-168.32C528.04,-159.74 503.49,-146.49 485.04,-136.52"/>
<polygon fill="midnightblue" stroke="midnightblue" points="486.49,-133.33 476.03,-131.65 483.16,-139.49 486.49,-133.33"/>
</g>
<!-- Node12&#45;&gt;Node4 -->
<g id="edge21" class="edge">
<title>Node12&#45;&gt;Node4</title>
<path fill="none" stroke="midnightblue" d="M351.07,-168.33C358.62,-155.62 373.48,-131.34 388,-112 395.45,-102.08 404.48,-91.57 411.98,-83.21"/>
<polygon fill="midnightblue" stroke="midnightblue" points="414.71,-85.41 418.85,-75.66 409.53,-80.7 414.71,-85.41"/>
</g>
<!-- Node12&#45;&gt;Node5 -->
<g id="edge23" class="edge">
<title>Node12&#45;&gt;Node5</title>
<path fill="none" stroke="midnightblue" d="M341.75,-168.08C329.21,-141.72 292.16,-63.88 275.4,-28.66"/>
<polygon fill="midnightblue" stroke="midnightblue" points="278.54,-27.09 271.08,-19.57 272.21,-30.1 278.54,-27.09"/>
</g>
<!-- Node12&#45;&gt;Node10 -->
<g id="edge22" class="edge">
<title>Node12&#45;&gt;Node10</title>
<path fill="none" stroke="midnightblue" d="M364.06,-168.44C382.57,-159.68 411.58,-145.94 432.86,-135.86"/>
<polygon fill="midnightblue" stroke="midnightblue" points="434.48,-138.96 442.02,-131.52 431.49,-132.63 434.48,-138.96"/>
</g>
<!-- Node13&#45;&gt;Node5 -->
<g id="edge32" class="edge">
<title>Node13&#45;&gt;Node5</title>
<path fill="none" stroke="midnightblue" d="M168.39,-224.45C120.3,-206.95 24.15,-164.25 57,-112 95.92,-50.1 184.56,-25.26 233.31,-16.01"/>
<polygon fill="midnightblue" stroke="midnightblue" points="234.13,-19.41 243.36,-14.21 232.9,-12.52 234.13,-19.41"/>
</g>
<!-- Node13&#45;&gt;Node6 -->
<g id="edge31" class="edge">
<title>Node13&#45;&gt;Node6</title>
<path fill="none" stroke="midnightblue" d="M209.86,-224.48C224.64,-216.17 246.89,-202.66 264,-188 323.53,-136.99 316.92,-101.15 381,-56 402.79,-40.65 430.57,-29.44 453.01,-22.06"/>
<polygon fill="midnightblue" stroke="midnightblue" points="454.11,-25.38 462.59,-19.02 452,-18.71 454.11,-25.38"/>
</g>
<!-- Node14 -->
<g id="node14" class="node">
<title>Node14</title>
<g id="a_node14"><a xlink:href="shape_8h.html" target="_top" xlink:title=" ">
<polygon fill="white" stroke="black" points="168.5,-168.5 168.5,-187.5 255.5,-187.5 255.5,-168.5 168.5,-168.5"/>
<text text-anchor="middle" x="212" y="-175.5" font-family="Helvetica,sans-Serif" font-size="10.00">shape/shape.h</text>
</a>
</g>
</g>
<!-- Node13&#45;&gt;Node14 -->
<g id="edge25" class="edge">
<title>Node13&#45;&gt;Node14</title>
<path fill="none" stroke="midnightblue" d="M196.97,-224.08C199.38,-216.85 202.86,-206.41 205.87,-197.4"/>
<polygon fill="midnightblue" stroke="midnightblue" points="209.24,-198.34 209.08,-187.75 202.6,-196.13 209.24,-198.34"/>
</g>
<!-- Node14&#45;&gt;Node4 -->
<g id="edge27" class="edge">
<title>Node14&#45;&gt;Node4</title>
<path fill="none" stroke="midnightblue" d="M228.87,-168.37C266.31,-149.21 356.57,-103.04 401.17,-80.22"/>
<polygon fill="midnightblue" stroke="midnightblue" points="402.9,-83.26 410.21,-75.59 399.71,-77.03 402.9,-83.26"/>
</g>
<!-- Node14&#45;&gt;Node5 -->
<g id="edge28" class="edge">
<title>Node14&#45;&gt;Node5</title>
<path fill="none" stroke="midnightblue" d="M214.96,-168.08C223.65,-141.83 249.26,-64.55 261,-29.12"/>
<polygon fill="midnightblue" stroke="midnightblue" points="264.34,-30.16 264.16,-19.57 257.69,-27.96 264.34,-30.16"/>
</g>
<!-- Node14&#45;&gt;Node10 -->
<g id="edge26" class="edge">
<title>Node14&#45;&gt;Node10</title>
<path fill="none" stroke="midnightblue" d="M251.3,-168.44C297.52,-158.38 373.81,-141.77 420.23,-131.66"/>
<polygon fill="midnightblue" stroke="midnightblue" points="421.2,-135.03 430.23,-129.48 419.71,-128.19 421.2,-135.03"/>
</g>
<!-- Node14&#45;&gt;Node15 -->
<g id="edge29" class="edge">
<title>Node14&#45;&gt;Node15</title>
<path fill="none" stroke="midnightblue" d="M192.35,-168.44C172.04,-159.6 140.1,-145.69 116.9,-135.59"/>
<polygon fill="midnightblue" stroke="midnightblue" points="118.12,-132.3 107.56,-131.52 115.33,-138.72 118.12,-132.3"/>
</g>
<!-- Node14&#45;&gt;Node16 -->
<g id="edge30" class="edge">
<title>Node14&#45;&gt;Node16</title>
<path fill="none" stroke="midnightblue" d="M203,-168.32C194.81,-160.42 182.49,-148.55 172.53,-138.94"/>
<polygon fill="midnightblue" stroke="midnightblue" points="174.79,-136.26 165.16,-131.83 169.93,-141.29 174.79,-136.26"/>
</g>
<!-- Node17&#45;&gt;Node6 -->
<g id="edge35" class="edge">
<title>Node17&#45;&gt;Node6</title>
<path fill="none" stroke="midnightblue" d="M347.53,-224.42C394,-212.52 466.2,-186.05 499,-132 518.29,-100.2 508.07,-54.6 499.9,-29.44"/>
<polygon fill="midnightblue" stroke="midnightblue" points="503.11,-28.01 496.51,-19.72 496.5,-30.31 503.11,-28.01"/>
</g>
<!-- Node17&#45;&gt;Node14 -->
<g id="edge34" class="edge">
<title>Node17&#45;&gt;Node14</title>
<path fill="none" stroke="midnightblue" d="M290.06,-224.32C275.41,-215.82 252.87,-202.73 235.76,-192.8"/>
<polygon fill="midnightblue" stroke="midnightblue" points="237.31,-189.65 226.9,-187.65 233.8,-195.7 237.31,-189.65"/>
</g>
</g>
</svg>
