<?xml version="1.0" encoding="UTF-8" standalone="no"?>
<!DOCTYPE svg PUBLIC "-//W3C//DTD SVG 1.1//EN"
 "http://www.w3.org/Graphics/SVG/1.1/DTD/svg11.dtd">
<!-- Generated by graphviz version 2.43.0 (0)
 -->
<!-- Title: src/pewit/src/lseq_part_result/lseq_part_global_rays.h Pages: 1 -->
<svg width="956pt" height="666pt"
 viewBox="0.00 0.00 955.50 666.00" xmlns="http://www.w3.org/2000/svg" xmlns:xlink="http://www.w3.org/1999/xlink">
<g id="graph0" class="graph" transform="scale(1 1) rotate(0) translate(4 662)">
<title>src/pewit/src/lseq_part_result/lseq_part_global_rays.h</title>
<polygon fill="white" stroke="transparent" points="-4,4 -4,-662 951.5,-662 951.5,4 -4,4"/>
<!-- Node1 -->
<g id="node1" class="node">
<title>Node1</title>
<g id="a_node1"><a xlink:title=" ">
<polygon fill="#bfbfbf" stroke="black" points="150.5,-616.5 150.5,-657.5 272.5,-657.5 272.5,-616.5 150.5,-616.5"/>
<text text-anchor="start" x="158.5" y="-645.5" font-family="Helvetica,sans-Serif" font-size="10.00">src/pewit/src/lseq</text>
<text text-anchor="start" x="158.5" y="-634.5" font-family="Helvetica,sans-Serif" font-size="10.00">_part_result/lseq_part</text>
<text text-anchor="middle" x="211.5" y="-623.5" font-family="Helvetica,sans-Serif" font-size="10.00">_global_rays.h</text>
</a>
</g>
</g>
<!-- Node2 -->
<g id="node2" class="node">
<title>Node2</title>
<g id="a_node2"><a xlink:href="lseq__part__result_8h.html" target="_top" xlink:title=" ">
<polygon fill="white" stroke="black" points="104.5,-560.5 104.5,-579.5 208.5,-579.5 208.5,-560.5 104.5,-560.5"/>
<text text-anchor="middle" x="156.5" y="-567.5" font-family="Helvetica,sans-Serif" font-size="10.00">lseq_part_result.h</text>
</a>
</g>
</g>
<!-- Node1&#45;&gt;Node2 -->
<g id="edge1" class="edge">
<title>Node1&#45;&gt;Node2</title>
<path fill="none" stroke="midnightblue" d="M195,-616.5C187.13,-607.2 177.83,-596.21 170.34,-587.36"/>
<polygon fill="midnightblue" stroke="midnightblue" points="172.95,-585.03 163.82,-579.65 167.61,-589.55 172.95,-585.03"/>
</g>
<!-- Node3 -->
<g id="node3" class="node">
<title>Node3</title>
<g id="a_node3"><a xlink:href="ray__pack_8h.html" target="_top" xlink:title=" ">
<polygon fill="white" stroke="black" points="227,-560.5 227,-579.5 306,-579.5 306,-560.5 227,-560.5"/>
<text text-anchor="middle" x="266.5" y="-567.5" font-family="Helvetica,sans-Serif" font-size="10.00">../ray_pack.h</text>
</a>
</g>
</g>
<!-- Node1&#45;&gt;Node3 -->
<g id="edge2" class="edge">
<title>Node1&#45;&gt;Node3</title>
<path fill="none" stroke="midnightblue" d="M228,-616.5C235.87,-607.2 245.17,-596.21 252.66,-587.36"/>
<polygon fill="midnightblue" stroke="midnightblue" points="255.39,-589.55 259.18,-579.65 250.05,-585.03 255.39,-589.55"/>
</g>
<!-- Node4 -->
<g id="node4" class="node">
<title>Node4</title>
<g id="a_node4"><a xlink:href="pinyo_8h.html" target="_top" xlink:title=" ">
<polygon fill="white" stroke="black" points="240,-504.5 240,-523.5 293,-523.5 293,-504.5 240,-504.5"/>
<text text-anchor="middle" x="266.5" y="-511.5" font-family="Helvetica,sans-Serif" font-size="10.00">pinyo.h</text>
</a>
</g>
</g>
<!-- Node3&#45;&gt;Node4 -->
<g id="edge3" class="edge">
<title>Node3&#45;&gt;Node4</title>
<path fill="none" stroke="midnightblue" d="M266.5,-560.08C266.5,-553.01 266.5,-542.86 266.5,-533.99"/>
<polygon fill="midnightblue" stroke="midnightblue" points="270,-533.75 266.5,-523.75 263,-533.75 270,-533.75"/>
</g>
<!-- Node9 -->
<g id="node9" class="node">
<title>Node9</title>
<g id="a_node9"><a xlink:title=" ">
<polygon fill="white" stroke="#bfbfbf" points="589.5,-0.5 589.5,-19.5 649.5,-19.5 649.5,-0.5 589.5,-0.5"/>
<text text-anchor="middle" x="619.5" y="-7.5" font-family="Helvetica,sans-Serif" font-size="10.00">iostream</text>
</a>
</g>
</g>
<!-- Node3&#45;&gt;Node9 -->
<g id="edge52" class="edge">
<title>Node3&#45;&gt;Node9</title>
<path fill="none" stroke="midnightblue" d="M306.06,-566.82C451.4,-558.3 947.5,-524.42 947.5,-459 947.5,-459 947.5,-459 947.5,-121 947.5,-60.98 747.55,-27.63 659.88,-15.89"/>
<polygon fill="midnightblue" stroke="midnightblue" points="660.14,-12.39 649.77,-14.56 659.23,-19.33 660.14,-12.39"/>
</g>
<!-- Node21 -->
<g id="node21" class="node">
<title>Node21</title>
<g id="a_node21"><a xlink:title=" ">
<polygon fill="white" stroke="#bfbfbf" points="0,-280.5 0,-299.5 47,-299.5 47,-280.5 0,-280.5"/>
<text text-anchor="middle" x="23.5" y="-287.5" font-family="Helvetica,sans-Serif" font-size="10.00">vector</text>
</a>
</g>
</g>
<!-- Node3&#45;&gt;Node21 -->
<g id="edge53" class="edge">
<title>Node3&#45;&gt;Node21</title>
<path fill="none" stroke="midnightblue" d="M234.12,-560.49C171.63,-543.1 40.5,-501.55 40.5,-459 40.5,-459 40.5,-459 40.5,-401 40.5,-368.58 33.2,-331.42 28.17,-309.64"/>
<polygon fill="midnightblue" stroke="midnightblue" points="31.53,-308.67 25.79,-299.77 24.73,-310.31 31.53,-308.67"/>
</g>
<!-- Node5 -->
<g id="node5" class="node">
<title>Node5</title>
<g id="a_node5"><a xlink:href="bun_8h.html" target="_top" xlink:title=" ">
<polygon fill="white" stroke="black" points="86,-336.5 86,-355.5 151,-355.5 151,-336.5 86,-336.5"/>
<text text-anchor="middle" x="118.5" y="-343.5" font-family="Helvetica,sans-Serif" font-size="10.00">bun/bun.h</text>
</a>
</g>
</g>
<!-- Node4&#45;&gt;Node5 -->
<g id="edge4" class="edge">
<title>Node4&#45;&gt;Node5</title>
<path fill="none" stroke="midnightblue" d="M258.54,-504.08C234.74,-477.38 163.85,-397.87 133.05,-363.32"/>
<polygon fill="midnightblue" stroke="midnightblue" points="135.41,-360.7 126.14,-355.57 130.18,-365.36 135.41,-360.7"/>
</g>
<!-- Node23 -->
<g id="node23" class="node">
<title>Node23</title>
<g id="a_node23"><a xlink:href="lpart_8h.html" target="_top" xlink:title=" ">
<polygon fill="white" stroke="black" points="199.5,-392.5 199.5,-411.5 273.5,-411.5 273.5,-392.5 199.5,-392.5"/>
<text text-anchor="middle" x="236.5" y="-399.5" font-family="Helvetica,sans-Serif" font-size="10.00">lpart/lpart.h</text>
</a>
</g>
</g>
<!-- Node4&#45;&gt;Node23 -->
<g id="edge41" class="edge">
<title>Node4&#45;&gt;Node23</title>
<path fill="none" stroke="midnightblue" d="M260.62,-504.49C254.92,-495.76 246.56,-481.57 242.5,-468 237.97,-452.89 236.6,-434.99 236.28,-421.8"/>
<polygon fill="midnightblue" stroke="midnightblue" points="239.78,-421.6 236.22,-411.62 232.78,-421.64 239.78,-421.6"/>
</g>
<!-- Node25 -->
<g id="node25" class="node">
<title>Node25</title>
<g id="a_node25"><a xlink:href="transfer__part_8h.html" target="_top" xlink:title=" ">
<polygon fill="white" stroke="black" points="251.5,-448.5 251.5,-467.5 365.5,-467.5 365.5,-448.5 251.5,-448.5"/>
<text text-anchor="middle" x="308.5" y="-455.5" font-family="Helvetica,sans-Serif" font-size="10.00">lpart/transfer_part.h</text>
</a>
</g>
</g>
<!-- Node4&#45;&gt;Node25 -->
<g id="edge46" class="edge">
<title>Node4&#45;&gt;Node25</title>
<path fill="none" stroke="midnightblue" d="M273.44,-504.08C279.43,-496.38 288.25,-485.03 295.55,-475.65"/>
<polygon fill="midnightblue" stroke="midnightblue" points="298.32,-477.79 301.69,-467.75 292.79,-473.5 298.32,-477.79"/>
</g>
<!-- Node26 -->
<g id="node26" class="node">
<title>Node26</title>
<g id="a_node26"><a xlink:href="shape__part_8h.html" target="_top" xlink:title=" ">
<polygon fill="white" stroke="black" points="384,-448.5 384,-467.5 489,-467.5 489,-448.5 384,-448.5"/>
<text text-anchor="middle" x="436.5" y="-455.5" font-family="Helvetica,sans-Serif" font-size="10.00">lpart/shape_part.h</text>
</a>
</g>
</g>
<!-- Node4&#45;&gt;Node26 -->
<g id="edge49" class="edge">
<title>Node4&#45;&gt;Node26</title>
<path fill="none" stroke="midnightblue" d="M293.06,-504.56C321.71,-495.46 367.53,-480.91 399.65,-470.7"/>
<polygon fill="midnightblue" stroke="midnightblue" points="401.09,-473.92 409.56,-467.56 398.97,-467.25 401.09,-473.92"/>
</g>
<!-- Node6 -->
<g id="node6" class="node">
<title>Node6</title>
<g id="a_node6"><a xlink:href="poaky_8h.html" target="_top" xlink:title=" ">
<polygon fill="white" stroke="black" points="467,-280.5 467,-299.5 520,-299.5 520,-280.5 467,-280.5"/>
<text text-anchor="middle" x="493.5" y="-287.5" font-family="Helvetica,sans-Serif" font-size="10.00">poaky.h</text>
</a>
</g>
</g>
<!-- Node5&#45;&gt;Node6 -->
<g id="edge5" class="edge">
<title>Node5&#45;&gt;Node6</title>
<path fill="none" stroke="midnightblue" d="M151.12,-340.3C220.76,-330.27 383.54,-306.83 456.72,-296.3"/>
<polygon fill="midnightblue" stroke="midnightblue" points="457.45,-299.73 466.85,-294.84 456.45,-292.8 457.45,-299.73"/>
</g>
<!-- Node5&#45;&gt;Node21 -->
<g id="edge39" class="edge">
<title>Node5&#45;&gt;Node21</title>
<path fill="none" stroke="midnightblue" d="M103.24,-336.32C88.28,-327.82 65.25,-314.73 47.77,-304.8"/>
<polygon fill="midnightblue" stroke="midnightblue" points="49.15,-301.55 38.73,-299.65 45.69,-307.64 49.15,-301.55"/>
</g>
<!-- Node22 -->
<g id="node22" class="node">
<title>Node22</title>
<g id="a_node22"><a xlink:title=" ">
<polygon fill="white" stroke="#bfbfbf" points="65.5,-280.5 65.5,-299.5 151.5,-299.5 151.5,-280.5 65.5,-280.5"/>
<text text-anchor="middle" x="108.5" y="-287.5" font-family="Helvetica,sans-Serif" font-size="10.00">unordered_set</text>
</a>
</g>
</g>
<!-- Node5&#45;&gt;Node22 -->
<g id="edge40" class="edge">
<title>Node5&#45;&gt;Node22</title>
<path fill="none" stroke="midnightblue" d="M116.85,-336.08C115.52,-328.93 113.62,-318.64 111.96,-309.69"/>
<polygon fill="midnightblue" stroke="midnightblue" points="115.38,-308.95 110.12,-299.75 108.5,-310.22 115.38,-308.95"/>
</g>
<!-- Node7 -->
<g id="node7" class="node">
<title>Node7</title>
<g id="a_node7"><a xlink:href="Vec3_8h.html" target="_top" xlink:title=" ">
<polygon fill="white" stroke="black" points="615,-56.5 615,-75.5 690,-75.5 690,-56.5 615,-56.5"/>
<text text-anchor="middle" x="652.5" y="-63.5" font-family="Helvetica,sans-Serif" font-size="10.00">base/Vec3.h</text>
</a>
</g>
</g>
<!-- Node6&#45;&gt;Node7 -->
<g id="edge6" class="edge">
<title>Node6&#45;&gt;Node7</title>
<path fill="none" stroke="midnightblue" d="M520.11,-285.72C568.04,-278.21 667.83,-254.92 710.5,-188 733.33,-152.2 694.25,-106.04 669.84,-82.42"/>
<polygon fill="midnightblue" stroke="midnightblue" points="672.23,-79.86 662.53,-75.58 667.45,-84.97 672.23,-79.86"/>
</g>
<!-- Node11 -->
<g id="node11" class="node">
<title>Node11</title>
<g id="a_node11"><a xlink:href="Vec2_8h.html" target="_top" xlink:title=" ">
<polygon fill="white" stroke="black" points="749,-112.5 749,-131.5 824,-131.5 824,-112.5 749,-112.5"/>
<text text-anchor="middle" x="786.5" y="-119.5" font-family="Helvetica,sans-Serif" font-size="10.00">base/Vec2.h</text>
</a>
</g>
</g>
<!-- Node6&#45;&gt;Node11 -->
<g id="edge10" class="edge">
<title>Node6&#45;&gt;Node11</title>
<path fill="none" stroke="midnightblue" d="M520.19,-287.52C577.54,-283.84 710.04,-272.39 743.5,-244 774.14,-218 782.95,-168.63 785.48,-141.68"/>
<polygon fill="midnightblue" stroke="midnightblue" points="788.98,-141.88 786.23,-131.64 782,-141.36 788.98,-141.88"/>
</g>
<!-- Node12 -->
<g id="node12" class="node">
<title>Node12</title>
<g id="a_node12"><a xlink:href="Mat3_8h.html" target="_top" xlink:title=" ">
<polygon fill="white" stroke="black" points="842,-112.5 842,-131.5 919,-131.5 919,-112.5 842,-112.5"/>
<text text-anchor="middle" x="880.5" y="-119.5" font-family="Helvetica,sans-Serif" font-size="10.00">base/Mat3.h</text>
</a>
</g>
</g>
<!-- Node6&#45;&gt;Node12 -->
<g id="edge14" class="edge">
<title>Node6&#45;&gt;Node12</title>
<path fill="none" stroke="midnightblue" d="M520.33,-286.74C580.27,-281.35 723.1,-266.47 765.5,-244 812.71,-218.98 851.56,-167.24 869.61,-140.25"/>
<polygon fill="midnightblue" stroke="midnightblue" points="872.78,-141.8 875.3,-131.51 866.91,-137.98 872.78,-141.8"/>
</g>
<!-- Node13 -->
<g id="node13" class="node">
<title>Node13</title>
<g id="a_node13"><a xlink:href="ray_8h.html" target="_top" xlink:title=" ">
<polygon fill="white" stroke="black" points="557,-112.5 557,-131.5 616,-131.5 616,-112.5 557,-112.5"/>
<text text-anchor="middle" x="586.5" y="-119.5" font-family="Helvetica,sans-Serif" font-size="10.00">ray/ray.h</text>
</a>
</g>
</g>
<!-- Node6&#45;&gt;Node13 -->
<g id="edge16" class="edge">
<title>Node6&#45;&gt;Node13</title>
<path fill="none" stroke="midnightblue" d="M492.31,-280.2C489.92,-258.92 486.62,-203.83 510.5,-168 520.13,-153.56 536.1,-143.09 550.93,-135.9"/>
<polygon fill="midnightblue" stroke="midnightblue" points="552.73,-138.93 560.42,-131.65 549.87,-132.54 552.73,-138.93"/>
</g>
<!-- Node14 -->
<g id="node14" class="node">
<title>Node14</title>
<g id="a_node14"><a xlink:href="transfer_8h.html" target="_top" xlink:title=" ">
<polygon fill="white" stroke="black" points="597.5,-168.5 597.5,-187.5 701.5,-187.5 701.5,-168.5 597.5,-168.5"/>
<text text-anchor="middle" x="649.5" y="-175.5" font-family="Helvetica,sans-Serif" font-size="10.00">transfer/transfer.h</text>
</a>
</g>
</g>
<!-- Node6&#45;&gt;Node14 -->
<g id="edge19" class="edge">
<title>Node6&#45;&gt;Node14</title>
<path fill="none" stroke="midnightblue" d="M505.74,-280.37C532.4,-261.57 595.94,-216.77 628.89,-193.53"/>
<polygon fill="midnightblue" stroke="midnightblue" points="631.16,-196.21 637.32,-187.59 627.13,-190.49 631.16,-196.21"/>
</g>
<!-- Node15 -->
<g id="node15" class="node">
<title>Node15</title>
<g id="a_node15"><a xlink:href="rop_8h.html" target="_top" xlink:title=" ">
<polygon fill="white" stroke="black" points="519.5,-168.5 519.5,-187.5 579.5,-187.5 579.5,-168.5 519.5,-168.5"/>
<text text-anchor="middle" x="549.5" y="-175.5" font-family="Helvetica,sans-Serif" font-size="10.00">rop/rop.h</text>
</a>
</g>
</g>
<!-- Node6&#45;&gt;Node15 -->
<g id="edge23" class="edge">
<title>Node6&#45;&gt;Node15</title>
<path fill="none" stroke="midnightblue" d="M497.89,-280.37C507.05,-262.38 528.35,-220.55 540.53,-196.63"/>
<polygon fill="midnightblue" stroke="midnightblue" points="543.71,-198.09 545.13,-187.59 537.47,-194.92 543.71,-198.09"/>
</g>
<!-- Node16 -->
<g id="node16" class="node">
<title>Node16</title>
<g id="a_node16"><a xlink:href="plane_8h.html" target="_top" xlink:title=" ">
<polygon fill="white" stroke="black" points="380,-224.5 380,-243.5 465,-243.5 465,-224.5 380,-224.5"/>
<text text-anchor="middle" x="422.5" y="-231.5" font-family="Helvetica,sans-Serif" font-size="10.00">shape/plane.h</text>
</a>
</g>
</g>
<!-- Node6&#45;&gt;Node16 -->
<g id="edge27" class="edge">
<title>Node6&#45;&gt;Node16</title>
<path fill="none" stroke="midnightblue" d="M482.09,-280.32C471.39,-272.18 455.16,-259.84 442.34,-250.09"/>
<polygon fill="midnightblue" stroke="midnightblue" points="444.19,-247.1 434.11,-243.83 439.96,-252.67 444.19,-247.1"/>
</g>
<!-- Node20 -->
<g id="node20" class="node">
<title>Node20</title>
<g id="a_node20"><a xlink:href="standard_8h.html" target="_top" xlink:title=" ">
<polygon fill="white" stroke="black" points="261,-224.5 261,-243.5 362,-243.5 362,-224.5 261,-224.5"/>
<text text-anchor="middle" x="311.5" y="-231.5" font-family="Helvetica,sans-Serif" font-size="10.00">shape/standard.h</text>
</a>
</g>
</g>
<!-- Node6&#45;&gt;Node20 -->
<g id="edge36" class="edge">
<title>Node6&#45;&gt;Node20</title>
<path fill="none" stroke="midnightblue" d="M466.65,-281.03C435.87,-271.9 385.17,-256.86 350.15,-246.47"/>
<polygon fill="midnightblue" stroke="midnightblue" points="350.85,-243.03 340.27,-243.54 348.86,-249.74 350.85,-243.03"/>
</g>
<!-- Node8 -->
<g id="node8" class="node">
<title>Node8</title>
<g id="a_node8"><a xlink:title=" ">
<polygon fill="white" stroke="#bfbfbf" points="425,-0.5 425,-19.5 472,-19.5 472,-0.5 425,-0.5"/>
<text text-anchor="middle" x="448.5" y="-7.5" font-family="Helvetica,sans-Serif" font-size="10.00">cmath</text>
</a>
</g>
</g>
<!-- Node7&#45;&gt;Node8 -->
<g id="edge7" class="edge">
<title>Node7&#45;&gt;Node8</title>
<path fill="none" stroke="midnightblue" d="M620.18,-56.44C582.49,-46.47 520.49,-30.06 482.21,-19.92"/>
<polygon fill="midnightblue" stroke="midnightblue" points="482.65,-16.42 472.09,-17.24 480.86,-23.19 482.65,-16.42"/>
</g>
<!-- Node7&#45;&gt;Node9 -->
<g id="edge8" class="edge">
<title>Node7&#45;&gt;Node9</title>
<path fill="none" stroke="midnightblue" d="M647.05,-56.08C642.49,-48.61 635.83,-37.72 630.21,-28.52"/>
<polygon fill="midnightblue" stroke="midnightblue" points="633.05,-26.46 624.85,-19.75 627.08,-30.11 633.05,-26.46"/>
</g>
<!-- Node10 -->
<g id="node10" class="node">
<title>Node10</title>
<g id="a_node10"><a xlink:title=" ">
<polygon fill="white" stroke="#bfbfbf" points="748,-0.5 748,-19.5 825,-19.5 825,-0.5 748,-0.5"/>
<text text-anchor="middle" x="786.5" y="-7.5" font-family="Helvetica,sans-Serif" font-size="10.00">Eigen/Dense</text>
</a>
</g>
</g>
<!-- Node7&#45;&gt;Node10 -->
<g id="edge9" class="edge">
<title>Node7&#45;&gt;Node10</title>
<path fill="none" stroke="midnightblue" d="M673.73,-56.44C695.88,-47.52 730.82,-33.44 755.94,-23.32"/>
<polygon fill="midnightblue" stroke="midnightblue" points="757.4,-26.5 765.37,-19.52 754.78,-20.01 757.4,-26.5"/>
</g>
<!-- Node11&#45;&gt;Node7 -->
<g id="edge13" class="edge">
<title>Node11&#45;&gt;Node7</title>
<path fill="none" stroke="midnightblue" d="M765.27,-112.44C743.12,-103.52 708.18,-89.44 683.06,-79.32"/>
<polygon fill="midnightblue" stroke="midnightblue" points="684.22,-76.01 673.63,-75.52 681.6,-82.5 684.22,-76.01"/>
</g>
<!-- Node11&#45;&gt;Node9 -->
<g id="edge12" class="edge">
<title>Node11&#45;&gt;Node9</title>
<path fill="none" stroke="midnightblue" d="M775.84,-112.33C759.75,-99.4 728.1,-74.62 699.5,-56 681.91,-44.55 661.26,-32.98 645.34,-24.43"/>
<polygon fill="midnightblue" stroke="midnightblue" points="646.58,-21.13 636.11,-19.53 643.3,-27.31 646.58,-21.13"/>
</g>
<!-- Node11&#45;&gt;Node10 -->
<g id="edge11" class="edge">
<title>Node11&#45;&gt;Node10</title>
<path fill="none" stroke="midnightblue" d="M786.5,-112.37C786.5,-94.62 786.5,-53.67 786.5,-29.6"/>
<polygon fill="midnightblue" stroke="midnightblue" points="790,-29.59 786.5,-19.59 783,-29.59 790,-29.59"/>
</g>
<!-- Node12&#45;&gt;Node10 -->
<g id="edge15" class="edge">
<title>Node12&#45;&gt;Node10</title>
<path fill="none" stroke="midnightblue" d="M873.12,-112.37C857.47,-94.05 820.72,-51.05 800.48,-27.36"/>
<polygon fill="midnightblue" stroke="midnightblue" points="803,-24.92 793.84,-19.59 797.68,-29.47 803,-24.92"/>
</g>
<!-- Node13&#45;&gt;Node7 -->
<g id="edge17" class="edge">
<title>Node13&#45;&gt;Node7</title>
<path fill="none" stroke="midnightblue" d="M597.1,-112.32C606.96,-104.26 621.85,-92.08 633.72,-82.37"/>
<polygon fill="midnightblue" stroke="midnightblue" points="636.18,-84.88 641.7,-75.83 631.75,-79.46 636.18,-84.88"/>
</g>
<!-- Node13&#45;&gt;Node9 -->
<g id="edge18" class="edge">
<title>Node13&#45;&gt;Node9</title>
<path fill="none" stroke="midnightblue" d="M589.09,-112.37C594.44,-94.54 606.81,-53.3 614.02,-29.27"/>
<polygon fill="midnightblue" stroke="midnightblue" points="617.4,-30.18 616.92,-19.59 610.7,-28.16 617.4,-30.18"/>
</g>
<!-- Node14&#45;&gt;Node7 -->
<g id="edge20" class="edge">
<title>Node14&#45;&gt;Node7</title>
<path fill="none" stroke="midnightblue" d="M651.73,-168.45C653.96,-159.45 657.23,-144.84 658.5,-132 660.04,-116.47 658.19,-98.85 656.15,-85.87"/>
<polygon fill="midnightblue" stroke="midnightblue" points="659.56,-85.08 654.39,-75.83 652.67,-86.29 659.56,-85.08"/>
</g>
<!-- Node14&#45;&gt;Node12 -->
<g id="edge21" class="edge">
<title>Node14&#45;&gt;Node12</title>
<path fill="none" stroke="midnightblue" d="M686.1,-168.44C726.23,-159.06 790.7,-143.99 834.28,-133.8"/>
<polygon fill="midnightblue" stroke="midnightblue" points="835.13,-137.2 844.07,-131.52 833.53,-130.38 835.13,-137.2"/>
</g>
<!-- Node14&#45;&gt;Node13 -->
<g id="edge22" class="edge">
<title>Node14&#45;&gt;Node13</title>
<path fill="none" stroke="midnightblue" d="M639.38,-168.32C629.97,-160.26 615.76,-148.08 604.43,-138.37"/>
<polygon fill="midnightblue" stroke="midnightblue" points="606.68,-135.68 596.81,-131.83 602.12,-141 606.68,-135.68"/>
</g>
<!-- Node15&#45;&gt;Node7 -->
<g id="edge24" class="edge">
<title>Node15&#45;&gt;Node7</title>
<path fill="none" stroke="midnightblue" d="M571.75,-168.43C588.48,-161 610.92,-148.79 625.5,-132 637.13,-118.6 644.25,-99.49 648.24,-85.46"/>
<polygon fill="midnightblue" stroke="midnightblue" points="651.7,-86.06 650.79,-75.5 644.92,-84.32 651.7,-86.06"/>
</g>
<!-- Node15&#45;&gt;Node8 -->
<g id="edge26" class="edge">
<title>Node15&#45;&gt;Node8</title>
<path fill="none" stroke="midnightblue" d="M544.07,-168.08C527.97,-141.61 480.27,-63.21 458.97,-28.21"/>
<polygon fill="midnightblue" stroke="midnightblue" points="461.9,-26.29 453.71,-19.57 455.92,-29.93 461.9,-26.29"/>
</g>
<!-- Node15&#45;&gt;Node13 -->
<g id="edge25" class="edge">
<title>Node15&#45;&gt;Node13</title>
<path fill="none" stroke="midnightblue" d="M555.61,-168.08C560.78,-160.53 568.35,-149.49 574.69,-140.23"/>
<polygon fill="midnightblue" stroke="midnightblue" points="577.74,-141.98 580.5,-131.75 571.96,-138.02 577.74,-141.98"/>
</g>
<!-- Node16&#45;&gt;Node8 -->
<g id="edge35" class="edge">
<title>Node16&#45;&gt;Node8</title>
<path fill="none" stroke="midnightblue" d="M423.52,-224.3C427.34,-191.63 440.9,-75.87 446.28,-29.96"/>
<polygon fill="midnightblue" stroke="midnightblue" points="449.77,-30.22 447.46,-19.88 442.82,-29.41 449.77,-30.22"/>
</g>
<!-- Node16&#45;&gt;Node9 -->
<g id="edge34" class="edge">
<title>Node16&#45;&gt;Node9</title>
<path fill="none" stroke="midnightblue" d="M430.22,-224.3C459.76,-191.01 565.88,-71.42 604.94,-27.41"/>
<polygon fill="midnightblue" stroke="midnightblue" points="607.6,-29.69 611.62,-19.88 602.36,-25.04 607.6,-29.69"/>
</g>
<!-- Node17 -->
<g id="node17" class="node">
<title>Node17</title>
<g id="a_node17"><a xlink:href="shape_8h.html" target="_top" xlink:title=" ">
<polygon fill="white" stroke="black" points="299,-168.5 299,-187.5 386,-187.5 386,-168.5 299,-168.5"/>
<text text-anchor="middle" x="342.5" y="-175.5" font-family="Helvetica,sans-Serif" font-size="10.00">shape/shape.h</text>
</a>
</g>
</g>
<!-- Node16&#45;&gt;Node17 -->
<g id="edge28" class="edge">
<title>Node16&#45;&gt;Node17</title>
<path fill="none" stroke="midnightblue" d="M409.65,-224.32C397.28,-215.98 378.37,-203.21 363.76,-193.35"/>
<polygon fill="midnightblue" stroke="midnightblue" points="365.57,-190.35 355.32,-187.65 361.65,-196.15 365.57,-190.35"/>
</g>
<!-- Node17&#45;&gt;Node7 -->
<g id="edge30" class="edge">
<title>Node17&#45;&gt;Node7</title>
<path fill="none" stroke="midnightblue" d="M366.57,-168.46C421.39,-149.01 555.68,-101.36 618.75,-78.98"/>
<polygon fill="midnightblue" stroke="midnightblue" points="619.98,-82.25 628.23,-75.61 617.64,-75.66 619.98,-82.25"/>
</g>
<!-- Node17&#45;&gt;Node8 -->
<g id="edge31" class="edge">
<title>Node17&#45;&gt;Node8</title>
<path fill="none" stroke="midnightblue" d="M345.33,-168.49C352.46,-147.88 372.55,-94.15 400.5,-56 408.65,-44.88 419.78,-34.25 429.27,-26.11"/>
<polygon fill="midnightblue" stroke="midnightblue" points="431.6,-28.73 437.07,-19.65 427.13,-23.33 431.6,-28.73"/>
</g>
<!-- Node17&#45;&gt;Node13 -->
<g id="edge29" class="edge">
<title>Node17&#45;&gt;Node13</title>
<path fill="none" stroke="midnightblue" d="M381.16,-168.44C426.51,-158.41 501.29,-141.86 547,-131.74"/>
<polygon fill="midnightblue" stroke="midnightblue" points="547.84,-135.14 556.84,-129.56 546.32,-128.31 547.84,-135.14"/>
</g>
<!-- Node18 -->
<g id="node18" class="node">
<title>Node18</title>
<g id="a_node18"><a xlink:title=" ">
<polygon fill="white" stroke="#bfbfbf" points="225.5,-112.5 225.5,-131.5 269.5,-131.5 269.5,-112.5 225.5,-112.5"/>
<text text-anchor="middle" x="247.5" y="-119.5" font-family="Helvetica,sans-Serif" font-size="10.00">string</text>
</a>
</g>
</g>
<!-- Node17&#45;&gt;Node18 -->
<g id="edge32" class="edge">
<title>Node17&#45;&gt;Node18</title>
<path fill="none" stroke="midnightblue" d="M327.24,-168.32C312.28,-159.82 289.25,-146.73 271.77,-136.8"/>
<polygon fill="midnightblue" stroke="midnightblue" points="273.15,-133.55 262.73,-131.65 269.69,-139.64 273.15,-133.55"/>
</g>
<!-- Node19 -->
<g id="node19" class="node">
<title>Node19</title>
<g id="a_node19"><a xlink:title=" ">
<polygon fill="white" stroke="#bfbfbf" points="151.5,-112.5 151.5,-131.5 207.5,-131.5 207.5,-112.5 151.5,-112.5"/>
<text text-anchor="middle" x="179.5" y="-119.5" font-family="Helvetica,sans-Serif" font-size="10.00">sstream</text>
</a>
</g>
</g>
<!-- Node17&#45;&gt;Node19 -->
<g id="edge33" class="edge">
<title>Node17&#45;&gt;Node19</title>
<path fill="none" stroke="midnightblue" d="M316.67,-168.44C289.25,-159.36 245.72,-144.94 215.07,-134.78"/>
<polygon fill="midnightblue" stroke="midnightblue" points="215.8,-131.34 205.21,-131.52 213.6,-137.98 215.8,-131.34"/>
</g>
<!-- Node20&#45;&gt;Node9 -->
<g id="edge38" class="edge">
<title>Node20&#45;&gt;Node9</title>
<path fill="none" stroke="midnightblue" d="M304.15,-224.44C293.93,-211.45 277.92,-186.33 289.5,-168 354.25,-65.49 506.22,-28.54 579.11,-16.39"/>
<polygon fill="midnightblue" stroke="midnightblue" points="579.95,-19.8 589.27,-14.77 578.85,-12.89 579.95,-19.8"/>
</g>
<!-- Node20&#45;&gt;Node17 -->
<g id="edge37" class="edge">
<title>Node20&#45;&gt;Node17</title>
<path fill="none" stroke="midnightblue" d="M316.62,-224.08C320.91,-216.61 327.16,-205.72 332.44,-196.52"/>
<polygon fill="midnightblue" stroke="midnightblue" points="335.53,-198.17 337.48,-187.75 329.46,-194.68 335.53,-198.17"/>
</g>
<!-- Node23&#45;&gt;Node5 -->
<g id="edge42" class="edge">
<title>Node23&#45;&gt;Node5</title>
<path fill="none" stroke="midnightblue" d="M217.8,-392.44C198.56,-383.64 168.35,-369.81 146.3,-359.72"/>
<polygon fill="midnightblue" stroke="midnightblue" points="147.66,-356.5 137.11,-355.52 144.75,-362.86 147.66,-356.5"/>
</g>
<!-- Node23&#45;&gt;Node18 -->
<g id="edge44" class="edge">
<title>Node23&#45;&gt;Node18</title>
<path fill="none" stroke="midnightblue" d="M247.21,-392.3C256.44,-384.07 269.09,-370.79 274.5,-356 283.67,-330.93 262.15,-320.13 251.5,-244 246.47,-208.04 246.41,-165.52 246.9,-141.66"/>
<polygon fill="midnightblue" stroke="midnightblue" points="250.4,-141.65 247.16,-131.56 243.4,-141.47 250.4,-141.65"/>
</g>
<!-- Node23&#45;&gt;Node19 -->
<g id="edge45" class="edge">
<title>Node23&#45;&gt;Node19</title>
<path fill="none" stroke="midnightblue" d="M227.09,-392.2C218.51,-383.69 206.05,-370.05 198.5,-356 184.26,-329.48 179.5,-321.1 179.5,-291 179.5,-291 179.5,-291 179.5,-233 179.5,-200.95 179.5,-163.64 179.5,-141.75"/>
<polygon fill="midnightblue" stroke="midnightblue" points="183,-141.56 179.5,-131.56 176,-141.56 183,-141.56"/>
</g>
<!-- Node24 -->
<g id="node24" class="node">
<title>Node24</title>
<g id="a_node24"><a xlink:title=" ">
<polygon fill="white" stroke="#bfbfbf" points="207.5,-336.5 207.5,-355.5 265.5,-355.5 265.5,-336.5 207.5,-336.5"/>
<text text-anchor="middle" x="236.5" y="-343.5" font-family="Helvetica,sans-Serif" font-size="10.00">memory</text>
</a>
</g>
</g>
<!-- Node23&#45;&gt;Node24 -->
<g id="edge43" class="edge">
<title>Node23&#45;&gt;Node24</title>
<path fill="none" stroke="midnightblue" d="M236.5,-392.08C236.5,-385.01 236.5,-374.86 236.5,-365.99"/>
<polygon fill="midnightblue" stroke="midnightblue" points="240,-365.75 236.5,-355.75 233,-365.75 240,-365.75"/>
</g>
<!-- Node25&#45;&gt;Node6 -->
<g id="edge48" class="edge">
<title>Node25&#45;&gt;Node6</title>
<path fill="none" stroke="midnightblue" d="M318.19,-448.31C347.91,-421.64 438.09,-340.72 476.21,-306.52"/>
<polygon fill="midnightblue" stroke="midnightblue" points="478.8,-308.89 483.91,-299.61 474.13,-303.68 478.8,-308.89"/>
</g>
<!-- Node25&#45;&gt;Node23 -->
<g id="edge47" class="edge">
<title>Node25&#45;&gt;Node23</title>
<path fill="none" stroke="midnightblue" d="M296.93,-448.32C286.08,-440.18 269.62,-427.84 256.62,-418.09"/>
<polygon fill="midnightblue" stroke="midnightblue" points="258.38,-415.03 248.28,-411.83 254.18,-420.63 258.38,-415.03"/>
</g>
<!-- Node26&#45;&gt;Node6 -->
<g id="edge51" class="edge">
<title>Node26&#45;&gt;Node6</title>
<path fill="none" stroke="midnightblue" d="M439.56,-448.08C448.58,-421.83 475.11,-344.55 487.28,-309.12"/>
<polygon fill="midnightblue" stroke="midnightblue" points="490.62,-310.16 490.56,-299.57 484,-307.89 490.62,-310.16"/>
</g>
<!-- Node26&#45;&gt;Node23 -->
<g id="edge50" class="edge">
<title>Node26&#45;&gt;Node23</title>
<path fill="none" stroke="midnightblue" d="M404.81,-448.44C370.43,-439.16 315.42,-424.31 277.71,-414.13"/>
<polygon fill="midnightblue" stroke="midnightblue" points="278.61,-410.74 268.04,-411.52 276.78,-417.5 278.61,-410.74"/>
</g>
</g>
</svg>
