<?xml version="1.0" encoding="UTF-8" standalone="no"?>
<!DOCTYPE svg PUBLIC "-//W3C//DTD SVG 1.1//EN"
 "http://www.w3.org/Graphics/SVG/1.1/DTD/svg11.dtd">
<!-- Generated by graphviz version 2.43.0 (0)
 -->
<!-- Title: src/pewit/src/lseq_part_result/lseq_part_propagation_direction.h Pages: 1 -->
<svg width="145pt" height="285pt"
 viewBox="0.00 0.00 145.00 285.00" xmlns="http://www.w3.org/2000/svg" xmlns:xlink="http://www.w3.org/1999/xlink">
<g id="graph0" class="graph" transform="scale(1 1) rotate(0) translate(4 281)">
<title>src/pewit/src/lseq_part_result/lseq_part_propagation_direction.h</title>
<polygon fill="white" stroke="transparent" points="-4,4 -4,-281 141,-281 141,4 -4,4"/>
<!-- Node1 -->
<g id="node1" class="node">
<title>Node1</title>
<g id="a_node1"><a xlink:title=" ">
<polygon fill="#bfbfbf" stroke="black" points="0,-235.5 0,-276.5 137,-276.5 137,-235.5 0,-235.5"/>
<text text-anchor="start" x="8" y="-264.5" font-family="Helvetica,sans-Serif" font-size="10.00">src/pewit/src/lseq</text>
<text text-anchor="start" x="8" y="-253.5" font-family="Helvetica,sans-Serif" font-size="10.00">_part_result/lseq_part</text>
<text text-anchor="middle" x="68.5" y="-242.5" font-family="Helvetica,sans-Serif" font-size="10.00">_propagation_direction.h</text>
</a>
</g>
</g>
<!-- Node2 -->
<g id="node2" class="node">
<title>Node2</title>
<g id="a_node2"><a xlink:href="lseq__part_8h.html" target="_top" xlink:title=" ">
<polygon fill="white" stroke="black" points="18,-168.5 18,-198.5 119,-198.5 119,-168.5 18,-168.5"/>
<text text-anchor="start" x="26" y="-186.5" font-family="Helvetica,sans-Serif" font-size="10.00">src/pewit/src/lseq</text>
<text text-anchor="middle" x="68.5" y="-175.5" font-family="Helvetica,sans-Serif" font-size="10.00">_part.h</text>
</a>
</g>
</g>
<!-- Node1&#45;&gt;Node2 -->
<g id="edge1" class="edge">
<title>Node1&#45;&gt;Node2</title>
<path fill="none" stroke="midnightblue" d="M68.5,-225.08C68.5,-216.01 68.5,-206.45 68.5,-198.89"/>
<polygon fill="midnightblue" stroke="midnightblue" points="65,-225.36 68.5,-235.36 72,-225.36 65,-225.36"/>
</g>
<!-- Node3 -->
<g id="node3" class="node">
<title>Node3</title>
<g id="a_node3"><a xlink:href="lseq_8h.html" target="_top" xlink:title=" ">
<polygon fill="white" stroke="black" points="13.5,-112.5 13.5,-131.5 123.5,-131.5 123.5,-112.5 13.5,-112.5"/>
<text text-anchor="middle" x="68.5" y="-119.5" font-family="Helvetica,sans-Serif" font-size="10.00">src/pewit/src/lseq.h</text>
</a>
</g>
</g>
<!-- Node2&#45;&gt;Node3 -->
<g id="edge2" class="edge">
<title>Node2&#45;&gt;Node3</title>
<path fill="none" stroke="midnightblue" d="M68.5,-158.29C68.5,-148.86 68.5,-138.65 68.5,-131.66"/>
<polygon fill="midnightblue" stroke="midnightblue" points="65,-158.4 68.5,-168.4 72,-158.4 65,-158.4"/>
</g>
<!-- Node4 -->
<g id="node4" class="node">
<title>Node4</title>
<g id="a_node4"><a xlink:href="pewit_8h.html" target="_top" xlink:title=" ">
<polygon fill="white" stroke="black" points="10,-56.5 10,-75.5 127,-75.5 127,-56.5 10,-56.5"/>
<text text-anchor="middle" x="68.5" y="-63.5" font-family="Helvetica,sans-Serif" font-size="10.00">src/pewit/src/pewit.h</text>
</a>
</g>
</g>
<!-- Node3&#45;&gt;Node4 -->
<g id="edge3" class="edge">
<title>Node3&#45;&gt;Node4</title>
<path fill="none" stroke="midnightblue" d="M68.5,-101.8C68.5,-92.91 68.5,-82.78 68.5,-75.75"/>
<polygon fill="midnightblue" stroke="midnightblue" points="65,-102.08 68.5,-112.08 72,-102.08 65,-102.08"/>
</g>
<!-- Node5 -->
<g id="node5" class="node">
<title>Node5</title>
<g id="a_node5"><a xlink:href="robintrace_8h.html" target="_top" xlink:title=" ">
<polygon fill="white" stroke="black" points="12,-0.5 12,-19.5 125,-19.5 125,-0.5 12,-0.5"/>
<text text-anchor="middle" x="68.5" y="-7.5" font-family="Helvetica,sans-Serif" font-size="10.00">include/robintrace.h</text>
</a>
</g>
</g>
<!-- Node4&#45;&gt;Node5 -->
<g id="edge4" class="edge">
<title>Node4&#45;&gt;Node5</title>
<path fill="none" stroke="midnightblue" d="M68.5,-45.8C68.5,-36.91 68.5,-26.78 68.5,-19.75"/>
<polygon fill="midnightblue" stroke="midnightblue" points="65,-46.08 68.5,-56.08 72,-46.08 65,-46.08"/>
</g>
</g>
</svg>
