<?xml version="1.0" encoding="UTF-8" standalone="no"?>
<!DOCTYPE svg PUBLIC "-//W3C//DTD SVG 1.1//EN"
 "http://www.w3.org/Graphics/SVG/1.1/DTD/svg11.dtd">
<!-- Generated by graphviz version 2.43.0 (0)
 -->
<!-- Title: src/pewit/src/lseq_part.h Pages: 1 -->
<svg width="1092pt" height="722pt"
 viewBox="0.00 0.00 1091.65 722.00" xmlns="http://www.w3.org/2000/svg" xmlns:xlink="http://www.w3.org/1999/xlink">
<g id="graph0" class="graph" transform="scale(1 1) rotate(0) translate(4 718)">
<title>src/pewit/src/lseq_part.h</title>
<polygon fill="white" stroke="transparent" points="-4,4 -4,-718 1087.65,-718 1087.65,4 -4,4"/>
<!-- Node1 -->
<g id="node1" class="node">
<title>Node1</title>
<g id="a_node1"><a xlink:title=" ">
<polygon fill="#bfbfbf" stroke="black" points="515,-683.5 515,-713.5 616,-713.5 616,-683.5 515,-683.5"/>
<text text-anchor="start" x="523" y="-701.5" font-family="Helvetica,sans-Serif" font-size="10.00">src/pewit/src/lseq</text>
<text text-anchor="middle" x="565.5" y="-690.5" font-family="Helvetica,sans-Serif" font-size="10.00">_part.h</text>
</a>
</g>
</g>
<!-- Node2 -->
<g id="node2" class="node">
<title>Node2</title>
<g id="a_node2"><a xlink:title=" ">
<polygon fill="white" stroke="#bfbfbf" points="113.5,-336.5 113.5,-355.5 171.5,-355.5 171.5,-336.5 113.5,-336.5"/>
<text text-anchor="middle" x="142.5" y="-343.5" font-family="Helvetica,sans-Serif" font-size="10.00">memory</text>
</a>
</g>
</g>
<!-- Node1&#45;&gt;Node2 -->
<g id="edge1" class="edge">
<title>Node1&#45;&gt;Node2</title>
<path fill="none" stroke="midnightblue" d="M514.65,-697.12C416.31,-695.47 204.53,-687.2 145.5,-647 113.78,-625.4 104.5,-609.38 104.5,-571 104.5,-571 104.5,-571 104.5,-457 104.5,-422.81 121.1,-385.76 132.36,-364.57"/>
<polygon fill="midnightblue" stroke="midnightblue" points="135.45,-366.22 137.22,-355.77 129.32,-362.83 135.45,-366.22"/>
</g>
<!-- Node3 -->
<g id="node3" class="node">
<title>Node3</title>
<g id="a_node3"><a xlink:href="ray__pack_8h.html" target="_top" xlink:title=" ">
<polygon fill="white" stroke="black" points="838.5,-560.5 838.5,-579.5 908.5,-579.5 908.5,-560.5 838.5,-560.5"/>
<text text-anchor="middle" x="873.5" y="-567.5" font-family="Helvetica,sans-Serif" font-size="10.00">ray_pack.h</text>
</a>
</g>
</g>
<!-- Node1&#45;&gt;Node3 -->
<g id="edge2" class="edge">
<title>Node1&#45;&gt;Node3</title>
<path fill="none" stroke="midnightblue" d="M616.11,-696.24C738.59,-692.68 1043.16,-680.51 1073.5,-647 1120.25,-595.37 991.19,-578.6 918.81,-573.32"/>
<polygon fill="midnightblue" stroke="midnightblue" points="918.78,-569.81 908.56,-572.62 918.3,-576.8 918.78,-569.81"/>
</g>
<!-- Node4 -->
<g id="node4" class="node">
<title>Node4</title>
<g id="a_node4"><a xlink:href="pinyo_8h.html" target="_top" xlink:title=" ">
<polygon fill="white" stroke="black" points="608,-504.5 608,-523.5 661,-523.5 661,-504.5 608,-504.5"/>
<text text-anchor="middle" x="634.5" y="-511.5" font-family="Helvetica,sans-Serif" font-size="10.00">pinyo.h</text>
</a>
</g>
</g>
<!-- Node1&#45;&gt;Node4 -->
<g id="edge54" class="edge">
<title>Node1&#45;&gt;Node4</title>
<path fill="none" stroke="midnightblue" d="M520.32,-683.34C503.15,-675.51 485.37,-663.85 475.5,-647 468.54,-635.11 468.87,-628.07 475.5,-616 501.45,-568.77 559.87,-540.5 598.2,-526.34"/>
<polygon fill="midnightblue" stroke="midnightblue" points="599.71,-529.53 607.96,-522.88 597.37,-522.93 599.71,-529.53"/>
</g>
<!-- Node26 -->
<g id="node26" class="node">
<title>Node26</title>
<g id="a_node26"><a xlink:href="type__map_8h.html" target="_top" xlink:title=" ">
<polygon fill="white" stroke="black" points="154.5,-622 154.5,-641 280.5,-641 280.5,-622 154.5,-622"/>
<text text-anchor="middle" x="217.5" y="-629" font-family="Helvetica,sans-Serif" font-size="10.00">type_map/type_map.h</text>
</a>
</g>
</g>
<!-- Node1&#45;&gt;Node26 -->
<g id="edge55" class="edge">
<title>Node1&#45;&gt;Node26</title>
<path fill="none" stroke="midnightblue" d="M514.83,-688.51C459.44,-678.61 368.07,-662.1 289.5,-647 282.94,-645.74 276.04,-644.39 269.23,-643.03"/>
<polygon fill="midnightblue" stroke="midnightblue" points="269.85,-639.59 259.35,-641.06 268.48,-646.45 269.85,-639.59"/>
</g>
<!-- Node29 -->
<g id="node29" class="node">
<title>Node29</title>
<g id="a_node29"><a xlink:href="lseq__part__rays_8h.html" target="_top" xlink:title=" ">
<polygon fill="white" stroke="black" points="946.5,-616.5 946.5,-646.5 1064.5,-646.5 1064.5,-616.5 946.5,-616.5"/>
<text text-anchor="start" x="954.5" y="-634.5" font-family="Helvetica,sans-Serif" font-size="10.00">lseq_part_result/lseq</text>
<text text-anchor="middle" x="1005.5" y="-623.5" font-family="Helvetica,sans-Serif" font-size="10.00">_part_rays.h</text>
</a>
</g>
</g>
<!-- Node1&#45;&gt;Node29 -->
<g id="edge59" class="edge">
<title>Node1&#45;&gt;Node29</title>
<path fill="none" stroke="midnightblue" d="M616.23,-691.84C686.04,-683.78 815.86,-667.82 936.1,-647.17"/>
<polygon fill="midnightblue" stroke="midnightblue" points="936.96,-650.57 946.21,-645.42 935.76,-643.67 936.96,-650.57"/>
</g>
<!-- Node31 -->
<g id="node31" class="node">
<title>Node31</title>
<g id="a_node31"><a xlink:href="lseq__part__global__position_8h.html" target="_top" xlink:title=" ">
<polygon fill="white" stroke="black" points="298.5,-616.5 298.5,-646.5 428.5,-646.5 428.5,-616.5 298.5,-616.5"/>
<text text-anchor="start" x="306.5" y="-634.5" font-family="Helvetica,sans-Serif" font-size="10.00">lseq_part_result/lseq</text>
<text text-anchor="middle" x="363.5" y="-623.5" font-family="Helvetica,sans-Serif" font-size="10.00">_part_global_position.h</text>
</a>
</g>
</g>
<!-- Node1&#45;&gt;Node31 -->
<g id="edge62" class="edge">
<title>Node1&#45;&gt;Node31</title>
<path fill="none" stroke="midnightblue" d="M521.67,-683.4C490.96,-673.52 449.75,-660.25 417.09,-649.74"/>
<polygon fill="midnightblue" stroke="midnightblue" points="417.84,-646.31 407.25,-646.58 415.69,-652.97 417.84,-646.31"/>
</g>
<!-- Node32 -->
<g id="node32" class="node">
<title>Node32</title>
<g id="a_node32"><a xlink:href="lseq__part__semi__diameter_8h.html" target="_top" xlink:title=" ">
<polygon fill="white" stroke="black" points="664.5,-616.5 664.5,-646.5 792.5,-646.5 792.5,-616.5 664.5,-616.5"/>
<text text-anchor="start" x="672.5" y="-634.5" font-family="Helvetica,sans-Serif" font-size="10.00">lseq_part_result/lseq</text>
<text text-anchor="middle" x="728.5" y="-623.5" font-family="Helvetica,sans-Serif" font-size="10.00">_part_semi_diameter.h</text>
</a>
</g>
</g>
<!-- Node1&#45;&gt;Node32 -->
<g id="edge65" class="edge">
<title>Node1&#45;&gt;Node32</title>
<path fill="none" stroke="midnightblue" d="M600.87,-683.4C625.22,-673.69 657.76,-660.71 683.89,-650.29"/>
<polygon fill="midnightblue" stroke="midnightblue" points="685.21,-653.53 693.2,-646.58 682.62,-647.03 685.21,-653.53"/>
</g>
<!-- Node33 -->
<g id="node33" class="node">
<title>Node33</title>
<g id="a_node33"><a xlink:href="lseq__part__global__rays_8h.html" target="_top" xlink:title=" ">
<polygon fill="white" stroke="black" points="810.5,-616.5 810.5,-646.5 928.5,-646.5 928.5,-616.5 810.5,-616.5"/>
<text text-anchor="start" x="818.5" y="-634.5" font-family="Helvetica,sans-Serif" font-size="10.00">lseq_part_result/lseq</text>
<text text-anchor="middle" x="869.5" y="-623.5" font-family="Helvetica,sans-Serif" font-size="10.00">_part_global_rays.h</text>
</a>
</g>
</g>
<!-- Node1&#45;&gt;Node33 -->
<g id="edge67" class="edge">
<title>Node1&#45;&gt;Node33</title>
<path fill="none" stroke="midnightblue" d="M616.04,-686.69C666.53,-675.9 744.51,-659.23 800.64,-647.22"/>
<polygon fill="midnightblue" stroke="midnightblue" points="801.45,-650.63 810.5,-645.12 799.99,-643.78 801.45,-650.63"/>
</g>
<!-- Node34 -->
<g id="node34" class="node">
<title>Node34</title>
<g id="a_node34"><a xlink:href="lseq__part__propagation__direction_8h.html" target="_top" xlink:title=" ">
<polygon fill="white" stroke="black" points="484.5,-616.5 484.5,-646.5 646.5,-646.5 646.5,-616.5 484.5,-616.5"/>
<text text-anchor="start" x="492.5" y="-634.5" font-family="Helvetica,sans-Serif" font-size="10.00">lseq_part_result/lseq</text>
<text text-anchor="middle" x="565.5" y="-623.5" font-family="Helvetica,sans-Serif" font-size="10.00">_part_propagation_direction.h</text>
</a>
</g>
</g>
<!-- Node1&#45;&gt;Node34 -->
<g id="edge70" class="edge">
<title>Node1&#45;&gt;Node34</title>
<path fill="none" stroke="midnightblue" d="M565.5,-683.4C565.5,-675.64 565.5,-665.81 565.5,-656.86"/>
<polygon fill="midnightblue" stroke="midnightblue" points="569,-656.58 565.5,-646.58 562,-656.58 569,-656.58"/>
</g>
<!-- Node3&#45;&gt;Node4 -->
<g id="edge3" class="edge">
<title>Node3&#45;&gt;Node4</title>
<path fill="none" stroke="midnightblue" d="M838.49,-561.09C793.74,-550.98 716.64,-533.56 671.13,-523.28"/>
<polygon fill="midnightblue" stroke="midnightblue" points="671.62,-519.8 661.1,-521.01 670.08,-526.63 671.62,-519.8"/>
</g>
<!-- Node9 -->
<g id="node9" class="node">
<title>Node9</title>
<g id="a_node9"><a xlink:title=" ">
<polygon fill="white" stroke="#bfbfbf" points="520.5,-0.5 520.5,-19.5 580.5,-19.5 580.5,-0.5 520.5,-0.5"/>
<text text-anchor="middle" x="550.5" y="-7.5" font-family="Helvetica,sans-Serif" font-size="10.00">iostream</text>
</a>
</g>
</g>
<!-- Node3&#45;&gt;Node9 -->
<g id="edge52" class="edge">
<title>Node3&#45;&gt;Node9</title>
<path fill="none" stroke="midnightblue" d="M874.02,-560.45C875.11,-541.95 877.5,-496.84 877.5,-459 877.5,-459 877.5,-459 877.5,-121 877.5,-61.14 678.16,-27.7 590.76,-15.91"/>
<polygon fill="midnightblue" stroke="midnightblue" points="591.05,-12.42 580.68,-14.58 590.13,-19.36 591.05,-12.42"/>
</g>
<!-- Node21 -->
<g id="node21" class="node">
<title>Node21</title>
<g id="a_node21"><a xlink:title=" ">
<polygon fill="white" stroke="#bfbfbf" points="802,-280.5 802,-299.5 849,-299.5 849,-280.5 802,-280.5"/>
<text text-anchor="middle" x="825.5" y="-287.5" font-family="Helvetica,sans-Serif" font-size="10.00">vector</text>
</a>
</g>
</g>
<!-- Node3&#45;&gt;Node21 -->
<g id="edge53" class="edge">
<title>Node3&#45;&gt;Node21</title>
<path fill="none" stroke="midnightblue" d="M867.8,-560.29C856.53,-542.2 832.5,-498.95 832.5,-459 832.5,-459 832.5,-459 832.5,-401 832.5,-368.88 829.49,-331.6 827.42,-309.73"/>
<polygon fill="midnightblue" stroke="midnightblue" points="830.88,-309.15 826.42,-299.55 823.91,-309.84 830.88,-309.15"/>
</g>
<!-- Node5 -->
<g id="node5" class="node">
<title>Node5</title>
<g id="a_node5"><a xlink:href="bun_8h.html" target="_top" xlink:title=" ">
<polygon fill="white" stroke="black" points="698,-336.5 698,-355.5 763,-355.5 763,-336.5 698,-336.5"/>
<text text-anchor="middle" x="730.5" y="-343.5" font-family="Helvetica,sans-Serif" font-size="10.00">bun/bun.h</text>
</a>
</g>
</g>
<!-- Node4&#45;&gt;Node5 -->
<g id="edge4" class="edge">
<title>Node4&#45;&gt;Node5</title>
<path fill="none" stroke="midnightblue" d="M642.82,-504.18C650.79,-495.44 662.86,-481.45 671.5,-468 693.72,-433.4 713.27,-389.2 723.32,-364.94"/>
<polygon fill="midnightblue" stroke="midnightblue" points="726.6,-366.16 727.14,-355.58 720.12,-363.52 726.6,-366.16"/>
</g>
<!-- Node23 -->
<g id="node23" class="node">
<title>Node23</title>
<g id="a_node23"><a xlink:href="lpart_8h.html" target="_top" xlink:title=" ">
<polygon fill="white" stroke="black" points="594.5,-392.5 594.5,-411.5 668.5,-411.5 668.5,-392.5 594.5,-392.5"/>
<text text-anchor="middle" x="631.5" y="-399.5" font-family="Helvetica,sans-Serif" font-size="10.00">lpart/lpart.h</text>
</a>
</g>
</g>
<!-- Node4&#45;&gt;Node23 -->
<g id="edge41" class="edge">
<title>Node4&#45;&gt;Node23</title>
<path fill="none" stroke="midnightblue" d="M641.14,-504.31C649.74,-491.97 663.02,-468.58 657.5,-448 654.85,-438.1 649.43,-428.13 644.23,-420.1"/>
<polygon fill="midnightblue" stroke="midnightblue" points="646.96,-417.91 638.39,-411.68 641.21,-421.89 646.96,-417.91"/>
</g>
<!-- Node24 -->
<g id="node24" class="node">
<title>Node24</title>
<g id="a_node24"><a xlink:href="transfer__part_8h.html" target="_top" xlink:title=" ">
<polygon fill="white" stroke="black" points="534.5,-448.5 534.5,-467.5 648.5,-467.5 648.5,-448.5 534.5,-448.5"/>
<text text-anchor="middle" x="591.5" y="-455.5" font-family="Helvetica,sans-Serif" font-size="10.00">lpart/transfer_part.h</text>
</a>
</g>
</g>
<!-- Node4&#45;&gt;Node24 -->
<g id="edge46" class="edge">
<title>Node4&#45;&gt;Node24</title>
<path fill="none" stroke="midnightblue" d="M627.4,-504.08C621.26,-496.38 612.23,-485.03 604.76,-475.65"/>
<polygon fill="midnightblue" stroke="midnightblue" points="607.44,-473.39 598.47,-467.75 601.96,-477.75 607.44,-473.39"/>
</g>
<!-- Node25 -->
<g id="node25" class="node">
<title>Node25</title>
<g id="a_node25"><a xlink:href="shape__part_8h.html" target="_top" xlink:title=" ">
<polygon fill="white" stroke="black" points="411,-448.5 411,-467.5 516,-467.5 516,-448.5 411,-448.5"/>
<text text-anchor="middle" x="463.5" y="-455.5" font-family="Helvetica,sans-Serif" font-size="10.00">lpart/shape_part.h</text>
</a>
</g>
</g>
<!-- Node4&#45;&gt;Node25 -->
<g id="edge49" class="edge">
<title>Node4&#45;&gt;Node25</title>
<path fill="none" stroke="midnightblue" d="M607.78,-504.56C578.84,-495.42 532.48,-480.78 500.14,-470.57"/>
<polygon fill="midnightblue" stroke="midnightblue" points="501.19,-467.23 490.6,-467.56 499.08,-473.91 501.19,-467.23"/>
</g>
<!-- Node6 -->
<g id="node6" class="node">
<title>Node6</title>
<g id="a_node6"><a xlink:href="poaky_8h.html" target="_top" xlink:title=" ">
<polygon fill="white" stroke="black" points="346,-280.5 346,-299.5 399,-299.5 399,-280.5 346,-280.5"/>
<text text-anchor="middle" x="372.5" y="-287.5" font-family="Helvetica,sans-Serif" font-size="10.00">poaky.h</text>
</a>
</g>
</g>
<!-- Node5&#45;&gt;Node6 -->
<g id="edge5" class="edge">
<title>Node5&#45;&gt;Node6</title>
<path fill="none" stroke="midnightblue" d="M697.78,-340.06C630.96,-329.99 479.22,-307.1 409.18,-296.53"/>
<polygon fill="midnightblue" stroke="midnightblue" points="409.48,-293.04 399.07,-295.01 408.43,-299.96 409.48,-293.04"/>
</g>
<!-- Node5&#45;&gt;Node21 -->
<g id="edge39" class="edge">
<title>Node5&#45;&gt;Node21</title>
<path fill="none" stroke="midnightblue" d="M745.76,-336.32C760.72,-327.82 783.75,-314.73 801.23,-304.8"/>
<polygon fill="midnightblue" stroke="midnightblue" points="803.31,-307.64 810.27,-299.65 799.85,-301.55 803.31,-307.64"/>
</g>
<!-- Node22 -->
<g id="node22" class="node">
<title>Node22</title>
<g id="a_node22"><a xlink:title=" ">
<polygon fill="white" stroke="#bfbfbf" points="697.5,-280.5 697.5,-299.5 783.5,-299.5 783.5,-280.5 697.5,-280.5"/>
<text text-anchor="middle" x="740.5" y="-287.5" font-family="Helvetica,sans-Serif" font-size="10.00">unordered_set</text>
</a>
</g>
</g>
<!-- Node5&#45;&gt;Node22 -->
<g id="edge40" class="edge">
<title>Node5&#45;&gt;Node22</title>
<path fill="none" stroke="midnightblue" d="M732.15,-336.08C733.48,-328.93 735.38,-318.64 737.04,-309.69"/>
<polygon fill="midnightblue" stroke="midnightblue" points="740.5,-310.22 738.88,-299.75 733.62,-308.95 740.5,-310.22"/>
</g>
<!-- Node7 -->
<g id="node7" class="node">
<title>Node7</title>
<g id="a_node7"><a xlink:href="Vec3_8h.html" target="_top" xlink:title=" ">
<polygon fill="white" stroke="black" points="209,-56.5 209,-75.5 284,-75.5 284,-56.5 209,-56.5"/>
<text text-anchor="middle" x="246.5" y="-63.5" font-family="Helvetica,sans-Serif" font-size="10.00">base/Vec3.h</text>
</a>
</g>
</g>
<!-- Node6&#45;&gt;Node7 -->
<g id="edge6" class="edge">
<title>Node6&#45;&gt;Node7</title>
<path fill="none" stroke="midnightblue" d="M360.59,-280.5C339.51,-264.77 295.76,-229 273.5,-188 255.59,-155.02 249.55,-110.82 247.52,-86"/>
<polygon fill="midnightblue" stroke="midnightblue" points="251,-85.52 246.83,-75.78 244.01,-85.99 251,-85.52"/>
</g>
<!-- Node11 -->
<g id="node11" class="node">
<title>Node11</title>
<g id="a_node11"><a xlink:href="Vec2_8h.html" target="_top" xlink:title=" ">
<polygon fill="white" stroke="black" points="95,-112.5 95,-131.5 170,-131.5 170,-112.5 95,-112.5"/>
<text text-anchor="middle" x="132.5" y="-119.5" font-family="Helvetica,sans-Serif" font-size="10.00">base/Vec2.h</text>
</a>
</g>
</g>
<!-- Node6&#45;&gt;Node11 -->
<g id="edge10" class="edge">
<title>Node6&#45;&gt;Node11</title>
<path fill="none" stroke="midnightblue" d="M345.63,-288.49C289.6,-285.75 161.52,-270.34 113.5,-188 104.74,-172.98 112.44,-153.63 120.51,-139.95"/>
<polygon fill="midnightblue" stroke="midnightblue" points="123.47,-141.82 125.95,-131.52 117.59,-138.02 123.47,-141.82"/>
</g>
<!-- Node12 -->
<g id="node12" class="node">
<title>Node12</title>
<g id="a_node12"><a xlink:href="Mat3_8h.html" target="_top" xlink:title=" ">
<polygon fill="white" stroke="black" points="0,-112.5 0,-131.5 77,-131.5 77,-112.5 0,-112.5"/>
<text text-anchor="middle" x="38.5" y="-119.5" font-family="Helvetica,sans-Serif" font-size="10.00">base/Mat3.h</text>
</a>
</g>
</g>
<!-- Node6&#45;&gt;Node12 -->
<g id="edge14" class="edge">
<title>Node6&#45;&gt;Node12</title>
<path fill="none" stroke="midnightblue" d="M345.85,-289.23C301.03,-288.48 209.06,-281.98 143.5,-244 99.34,-218.42 64.55,-167.36 48.38,-140.48"/>
<polygon fill="midnightblue" stroke="midnightblue" points="51.35,-138.62 43.28,-131.76 45.31,-142.16 51.35,-138.62"/>
</g>
<!-- Node13 -->
<g id="node13" class="node">
<title>Node13</title>
<g id="a_node13"><a xlink:href="ray_8h.html" target="_top" xlink:title=" ">
<polygon fill="white" stroke="black" points="341,-112.5 341,-131.5 400,-131.5 400,-112.5 341,-112.5"/>
<text text-anchor="middle" x="370.5" y="-119.5" font-family="Helvetica,sans-Serif" font-size="10.00">ray/ray.h</text>
</a>
</g>
</g>
<!-- Node6&#45;&gt;Node13 -->
<g id="edge16" class="edge">
<title>Node6&#45;&gt;Node13</title>
<path fill="none" stroke="midnightblue" d="M372.39,-280.08C372.08,-253.95 371.15,-177.21 370.72,-141.58"/>
<polygon fill="midnightblue" stroke="midnightblue" points="374.22,-141.53 370.6,-131.57 367.22,-141.61 374.22,-141.53"/>
</g>
<!-- Node14 -->
<g id="node14" class="node">
<title>Node14</title>
<g id="a_node14"><a xlink:href="transfer_8h.html" target="_top" xlink:title=" ">
<polygon fill="white" stroke="black" points="122.5,-168.5 122.5,-187.5 226.5,-187.5 226.5,-168.5 122.5,-168.5"/>
<text text-anchor="middle" x="174.5" y="-175.5" font-family="Helvetica,sans-Serif" font-size="10.00">transfer/transfer.h</text>
</a>
</g>
</g>
<!-- Node6&#45;&gt;Node14 -->
<g id="edge19" class="edge">
<title>Node6&#45;&gt;Node14</title>
<path fill="none" stroke="midnightblue" d="M345.93,-283.65C318.14,-277.23 273.98,-264.67 240.5,-244 219.45,-231 199.87,-210.16 187.59,-195.59"/>
<polygon fill="midnightblue" stroke="midnightblue" points="190.29,-193.36 181.25,-187.84 184.88,-197.8 190.29,-193.36"/>
</g>
<!-- Node15 -->
<g id="node15" class="node">
<title>Node15</title>
<g id="a_node15"><a xlink:href="rop_8h.html" target="_top" xlink:title=" ">
<polygon fill="white" stroke="black" points="282.5,-168.5 282.5,-187.5 342.5,-187.5 342.5,-168.5 282.5,-168.5"/>
<text text-anchor="middle" x="312.5" y="-175.5" font-family="Helvetica,sans-Serif" font-size="10.00">rop/rop.h</text>
</a>
</g>
</g>
<!-- Node6&#45;&gt;Node15 -->
<g id="edge23" class="edge">
<title>Node6&#45;&gt;Node15</title>
<path fill="none" stroke="midnightblue" d="M367.79,-280.37C357.98,-262.38 335.16,-220.55 322.11,-196.63"/>
<polygon fill="midnightblue" stroke="midnightblue" points="325.05,-194.69 317.19,-187.59 318.9,-198.05 325.05,-194.69"/>
</g>
<!-- Node16 -->
<g id="node16" class="node">
<title>Node16</title>
<g id="a_node16"><a xlink:href="plane_8h.html" target="_top" xlink:title=" ">
<polygon fill="white" stroke="black" points="399,-224.5 399,-243.5 484,-243.5 484,-224.5 399,-224.5"/>
<text text-anchor="middle" x="441.5" y="-231.5" font-family="Helvetica,sans-Serif" font-size="10.00">shape/plane.h</text>
</a>
</g>
</g>
<!-- Node6&#45;&gt;Node16 -->
<g id="edge27" class="edge">
<title>Node6&#45;&gt;Node16</title>
<path fill="none" stroke="midnightblue" d="M383.59,-280.32C393.99,-272.18 409.76,-259.84 422.22,-250.09"/>
<polygon fill="midnightblue" stroke="midnightblue" points="424.49,-252.75 430.21,-243.83 420.18,-247.24 424.49,-252.75"/>
</g>
<!-- Node20 -->
<g id="node20" class="node">
<title>Node20</title>
<g id="a_node20"><a xlink:href="standard_8h.html" target="_top" xlink:title=" ">
<polygon fill="white" stroke="black" points="502,-224.5 502,-243.5 603,-243.5 603,-224.5 502,-224.5"/>
<text text-anchor="middle" x="552.5" y="-231.5" font-family="Helvetica,sans-Serif" font-size="10.00">shape/standard.h</text>
</a>
</g>
</g>
<!-- Node6&#45;&gt;Node20 -->
<g id="edge36" class="edge">
<title>Node6&#45;&gt;Node20</title>
<path fill="none" stroke="midnightblue" d="M399.06,-281.03C429.5,-271.9 479.64,-256.86 514.28,-246.47"/>
<polygon fill="midnightblue" stroke="midnightblue" points="515.47,-249.76 524.05,-243.54 513.46,-243.06 515.47,-249.76"/>
</g>
<!-- Node8 -->
<g id="node8" class="node">
<title>Node8</title>
<g id="a_node8"><a xlink:title=" ">
<polygon fill="white" stroke="#bfbfbf" points="347,-0.5 347,-19.5 394,-19.5 394,-0.5 347,-0.5"/>
<text text-anchor="middle" x="370.5" y="-7.5" font-family="Helvetica,sans-Serif" font-size="10.00">cmath</text>
</a>
</g>
</g>
<!-- Node7&#45;&gt;Node8 -->
<g id="edge7" class="edge">
<title>Node7&#45;&gt;Node8</title>
<path fill="none" stroke="midnightblue" d="M266.15,-56.44C286.46,-47.6 318.4,-33.69 341.6,-23.59"/>
<polygon fill="midnightblue" stroke="midnightblue" points="343.17,-26.72 350.94,-19.52 340.38,-20.3 343.17,-26.72"/>
</g>
<!-- Node7&#45;&gt;Node9 -->
<g id="edge8" class="edge">
<title>Node7&#45;&gt;Node9</title>
<path fill="none" stroke="midnightblue" d="M284.08,-58.32C341.63,-48.1 451.11,-28.66 510.23,-18.15"/>
<polygon fill="midnightblue" stroke="midnightblue" points="511.08,-21.56 520.31,-16.36 509.85,-14.67 511.08,-21.56"/>
</g>
<!-- Node10 -->
<g id="node10" class="node">
<title>Node10</title>
<g id="a_node10"><a xlink:title=" ">
<polygon fill="white" stroke="#bfbfbf" points="94,-0.5 94,-19.5 171,-19.5 171,-0.5 94,-0.5"/>
<text text-anchor="middle" x="132.5" y="-7.5" font-family="Helvetica,sans-Serif" font-size="10.00">Eigen/Dense</text>
</a>
</g>
</g>
<!-- Node7&#45;&gt;Node10 -->
<g id="edge9" class="edge">
<title>Node7&#45;&gt;Node10</title>
<path fill="none" stroke="midnightblue" d="M228.44,-56.44C209.93,-47.68 180.92,-33.94 159.64,-23.86"/>
<polygon fill="midnightblue" stroke="midnightblue" points="161.01,-20.63 150.48,-19.52 158.02,-26.96 161.01,-20.63"/>
</g>
<!-- Node11&#45;&gt;Node7 -->
<g id="edge13" class="edge">
<title>Node11&#45;&gt;Node7</title>
<path fill="none" stroke="midnightblue" d="M150.56,-112.44C169.07,-103.68 198.08,-89.94 219.36,-79.86"/>
<polygon fill="midnightblue" stroke="midnightblue" points="220.98,-82.96 228.52,-75.52 217.99,-76.63 220.98,-82.96"/>
</g>
<!-- Node11&#45;&gt;Node9 -->
<g id="edge12" class="edge">
<title>Node11&#45;&gt;Node9</title>
<path fill="none" stroke="midnightblue" d="M138.48,-112.48C149.11,-98.08 172.79,-69.23 200.5,-56 254.54,-30.21 430.12,-17.57 510.12,-13.03"/>
<polygon fill="midnightblue" stroke="midnightblue" points="510.51,-16.52 520.3,-12.47 510.12,-9.53 510.51,-16.52"/>
</g>
<!-- Node11&#45;&gt;Node10 -->
<g id="edge11" class="edge">
<title>Node11&#45;&gt;Node10</title>
<path fill="none" stroke="midnightblue" d="M132.5,-112.37C132.5,-94.62 132.5,-53.67 132.5,-29.6"/>
<polygon fill="midnightblue" stroke="midnightblue" points="136,-29.59 132.5,-19.59 129,-29.59 136,-29.59"/>
</g>
<!-- Node12&#45;&gt;Node10 -->
<g id="edge15" class="edge">
<title>Node12&#45;&gt;Node10</title>
<path fill="none" stroke="midnightblue" d="M45.88,-112.37C61.53,-94.05 98.28,-51.05 118.52,-27.36"/>
<polygon fill="midnightblue" stroke="midnightblue" points="121.32,-29.47 125.16,-19.59 116,-24.92 121.32,-29.47"/>
</g>
<!-- Node13&#45;&gt;Node7 -->
<g id="edge17" class="edge">
<title>Node13&#45;&gt;Node7</title>
<path fill="none" stroke="midnightblue" d="M350.85,-112.44C330.54,-103.6 298.6,-89.69 275.4,-79.59"/>
<polygon fill="midnightblue" stroke="midnightblue" points="276.62,-76.3 266.06,-75.52 273.83,-82.72 276.62,-76.3"/>
</g>
<!-- Node13&#45;&gt;Node9 -->
<g id="edge18" class="edge">
<title>Node13&#45;&gt;Node9</title>
<path fill="none" stroke="midnightblue" d="M384.62,-112.37C415.64,-93.41 489.95,-48 527.69,-24.94"/>
<polygon fill="midnightblue" stroke="midnightblue" points="529.73,-27.79 536.44,-19.59 526.08,-21.82 529.73,-27.79"/>
</g>
<!-- Node14&#45;&gt;Node7 -->
<g id="edge20" class="edge">
<title>Node14&#45;&gt;Node7</title>
<path fill="none" stroke="midnightblue" d="M180.15,-168.37C192.03,-150.22 219.79,-107.8 235.38,-83.99"/>
<polygon fill="midnightblue" stroke="midnightblue" points="238.33,-85.88 240.88,-75.59 232.47,-82.04 238.33,-85.88"/>
</g>
<!-- Node14&#45;&gt;Node12 -->
<g id="edge21" class="edge">
<title>Node14&#45;&gt;Node12</title>
<path fill="none" stroke="midnightblue" d="M152.95,-168.44C130.47,-159.52 95.01,-145.44 69.52,-135.32"/>
<polygon fill="midnightblue" stroke="midnightblue" points="70.53,-131.95 59.95,-131.52 67.95,-138.46 70.53,-131.95"/>
</g>
<!-- Node14&#45;&gt;Node13 -->
<g id="edge22" class="edge">
<title>Node14&#45;&gt;Node13</title>
<path fill="none" stroke="midnightblue" d="M205.56,-168.44C239.5,-159.09 293.96,-144.09 330.94,-133.9"/>
<polygon fill="midnightblue" stroke="midnightblue" points="332.16,-137.19 340.87,-131.16 330.3,-130.44 332.16,-137.19"/>
</g>
<!-- Node15&#45;&gt;Node7 -->
<g id="edge24" class="edge">
<title>Node15&#45;&gt;Node7</title>
<path fill="none" stroke="midnightblue" d="M307.32,-168.37C296.48,-150.3 271.21,-108.18 256.88,-84.31"/>
<polygon fill="midnightblue" stroke="midnightblue" points="259.8,-82.37 251.65,-75.59 253.8,-85.97 259.8,-82.37"/>
</g>
<!-- Node15&#45;&gt;Node8 -->
<g id="edge26" class="edge">
<title>Node15&#45;&gt;Node8</title>
<path fill="none" stroke="midnightblue" d="M315.05,-168.11C318.69,-155.54 325.71,-131.89 332.5,-112 342.51,-82.7 355.44,-49.13 363.34,-29.02"/>
<polygon fill="midnightblue" stroke="midnightblue" points="366.65,-30.17 367.07,-19.58 360.14,-27.6 366.65,-30.17"/>
</g>
<!-- Node15&#45;&gt;Node13 -->
<g id="edge25" class="edge">
<title>Node15&#45;&gt;Node13</title>
<path fill="none" stroke="midnightblue" d="M321.82,-168.32C330.39,-160.34 343.31,-148.31 353.69,-138.65"/>
<polygon fill="midnightblue" stroke="midnightblue" points="356.08,-141.21 361.01,-131.83 351.31,-136.09 356.08,-141.21"/>
</g>
<!-- Node16&#45;&gt;Node8 -->
<g id="edge35" class="edge">
<title>Node16&#45;&gt;Node8</title>
<path fill="none" stroke="midnightblue" d="M439.57,-224.4C435.01,-204.44 422.97,-153.55 409.5,-112 399.92,-82.45 386.45,-48.95 378.11,-28.92"/>
<polygon fill="midnightblue" stroke="midnightblue" points="381.26,-27.39 374.16,-19.53 374.81,-30.11 381.26,-27.39"/>
</g>
<!-- Node16&#45;&gt;Node9 -->
<g id="edge34" class="edge">
<title>Node16&#45;&gt;Node9</title>
<path fill="none" stroke="midnightblue" d="M473.54,-224.46C503.23,-215.82 544.17,-201.8 553.5,-188 586.58,-139.06 568.3,-63.84 557.13,-29.38"/>
<polygon fill="midnightblue" stroke="midnightblue" points="560.37,-28.05 553.83,-19.71 553.75,-30.31 560.37,-28.05"/>
</g>
<!-- Node17 -->
<g id="node17" class="node">
<title>Node17</title>
<g id="a_node17"><a xlink:href="shape_8h.html" target="_top" xlink:title=" ">
<polygon fill="white" stroke="black" points="457,-168.5 457,-187.5 544,-187.5 544,-168.5 457,-168.5"/>
<text text-anchor="middle" x="500.5" y="-175.5" font-family="Helvetica,sans-Serif" font-size="10.00">shape/shape.h</text>
</a>
</g>
</g>
<!-- Node16&#45;&gt;Node17 -->
<g id="edge28" class="edge">
<title>Node16&#45;&gt;Node17</title>
<path fill="none" stroke="midnightblue" d="M450.98,-224.32C459.7,-216.34 472.84,-204.31 483.4,-194.65"/>
<polygon fill="midnightblue" stroke="midnightblue" points="485.83,-197.17 490.85,-187.83 481.11,-192 485.83,-197.17"/>
</g>
<!-- Node17&#45;&gt;Node7 -->
<g id="edge30" class="edge">
<title>Node17&#45;&gt;Node7</title>
<path fill="none" stroke="midnightblue" d="M490.87,-168.34C475.01,-154.52 441.92,-127.45 409.5,-112 372.52,-94.37 327.41,-82.59 294.03,-75.52"/>
<polygon fill="midnightblue" stroke="midnightblue" points="294.57,-72.06 284.07,-73.47 293.17,-78.91 294.57,-72.06"/>
</g>
<!-- Node17&#45;&gt;Node8 -->
<g id="edge31" class="edge">
<title>Node17&#45;&gt;Node8</title>
<path fill="none" stroke="midnightblue" d="M498.21,-168.44C492.2,-147.23 474.18,-91.43 442.5,-56 430.57,-42.66 413.76,-31.85 399.39,-24.17"/>
<polygon fill="midnightblue" stroke="midnightblue" points="400.87,-21 390.37,-19.59 397.69,-27.24 400.87,-21"/>
</g>
<!-- Node17&#45;&gt;Node13 -->
<g id="edge29" class="edge">
<title>Node17&#45;&gt;Node13</title>
<path fill="none" stroke="midnightblue" d="M479.9,-168.44C458.51,-159.56 424.82,-145.56 400.48,-135.45"/>
<polygon fill="midnightblue" stroke="midnightblue" points="401.58,-132.12 391,-131.52 398.89,-138.58 401.58,-132.12"/>
</g>
<!-- Node18 -->
<g id="node18" class="node">
<title>Node18</title>
<g id="a_node18"><a xlink:title=" ">
<polygon fill="white" stroke="#bfbfbf" points="597.5,-112.5 597.5,-131.5 641.5,-131.5 641.5,-112.5 597.5,-112.5"/>
<text text-anchor="middle" x="619.5" y="-119.5" font-family="Helvetica,sans-Serif" font-size="10.00">string</text>
</a>
</g>
</g>
<!-- Node17&#45;&gt;Node18 -->
<g id="edge32" class="edge">
<title>Node17&#45;&gt;Node18</title>
<path fill="none" stroke="midnightblue" d="M519.36,-168.44C538.77,-159.64 569.23,-145.81 591.46,-135.72"/>
<polygon fill="midnightblue" stroke="midnightblue" points="593.07,-138.84 600.73,-131.52 590.18,-132.46 593.07,-138.84"/>
</g>
<!-- Node19 -->
<g id="node19" class="node">
<title>Node19</title>
<g id="a_node19"><a xlink:title=" ">
<polygon fill="white" stroke="#bfbfbf" points="697.5,-112.5 697.5,-131.5 753.5,-131.5 753.5,-112.5 697.5,-112.5"/>
<text text-anchor="middle" x="725.5" y="-119.5" font-family="Helvetica,sans-Serif" font-size="10.00">sstream</text>
</a>
</g>
</g>
<!-- Node17&#45;&gt;Node19 -->
<g id="edge33" class="edge">
<title>Node17&#45;&gt;Node19</title>
<path fill="none" stroke="midnightblue" d="M536.15,-168.44C577.48,-158.53 645.3,-142.25 687.57,-132.1"/>
<polygon fill="midnightblue" stroke="midnightblue" points="688.57,-135.46 697.48,-129.73 686.94,-128.66 688.57,-135.46"/>
</g>
<!-- Node20&#45;&gt;Node9 -->
<g id="edge38" class="edge">
<title>Node20&#45;&gt;Node9</title>
<path fill="none" stroke="midnightblue" d="M569.45,-224.25C602.5,-205.9 670.65,-161 650.5,-112 634.78,-73.79 596.85,-42.36 572.48,-25.18"/>
<polygon fill="midnightblue" stroke="midnightblue" points="574.41,-22.26 564.18,-19.51 570.47,-28.04 574.41,-22.26"/>
</g>
<!-- Node20&#45;&gt;Node17 -->
<g id="edge37" class="edge">
<title>Node20&#45;&gt;Node17</title>
<path fill="none" stroke="midnightblue" d="M543.91,-224.08C536.34,-216.22 525.12,-204.57 515.99,-195.08"/>
<polygon fill="midnightblue" stroke="midnightblue" points="518.38,-192.53 508.93,-187.75 513.34,-197.38 518.38,-192.53"/>
</g>
<!-- Node23&#45;&gt;Node2 -->
<g id="edge43" class="edge">
<title>Node23&#45;&gt;Node2</title>
<path fill="none" stroke="midnightblue" d="M594.34,-396.9C504.1,-386.93 274.01,-361.52 181.7,-351.33"/>
<polygon fill="midnightblue" stroke="midnightblue" points="181.98,-347.84 171.65,-350.22 181.21,-354.8 181.98,-347.84"/>
</g>
<!-- Node23&#45;&gt;Node5 -->
<g id="edge42" class="edge">
<title>Node23&#45;&gt;Node5</title>
<path fill="none" stroke="midnightblue" d="M647.41,-392.32C663.14,-383.74 687.44,-370.49 705.71,-360.52"/>
<polygon fill="midnightblue" stroke="midnightblue" points="707.53,-363.52 714.63,-355.65 704.18,-357.37 707.53,-363.52"/>
</g>
<!-- Node23&#45;&gt;Node18 -->
<g id="edge44" class="edge">
<title>Node23&#45;&gt;Node18</title>
<path fill="none" stroke="midnightblue" d="M631.5,-392.44C631.5,-373.94 631.5,-328.81 631.5,-291 631.5,-291 631.5,-291 631.5,-233 631.5,-200.76 626.34,-163.51 622.79,-141.68"/>
<polygon fill="midnightblue" stroke="midnightblue" points="626.19,-140.8 621.07,-131.52 619.29,-141.97 626.19,-140.8"/>
</g>
<!-- Node23&#45;&gt;Node19 -->
<g id="edge45" class="edge">
<title>Node23&#45;&gt;Node19</title>
<path fill="none" stroke="midnightblue" d="M634.42,-392.38C647.52,-353.62 701.11,-195.13 719.37,-141.13"/>
<polygon fill="midnightblue" stroke="midnightblue" points="722.73,-142.12 722.62,-131.52 716.1,-139.88 722.73,-142.12"/>
</g>
<!-- Node24&#45;&gt;Node6 -->
<g id="edge48" class="edge">
<title>Node24&#45;&gt;Node6</title>
<path fill="none" stroke="midnightblue" d="M580.03,-448.31C544.56,-421.42 436.29,-339.35 391.85,-305.67"/>
<polygon fill="midnightblue" stroke="midnightblue" points="393.94,-302.86 383.85,-299.61 389.71,-308.44 393.94,-302.86"/>
</g>
<!-- Node24&#45;&gt;Node23 -->
<g id="edge47" class="edge">
<title>Node24&#45;&gt;Node23</title>
<path fill="none" stroke="midnightblue" d="M598.11,-448.08C603.76,-440.46 612.04,-429.26 618.95,-419.94"/>
<polygon fill="midnightblue" stroke="midnightblue" points="621.88,-421.87 625.02,-411.75 616.25,-417.7 621.88,-421.87"/>
</g>
<!-- Node25&#45;&gt;Node6 -->
<g id="edge51" class="edge">
<title>Node25&#45;&gt;Node6</title>
<path fill="none" stroke="midnightblue" d="M458.61,-448.08C444.16,-421.72 401.49,-343.88 382.18,-308.66"/>
<polygon fill="midnightblue" stroke="midnightblue" points="385.07,-306.65 377.2,-299.57 378.93,-310.02 385.07,-306.65"/>
</g>
<!-- Node25&#45;&gt;Node23 -->
<g id="edge50" class="edge">
<title>Node25&#45;&gt;Node23</title>
<path fill="none" stroke="midnightblue" d="M490.12,-448.44C518.51,-439.32 563.64,-424.81 595.25,-414.65"/>
<polygon fill="midnightblue" stroke="midnightblue" points="596.56,-417.91 605,-411.52 594.41,-411.24 596.56,-417.91"/>
</g>
<!-- Node26&#45;&gt;Node2 -->
<g id="edge57" class="edge">
<title>Node26&#45;&gt;Node2</title>
<path fill="none" stroke="midnightblue" d="M204.77,-621.92C192.29,-612.88 173.57,-597.54 162.5,-580 146.36,-554.44 142.5,-545.23 142.5,-515 142.5,-515 142.5,-515 142.5,-457 142.5,-424.95 142.5,-387.64 142.5,-365.75"/>
<polygon fill="midnightblue" stroke="midnightblue" points="146,-365.56 142.5,-355.56 139,-365.56 146,-365.56"/>
</g>
<!-- Node27 -->
<g id="node27" class="node">
<title>Node27</title>
<g id="a_node27"><a xlink:title=" ">
<polygon fill="white" stroke="#bfbfbf" points="171,-560.5 171,-579.5 264,-579.5 264,-560.5 171,-560.5"/>
<text text-anchor="middle" x="217.5" y="-567.5" font-family="Helvetica,sans-Serif" font-size="10.00">unordered_map</text>
</a>
</g>
</g>
<!-- Node26&#45;&gt;Node27 -->
<g id="edge56" class="edge">
<title>Node26&#45;&gt;Node27</title>
<path fill="none" stroke="midnightblue" d="M217.5,-621.98C217.5,-613.58 217.5,-600.48 217.5,-589.66"/>
<polygon fill="midnightblue" stroke="midnightblue" points="221,-589.51 217.5,-579.51 214,-589.51 221,-589.51"/>
</g>
<!-- Node28 -->
<g id="node28" class="node">
<title>Node28</title>
<g id="a_node28"><a xlink:title=" ">
<polygon fill="white" stroke="#bfbfbf" points="282,-560.5 282,-579.5 347,-579.5 347,-560.5 282,-560.5"/>
<text text-anchor="middle" x="314.5" y="-567.5" font-family="Helvetica,sans-Serif" font-size="10.00">typeindex</text>
</a>
</g>
</g>
<!-- Node26&#45;&gt;Node28 -->
<g id="edge58" class="edge">
<title>Node26&#45;&gt;Node28</title>
<path fill="none" stroke="midnightblue" d="M231.4,-621.98C247.17,-612.3 273.14,-596.37 291.85,-584.89"/>
<polygon fill="midnightblue" stroke="midnightblue" points="293.93,-587.72 300.63,-579.51 290.27,-581.75 293.93,-587.72"/>
</g>
<!-- Node29&#45;&gt;Node3 -->
<g id="edge61" class="edge">
<title>Node29&#45;&gt;Node3</title>
<path fill="none" stroke="midnightblue" d="M974.22,-616.4C952.27,-606.51 923.16,-593.38 901.88,-583.79"/>
<polygon fill="midnightblue" stroke="midnightblue" points="903.26,-580.58 892.71,-579.66 900.39,-586.96 903.26,-580.58"/>
</g>
<!-- Node30 -->
<g id="node30" class="node">
<title>Node30</title>
<g id="a_node30"><a xlink:href="lseq__part__result_8h.html" target="_top" xlink:title=" ">
<polygon fill="white" stroke="black" points="676.5,-560.5 676.5,-579.5 780.5,-579.5 780.5,-560.5 676.5,-560.5"/>
<text text-anchor="middle" x="728.5" y="-567.5" font-family="Helvetica,sans-Serif" font-size="10.00">lseq_part_result.h</text>
</a>
</g>
</g>
<!-- Node29&#45;&gt;Node30 -->
<g id="edge60" class="edge">
<title>Node29&#45;&gt;Node30</title>
<path fill="none" stroke="midnightblue" d="M946.42,-617.81C896.38,-607.06 825.46,-591.83 778.28,-581.69"/>
<polygon fill="midnightblue" stroke="midnightblue" points="778.8,-578.23 768.29,-579.55 777.33,-585.07 778.8,-578.23"/>
</g>
<!-- Node31&#45;&gt;Node6 -->
<g id="edge64" class="edge">
<title>Node31&#45;&gt;Node6</title>
<path fill="none" stroke="midnightblue" d="M365.93,-616.32C369.43,-594.59 375.5,-551.69 375.5,-515 375.5,-515 375.5,-515 375.5,-401 375.5,-368.94 374.21,-331.63 373.32,-309.74"/>
<polygon fill="midnightblue" stroke="midnightblue" points="376.81,-309.4 372.89,-299.56 369.82,-309.69 376.81,-309.4"/>
</g>
<!-- Node31&#45;&gt;Node30 -->
<g id="edge63" class="edge">
<title>Node31&#45;&gt;Node30</title>
<path fill="none" stroke="midnightblue" d="M428.75,-619.86C496,-608.9 600.08,-591.93 666.22,-581.15"/>
<polygon fill="midnightblue" stroke="midnightblue" points="667.19,-584.54 676.5,-579.48 666.06,-577.63 667.19,-584.54"/>
</g>
<!-- Node32&#45;&gt;Node30 -->
<g id="edge66" class="edge">
<title>Node32&#45;&gt;Node30</title>
<path fill="none" stroke="midnightblue" d="M728.5,-616.4C728.5,-608.47 728.5,-598.46 728.5,-589.86"/>
<polygon fill="midnightblue" stroke="midnightblue" points="732,-589.66 728.5,-579.66 725,-589.66 732,-589.66"/>
</g>
<!-- Node33&#45;&gt;Node3 -->
<g id="edge69" class="edge">
<title>Node33&#45;&gt;Node3</title>
<path fill="none" stroke="midnightblue" d="M870.45,-616.4C870.98,-608.47 871.65,-598.46 872.23,-589.86"/>
<polygon fill="midnightblue" stroke="midnightblue" points="875.74,-589.87 872.92,-579.66 868.76,-589.4 875.74,-589.87"/>
</g>
<!-- Node33&#45;&gt;Node30 -->
<g id="edge68" class="edge">
<title>Node33&#45;&gt;Node30</title>
<path fill="none" stroke="midnightblue" d="M836.08,-616.4C812.53,-606.46 781.26,-593.26 758.51,-583.66"/>
<polygon fill="midnightblue" stroke="midnightblue" points="759.59,-580.32 749.02,-579.66 756.87,-586.77 759.59,-580.32"/>
</g>
<!-- Node34&#45;&gt;Node30 -->
<g id="edge71" class="edge">
<title>Node34&#45;&gt;Node30</title>
<path fill="none" stroke="midnightblue" d="M604.13,-616.4C631.84,-606.28 668.81,-592.79 695.22,-583.15"/>
<polygon fill="midnightblue" stroke="midnightblue" points="696.59,-586.37 704.78,-579.66 694.19,-579.8 696.59,-586.37"/>
</g>
</g>
</svg>
