<?xml version="1.0" encoding="UTF-8" standalone="no"?>
<!DOCTYPE svg PUBLIC "-//W3C//DTD SVG 1.1//EN"
 "http://www.w3.org/Graphics/SVG/1.1/DTD/svg11.dtd">
<!-- Generated by graphviz version 2.43.0 (0)
 -->
<!-- Title: src/pewit/src/lseq_part_result/lseq_part_global_rays.h Pages: 1 -->
<svg width="130pt" height="285pt"
 viewBox="0.00 0.00 130.00 285.00" xmlns="http://www.w3.org/2000/svg" xmlns:xlink="http://www.w3.org/1999/xlink">
<g id="graph0" class="graph" transform="scale(1 1) rotate(0) translate(4 281)">
<title>src/pewit/src/lseq_part_result/lseq_part_global_rays.h</title>
<polygon fill="white" stroke="transparent" points="-4,4 -4,-281 126,-281 126,4 -4,4"/>
<!-- Node1 -->
<g id="node1" class="node">
<title>Node1</title>
<g id="a_node1"><a xlink:title=" ">
<polygon fill="#bfbfbf" stroke="black" points="0,-235.5 0,-276.5 122,-276.5 122,-235.5 0,-235.5"/>
<text text-anchor="start" x="8" y="-264.5" font-family="Helvetica,sans-Serif" font-size="10.00">src/pewit/src/lseq</text>
<text text-anchor="start" x="8" y="-253.5" font-family="Helvetica,sans-Serif" font-size="10.00">_part_result/lseq_part</text>
<text text-anchor="middle" x="61" y="-242.5" font-family="Helvetica,sans-Serif" font-size="10.00">_global_rays.h</text>
</a>
</g>
</g>
<!-- Node2 -->
<g id="node2" class="node">
<title>Node2</title>
<g id="a_node2"><a xlink:href="lseq__part_8h.html" target="_top" xlink:title=" ">
<polygon fill="white" stroke="black" points="10.5,-168.5 10.5,-198.5 111.5,-198.5 111.5,-168.5 10.5,-168.5"/>
<text text-anchor="start" x="18.5" y="-186.5" font-family="Helvetica,sans-Serif" font-size="10.00">src/pewit/src/lseq</text>
<text text-anchor="middle" x="61" y="-175.5" font-family="Helvetica,sans-Serif" font-size="10.00">_part.h</text>
</a>
</g>
</g>
<!-- Node1&#45;&gt;Node2 -->
<g id="edge1" class="edge">
<title>Node1&#45;&gt;Node2</title>
<path fill="none" stroke="midnightblue" d="M61,-225.08C61,-216.01 61,-206.45 61,-198.89"/>
<polygon fill="midnightblue" stroke="midnightblue" points="57.5,-225.36 61,-235.36 64.5,-225.36 57.5,-225.36"/>
</g>
<!-- Node3 -->
<g id="node3" class="node">
<title>Node3</title>
<g id="a_node3"><a xlink:href="lseq_8h.html" target="_top" xlink:title=" ">
<polygon fill="white" stroke="black" points="6,-112.5 6,-131.5 116,-131.5 116,-112.5 6,-112.5"/>
<text text-anchor="middle" x="61" y="-119.5" font-family="Helvetica,sans-Serif" font-size="10.00">src/pewit/src/lseq.h</text>
</a>
</g>
</g>
<!-- Node2&#45;&gt;Node3 -->
<g id="edge2" class="edge">
<title>Node2&#45;&gt;Node3</title>
<path fill="none" stroke="midnightblue" d="M61,-158.29C61,-148.86 61,-138.65 61,-131.66"/>
<polygon fill="midnightblue" stroke="midnightblue" points="57.5,-158.4 61,-168.4 64.5,-158.4 57.5,-158.4"/>
</g>
<!-- Node4 -->
<g id="node4" class="node">
<title>Node4</title>
<g id="a_node4"><a xlink:href="pewit_8h.html" target="_top" xlink:title=" ">
<polygon fill="white" stroke="black" points="2.5,-56.5 2.5,-75.5 119.5,-75.5 119.5,-56.5 2.5,-56.5"/>
<text text-anchor="middle" x="61" y="-63.5" font-family="Helvetica,sans-Serif" font-size="10.00">src/pewit/src/pewit.h</text>
</a>
</g>
</g>
<!-- Node3&#45;&gt;Node4 -->
<g id="edge3" class="edge">
<title>Node3&#45;&gt;Node4</title>
<path fill="none" stroke="midnightblue" d="M61,-101.8C61,-92.91 61,-82.78 61,-75.75"/>
<polygon fill="midnightblue" stroke="midnightblue" points="57.5,-102.08 61,-112.08 64.5,-102.08 57.5,-102.08"/>
</g>
<!-- Node5 -->
<g id="node5" class="node">
<title>Node5</title>
<g id="a_node5"><a xlink:href="robintrace_8h.html" target="_top" xlink:title=" ">
<polygon fill="white" stroke="black" points="4.5,-0.5 4.5,-19.5 117.5,-19.5 117.5,-0.5 4.5,-0.5"/>
<text text-anchor="middle" x="61" y="-7.5" font-family="Helvetica,sans-Serif" font-size="10.00">include/robintrace.h</text>
</a>
</g>
</g>
<!-- Node4&#45;&gt;Node5 -->
<g id="edge4" class="edge">
<title>Node4&#45;&gt;Node5</title>
<path fill="none" stroke="midnightblue" d="M61,-45.8C61,-36.91 61,-26.78 61,-19.75"/>
<polygon fill="midnightblue" stroke="midnightblue" points="57.5,-46.08 61,-56.08 64.5,-46.08 57.5,-46.08"/>
</g>
</g>
</svg>
