<?xml version="1.0" encoding="UTF-8" standalone="no"?>
<!DOCTYPE svg PUBLIC "-//W3C//DTD SVG 1.1//EN"
 "http://www.w3.org/Graphics/SVG/1.1/DTD/svg11.dtd">
<!-- Generated by graphviz version 2.43.0 (0)
 -->
<!-- Title: src/pewit/src/lseq.h Pages: 1 -->
<svg width="1312pt" height="767pt"
 viewBox="0.00 0.00 1312.00 767.00" xmlns="http://www.w3.org/2000/svg" xmlns:xlink="http://www.w3.org/1999/xlink">
<g id="graph0" class="graph" transform="scale(1 1) rotate(0) translate(4 763)">
<title>src/pewit/src/lseq.h</title>
<polygon fill="white" stroke="transparent" points="-4,4 -4,-763 1308,-763 1308,4 -4,4"/>
<!-- Node1 -->
<g id="node1" class="node">
<title>Node1</title>
<g id="a_node1"><a xlink:title=" ">
<polygon fill="#bfbfbf" stroke="black" points="946,-739.5 946,-758.5 1056,-758.5 1056,-739.5 946,-739.5"/>
<text text-anchor="middle" x="1001" y="-746.5" font-family="Helvetica,sans-Serif" font-size="10.00">src/pewit/src/lseq.h</text>
</a>
</g>
</g>
<!-- Node2 -->
<g id="node2" class="node">
<title>Node2</title>
<g id="a_node2"><a xlink:title=" ">
<polygon fill="white" stroke="#bfbfbf" points="912.5,-280.5 912.5,-299.5 959.5,-299.5 959.5,-280.5 912.5,-280.5"/>
<text text-anchor="middle" x="936" y="-287.5" font-family="Helvetica,sans-Serif" font-size="10.00">vector</text>
</a>
</g>
</g>
<!-- Node1&#45;&gt;Node2 -->
<g id="edge1" class="edge">
<title>Node1&#45;&gt;Node2</title>
<path fill="none" stroke="midnightblue" d="M991.96,-739.37C974.1,-721.34 936,-677.6 936,-632.5 936,-632.5 936,-632.5 936,-401 936,-368.95 936,-331.64 936,-309.75"/>
<polygon fill="midnightblue" stroke="midnightblue" points="939.5,-309.56 936,-299.56 932.5,-309.56 939.5,-309.56"/>
</g>
<!-- Node3 -->
<g id="node3" class="node">
<title>Node3</title>
<g id="a_node3"><a xlink:href="pinyo_8h.html" target="_top" xlink:title=" ">
<polygon fill="white" stroke="black" points="587.5,-504.5 587.5,-523.5 640.5,-523.5 640.5,-504.5 587.5,-504.5"/>
<text text-anchor="middle" x="614" y="-511.5" font-family="Helvetica,sans-Serif" font-size="10.00">pinyo.h</text>
</a>
</g>
</g>
<!-- Node1&#45;&gt;Node3 -->
<g id="edge2" class="edge">
<title>Node1&#45;&gt;Node3</title>
<path fill="none" stroke="midnightblue" d="M945.72,-746.12C756.28,-739.1 141.78,-711.49 84,-647 29.4,-586.05 121.59,-578.5 177,-560 251.02,-535.28 485.96,-521.33 577.24,-516.72"/>
<polygon fill="midnightblue" stroke="midnightblue" points="577.57,-520.21 587.38,-516.22 577.22,-513.22 577.57,-520.21"/>
</g>
<!-- Node25 -->
<g id="node25" class="node">
<title>Node25</title>
<g id="a_node25"><a xlink:href="lseq__part_8h.html" target="_top" xlink:title=" ">
<polygon fill="white" stroke="black" points="669.5,-683.5 669.5,-702.5 740.5,-702.5 740.5,-683.5 669.5,-683.5"/>
<text text-anchor="middle" x="705" y="-690.5" font-family="Helvetica,sans-Serif" font-size="10.00">lseq_part.h</text>
</a>
</g>
</g>
<!-- Node1&#45;&gt;Node25 -->
<g id="edge51" class="edge">
<title>Node1&#45;&gt;Node25</title>
<path fill="none" stroke="midnightblue" d="M954.1,-739.44C898.24,-729.25 805.57,-712.35 750.38,-702.28"/>
<polygon fill="midnightblue" stroke="midnightblue" points="751,-698.83 740.53,-700.48 749.74,-705.72 751,-698.83"/>
</g>
<!-- Node27 -->
<g id="node27" class="node">
<title>Node27</title>
<g id="a_node27"><a xlink:href="type__map_8h.html" target="_top" xlink:title=" ">
<polygon fill="white" stroke="black" points="1002,-622 1002,-641 1128,-641 1128,-622 1002,-622"/>
<text text-anchor="middle" x="1065" y="-629" font-family="Helvetica,sans-Serif" font-size="10.00">type_map/type_map.h</text>
</a>
</g>
</g>
<!-- Node1&#45;&gt;Node27 -->
<g id="edge83" class="edge">
<title>Node1&#45;&gt;Node27</title>
<path fill="none" stroke="midnightblue" d="M1002.51,-739.13C1004.98,-726.16 1010.67,-701.57 1021,-683 1028.15,-670.14 1038.99,-657.65 1048.12,-648.31"/>
<polygon fill="midnightblue" stroke="midnightblue" points="1050.6,-650.78 1055.26,-641.27 1045.68,-645.79 1050.6,-650.78"/>
</g>
<!-- Node36 -->
<g id="node36" class="node">
<title>Node36</title>
<g id="a_node36"><a xlink:href="lseq__input_8h.html" target="_top" xlink:title=" ">
<polygon fill="white" stroke="black" points="1146.5,-622 1146.5,-641 1275.5,-641 1275.5,-622 1146.5,-622"/>
<text text-anchor="middle" x="1211" y="-629" font-family="Helvetica,sans-Serif" font-size="10.00">lseq_input/lseq_input.h</text>
</a>
</g>
</g>
<!-- Node1&#45;&gt;Node36 -->
<g id="edge75" class="edge">
<title>Node1&#45;&gt;Node36</title>
<path fill="none" stroke="midnightblue" d="M1056.2,-742.6C1089.92,-737.05 1132.48,-725.79 1164,-703 1182.38,-689.71 1195.67,-666.84 1203.34,-650.77"/>
<polygon fill="midnightblue" stroke="midnightblue" points="1206.66,-651.91 1207.56,-641.35 1200.27,-649.04 1206.66,-651.91"/>
</g>
<!-- Node37 -->
<g id="node37" class="node">
<title>Node37</title>
<g id="a_node37"><a xlink:href="lpart__vec_8h.html" target="_top" xlink:title=" ">
<polygon fill="white" stroke="black" points="1046.5,-392.5 1046.5,-411.5 1117.5,-411.5 1117.5,-392.5 1046.5,-392.5"/>
<text text-anchor="middle" x="1082" y="-399.5" font-family="Helvetica,sans-Serif" font-size="10.00">lpart_vec.h</text>
</a>
</g>
</g>
<!-- Node1&#45;&gt;Node37 -->
<g id="edge76" class="edge">
<title>Node1&#45;&gt;Node37</title>
<path fill="none" stroke="midnightblue" d="M1051.72,-739.47C1137.97,-723.5 1304,-685.84 1304,-632.5 1304,-632.5 1304,-632.5 1304,-513 1304,-435.02 1192.65,-412.32 1127.67,-405.71"/>
<polygon fill="midnightblue" stroke="midnightblue" points="1127.95,-402.22 1117.67,-404.78 1127.3,-409.19 1127.95,-402.22"/>
</g>
<!-- Node38 -->
<g id="node38" class="node">
<title>Node38</title>
<g id="a_node38"><a xlink:href="lseq__rays_8h.html" target="_top" xlink:title=" ">
<polygon fill="white" stroke="black" points="1029.5,-683.5 1029.5,-702.5 1154.5,-702.5 1154.5,-683.5 1029.5,-683.5"/>
<text text-anchor="middle" x="1092" y="-690.5" font-family="Helvetica,sans-Serif" font-size="10.00">lseq_input/lseq_rays.h</text>
</a>
</g>
</g>
<!-- Node1&#45;&gt;Node38 -->
<g id="edge80" class="edge">
<title>Node1&#45;&gt;Node38</title>
<path fill="none" stroke="midnightblue" d="M1015.62,-739.32C1029.95,-730.82 1052.01,-717.73 1068.75,-707.8"/>
<polygon fill="midnightblue" stroke="midnightblue" points="1070.6,-710.77 1077.42,-702.65 1067.03,-704.75 1070.6,-710.77"/>
</g>
<!-- Node4 -->
<g id="node4" class="node">
<title>Node4</title>
<g id="a_node4"><a xlink:href="bun_8h.html" target="_top" xlink:title=" ">
<polygon fill="white" stroke="black" points="752.5,-336.5 752.5,-355.5 817.5,-355.5 817.5,-336.5 752.5,-336.5"/>
<text text-anchor="middle" x="785" y="-343.5" font-family="Helvetica,sans-Serif" font-size="10.00">bun/bun.h</text>
</a>
</g>
</g>
<!-- Node3&#45;&gt;Node4 -->
<g id="edge3" class="edge">
<title>Node3&#45;&gt;Node4</title>
<path fill="none" stroke="midnightblue" d="M633.65,-504.41C650.65,-496.43 675.36,-483.46 694,-468 730.43,-437.78 760.64,-390.19 775.35,-364.63"/>
<polygon fill="midnightblue" stroke="midnightblue" points="778.52,-366.14 780.37,-355.71 772.42,-362.71 778.52,-366.14"/>
</g>
<!-- Node21 -->
<g id="node21" class="node">
<title>Node21</title>
<g id="a_node21"><a xlink:href="lpart_8h.html" target="_top" xlink:title=" ">
<polygon fill="white" stroke="black" points="658,-392.5 658,-411.5 732,-411.5 732,-392.5 658,-392.5"/>
<text text-anchor="middle" x="695" y="-399.5" font-family="Helvetica,sans-Serif" font-size="10.00">lpart/lpart.h</text>
</a>
</g>
</g>
<!-- Node3&#45;&gt;Node21 -->
<g id="edge40" class="edge">
<title>Node3&#45;&gt;Node21</title>
<path fill="none" stroke="midnightblue" d="M631.46,-504.48C645.46,-496.79 664.59,-484.2 676,-468 685.63,-454.33 690.42,-435.8 692.78,-422.01"/>
<polygon fill="midnightblue" stroke="midnightblue" points="696.3,-422.16 694.24,-411.77 689.37,-421.17 696.3,-422.16"/>
</g>
<!-- Node23 -->
<g id="node23" class="node">
<title>Node23</title>
<g id="a_node23"><a xlink:href="transfer__part_8h.html" target="_top" xlink:title=" ">
<polygon fill="white" stroke="black" points="429,-448.5 429,-467.5 543,-467.5 543,-448.5 429,-448.5"/>
<text text-anchor="middle" x="486" y="-455.5" font-family="Helvetica,sans-Serif" font-size="10.00">lpart/transfer_part.h</text>
</a>
</g>
</g>
<!-- Node3&#45;&gt;Node23 -->
<g id="edge45" class="edge">
<title>Node3&#45;&gt;Node23</title>
<path fill="none" stroke="midnightblue" d="M593.72,-504.44C572.65,-495.56 539.48,-481.56 515.51,-471.45"/>
<polygon fill="midnightblue" stroke="midnightblue" points="516.76,-468.18 506.19,-467.52 514.04,-474.63 516.76,-468.18"/>
</g>
<!-- Node24 -->
<g id="node24" class="node">
<title>Node24</title>
<g id="a_node24"><a xlink:href="shape__part_8h.html" target="_top" xlink:title=" ">
<polygon fill="white" stroke="black" points="561.5,-448.5 561.5,-467.5 666.5,-467.5 666.5,-448.5 561.5,-448.5"/>
<text text-anchor="middle" x="614" y="-455.5" font-family="Helvetica,sans-Serif" font-size="10.00">lpart/shape_part.h</text>
</a>
</g>
</g>
<!-- Node3&#45;&gt;Node24 -->
<g id="edge48" class="edge">
<title>Node3&#45;&gt;Node24</title>
<path fill="none" stroke="midnightblue" d="M614,-504.08C614,-497.01 614,-486.86 614,-477.99"/>
<polygon fill="midnightblue" stroke="midnightblue" points="617.5,-477.75 614,-467.75 610.5,-477.75 617.5,-477.75"/>
</g>
<!-- Node4&#45;&gt;Node2 -->
<g id="edge38" class="edge">
<title>Node4&#45;&gt;Node2</title>
<path fill="none" stroke="midnightblue" d="M808.93,-336.44C834.22,-327.4 874.3,-313.06 902.68,-302.92"/>
<polygon fill="midnightblue" stroke="midnightblue" points="903.95,-306.18 912.19,-299.52 901.59,-299.59 903.95,-306.18"/>
</g>
<!-- Node5 -->
<g id="node5" class="node">
<title>Node5</title>
<g id="a_node5"><a xlink:href="poaky_8h.html" target="_top" xlink:title=" ">
<polygon fill="white" stroke="black" points="379.5,-280.5 379.5,-299.5 432.5,-299.5 432.5,-280.5 379.5,-280.5"/>
<text text-anchor="middle" x="406" y="-287.5" font-family="Helvetica,sans-Serif" font-size="10.00">poaky.h</text>
</a>
</g>
</g>
<!-- Node4&#45;&gt;Node5 -->
<g id="edge4" class="edge">
<title>Node4&#45;&gt;Node5</title>
<path fill="none" stroke="midnightblue" d="M752.36,-340.35C682.02,-330.33 516.56,-306.75 442.71,-296.23"/>
<polygon fill="midnightblue" stroke="midnightblue" points="442.9,-292.72 432.5,-294.78 441.91,-299.65 442.9,-292.72"/>
</g>
<!-- Node20 -->
<g id="node20" class="node">
<title>Node20</title>
<g id="a_node20"><a xlink:title=" ">
<polygon fill="white" stroke="#bfbfbf" points="752,-280.5 752,-299.5 838,-299.5 838,-280.5 752,-280.5"/>
<text text-anchor="middle" x="795" y="-287.5" font-family="Helvetica,sans-Serif" font-size="10.00">unordered_set</text>
</a>
</g>
</g>
<!-- Node4&#45;&gt;Node20 -->
<g id="edge39" class="edge">
<title>Node4&#45;&gt;Node20</title>
<path fill="none" stroke="midnightblue" d="M786.65,-336.08C787.98,-328.93 789.88,-318.64 791.54,-309.69"/>
<polygon fill="midnightblue" stroke="midnightblue" points="795,-310.22 793.38,-299.75 788.12,-308.95 795,-310.22"/>
</g>
<!-- Node6 -->
<g id="node6" class="node">
<title>Node6</title>
<g id="a_node6"><a xlink:href="Vec3_8h.html" target="_top" xlink:title=" ">
<polygon fill="white" stroke="black" points="322.5,-56.5 322.5,-75.5 397.5,-75.5 397.5,-56.5 322.5,-56.5"/>
<text text-anchor="middle" x="360" y="-63.5" font-family="Helvetica,sans-Serif" font-size="10.00">base/Vec3.h</text>
</a>
</g>
</g>
<!-- Node5&#45;&gt;Node6 -->
<g id="edge5" class="edge">
<title>Node5&#45;&gt;Node6</title>
<path fill="none" stroke="midnightblue" d="M379.24,-287.22C340.19,-283.69 266.21,-273.37 211,-244 146.88,-209.89 120.67,-198.73 92,-132 88.49,-123.83 86.26,-118.79 92,-112 119.65,-79.33 242.72,-70.36 312.07,-67.91"/>
<polygon fill="midnightblue" stroke="midnightblue" points="312.43,-71.4 322.31,-67.59 312.2,-64.41 312.43,-71.4"/>
</g>
<!-- Node10 -->
<g id="node10" class="node">
<title>Node10</title>
<g id="a_node10"><a xlink:href="Vec2_8h.html" target="_top" xlink:title=" ">
<polygon fill="white" stroke="black" points="311.5,-112.5 311.5,-131.5 386.5,-131.5 386.5,-112.5 311.5,-112.5"/>
<text text-anchor="middle" x="349" y="-119.5" font-family="Helvetica,sans-Serif" font-size="10.00">base/Vec2.h</text>
</a>
</g>
</g>
<!-- Node5&#45;&gt;Node10 -->
<g id="edge9" class="edge">
<title>Node5&#45;&gt;Node10</title>
<path fill="none" stroke="midnightblue" d="M403.6,-280.4C397.98,-260.44 383.25,-209.55 368,-168 364.67,-158.93 360.54,-149.02 356.99,-140.82"/>
<polygon fill="midnightblue" stroke="midnightblue" points="360.13,-139.27 352.89,-131.53 353.72,-142.09 360.13,-139.27"/>
</g>
<!-- Node11 -->
<g id="node11" class="node">
<title>Node11</title>
<g id="a_node11"><a xlink:href="Mat3_8h.html" target="_top" xlink:title=" ">
<polygon fill="white" stroke="black" points="101.5,-112.5 101.5,-131.5 178.5,-131.5 178.5,-112.5 101.5,-112.5"/>
<text text-anchor="middle" x="140" y="-119.5" font-family="Helvetica,sans-Serif" font-size="10.00">base/Mat3.h</text>
</a>
</g>
</g>
<!-- Node5&#45;&gt;Node11 -->
<g id="edge13" class="edge">
<title>Node5&#45;&gt;Node11</title>
<path fill="none" stroke="midnightblue" d="M379.25,-284.73C330.65,-275.61 227.41,-249.81 168,-188 155.64,-175.14 148.29,-155.96 144.25,-141.76"/>
<polygon fill="midnightblue" stroke="midnightblue" points="147.54,-140.49 141.68,-131.66 140.75,-142.22 147.54,-140.49"/>
</g>
<!-- Node12 -->
<g id="node12" class="node">
<title>Node12</title>
<g id="a_node12"><a xlink:href="ray_8h.html" target="_top" xlink:title=" ">
<polygon fill="white" stroke="black" points="404.5,-112.5 404.5,-131.5 463.5,-131.5 463.5,-112.5 404.5,-112.5"/>
<text text-anchor="middle" x="434" y="-119.5" font-family="Helvetica,sans-Serif" font-size="10.00">ray/ray.h</text>
</a>
</g>
</g>
<!-- Node5&#45;&gt;Node12 -->
<g id="edge15" class="edge">
<title>Node5&#45;&gt;Node12</title>
<path fill="none" stroke="midnightblue" d="M407.51,-280.08C411.91,-253.95 424.86,-177.21 430.87,-141.58"/>
<polygon fill="midnightblue" stroke="midnightblue" points="434.34,-142.01 432.55,-131.57 427.44,-140.85 434.34,-142.01"/>
</g>
<!-- Node13 -->
<g id="node13" class="node">
<title>Node13</title>
<g id="a_node13"><a xlink:href="transfer_8h.html" target="_top" xlink:title=" ">
<polygon fill="white" stroke="black" points="255,-168.5 255,-187.5 359,-187.5 359,-168.5 255,-168.5"/>
<text text-anchor="middle" x="307" y="-175.5" font-family="Helvetica,sans-Serif" font-size="10.00">transfer/transfer.h</text>
</a>
</g>
</g>
<!-- Node5&#45;&gt;Node13 -->
<g id="edge18" class="edge">
<title>Node5&#45;&gt;Node13</title>
<path fill="none" stroke="midnightblue" d="M398.23,-280.37C381.68,-261.97 342.7,-218.67 321.45,-195.05"/>
<polygon fill="midnightblue" stroke="midnightblue" points="324.02,-192.68 314.73,-187.59 318.82,-197.37 324.02,-192.68"/>
</g>
<!-- Node14 -->
<g id="node14" class="node">
<title>Node14</title>
<g id="a_node14"><a xlink:href="rop_8h.html" target="_top" xlink:title=" ">
<polygon fill="white" stroke="black" points="177,-168.5 177,-187.5 237,-187.5 237,-168.5 177,-168.5"/>
<text text-anchor="middle" x="207" y="-175.5" font-family="Helvetica,sans-Serif" font-size="10.00">rop/rop.h</text>
</a>
</g>
</g>
<!-- Node5&#45;&gt;Node14 -->
<g id="edge22" class="edge">
<title>Node5&#45;&gt;Node14</title>
<path fill="none" stroke="midnightblue" d="M390.38,-280.37C355.87,-261.29 272.89,-215.42 231.43,-192.51"/>
<polygon fill="midnightblue" stroke="midnightblue" points="232.99,-189.37 222.54,-187.59 229.6,-195.49 232.99,-189.37"/>
</g>
<!-- Node15 -->
<g id="node15" class="node">
<title>Node15</title>
<g id="a_node15"><a xlink:href="plane_8h.html" target="_top" xlink:title=" ">
<polygon fill="white" stroke="black" points="453.5,-224.5 453.5,-243.5 538.5,-243.5 538.5,-224.5 453.5,-224.5"/>
<text text-anchor="middle" x="496" y="-231.5" font-family="Helvetica,sans-Serif" font-size="10.00">shape/plane.h</text>
</a>
</g>
</g>
<!-- Node5&#45;&gt;Node15 -->
<g id="edge26" class="edge">
<title>Node5&#45;&gt;Node15</title>
<path fill="none" stroke="midnightblue" d="M420.46,-280.32C434.5,-271.9 456.05,-258.97 472.54,-249.07"/>
<polygon fill="midnightblue" stroke="midnightblue" points="474.8,-251.8 481.58,-243.65 471.2,-245.8 474.8,-251.8"/>
</g>
<!-- Node19 -->
<g id="node19" class="node">
<title>Node19</title>
<g id="a_node19"><a xlink:href="standard_8h.html" target="_top" xlink:title=" ">
<polygon fill="white" stroke="black" points="556.5,-224.5 556.5,-243.5 657.5,-243.5 657.5,-224.5 556.5,-224.5"/>
<text text-anchor="middle" x="607" y="-231.5" font-family="Helvetica,sans-Serif" font-size="10.00">shape/standard.h</text>
</a>
</g>
</g>
<!-- Node5&#45;&gt;Node19 -->
<g id="edge35" class="edge">
<title>Node5&#45;&gt;Node19</title>
<path fill="none" stroke="midnightblue" d="M432.69,-281.83C466.66,-272.7 525.68,-256.85 565.53,-246.14"/>
<polygon fill="midnightblue" stroke="midnightblue" points="566.47,-249.51 575.22,-243.54 564.66,-242.75 566.47,-249.51"/>
</g>
<!-- Node7 -->
<g id="node7" class="node">
<title>Node7</title>
<g id="a_node7"><a xlink:title=" ">
<polygon fill="white" stroke="#bfbfbf" points="407.5,-0.5 407.5,-19.5 454.5,-19.5 454.5,-0.5 407.5,-0.5"/>
<text text-anchor="middle" x="431" y="-7.5" font-family="Helvetica,sans-Serif" font-size="10.00">cmath</text>
</a>
</g>
</g>
<!-- Node6&#45;&gt;Node7 -->
<g id="edge6" class="edge">
<title>Node6&#45;&gt;Node7</title>
<path fill="none" stroke="midnightblue" d="M371.41,-56.32C382.11,-48.18 398.34,-35.84 411.16,-26.09"/>
<polygon fill="midnightblue" stroke="midnightblue" points="413.54,-28.67 419.39,-19.83 409.31,-23.1 413.54,-28.67"/>
</g>
<!-- Node8 -->
<g id="node8" class="node">
<title>Node8</title>
<g id="a_node8"><a xlink:title=" ">
<polygon fill="white" stroke="#bfbfbf" points="582,-0.5 582,-19.5 642,-19.5 642,-0.5 582,-0.5"/>
<text text-anchor="middle" x="612" y="-7.5" font-family="Helvetica,sans-Serif" font-size="10.00">iostream</text>
</a>
</g>
</g>
<!-- Node6&#45;&gt;Node8 -->
<g id="edge7" class="edge">
<title>Node6&#45;&gt;Node8</title>
<path fill="none" stroke="midnightblue" d="M397.73,-56.92C444.54,-46.88 524.04,-29.85 571.92,-19.59"/>
<polygon fill="midnightblue" stroke="midnightblue" points="572.88,-22.96 581.93,-17.44 571.41,-16.12 572.88,-22.96"/>
</g>
<!-- Node9 -->
<g id="node9" class="node">
<title>Node9</title>
<g id="a_node9"><a xlink:title=" ">
<polygon fill="white" stroke="#bfbfbf" points="255.5,-0.5 255.5,-19.5 332.5,-19.5 332.5,-0.5 255.5,-0.5"/>
<text text-anchor="middle" x="294" y="-7.5" font-family="Helvetica,sans-Serif" font-size="10.00">Eigen/Dense</text>
</a>
</g>
</g>
<!-- Node6&#45;&gt;Node9 -->
<g id="edge8" class="edge">
<title>Node6&#45;&gt;Node9</title>
<path fill="none" stroke="midnightblue" d="M349.4,-56.32C339.54,-48.26 324.65,-36.08 312.78,-26.37"/>
<polygon fill="midnightblue" stroke="midnightblue" points="314.75,-23.46 304.8,-19.83 310.32,-28.88 314.75,-23.46"/>
</g>
<!-- Node10&#45;&gt;Node6 -->
<g id="edge12" class="edge">
<title>Node10&#45;&gt;Node6</title>
<path fill="none" stroke="midnightblue" d="M350.82,-112.08C352.27,-104.93 354.37,-94.64 356.19,-85.69"/>
<polygon fill="midnightblue" stroke="midnightblue" points="359.65,-86.25 358.22,-75.75 352.79,-84.85 359.65,-86.25"/>
</g>
<!-- Node10&#45;&gt;Node8 -->
<g id="edge11" class="edge">
<title>Node10&#45;&gt;Node8</title>
<path fill="none" stroke="midnightblue" d="M369.41,-112.33C398.87,-99.82 455.06,-76.01 503,-56 529.54,-44.92 559.78,-32.45 581.66,-23.45"/>
<polygon fill="midnightblue" stroke="midnightblue" points="583.16,-26.62 591.08,-19.58 580.5,-20.14 583.16,-26.62"/>
</g>
<!-- Node10&#45;&gt;Node9 -->
<g id="edge10" class="edge">
<title>Node10&#45;&gt;Node9</title>
<path fill="none" stroke="midnightblue" d="M340.71,-112.36C332.86,-103.76 321.22,-89.87 314,-76 306.34,-61.27 301.06,-43.11 297.86,-29.73"/>
<polygon fill="midnightblue" stroke="midnightblue" points="301.23,-28.8 295.65,-19.8 294.4,-30.32 301.23,-28.8"/>
</g>
<!-- Node11&#45;&gt;Node9 -->
<g id="edge14" class="edge">
<title>Node11&#45;&gt;Node9</title>
<path fill="none" stroke="midnightblue" d="M145.17,-112.33C153.65,-98.73 171.72,-72.28 193,-56 212,-41.47 236.43,-30.42 256.51,-22.91"/>
<polygon fill="midnightblue" stroke="midnightblue" points="257.75,-26.18 265.97,-19.51 255.38,-19.6 257.75,-26.18"/>
</g>
<!-- Node12&#45;&gt;Node6 -->
<g id="edge16" class="edge">
<title>Node12&#45;&gt;Node6</title>
<path fill="none" stroke="midnightblue" d="M422.11,-112.32C410.85,-104.11 393.71,-91.6 380.29,-81.81"/>
<polygon fill="midnightblue" stroke="midnightblue" points="382.25,-78.9 372.11,-75.83 378.12,-84.56 382.25,-78.9"/>
</g>
<!-- Node12&#45;&gt;Node8 -->
<g id="edge17" class="edge">
<title>Node12&#45;&gt;Node8</title>
<path fill="none" stroke="midnightblue" d="M447.97,-112.37C478.64,-93.41 552.13,-48 589.44,-24.94"/>
<polygon fill="midnightblue" stroke="midnightblue" points="591.43,-27.83 598.1,-19.59 587.75,-21.87 591.43,-27.83"/>
</g>
<!-- Node13&#45;&gt;Node6 -->
<g id="edge19" class="edge">
<title>Node13&#45;&gt;Node6</title>
<path fill="none" stroke="midnightblue" d="M303.94,-168.49C299.83,-155.56 294.03,-130.52 303,-112 309.4,-98.8 321.75,-88.3 333.33,-80.78"/>
<polygon fill="midnightblue" stroke="midnightblue" points="335.16,-83.77 341.92,-75.61 331.55,-77.77 335.16,-83.77"/>
</g>
<!-- Node13&#45;&gt;Node11 -->
<g id="edge20" class="edge">
<title>Node13&#45;&gt;Node11</title>
<path fill="none" stroke="midnightblue" d="M280.54,-168.44C252.32,-159.32 207.46,-144.81 176.03,-134.65"/>
<polygon fill="midnightblue" stroke="midnightblue" points="176.93,-131.26 166.34,-131.52 174.78,-137.92 176.93,-131.26"/>
</g>
<!-- Node13&#45;&gt;Node12 -->
<g id="edge21" class="edge">
<title>Node13&#45;&gt;Node12</title>
<path fill="none" stroke="midnightblue" d="M327.12,-168.44C348.02,-159.56 380.93,-145.56 404.72,-135.45"/>
<polygon fill="midnightblue" stroke="midnightblue" points="406.14,-138.65 413.97,-131.52 403.4,-132.21 406.14,-138.65"/>
</g>
<!-- Node14&#45;&gt;Node6 -->
<g id="edge23" class="edge">
<title>Node14&#45;&gt;Node6</title>
<path fill="none" stroke="midnightblue" d="M218.31,-168.47C234.98,-155.94 267.19,-131.89 295,-112 309.55,-101.59 326.14,-90.11 338.91,-81.36"/>
<polygon fill="midnightblue" stroke="midnightblue" points="341.18,-84.05 347.46,-75.51 337.23,-78.27 341.18,-84.05"/>
</g>
<!-- Node14&#45;&gt;Node7 -->
<g id="edge25" class="edge">
<title>Node14&#45;&gt;Node7</title>
<path fill="none" stroke="midnightblue" d="M212.43,-168.41C226.57,-146.66 266.78,-88.79 314,-56 339.5,-38.3 372.9,-26.35 397.48,-19.24"/>
<polygon fill="midnightblue" stroke="midnightblue" points="398.73,-22.53 407.43,-16.49 396.86,-15.78 398.73,-22.53"/>
</g>
<!-- Node14&#45;&gt;Node12 -->
<g id="edge24" class="edge">
<title>Node14&#45;&gt;Node12</title>
<path fill="none" stroke="midnightblue" d="M237.14,-169.83C277.65,-160.19 349.71,-143.05 394.51,-132.39"/>
<polygon fill="midnightblue" stroke="midnightblue" points="395.53,-135.75 404.45,-130.03 393.91,-128.94 395.53,-135.75"/>
</g>
<!-- Node15&#45;&gt;Node7 -->
<g id="edge34" class="edge">
<title>Node15&#45;&gt;Node7</title>
<path fill="none" stroke="midnightblue" d="M494.98,-224.35C492.48,-204.28 485.33,-153.17 473,-112 464,-81.95 449.13,-48.62 439.71,-28.76"/>
<polygon fill="midnightblue" stroke="midnightblue" points="442.83,-27.18 435.34,-19.69 436.52,-30.22 442.83,-27.18"/>
</g>
<!-- Node15&#45;&gt;Node8 -->
<g id="edge33" class="edge">
<title>Node15&#45;&gt;Node8</title>
<path fill="none" stroke="midnightblue" d="M533.9,-224.42C566.78,-216.12 610.69,-202.67 621,-188 638.59,-162.97 623.43,-70.04 615.78,-29.79"/>
<polygon fill="midnightblue" stroke="midnightblue" points="619.16,-28.87 613.81,-19.73 612.29,-30.21 619.16,-28.87"/>
</g>
<!-- Node16 -->
<g id="node16" class="node">
<title>Node16</title>
<g id="a_node16"><a xlink:href="shape_8h.html" target="_top" xlink:title=" ">
<polygon fill="white" stroke="black" points="524.5,-168.5 524.5,-187.5 611.5,-187.5 611.5,-168.5 524.5,-168.5"/>
<text text-anchor="middle" x="568" y="-175.5" font-family="Helvetica,sans-Serif" font-size="10.00">shape/shape.h</text>
</a>
</g>
</g>
<!-- Node15&#45;&gt;Node16 -->
<g id="edge27" class="edge">
<title>Node15&#45;&gt;Node16</title>
<path fill="none" stroke="midnightblue" d="M507.57,-224.32C518.42,-216.18 534.88,-203.84 547.88,-194.09"/>
<polygon fill="midnightblue" stroke="midnightblue" points="550.32,-196.63 556.22,-187.83 546.12,-191.03 550.32,-196.63"/>
</g>
<!-- Node16&#45;&gt;Node6 -->
<g id="edge29" class="edge">
<title>Node16&#45;&gt;Node6</title>
<path fill="none" stroke="midnightblue" d="M557.1,-168.35C539.95,-155.02 505.28,-129.2 473,-112 448.16,-98.77 418.56,-87.12 395.88,-78.99"/>
<polygon fill="midnightblue" stroke="midnightblue" points="396.91,-75.64 386.31,-75.61 394.58,-82.24 396.91,-75.64"/>
</g>
<!-- Node16&#45;&gt;Node7 -->
<g id="edge30" class="edge">
<title>Node16&#45;&gt;Node7</title>
<path fill="none" stroke="midnightblue" d="M566.24,-168.48C561.36,-146.88 545.76,-89.35 512,-56 498.16,-42.33 479.33,-31.53 463.3,-23.95"/>
<polygon fill="midnightblue" stroke="midnightblue" points="464.31,-20.56 453.76,-19.64 461.44,-26.94 464.31,-20.56"/>
</g>
<!-- Node16&#45;&gt;Node12 -->
<g id="edge28" class="edge">
<title>Node16&#45;&gt;Node12</title>
<path fill="none" stroke="midnightblue" d="M546.77,-168.44C524.62,-159.52 489.68,-145.44 464.56,-135.32"/>
<polygon fill="midnightblue" stroke="midnightblue" points="465.72,-132.01 455.13,-131.52 463.1,-138.5 465.72,-132.01"/>
</g>
<!-- Node17 -->
<g id="node17" class="node">
<title>Node17</title>
<g id="a_node17"><a xlink:title=" ">
<polygon fill="white" stroke="#bfbfbf" points="752,-112.5 752,-131.5 796,-131.5 796,-112.5 752,-112.5"/>
<text text-anchor="middle" x="774" y="-119.5" font-family="Helvetica,sans-Serif" font-size="10.00">string</text>
</a>
</g>
</g>
<!-- Node16&#45;&gt;Node17 -->
<g id="edge31" class="edge">
<title>Node16&#45;&gt;Node17</title>
<path fill="none" stroke="midnightblue" d="M600.64,-168.44C639.32,-158.3 703.36,-141.52 741.83,-131.43"/>
<polygon fill="midnightblue" stroke="midnightblue" points="743.18,-134.7 751.96,-128.78 741.4,-127.93 743.18,-134.7"/>
</g>
<!-- Node18 -->
<g id="node18" class="node">
<title>Node18</title>
<g id="a_node18"><a xlink:title=" ">
<polygon fill="white" stroke="#bfbfbf" points="640,-112.5 640,-131.5 696,-131.5 696,-112.5 640,-112.5"/>
<text text-anchor="middle" x="668" y="-119.5" font-family="Helvetica,sans-Serif" font-size="10.00">sstream</text>
</a>
</g>
</g>
<!-- Node16&#45;&gt;Node18 -->
<g id="edge32" class="edge">
<title>Node16&#45;&gt;Node18</title>
<path fill="none" stroke="midnightblue" d="M584.07,-168.32C599.96,-159.74 624.51,-146.49 642.96,-136.52"/>
<polygon fill="midnightblue" stroke="midnightblue" points="644.84,-139.49 651.97,-131.65 641.51,-133.33 644.84,-139.49"/>
</g>
<!-- Node19&#45;&gt;Node8 -->
<g id="edge37" class="edge">
<title>Node19&#45;&gt;Node8</title>
<path fill="none" stroke="midnightblue" d="M620.56,-224.47C643.34,-209.23 688.42,-174.84 705,-132 722.22,-87.51 669.2,-45.74 636.24,-24.88"/>
<polygon fill="midnightblue" stroke="midnightblue" points="637.9,-21.79 627.54,-19.56 634.25,-27.77 637.9,-21.79"/>
</g>
<!-- Node19&#45;&gt;Node16 -->
<g id="edge36" class="edge">
<title>Node19&#45;&gt;Node16</title>
<path fill="none" stroke="midnightblue" d="M600.56,-224.08C595.05,-216.46 586.97,-205.26 580.24,-195.94"/>
<polygon fill="midnightblue" stroke="midnightblue" points="583.01,-193.81 574.32,-187.75 577.34,-197.91 583.01,-193.81"/>
</g>
<!-- Node21&#45;&gt;Node4 -->
<g id="edge41" class="edge">
<title>Node21&#45;&gt;Node4</title>
<path fill="none" stroke="midnightblue" d="M709.46,-392.32C723.5,-383.9 745.05,-370.97 761.54,-361.07"/>
<polygon fill="midnightblue" stroke="midnightblue" points="763.8,-363.8 770.58,-355.65 760.2,-357.8 763.8,-363.8"/>
</g>
<!-- Node21&#45;&gt;Node17 -->
<g id="edge43" class="edge">
<title>Node21&#45;&gt;Node17</title>
<path fill="none" stroke="midnightblue" d="M697.45,-392.38C708.44,-353.7 753.31,-195.79 768.75,-141.47"/>
<polygon fill="midnightblue" stroke="midnightblue" points="772.21,-142.1 771.58,-131.52 765.48,-140.19 772.21,-142.1"/>
</g>
<!-- Node21&#45;&gt;Node18 -->
<g id="edge44" class="edge">
<title>Node21&#45;&gt;Node18</title>
<path fill="none" stroke="midnightblue" d="M693.82,-392.46C691.38,-373.99 686,-328.94 686,-291 686,-291 686,-291 686,-233 686,-200.54 678.27,-163.38 672.94,-141.63"/>
<polygon fill="midnightblue" stroke="midnightblue" points="676.29,-140.59 670.43,-131.76 669.51,-142.32 676.29,-140.59"/>
</g>
<!-- Node22 -->
<g id="node22" class="node">
<title>Node22</title>
<g id="a_node22"><a xlink:title=" ">
<polygon fill="white" stroke="#bfbfbf" points="964,-336.5 964,-355.5 1022,-355.5 1022,-336.5 964,-336.5"/>
<text text-anchor="middle" x="993" y="-343.5" font-family="Helvetica,sans-Serif" font-size="10.00">memory</text>
</a>
</g>
</g>
<!-- Node21&#45;&gt;Node22 -->
<g id="edge42" class="edge">
<title>Node21&#45;&gt;Node22</title>
<path fill="none" stroke="midnightblue" d="M732.14,-394.27C788.69,-384.02 895.9,-364.6 953.7,-354.12"/>
<polygon fill="midnightblue" stroke="midnightblue" points="954.68,-357.5 963.9,-352.27 953.44,-350.61 954.68,-357.5"/>
</g>
<!-- Node23&#45;&gt;Node5 -->
<g id="edge47" class="edge">
<title>Node23&#45;&gt;Node5</title>
<path fill="none" stroke="midnightblue" d="M481.7,-448.08C469,-421.72 431.48,-343.88 414.51,-308.66"/>
<polygon fill="midnightblue" stroke="midnightblue" points="417.62,-307.06 410.13,-299.57 411.32,-310.1 417.62,-307.06"/>
</g>
<!-- Node23&#45;&gt;Node21 -->
<g id="edge46" class="edge">
<title>Node23&#45;&gt;Node21</title>
<path fill="none" stroke="midnightblue" d="M519.12,-448.44C555.12,-439.14 612.77,-424.25 652.19,-414.06"/>
<polygon fill="midnightblue" stroke="midnightblue" points="653.23,-417.41 662.04,-411.52 651.48,-410.63 653.23,-417.41"/>
</g>
<!-- Node24&#45;&gt;Node5 -->
<g id="edge50" class="edge">
<title>Node24&#45;&gt;Node5</title>
<path fill="none" stroke="midnightblue" d="M603.11,-448.31C569.48,-421.47 467.01,-339.69 424.64,-305.88"/>
<polygon fill="midnightblue" stroke="midnightblue" points="426.78,-303.11 416.78,-299.61 422.42,-308.58 426.78,-303.11"/>
</g>
<!-- Node24&#45;&gt;Node21 -->
<g id="edge49" class="edge">
<title>Node24&#45;&gt;Node21</title>
<path fill="none" stroke="midnightblue" d="M627.01,-448.32C639.53,-439.98 658.68,-427.21 673.47,-417.35"/>
<polygon fill="midnightblue" stroke="midnightblue" points="675.64,-420.11 682.02,-411.65 671.76,-414.29 675.64,-420.11"/>
</g>
<!-- Node25&#45;&gt;Node3 -->
<g id="edge57" class="edge">
<title>Node25&#45;&gt;Node3</title>
<path fill="none" stroke="midnightblue" d="M669.14,-692.12C544.3,-692.19 134.16,-689.16 95,-647 26.3,-573.04 447.56,-529.58 577.01,-518.09"/>
<polygon fill="midnightblue" stroke="midnightblue" points="577.57,-521.55 587.22,-517.2 576.96,-514.58 577.57,-521.55"/>
</g>
<!-- Node25&#45;&gt;Node22 -->
<g id="edge52" class="edge">
<title>Node25&#45;&gt;Node22</title>
<path fill="none" stroke="midnightblue" d="M740.72,-691.78C813.89,-689.24 974,-672.14 974,-571 974,-571 974,-571 974,-457 974,-424.49 982.16,-387.35 987.78,-365.61"/>
<polygon fill="midnightblue" stroke="midnightblue" points="991.22,-366.32 990.44,-355.75 984.46,-364.5 991.22,-366.32"/>
</g>
<!-- Node26 -->
<g id="node26" class="node">
<title>Node26</title>
<g id="a_node26"><a xlink:href="ray__pack_8h.html" target="_top" xlink:title=" ">
<polygon fill="white" stroke="black" points="811,-560.5 811,-579.5 881,-579.5 881,-560.5 811,-560.5"/>
<text text-anchor="middle" x="846" y="-567.5" font-family="Helvetica,sans-Serif" font-size="10.00">ray_pack.h</text>
</a>
</g>
</g>
<!-- Node25&#45;&gt;Node26 -->
<g id="edge53" class="edge">
<title>Node25&#45;&gt;Node26</title>
<path fill="none" stroke="midnightblue" d="M740.79,-690.75C772.53,-687.55 817.41,-677.49 841,-647 853.49,-630.85 852.74,-606.54 850.17,-589.79"/>
<polygon fill="midnightblue" stroke="midnightblue" points="853.54,-588.76 848.24,-579.59 846.66,-590.06 853.54,-588.76"/>
</g>
<!-- Node25&#45;&gt;Node27 -->
<g id="edge58" class="edge">
<title>Node25&#45;&gt;Node27</title>
<path fill="none" stroke="midnightblue" d="M740.79,-686.64C794.55,-678.52 899.28,-662.4 988,-647 995.36,-645.72 1003.11,-644.32 1010.74,-642.92"/>
<polygon fill="midnightblue" stroke="midnightblue" points="1011.47,-646.34 1020.66,-641.07 1010.19,-639.46 1011.47,-646.34"/>
</g>
<!-- Node30 -->
<g id="node30" class="node">
<title>Node30</title>
<g id="a_node30"><a xlink:href="lseq__part__rays_8h.html" target="_top" xlink:title=" ">
<polygon fill="white" stroke="black" points="714,-616.5 714,-646.5 832,-646.5 832,-616.5 714,-616.5"/>
<text text-anchor="start" x="722" y="-634.5" font-family="Helvetica,sans-Serif" font-size="10.00">lseq_part_result/lseq</text>
<text text-anchor="middle" x="773" y="-623.5" font-family="Helvetica,sans-Serif" font-size="10.00">_part_rays.h</text>
</a>
</g>
</g>
<!-- Node25&#45;&gt;Node30 -->
<g id="edge62" class="edge">
<title>Node25&#45;&gt;Node30</title>
<path fill="none" stroke="midnightblue" d="M714.74,-683.48C723.69,-675.64 737.33,-663.71 749.15,-653.37"/>
<polygon fill="midnightblue" stroke="midnightblue" points="751.75,-655.74 756.97,-646.52 747.14,-650.47 751.75,-655.74"/>
</g>
<!-- Node32 -->
<g id="node32" class="node">
<title>Node32</title>
<g id="a_node32"><a xlink:href="lseq__part__global__position_8h.html" target="_top" xlink:title=" ">
<polygon fill="white" stroke="black" points="104,-616.5 104,-646.5 234,-646.5 234,-616.5 104,-616.5"/>
<text text-anchor="start" x="112" y="-634.5" font-family="Helvetica,sans-Serif" font-size="10.00">lseq_part_result/lseq</text>
<text text-anchor="middle" x="169" y="-623.5" font-family="Helvetica,sans-Serif" font-size="10.00">_part_global_position.h</text>
</a>
</g>
</g>
<!-- Node25&#45;&gt;Node32 -->
<g id="edge65" class="edge">
<title>Node25&#45;&gt;Node32</title>
<path fill="none" stroke="midnightblue" d="M669.21,-689.69C592.99,-684.53 408.84,-670.71 244.6,-647.15"/>
<polygon fill="midnightblue" stroke="midnightblue" points="244.71,-643.62 234.31,-645.65 243.7,-650.55 244.71,-643.62"/>
</g>
<!-- Node33 -->
<g id="node33" class="node">
<title>Node33</title>
<g id="a_node33"><a xlink:href="lseq__part__semi__diameter_8h.html" target="_top" xlink:title=" ">
<polygon fill="white" stroke="black" points="432,-616.5 432,-646.5 560,-646.5 560,-616.5 432,-616.5"/>
<text text-anchor="start" x="440" y="-634.5" font-family="Helvetica,sans-Serif" font-size="10.00">lseq_part_result/lseq</text>
<text text-anchor="middle" x="496" y="-623.5" font-family="Helvetica,sans-Serif" font-size="10.00">_part_semi_diameter.h</text>
</a>
</g>
</g>
<!-- Node25&#45;&gt;Node33 -->
<g id="edge68" class="edge">
<title>Node25&#45;&gt;Node33</title>
<path fill="none" stroke="midnightblue" d="M675.06,-683.48C643.84,-674.59 594.1,-660.43 554.96,-649.29"/>
<polygon fill="midnightblue" stroke="midnightblue" points="555.83,-645.89 545.26,-646.52 553.92,-652.63 555.83,-645.89"/>
</g>
<!-- Node34 -->
<g id="node34" class="node">
<title>Node34</title>
<g id="a_node34"><a xlink:href="lseq__part__global__rays_8h.html" target="_top" xlink:title=" ">
<polygon fill="white" stroke="black" points="578,-616.5 578,-646.5 696,-646.5 696,-616.5 578,-616.5"/>
<text text-anchor="start" x="586" y="-634.5" font-family="Helvetica,sans-Serif" font-size="10.00">lseq_part_result/lseq</text>
<text text-anchor="middle" x="637" y="-623.5" font-family="Helvetica,sans-Serif" font-size="10.00">_part_global_rays.h</text>
</a>
</g>
</g>
<!-- Node25&#45;&gt;Node34 -->
<g id="edge70" class="edge">
<title>Node25&#45;&gt;Node34</title>
<path fill="none" stroke="midnightblue" d="M695.26,-683.48C686.31,-675.64 672.67,-663.71 660.85,-653.37"/>
<polygon fill="midnightblue" stroke="midnightblue" points="662.86,-650.47 653.03,-646.52 658.25,-655.74 662.86,-650.47"/>
</g>
<!-- Node35 -->
<g id="node35" class="node">
<title>Node35</title>
<g id="a_node35"><a xlink:href="lseq__part__propagation__direction_8h.html" target="_top" xlink:title=" ">
<polygon fill="white" stroke="black" points="252,-616.5 252,-646.5 414,-646.5 414,-616.5 252,-616.5"/>
<text text-anchor="start" x="260" y="-634.5" font-family="Helvetica,sans-Serif" font-size="10.00">lseq_part_result/lseq</text>
<text text-anchor="middle" x="333" y="-623.5" font-family="Helvetica,sans-Serif" font-size="10.00">_part_propagation_direction.h</text>
</a>
</g>
</g>
<!-- Node25&#45;&gt;Node35 -->
<g id="edge73" class="edge">
<title>Node25&#45;&gt;Node35</title>
<path fill="none" stroke="midnightblue" d="M669.38,-686.33C617.71,-678.11 518.67,-662.33 424.42,-647.23"/>
<polygon fill="midnightblue" stroke="midnightblue" points="424.86,-643.75 414.43,-645.63 423.75,-650.66 424.86,-643.75"/>
</g>
<!-- Node26&#45;&gt;Node2 -->
<g id="edge56" class="edge">
<title>Node26&#45;&gt;Node2</title>
<path fill="none" stroke="midnightblue" d="M846,-560.44C846,-541.94 846,-496.81 846,-459 846,-459 846,-459 846,-401 846,-358.66 886.44,-323.66 913.1,-305.18"/>
<polygon fill="midnightblue" stroke="midnightblue" points="915.16,-308.02 921.54,-299.56 911.28,-302.19 915.16,-308.02"/>
</g>
<!-- Node26&#45;&gt;Node3 -->
<g id="edge54" class="edge">
<title>Node26&#45;&gt;Node3</title>
<path fill="none" stroke="midnightblue" d="M810.76,-560.8C767.46,-550.72 694.35,-533.7 650.48,-523.49"/>
<polygon fill="midnightblue" stroke="midnightblue" points="651.06,-520.03 640.53,-521.17 649.47,-526.85 651.06,-520.03"/>
</g>
<!-- Node26&#45;&gt;Node8 -->
<g id="edge55" class="edge">
<title>Node26&#45;&gt;Node8</title>
<path fill="none" stroke="midnightblue" d="M851.28,-560.23C861.73,-542.04 884,-498.6 884,-459 884,-459 884,-459 884,-121 884,-71.62 727.99,-33.94 652.27,-18.56"/>
<polygon fill="midnightblue" stroke="midnightblue" points="652.64,-15.07 642.15,-16.54 651.27,-21.93 652.64,-15.07"/>
</g>
<!-- Node27&#45;&gt;Node22 -->
<g id="edge60" class="edge">
<title>Node27&#45;&gt;Node22</title>
<path fill="none" stroke="midnightblue" d="M1057.85,-621.85C1043.39,-603.43 1012,-558.46 1012,-515 1012,-515 1012,-515 1012,-457 1012,-424.49 1003.84,-387.35 998.22,-365.61"/>
<polygon fill="midnightblue" stroke="midnightblue" points="1001.54,-364.5 995.56,-355.75 994.78,-366.32 1001.54,-364.5"/>
</g>
<!-- Node28 -->
<g id="node28" class="node">
<title>Node28</title>
<g id="a_node28"><a xlink:title=" ">
<polygon fill="white" stroke="#bfbfbf" points="1040.5,-560.5 1040.5,-579.5 1133.5,-579.5 1133.5,-560.5 1040.5,-560.5"/>
<text text-anchor="middle" x="1087" y="-567.5" font-family="Helvetica,sans-Serif" font-size="10.00">unordered_map</text>
</a>
</g>
</g>
<!-- Node27&#45;&gt;Node28 -->
<g id="edge59" class="edge">
<title>Node27&#45;&gt;Node28</title>
<path fill="none" stroke="midnightblue" d="M1068.15,-621.98C1071.32,-613.4 1076.3,-599.93 1080.35,-588.98"/>
<polygon fill="midnightblue" stroke="midnightblue" points="1083.67,-590.1 1083.85,-579.51 1077.1,-587.67 1083.67,-590.1"/>
</g>
<!-- Node29 -->
<g id="node29" class="node">
<title>Node29</title>
<g id="a_node29"><a xlink:title=" ">
<polygon fill="white" stroke="#bfbfbf" points="1151.5,-560.5 1151.5,-579.5 1216.5,-579.5 1216.5,-560.5 1151.5,-560.5"/>
<text text-anchor="middle" x="1184" y="-567.5" font-family="Helvetica,sans-Serif" font-size="10.00">typeindex</text>
</a>
</g>
</g>
<!-- Node27&#45;&gt;Node29 -->
<g id="edge61" class="edge">
<title>Node27&#45;&gt;Node29</title>
<path fill="none" stroke="midnightblue" d="M1082.05,-621.98C1101.84,-612.08 1134.72,-595.64 1157.77,-584.12"/>
<polygon fill="midnightblue" stroke="midnightblue" points="1159.6,-587.11 1166.98,-579.51 1156.47,-580.85 1159.6,-587.11"/>
</g>
<!-- Node30&#45;&gt;Node26 -->
<g id="edge64" class="edge">
<title>Node30&#45;&gt;Node26</title>
<path fill="none" stroke="midnightblue" d="M790.3,-616.4C801.45,-607.31 815.95,-595.49 827.36,-586.19"/>
<polygon fill="midnightblue" stroke="midnightblue" points="829.84,-588.69 835.38,-579.66 825.42,-583.26 829.84,-588.69"/>
</g>
<!-- Node31 -->
<g id="node31" class="node">
<title>Node31</title>
<g id="a_node31"><a xlink:href="lseq__part__result_8h.html" target="_top" xlink:title=" ">
<polygon fill="white" stroke="black" points="444,-560.5 444,-579.5 548,-579.5 548,-560.5 444,-560.5"/>
<text text-anchor="middle" x="496" y="-567.5" font-family="Helvetica,sans-Serif" font-size="10.00">lseq_part_result.h</text>
</a>
</g>
</g>
<!-- Node30&#45;&gt;Node31 -->
<g id="edge63" class="edge">
<title>Node30&#45;&gt;Node31</title>
<path fill="none" stroke="midnightblue" d="M713.92,-617.81C663.88,-607.06 592.96,-591.83 545.78,-581.69"/>
<polygon fill="midnightblue" stroke="midnightblue" points="546.3,-578.23 535.79,-579.55 544.83,-585.07 546.3,-578.23"/>
</g>
<!-- Node32&#45;&gt;Node5 -->
<g id="edge67" class="edge">
<title>Node32&#45;&gt;Node5</title>
<path fill="none" stroke="midnightblue" d="M110.84,-616.47C61.95,-600.81 0,-570.08 0,-515 0,-515 0,-515 0,-401 0,-324.9 269.07,-299.8 369.12,-293.1"/>
<polygon fill="midnightblue" stroke="midnightblue" points="369.61,-296.58 379.36,-292.44 369.16,-289.59 369.61,-296.58"/>
</g>
<!-- Node32&#45;&gt;Node31 -->
<g id="edge66" class="edge">
<title>Node32&#45;&gt;Node31</title>
<path fill="none" stroke="midnightblue" d="M234.36,-617.63C237.28,-617.07 240.17,-616.53 243,-616 309.19,-603.63 385.28,-590.2 436.58,-581.27"/>
<polygon fill="midnightblue" stroke="midnightblue" points="437.25,-584.7 446.51,-579.54 436.05,-577.81 437.25,-584.7"/>
</g>
<!-- Node33&#45;&gt;Node31 -->
<g id="edge69" class="edge">
<title>Node33&#45;&gt;Node31</title>
<path fill="none" stroke="midnightblue" d="M496,-616.4C496,-608.47 496,-598.46 496,-589.86"/>
<polygon fill="midnightblue" stroke="midnightblue" points="499.5,-589.66 496,-579.66 492.5,-589.66 499.5,-589.66"/>
</g>
<!-- Node34&#45;&gt;Node26 -->
<g id="edge72" class="edge">
<title>Node34&#45;&gt;Node26</title>
<path fill="none" stroke="midnightblue" d="M686.27,-616.47C722.95,-606.03 772.38,-591.96 806.49,-582.25"/>
<polygon fill="midnightblue" stroke="midnightblue" points="807.46,-585.61 816.12,-579.51 805.54,-578.88 807.46,-585.61"/>
</g>
<!-- Node34&#45;&gt;Node31 -->
<g id="edge71" class="edge">
<title>Node34&#45;&gt;Node31</title>
<path fill="none" stroke="midnightblue" d="M603.58,-616.4C580.03,-606.46 548.76,-593.26 526.01,-583.66"/>
<polygon fill="midnightblue" stroke="midnightblue" points="527.09,-580.32 516.52,-579.66 524.37,-586.77 527.09,-580.32"/>
</g>
<!-- Node35&#45;&gt;Node31 -->
<g id="edge74" class="edge">
<title>Node35&#45;&gt;Node31</title>
<path fill="none" stroke="midnightblue" d="M371.63,-616.4C399.34,-606.28 436.31,-592.79 462.72,-583.15"/>
<polygon fill="midnightblue" stroke="midnightblue" points="464.09,-586.37 472.28,-579.66 461.69,-579.8 464.09,-586.37"/>
</g>
<!-- Node37&#45;&gt;Node2 -->
<g id="edge77" class="edge">
<title>Node37&#45;&gt;Node2</title>
<path fill="none" stroke="midnightblue" d="M1077.06,-392.38C1068.95,-378.84 1051.62,-352.47 1031,-336 1012.54,-321.26 988.46,-309.92 969.17,-302.31"/>
<polygon fill="midnightblue" stroke="midnightblue" points="970.16,-298.94 959.57,-298.67 967.68,-305.49 970.16,-298.94"/>
</g>
<!-- Node37&#45;&gt;Node8 -->
<g id="edge79" class="edge">
<title>Node37&#45;&gt;Node8</title>
<path fill="none" stroke="midnightblue" d="M1082.78,-392.45C1084.41,-373.96 1088,-328.87 1088,-291 1088,-291 1088,-291 1088,-121 1088,-31.86 767.12,-14.94 652.27,-11.74"/>
<polygon fill="midnightblue" stroke="midnightblue" points="652.22,-8.24 642.14,-11.48 652.04,-15.24 652.22,-8.24"/>
</g>
<!-- Node37&#45;&gt;Node22 -->
<g id="edge78" class="edge">
<title>Node37&#45;&gt;Node22</title>
<path fill="none" stroke="midnightblue" d="M1067.7,-392.32C1053.82,-383.9 1032.51,-370.97 1016.2,-361.07"/>
<polygon fill="midnightblue" stroke="midnightblue" points="1017.63,-357.85 1007.26,-355.65 1014,-363.83 1017.63,-357.85"/>
</g>
<!-- Node38&#45;&gt;Node26 -->
<g id="edge82" class="edge">
<title>Node38&#45;&gt;Node26</title>
<path fill="none" stroke="midnightblue" d="M1072.52,-683.49C1052.45,-674.65 1020.35,-660.27 993,-647 949.81,-626.04 900.37,-600.06 871.24,-584.54"/>
<polygon fill="midnightblue" stroke="midnightblue" points="872.65,-581.33 862.18,-579.71 869.35,-587.5 872.65,-581.33"/>
</g>
<!-- Node38&#45;&gt;Node36 -->
<g id="edge81" class="edge">
<title>Node38&#45;&gt;Node36</title>
<path fill="none" stroke="midnightblue" d="M1109.05,-683.48C1128.84,-673.58 1161.72,-657.14 1184.77,-645.62"/>
<polygon fill="midnightblue" stroke="midnightblue" points="1186.6,-648.61 1193.98,-641.01 1183.47,-642.35 1186.6,-648.61"/>
</g>
</g>
</svg>
