<?xml version="1.0" encoding="UTF-8" standalone="no"?>
<!DOCTYPE svg PUBLIC "-//W3C//DTD SVG 1.1//EN"
 "http://www.w3.org/Graphics/SVG/1.1/DTD/svg11.dtd">
<!-- Generated by graphviz version 2.43.0 (0)
 -->
<!-- Title: src/pewit/src/lseq_part_result/lseq_part_result.h Pages: 1 -->
<svg width="706pt" height="363pt"
 viewBox="0.00 0.00 706.00 363.00" xmlns="http://www.w3.org/2000/svg" xmlns:xlink="http://www.w3.org/1999/xlink">
<g id="graph0" class="graph" transform="scale(1 1) rotate(0) translate(4 359)">
<title>src/pewit/src/lseq_part_result/lseq_part_result.h</title>
<polygon fill="white" stroke="transparent" points="-4,4 -4,-359 702,-359 702,4 -4,4"/>
<!-- Node1 -->
<g id="node1" class="node">
<title>Node1</title>
<g id="a_node1"><a xlink:title=" ">
<polygon fill="#bfbfbf" stroke="black" points="288,-313.5 288,-354.5 410,-354.5 410,-313.5 288,-313.5"/>
<text text-anchor="start" x="296" y="-342.5" font-family="Helvetica,sans-Serif" font-size="10.00">src/pewit/src/lseq</text>
<text text-anchor="start" x="296" y="-331.5" font-family="Helvetica,sans-Serif" font-size="10.00">_part_result/lseq_part</text>
<text text-anchor="middle" x="349" y="-320.5" font-family="Helvetica,sans-Serif" font-size="10.00">_result.h</text>
</a>
</g>
</g>
<!-- Node2 -->
<g id="node2" class="node">
<title>Node2</title>
<g id="a_node2"><a xlink:href="lseq__part__global__position_8h.html" target="_top" xlink:title=" ">
<polygon fill="white" stroke="black" points="0,-235.5 0,-276.5 122,-276.5 122,-235.5 0,-235.5"/>
<text text-anchor="start" x="8" y="-264.5" font-family="Helvetica,sans-Serif" font-size="10.00">src/pewit/src/lseq</text>
<text text-anchor="start" x="8" y="-253.5" font-family="Helvetica,sans-Serif" font-size="10.00">_part_result/lseq_part</text>
<text text-anchor="middle" x="61" y="-242.5" font-family="Helvetica,sans-Serif" font-size="10.00">_global_position.h</text>
</a>
</g>
</g>
<!-- Node1&#45;&gt;Node2 -->
<g id="edge1" class="edge">
<title>Node1&#45;&gt;Node2</title>
<path fill="none" stroke="midnightblue" d="M278.07,-315.29C235.38,-304.51 179.98,-290.29 131,-277 128.07,-276.21 125.08,-275.38 122.06,-274.55"/>
<polygon fill="midnightblue" stroke="midnightblue" points="277.25,-318.7 287.81,-317.75 278.97,-311.91 277.25,-318.7"/>
</g>
<!-- Node7 -->
<g id="node7" class="node">
<title>Node7</title>
<g id="a_node7"><a xlink:href="lseq__part__global__rays_8h.html" target="_top" xlink:title=" ">
<polygon fill="white" stroke="black" points="140,-235.5 140,-276.5 262,-276.5 262,-235.5 140,-235.5"/>
<text text-anchor="start" x="148" y="-264.5" font-family="Helvetica,sans-Serif" font-size="10.00">src/pewit/src/lseq</text>
<text text-anchor="start" x="148" y="-253.5" font-family="Helvetica,sans-Serif" font-size="10.00">_part_result/lseq_part</text>
<text text-anchor="middle" x="201" y="-242.5" font-family="Helvetica,sans-Serif" font-size="10.00">_global_rays.h</text>
</a>
</g>
</g>
<!-- Node1&#45;&gt;Node7 -->
<g id="edge6" class="edge">
<title>Node1&#45;&gt;Node7</title>
<path fill="none" stroke="midnightblue" d="M301.81,-308.77C281.52,-298.35 258.13,-286.34 238.98,-276.51"/>
<polygon fill="midnightblue" stroke="midnightblue" points="300.39,-311.97 310.89,-313.43 303.59,-305.75 300.39,-311.97"/>
</g>
<!-- Node8 -->
<g id="node8" class="node">
<title>Node8</title>
<g id="a_node8"><a xlink:href="lseq__part__propagation__direction_8h.html" target="_top" xlink:title=" ">
<polygon fill="white" stroke="black" points="280.5,-235.5 280.5,-276.5 417.5,-276.5 417.5,-235.5 280.5,-235.5"/>
<text text-anchor="start" x="288.5" y="-264.5" font-family="Helvetica,sans-Serif" font-size="10.00">src/pewit/src/lseq</text>
<text text-anchor="start" x="288.5" y="-253.5" font-family="Helvetica,sans-Serif" font-size="10.00">_part_result/lseq_part</text>
<text text-anchor="middle" x="349" y="-242.5" font-family="Helvetica,sans-Serif" font-size="10.00">_propagation_direction.h</text>
</a>
</g>
</g>
<!-- Node1&#45;&gt;Node8 -->
<g id="edge8" class="edge">
<title>Node1&#45;&gt;Node8</title>
<path fill="none" stroke="midnightblue" d="M349,-303.3C349,-294.3 349,-284.65 349,-276.51"/>
<polygon fill="midnightblue" stroke="midnightblue" points="345.5,-303.43 349,-313.43 352.5,-303.43 345.5,-303.43"/>
</g>
<!-- Node9 -->
<g id="node9" class="node">
<title>Node9</title>
<g id="a_node9"><a xlink:href="lseq__part__rays_8h.html" target="_top" xlink:title=" ">
<polygon fill="white" stroke="black" points="436,-235.5 436,-276.5 558,-276.5 558,-235.5 436,-235.5"/>
<text text-anchor="start" x="444" y="-264.5" font-family="Helvetica,sans-Serif" font-size="10.00">src/pewit/src/lseq</text>
<text text-anchor="start" x="444" y="-253.5" font-family="Helvetica,sans-Serif" font-size="10.00">_part_result/lseq_part</text>
<text text-anchor="middle" x="497" y="-242.5" font-family="Helvetica,sans-Serif" font-size="10.00">_rays.h</text>
</a>
</g>
</g>
<!-- Node1&#45;&gt;Node9 -->
<g id="edge10" class="edge">
<title>Node1&#45;&gt;Node9</title>
<path fill="none" stroke="midnightblue" d="M396.19,-308.77C416.48,-298.35 439.87,-286.34 459.02,-276.51"/>
<polygon fill="midnightblue" stroke="midnightblue" points="394.41,-305.75 387.11,-313.43 397.61,-311.97 394.41,-305.75"/>
</g>
<!-- Node10 -->
<g id="node10" class="node">
<title>Node10</title>
<g id="a_node10"><a xlink:href="lseq__part__semi__diameter_8h.html" target="_top" xlink:title=" ">
<polygon fill="white" stroke="black" points="576,-235.5 576,-276.5 698,-276.5 698,-235.5 576,-235.5"/>
<text text-anchor="start" x="584" y="-264.5" font-family="Helvetica,sans-Serif" font-size="10.00">src/pewit/src/lseq</text>
<text text-anchor="start" x="584" y="-253.5" font-family="Helvetica,sans-Serif" font-size="10.00">_part_result/lseq_part</text>
<text text-anchor="middle" x="637" y="-242.5" font-family="Helvetica,sans-Serif" font-size="10.00">_semi_diameter.h</text>
</a>
</g>
</g>
<!-- Node1&#45;&gt;Node10 -->
<g id="edge12" class="edge">
<title>Node1&#45;&gt;Node10</title>
<path fill="none" stroke="midnightblue" d="M419.93,-315.29C462.62,-304.51 518.02,-290.29 567,-277 569.93,-276.21 572.92,-275.38 575.94,-274.55"/>
<polygon fill="midnightblue" stroke="midnightblue" points="419.03,-311.91 410.19,-317.75 420.75,-318.7 419.03,-311.91"/>
</g>
<!-- Node3 -->
<g id="node3" class="node">
<title>Node3</title>
<g id="a_node3"><a xlink:href="lseq__part_8h.html" target="_top" xlink:title=" ">
<polygon fill="white" stroke="black" points="298.5,-168.5 298.5,-198.5 399.5,-198.5 399.5,-168.5 298.5,-168.5"/>
<text text-anchor="start" x="306.5" y="-186.5" font-family="Helvetica,sans-Serif" font-size="10.00">src/pewit/src/lseq</text>
<text text-anchor="middle" x="349" y="-175.5" font-family="Helvetica,sans-Serif" font-size="10.00">_part.h</text>
</a>
</g>
</g>
<!-- Node2&#45;&gt;Node3 -->
<g id="edge2" class="edge">
<title>Node2&#45;&gt;Node3</title>
<path fill="none" stroke="midnightblue" d="M132.08,-234.78C194.62,-218.76 256.12,-204.79 298.17,-195.51"/>
<polygon fill="midnightblue" stroke="midnightblue" points="130.84,-231.48 122.03,-237.36 132.59,-238.26 130.84,-231.48"/>
</g>
<!-- Node4 -->
<g id="node4" class="node">
<title>Node4</title>
<g id="a_node4"><a xlink:href="lseq_8h.html" target="_top" xlink:title=" ">
<polygon fill="white" stroke="black" points="294,-112.5 294,-131.5 404,-131.5 404,-112.5 294,-112.5"/>
<text text-anchor="middle" x="349" y="-119.5" font-family="Helvetica,sans-Serif" font-size="10.00">src/pewit/src/lseq.h</text>
</a>
</g>
</g>
<!-- Node3&#45;&gt;Node4 -->
<g id="edge3" class="edge">
<title>Node3&#45;&gt;Node4</title>
<path fill="none" stroke="midnightblue" d="M349,-158.29C349,-148.86 349,-138.65 349,-131.66"/>
<polygon fill="midnightblue" stroke="midnightblue" points="345.5,-158.4 349,-168.4 352.5,-158.4 345.5,-158.4"/>
</g>
<!-- Node5 -->
<g id="node5" class="node">
<title>Node5</title>
<g id="a_node5"><a xlink:href="pewit_8h.html" target="_top" xlink:title=" ">
<polygon fill="white" stroke="black" points="290.5,-56.5 290.5,-75.5 407.5,-75.5 407.5,-56.5 290.5,-56.5"/>
<text text-anchor="middle" x="349" y="-63.5" font-family="Helvetica,sans-Serif" font-size="10.00">src/pewit/src/pewit.h</text>
</a>
</g>
</g>
<!-- Node4&#45;&gt;Node5 -->
<g id="edge4" class="edge">
<title>Node4&#45;&gt;Node5</title>
<path fill="none" stroke="midnightblue" d="M349,-101.8C349,-92.91 349,-82.78 349,-75.75"/>
<polygon fill="midnightblue" stroke="midnightblue" points="345.5,-102.08 349,-112.08 352.5,-102.08 345.5,-102.08"/>
</g>
<!-- Node6 -->
<g id="node6" class="node">
<title>Node6</title>
<g id="a_node6"><a xlink:href="robintrace_8h.html" target="_top" xlink:title=" ">
<polygon fill="white" stroke="black" points="292.5,-0.5 292.5,-19.5 405.5,-19.5 405.5,-0.5 292.5,-0.5"/>
<text text-anchor="middle" x="349" y="-7.5" font-family="Helvetica,sans-Serif" font-size="10.00">include/robintrace.h</text>
</a>
</g>
</g>
<!-- Node5&#45;&gt;Node6 -->
<g id="edge5" class="edge">
<title>Node5&#45;&gt;Node6</title>
<path fill="none" stroke="midnightblue" d="M349,-45.8C349,-36.91 349,-26.78 349,-19.75"/>
<polygon fill="midnightblue" stroke="midnightblue" points="345.5,-46.08 349,-56.08 352.5,-46.08 345.5,-46.08"/>
</g>
<!-- Node7&#45;&gt;Node3 -->
<g id="edge7" class="edge">
<title>Node7&#45;&gt;Node3</title>
<path fill="none" stroke="midnightblue" d="M251.35,-231.02C273.94,-220.25 299.82,-207.93 319.25,-198.67"/>
<polygon fill="midnightblue" stroke="midnightblue" points="249.75,-227.9 242.23,-235.36 252.76,-234.22 249.75,-227.9"/>
</g>
<!-- Node8&#45;&gt;Node3 -->
<g id="edge9" class="edge">
<title>Node8&#45;&gt;Node3</title>
<path fill="none" stroke="midnightblue" d="M349,-225.08C349,-216.01 349,-206.45 349,-198.89"/>
<polygon fill="midnightblue" stroke="midnightblue" points="345.5,-225.36 349,-235.36 352.5,-225.36 345.5,-225.36"/>
</g>
<!-- Node9&#45;&gt;Node3 -->
<g id="edge11" class="edge">
<title>Node9&#45;&gt;Node3</title>
<path fill="none" stroke="midnightblue" d="M446.65,-231.02C424.06,-220.25 398.18,-207.93 378.75,-198.67"/>
<polygon fill="midnightblue" stroke="midnightblue" points="445.24,-234.22 455.77,-235.36 448.25,-227.9 445.24,-234.22"/>
</g>
<!-- Node10&#45;&gt;Node3 -->
<g id="edge13" class="edge">
<title>Node10&#45;&gt;Node3</title>
<path fill="none" stroke="midnightblue" d="M565.92,-234.78C503.38,-218.76 441.88,-204.79 399.83,-195.51"/>
<polygon fill="midnightblue" stroke="midnightblue" points="565.41,-238.26 575.97,-237.36 567.16,-231.48 565.41,-238.26"/>
</g>
</g>
</svg>
