<?xml version="1.0" encoding="UTF-8" standalone="no"?>
<!DOCTYPE svg PUBLIC "-//W3C//DTD SVG 1.1//EN"
 "http://www.w3.org/Graphics/SVG/1.1/DTD/svg11.dtd">
<!-- Generated by graphviz version 2.43.0 (0)
 -->
<!-- Title: src/pewit/src/pewit.h Pages: 1 -->
<svg width="1366pt" height="823pt"
 viewBox="0.00 0.00 1366.39 823.00" xmlns="http://www.w3.org/2000/svg" xmlns:xlink="http://www.w3.org/1999/xlink">
<g id="graph0" class="graph" transform="scale(1 1) rotate(0) translate(4 819)">
<title>src/pewit/src/pewit.h</title>
<polygon fill="white" stroke="transparent" points="-4,4 -4,-819 1362.39,-819 1362.39,4 -4,4"/>
<!-- Node1 -->
<g id="node1" class="node">
<title>Node1</title>
<g id="a_node1"><a xlink:title=" ">
<polygon fill="#bfbfbf" stroke="black" points="2.89,-795.5 2.89,-814.5 119.89,-814.5 119.89,-795.5 2.89,-795.5"/>
<text text-anchor="middle" x="61.39" y="-802.5" font-family="Helvetica,sans-Serif" font-size="10.00">src/pewit/src/pewit.h</text>
</a>
</g>
</g>
<!-- Node2 -->
<g id="node2" class="node">
<title>Node2</title>
<g id="a_node2"><a xlink:href="ray__pack_8h.html" target="_top" xlink:title=" ">
<polygon fill="white" stroke="black" points="313.39,-560.5 313.39,-579.5 383.39,-579.5 383.39,-560.5 313.39,-560.5"/>
<text text-anchor="middle" x="348.39" y="-567.5" font-family="Helvetica,sans-Serif" font-size="10.00">ray_pack.h</text>
</a>
</g>
</g>
<!-- Node1&#45;&gt;Node2 -->
<g id="edge1" class="edge">
<title>Node1&#45;&gt;Node2</title>
<path fill="none" stroke="midnightblue" d="M54.71,-795.26C33.24,-765.99 -30.02,-670.29 17.39,-616 53.97,-574.11 221.53,-569.73 303.27,-570.17"/>
<polygon fill="midnightblue" stroke="midnightblue" points="303.25,-573.67 313.28,-570.25 303.3,-566.67 303.25,-573.67"/>
</g>
<!-- Node26 -->
<g id="node26" class="node">
<title>Node26</title>
<g id="a_node26"><a xlink:href="lseq_8h.html" target="_top" xlink:title=" ">
<polygon fill="white" stroke="black" points="479.39,-739.5 479.39,-758.5 525.39,-758.5 525.39,-739.5 479.39,-739.5"/>
<text text-anchor="middle" x="502.39" y="-746.5" font-family="Helvetica,sans-Serif" font-size="10.00">lseq.h</text>
</a>
</g>
</g>
<!-- Node1&#45;&gt;Node26 -->
<g id="edge53" class="edge">
<title>Node1&#45;&gt;Node26</title>
<path fill="none" stroke="midnightblue" d="M119.95,-796.83C213.74,-785.34 394.65,-763.19 469.12,-754.07"/>
<polygon fill="midnightblue" stroke="midnightblue" points="469.81,-757.52 479.31,-752.83 468.96,-750.57 469.81,-757.52"/>
</g>
<!-- Node3 -->
<g id="node3" class="node">
<title>Node3</title>
<g id="a_node3"><a xlink:href="pinyo_8h.html" target="_top" xlink:title=" ">
<polygon fill="white" stroke="black" points="686.89,-504.5 686.89,-523.5 739.89,-523.5 739.89,-504.5 686.89,-504.5"/>
<text text-anchor="middle" x="713.39" y="-511.5" font-family="Helvetica,sans-Serif" font-size="10.00">pinyo.h</text>
</a>
</g>
</g>
<!-- Node2&#45;&gt;Node3 -->
<g id="edge2" class="edge">
<title>Node2&#45;&gt;Node3</title>
<path fill="none" stroke="midnightblue" d="M383.72,-563.77C452.98,-553.53 605.97,-530.89 676.48,-520.46"/>
<polygon fill="midnightblue" stroke="midnightblue" points="677.29,-523.88 686.67,-518.95 676.26,-516.95 677.29,-523.88"/>
</g>
<!-- Node8 -->
<g id="node8" class="node">
<title>Node8</title>
<g id="a_node8"><a xlink:title=" ">
<polygon fill="white" stroke="#bfbfbf" points="787.39,-0.5 787.39,-19.5 847.39,-19.5 847.39,-0.5 787.39,-0.5"/>
<text text-anchor="middle" x="817.39" y="-7.5" font-family="Helvetica,sans-Serif" font-size="10.00">iostream</text>
</a>
</g>
</g>
<!-- Node2&#45;&gt;Node8 -->
<g id="edge51" class="edge">
<title>Node2&#45;&gt;Node8</title>
<path fill="none" stroke="midnightblue" d="M357.13,-560.49C373.99,-543.12 409.39,-501.58 409.39,-459 409.39,-459 409.39,-459 409.39,-289 409.39,-166.32 449.13,-113.72 557.39,-56 594.82,-36.04 714.15,-21.41 777.31,-14.84"/>
<polygon fill="midnightblue" stroke="midnightblue" points="777.71,-18.32 787.31,-13.82 777,-11.36 777.71,-18.32"/>
</g>
<!-- Node20 -->
<g id="node20" class="node">
<title>Node20</title>
<g id="a_node20"><a xlink:title=" ">
<polygon fill="white" stroke="#bfbfbf" points="1062.89,-280.5 1062.89,-299.5 1109.89,-299.5 1109.89,-280.5 1062.89,-280.5"/>
<text text-anchor="middle" x="1086.39" y="-287.5" font-family="Helvetica,sans-Serif" font-size="10.00">vector</text>
</a>
</g>
</g>
<!-- Node2&#45;&gt;Node20 -->
<g id="edge52" class="edge">
<title>Node2&#45;&gt;Node20</title>
<path fill="none" stroke="midnightblue" d="M383.57,-566.29C467.89,-559.61 679.58,-541.57 748.39,-524 812.12,-507.72 833.04,-507.83 885.39,-468 944.39,-423.1 929.26,-382.03 987.39,-336 1006.98,-320.49 1032.77,-308.99 1053.12,-301.5"/>
<polygon fill="midnightblue" stroke="midnightblue" points="1054.35,-304.77 1062.62,-298.14 1052.02,-298.17 1054.35,-304.77"/>
</g>
<!-- Node4 -->
<g id="node4" class="node">
<title>Node4</title>
<g id="a_node4"><a xlink:href="bun_8h.html" target="_top" xlink:title=" ">
<polygon fill="white" stroke="black" points="865.89,-336.5 865.89,-355.5 930.89,-355.5 930.89,-336.5 865.89,-336.5"/>
<text text-anchor="middle" x="898.39" y="-343.5" font-family="Helvetica,sans-Serif" font-size="10.00">bun/bun.h</text>
</a>
</g>
</g>
<!-- Node3&#45;&gt;Node4 -->
<g id="edge3" class="edge">
<title>Node3&#45;&gt;Node4</title>
<path fill="none" stroke="midnightblue" d="M739.95,-512.53C773.57,-510.47 831.09,-501.82 864.39,-468 891.72,-440.23 897.47,-392.33 898.44,-365.89"/>
<polygon fill="midnightblue" stroke="midnightblue" points="901.94,-365.76 898.61,-355.7 894.94,-365.64 901.94,-365.76"/>
</g>
<!-- Node22 -->
<g id="node22" class="node">
<title>Node22</title>
<g id="a_node22"><a xlink:href="lpart_8h.html" target="_top" xlink:title=" ">
<polygon fill="white" stroke="black" points="676.39,-392.5 676.39,-411.5 750.39,-411.5 750.39,-392.5 676.39,-392.5"/>
<text text-anchor="middle" x="713.39" y="-399.5" font-family="Helvetica,sans-Serif" font-size="10.00">lpart/lpart.h</text>
</a>
</g>
</g>
<!-- Node3&#45;&gt;Node22 -->
<g id="edge40" class="edge">
<title>Node3&#45;&gt;Node22</title>
<path fill="none" stroke="midnightblue" d="M713.39,-504.37C713.39,-486.62 713.39,-445.67 713.39,-421.6"/>
<polygon fill="midnightblue" stroke="midnightblue" points="716.89,-421.59 713.39,-411.59 709.89,-421.59 716.89,-421.59"/>
</g>
<!-- Node24 -->
<g id="node24" class="node">
<title>Node24</title>
<g id="a_node24"><a xlink:href="transfer__part_8h.html" target="_top" xlink:title=" ">
<polygon fill="white" stroke="black" points="741.39,-448.5 741.39,-467.5 855.39,-467.5 855.39,-448.5 741.39,-448.5"/>
<text text-anchor="middle" x="798.39" y="-455.5" font-family="Helvetica,sans-Serif" font-size="10.00">lpart/transfer_part.h</text>
</a>
</g>
</g>
<!-- Node3&#45;&gt;Node24 -->
<g id="edge45" class="edge">
<title>Node3&#45;&gt;Node24</title>
<path fill="none" stroke="midnightblue" d="M727.04,-504.32C740.3,-495.9 760.65,-482.97 776.23,-473.07"/>
<polygon fill="midnightblue" stroke="midnightblue" points="778.2,-475.97 784.76,-467.65 774.45,-470.06 778.2,-475.97"/>
</g>
<!-- Node25 -->
<g id="node25" class="node">
<title>Node25</title>
<g id="a_node25"><a xlink:href="shape__part_8h.html" target="_top" xlink:title=" ">
<polygon fill="white" stroke="black" points="579.89,-448.5 579.89,-467.5 684.89,-467.5 684.89,-448.5 579.89,-448.5"/>
<text text-anchor="middle" x="632.39" y="-455.5" font-family="Helvetica,sans-Serif" font-size="10.00">lpart/shape_part.h</text>
</a>
</g>
</g>
<!-- Node3&#45;&gt;Node25 -->
<g id="edge48" class="edge">
<title>Node3&#45;&gt;Node25</title>
<path fill="none" stroke="midnightblue" d="M700.37,-504.32C687.86,-495.98 668.71,-483.21 653.92,-473.35"/>
<polygon fill="midnightblue" stroke="midnightblue" points="655.63,-470.29 645.37,-467.65 651.75,-476.11 655.63,-470.29"/>
</g>
<!-- Node5 -->
<g id="node5" class="node">
<title>Node5</title>
<g id="a_node5"><a xlink:href="poaky_8h.html" target="_top" xlink:title=" ">
<polygon fill="white" stroke="black" points="810.89,-280.5 810.89,-299.5 863.89,-299.5 863.89,-280.5 810.89,-280.5"/>
<text text-anchor="middle" x="837.39" y="-287.5" font-family="Helvetica,sans-Serif" font-size="10.00">poaky.h</text>
</a>
</g>
</g>
<!-- Node4&#45;&gt;Node5 -->
<g id="edge4" class="edge">
<title>Node4&#45;&gt;Node5</title>
<path fill="none" stroke="midnightblue" d="M888.59,-336.32C879.57,-328.34 865.98,-316.31 855.07,-306.65"/>
<polygon fill="midnightblue" stroke="midnightblue" points="857.17,-303.84 847.37,-299.83 852.53,-309.08 857.17,-303.84"/>
</g>
<!-- Node4&#45;&gt;Node20 -->
<g id="edge38" class="edge">
<title>Node4&#45;&gt;Node20</title>
<path fill="none" stroke="midnightblue" d="M928.18,-336.44C962.1,-326.7 1017.4,-310.82 1052.82,-300.64"/>
<polygon fill="midnightblue" stroke="midnightblue" points="1054.04,-303.93 1062.69,-297.81 1052.11,-297.2 1054.04,-303.93"/>
</g>
<!-- Node21 -->
<g id="node21" class="node">
<title>Node21</title>
<g id="a_node21"><a xlink:title=" ">
<polygon fill="white" stroke="#bfbfbf" points="882.39,-280.5 882.39,-299.5 968.39,-299.5 968.39,-280.5 882.39,-280.5"/>
<text text-anchor="middle" x="925.39" y="-287.5" font-family="Helvetica,sans-Serif" font-size="10.00">unordered_set</text>
</a>
</g>
</g>
<!-- Node4&#45;&gt;Node21 -->
<g id="edge39" class="edge">
<title>Node4&#45;&gt;Node21</title>
<path fill="none" stroke="midnightblue" d="M902.85,-336.08C906.54,-328.69 911.91,-317.95 916.48,-308.81"/>
<polygon fill="midnightblue" stroke="midnightblue" points="919.67,-310.26 921.01,-299.75 913.41,-307.13 919.67,-310.26"/>
</g>
<!-- Node6 -->
<g id="node6" class="node">
<title>Node6</title>
<g id="a_node6"><a xlink:href="Vec3_8h.html" target="_top" xlink:title=" ">
<polygon fill="white" stroke="black" points="845.89,-56.5 845.89,-75.5 920.89,-75.5 920.89,-56.5 845.89,-56.5"/>
<text text-anchor="middle" x="883.39" y="-63.5" font-family="Helvetica,sans-Serif" font-size="10.00">base/Vec3.h</text>
</a>
</g>
</g>
<!-- Node5&#45;&gt;Node6 -->
<g id="edge5" class="edge">
<title>Node5&#45;&gt;Node6</title>
<path fill="none" stroke="midnightblue" d="M840.38,-280.28C848.33,-256.72 870,-189.65 879.39,-132 881.89,-116.64 882.86,-99 883.22,-85.98"/>
<polygon fill="midnightblue" stroke="midnightblue" points="886.72,-85.96 883.4,-75.89 879.72,-85.83 886.72,-85.96"/>
</g>
<!-- Node10 -->
<g id="node10" class="node">
<title>Node10</title>
<g id="a_node10"><a xlink:href="Vec2_8h.html" target="_top" xlink:title=" ">
<polygon fill="white" stroke="black" points="983.89,-112.5 983.89,-131.5 1058.89,-131.5 1058.89,-112.5 983.89,-112.5"/>
<text text-anchor="middle" x="1021.39" y="-119.5" font-family="Helvetica,sans-Serif" font-size="10.00">base/Vec2.h</text>
</a>
</g>
</g>
<!-- Node5&#45;&gt;Node10 -->
<g id="edge9" class="edge">
<title>Node5&#45;&gt;Node10</title>
<path fill="none" stroke="midnightblue" d="M864.2,-282.48C904.92,-271.03 981.32,-243.08 1016.39,-188 1025.03,-174.42 1025.61,-155.88 1024.43,-142.07"/>
<polygon fill="midnightblue" stroke="midnightblue" points="1027.86,-141.29 1023.15,-131.8 1020.91,-142.15 1027.86,-141.29"/>
</g>
<!-- Node11 -->
<g id="node11" class="node">
<title>Node11</title>
<g id="a_node11"><a xlink:href="Mat3_8h.html" target="_top" xlink:title=" ">
<polygon fill="white" stroke="black" points="1076.89,-112.5 1076.89,-131.5 1153.89,-131.5 1153.89,-112.5 1076.89,-112.5"/>
<text text-anchor="middle" x="1115.39" y="-119.5" font-family="Helvetica,sans-Serif" font-size="10.00">base/Mat3.h</text>
</a>
</g>
</g>
<!-- Node5&#45;&gt;Node11 -->
<g id="edge13" class="edge">
<title>Node5&#45;&gt;Node11</title>
<path fill="none" stroke="midnightblue" d="M863.9,-282.26C899.88,-272.85 962.02,-255.65 982.39,-244 1032.29,-215.45 1079.23,-165.35 1101.64,-139.49"/>
<polygon fill="midnightblue" stroke="midnightblue" points="1104.45,-141.59 1108.27,-131.71 1099.12,-137.05 1104.45,-141.59"/>
</g>
<!-- Node12 -->
<g id="node12" class="node">
<title>Node12</title>
<g id="a_node12"><a xlink:href="ray_8h.html" target="_top" xlink:title=" ">
<polygon fill="white" stroke="black" points="791.89,-112.5 791.89,-131.5 850.89,-131.5 850.89,-112.5 791.89,-112.5"/>
<text text-anchor="middle" x="821.39" y="-119.5" font-family="Helvetica,sans-Serif" font-size="10.00">ray/ray.h</text>
</a>
</g>
</g>
<!-- Node5&#45;&gt;Node12 -->
<g id="edge15" class="edge">
<title>Node5&#45;&gt;Node12</title>
<path fill="none" stroke="midnightblue" d="M836.53,-280.08C834.01,-253.95 826.61,-177.21 823.18,-141.58"/>
<polygon fill="midnightblue" stroke="midnightblue" points="826.66,-141.19 822.21,-131.57 819.69,-141.86 826.66,-141.19"/>
</g>
<!-- Node13 -->
<g id="node13" class="node">
<title>Node13</title>
<g id="a_node13"><a xlink:href="transfer_8h.html" target="_top" xlink:title=" ">
<polygon fill="white" stroke="black" points="903.39,-168.5 903.39,-187.5 1007.39,-187.5 1007.39,-168.5 903.39,-168.5"/>
<text text-anchor="middle" x="955.39" y="-175.5" font-family="Helvetica,sans-Serif" font-size="10.00">transfer/transfer.h</text>
</a>
</g>
</g>
<!-- Node5&#45;&gt;Node13 -->
<g id="edge18" class="edge">
<title>Node5&#45;&gt;Node13</title>
<path fill="none" stroke="midnightblue" d="M847.92,-280.23C858.55,-271.3 875.35,-256.96 889.39,-244 907,-227.74 926.48,-208.38 939.68,-195.04"/>
<polygon fill="midnightblue" stroke="midnightblue" points="942.49,-197.17 947.01,-187.59 937.5,-192.26 942.49,-197.17"/>
</g>
<!-- Node14 -->
<g id="node14" class="node">
<title>Node14</title>
<g id="a_node14"><a xlink:href="rop_8h.html" target="_top" xlink:title=" ">
<polygon fill="white" stroke="black" points="749.39,-168.5 749.39,-187.5 809.39,-187.5 809.39,-168.5 749.39,-168.5"/>
<text text-anchor="middle" x="779.39" y="-175.5" font-family="Helvetica,sans-Serif" font-size="10.00">rop/rop.h</text>
</a>
</g>
</g>
<!-- Node5&#45;&gt;Node14 -->
<g id="edge22" class="edge">
<title>Node5&#45;&gt;Node14</title>
<path fill="none" stroke="midnightblue" d="M832.84,-280.37C823.35,-262.38 801.3,-220.55 788.68,-196.63"/>
<polygon fill="midnightblue" stroke="midnightblue" points="791.68,-194.8 783.92,-187.59 785.48,-198.07 791.68,-194.8"/>
</g>
<!-- Node15 -->
<g id="node15" class="node">
<title>Node15</title>
<g id="a_node15"><a xlink:href="plane_8h.html" target="_top" xlink:title=" ">
<polygon fill="white" stroke="black" points="463.89,-224.5 463.89,-243.5 548.89,-243.5 548.89,-224.5 463.89,-224.5"/>
<text text-anchor="middle" x="506.39" y="-231.5" font-family="Helvetica,sans-Serif" font-size="10.00">shape/plane.h</text>
</a>
</g>
</g>
<!-- Node5&#45;&gt;Node15 -->
<g id="edge26" class="edge">
<title>Node5&#45;&gt;Node15</title>
<path fill="none" stroke="midnightblue" d="M810.86,-284.67C756.39,-275.79 631.06,-255.34 559.33,-243.64"/>
<polygon fill="midnightblue" stroke="midnightblue" points="559.58,-240.13 549.15,-241.98 558.46,-247.04 559.58,-240.13"/>
</g>
<!-- Node19 -->
<g id="node19" class="node">
<title>Node19</title>
<g id="a_node19"><a xlink:href="standard_8h.html" target="_top" xlink:title=" ">
<polygon fill="white" stroke="black" points="579.89,-224.5 579.89,-243.5 680.89,-243.5 680.89,-224.5 579.89,-224.5"/>
<text text-anchor="middle" x="630.39" y="-231.5" font-family="Helvetica,sans-Serif" font-size="10.00">shape/standard.h</text>
</a>
</g>
</g>
<!-- Node5&#45;&gt;Node19 -->
<g id="edge35" class="edge">
<title>Node5&#45;&gt;Node19</title>
<path fill="none" stroke="midnightblue" d="M810.75,-282.05C775.85,-272.95 714.23,-256.87 672.85,-246.08"/>
<polygon fill="midnightblue" stroke="midnightblue" points="673.62,-242.66 663.06,-243.52 671.85,-249.43 673.62,-242.66"/>
</g>
<!-- Node7 -->
<g id="node7" class="node">
<title>Node7</title>
<g id="a_node7"><a xlink:title=" ">
<polygon fill="white" stroke="#bfbfbf" points="620.89,-0.5 620.89,-19.5 667.89,-19.5 667.89,-0.5 620.89,-0.5"/>
<text text-anchor="middle" x="644.39" y="-7.5" font-family="Helvetica,sans-Serif" font-size="10.00">cmath</text>
</a>
</g>
</g>
<!-- Node6&#45;&gt;Node7 -->
<g id="edge6" class="edge">
<title>Node6&#45;&gt;Node7</title>
<path fill="none" stroke="midnightblue" d="M845.78,-56.5C799.66,-46.08 722.17,-28.57 677.97,-18.59"/>
<polygon fill="midnightblue" stroke="midnightblue" points="678.54,-15.13 668.01,-16.34 676.99,-21.96 678.54,-15.13"/>
</g>
<!-- Node6&#45;&gt;Node8 -->
<g id="edge7" class="edge">
<title>Node6&#45;&gt;Node8</title>
<path fill="none" stroke="midnightblue" d="M872.78,-56.32C862.93,-48.26 848.04,-36.08 836.17,-26.37"/>
<polygon fill="midnightblue" stroke="midnightblue" points="838.14,-23.46 828.18,-19.83 833.71,-28.88 838.14,-23.46"/>
</g>
<!-- Node9 -->
<g id="node9" class="node">
<title>Node9</title>
<g id="a_node9"><a xlink:title=" ">
<polygon fill="white" stroke="#bfbfbf" points="982.89,-0.5 982.89,-19.5 1059.89,-19.5 1059.89,-0.5 982.89,-0.5"/>
<text text-anchor="middle" x="1021.39" y="-7.5" font-family="Helvetica,sans-Serif" font-size="10.00">Eigen/Dense</text>
</a>
</g>
</g>
<!-- Node6&#45;&gt;Node9 -->
<g id="edge8" class="edge">
<title>Node6&#45;&gt;Node9</title>
<path fill="none" stroke="midnightblue" d="M905.25,-56.44C928.17,-47.48 964.36,-33.31 990.25,-23.18"/>
<polygon fill="midnightblue" stroke="midnightblue" points="991.59,-26.42 999.62,-19.52 989.03,-19.9 991.59,-26.42"/>
</g>
<!-- Node10&#45;&gt;Node6 -->
<g id="edge12" class="edge">
<title>Node10&#45;&gt;Node6</title>
<path fill="none" stroke="midnightblue" d="M999.52,-112.44C976.61,-103.48 940.41,-89.31 914.52,-79.18"/>
<polygon fill="midnightblue" stroke="midnightblue" points="915.74,-75.9 905.15,-75.52 913.19,-82.42 915.74,-75.9"/>
</g>
<!-- Node10&#45;&gt;Node8 -->
<g id="edge11" class="edge">
<title>Node10&#45;&gt;Node8</title>
<path fill="none" stroke="midnightblue" d="M1011.02,-112.31C994.67,-98.92 961.57,-73.02 930.39,-56 905.84,-42.6 876.46,-31.03 853.81,-22.97"/>
<polygon fill="midnightblue" stroke="midnightblue" points="854.83,-19.62 844.23,-19.63 852.52,-26.23 854.83,-19.62"/>
</g>
<!-- Node10&#45;&gt;Node9 -->
<g id="edge10" class="edge">
<title>Node10&#45;&gt;Node9</title>
<path fill="none" stroke="midnightblue" d="M1021.39,-112.37C1021.39,-94.62 1021.39,-53.67 1021.39,-29.6"/>
<polygon fill="midnightblue" stroke="midnightblue" points="1024.89,-29.59 1021.39,-19.59 1017.89,-29.59 1024.89,-29.59"/>
</g>
<!-- Node11&#45;&gt;Node9 -->
<g id="edge14" class="edge">
<title>Node11&#45;&gt;Node9</title>
<path fill="none" stroke="midnightblue" d="M1108.01,-112.37C1092.36,-94.05 1055.61,-51.05 1035.37,-27.36"/>
<polygon fill="midnightblue" stroke="midnightblue" points="1037.89,-24.92 1028.73,-19.59 1032.56,-29.47 1037.89,-24.92"/>
</g>
<!-- Node12&#45;&gt;Node6 -->
<g id="edge16" class="edge">
<title>Node12&#45;&gt;Node6</title>
<path fill="none" stroke="midnightblue" d="M831.35,-112.32C840.51,-104.34 854.32,-92.31 865.41,-82.65"/>
<polygon fill="midnightblue" stroke="midnightblue" points="868,-85.04 873.24,-75.83 863.4,-79.76 868,-85.04"/>
</g>
<!-- Node12&#45;&gt;Node8 -->
<g id="edge17" class="edge">
<title>Node12&#45;&gt;Node8</title>
<path fill="none" stroke="midnightblue" d="M821.07,-112.37C820.43,-94.62 818.94,-53.67 818.06,-29.6"/>
<polygon fill="midnightblue" stroke="midnightblue" points="821.56,-29.46 817.7,-19.59 814.56,-29.71 821.56,-29.46"/>
</g>
<!-- Node13&#45;&gt;Node6 -->
<g id="edge19" class="edge">
<title>Node13&#45;&gt;Node6</title>
<path fill="none" stroke="midnightblue" d="M953.56,-168.42C950.51,-155.4 943.49,-130.24 931.39,-112 923.87,-100.66 912.95,-90.13 903.43,-82.11"/>
<polygon fill="midnightblue" stroke="midnightblue" points="905.53,-79.31 895.54,-75.76 901.13,-84.76 905.53,-79.31"/>
</g>
<!-- Node13&#45;&gt;Node11 -->
<g id="edge20" class="edge">
<title>Node13&#45;&gt;Node11</title>
<path fill="none" stroke="midnightblue" d="M980.74,-168.44C1007.66,-159.36 1050.38,-144.94 1080.47,-134.78"/>
<polygon fill="midnightblue" stroke="midnightblue" points="1081.8,-138.03 1090.15,-131.52 1079.56,-131.4 1081.8,-138.03"/>
</g>
<!-- Node13&#45;&gt;Node12 -->
<g id="edge21" class="edge">
<title>Node13&#45;&gt;Node12</title>
<path fill="none" stroke="midnightblue" d="M934.15,-168.44C912,-159.52 877.07,-145.44 851.95,-135.32"/>
<polygon fill="midnightblue" stroke="midnightblue" points="853.1,-132.01 842.52,-131.52 850.49,-138.5 853.1,-132.01"/>
</g>
<!-- Node14&#45;&gt;Node6 -->
<g id="edge23" class="edge">
<title>Node14&#45;&gt;Node6</title>
<path fill="none" stroke="midnightblue" d="M804.87,-168.4C822.66,-161.21 845.74,-149.32 860.39,-132 871.61,-118.73 877.5,-99.6 880.5,-85.53"/>
<polygon fill="midnightblue" stroke="midnightblue" points="883.97,-86.01 882.33,-75.54 877.08,-84.75 883.97,-86.01"/>
</g>
<!-- Node14&#45;&gt;Node7 -->
<g id="edge25" class="edge">
<title>Node14&#45;&gt;Node7</title>
<path fill="none" stroke="midnightblue" d="M775.59,-168.12C769.84,-155.14 758.11,-130.54 744.39,-112 719.5,-78.38 683.73,-45 662.4,-26.29"/>
<polygon fill="midnightblue" stroke="midnightblue" points="664.58,-23.54 654.73,-19.64 659.99,-28.83 664.58,-23.54"/>
</g>
<!-- Node14&#45;&gt;Node12 -->
<g id="edge24" class="edge">
<title>Node14&#45;&gt;Node12</title>
<path fill="none" stroke="midnightblue" d="M786.32,-168.08C792.32,-160.38 801.14,-149.03 808.43,-139.65"/>
<polygon fill="midnightblue" stroke="midnightblue" points="811.2,-141.79 814.58,-131.75 805.68,-137.5 811.2,-141.79"/>
</g>
<!-- Node15&#45;&gt;Node7 -->
<g id="edge34" class="edge">
<title>Node15&#45;&gt;Node7</title>
<path fill="none" stroke="midnightblue" d="M493.32,-224.44C482.47,-216.47 467.81,-203.52 461.39,-188 448.46,-156.79 444.22,-141.09 461.39,-112 493.75,-57.18 567.7,-30.06 611.04,-18.42"/>
<polygon fill="midnightblue" stroke="midnightblue" points="612.01,-21.79 620.83,-15.92 610.28,-15.01 612.01,-21.79"/>
</g>
<!-- Node15&#45;&gt;Node8 -->
<g id="edge33" class="edge">
<title>Node15&#45;&gt;Node8</title>
<path fill="none" stroke="midnightblue" d="M504.53,-224.21C500.49,-202.47 493.29,-145.57 520.39,-112 583.9,-33.32 711.5,-15.64 776.83,-11.86"/>
<polygon fill="midnightblue" stroke="midnightblue" points="777.32,-15.34 787.14,-11.36 776.98,-8.35 777.32,-15.34"/>
</g>
<!-- Node16 -->
<g id="node16" class="node">
<title>Node16</title>
<g id="a_node16"><a xlink:href="shape_8h.html" target="_top" xlink:title=" ">
<polygon fill="white" stroke="black" points="586.89,-168.5 586.89,-187.5 673.89,-187.5 673.89,-168.5 586.89,-168.5"/>
<text text-anchor="middle" x="630.39" y="-175.5" font-family="Helvetica,sans-Serif" font-size="10.00">shape/shape.h</text>
</a>
</g>
</g>
<!-- Node15&#45;&gt;Node16 -->
<g id="edge27" class="edge">
<title>Node15&#45;&gt;Node16</title>
<path fill="none" stroke="midnightblue" d="M526.03,-224.44C546.35,-215.6 578.29,-201.69 601.48,-191.59"/>
<polygon fill="midnightblue" stroke="midnightblue" points="603.06,-194.72 610.83,-187.52 600.26,-188.3 603.06,-194.72"/>
</g>
<!-- Node16&#45;&gt;Node6 -->
<g id="edge29" class="edge">
<title>Node16&#45;&gt;Node6</title>
<path fill="none" stroke="midnightblue" d="M634.81,-168.27C642.47,-154.1 659.59,-126.24 682.39,-112 729.18,-82.78 792.58,-72.44 835.57,-68.83"/>
<polygon fill="midnightblue" stroke="midnightblue" points="836.05,-72.3 845.76,-68.07 835.53,-65.32 836.05,-72.3"/>
</g>
<!-- Node16&#45;&gt;Node7 -->
<g id="edge30" class="edge">
<title>Node16&#45;&gt;Node7</title>
<path fill="none" stroke="midnightblue" d="M631.14,-168.08C633.34,-141.95 639.81,-65.21 642.82,-29.58"/>
<polygon fill="midnightblue" stroke="midnightblue" points="646.31,-29.83 643.66,-19.57 639.34,-29.24 646.31,-29.83"/>
</g>
<!-- Node16&#45;&gt;Node12 -->
<g id="edge28" class="edge">
<title>Node16&#45;&gt;Node12</title>
<path fill="none" stroke="midnightblue" d="M660.65,-168.44C693.44,-159.17 745.88,-144.35 781.89,-134.17"/>
<polygon fill="midnightblue" stroke="midnightblue" points="782.91,-137.52 791.58,-131.43 781,-130.78 782.91,-137.52"/>
</g>
<!-- Node17 -->
<g id="node17" class="node">
<title>Node17</title>
<g id="a_node17"><a xlink:title=" ">
<polygon fill="white" stroke="#bfbfbf" points="691.39,-112.5 691.39,-131.5 735.39,-131.5 735.39,-112.5 691.39,-112.5"/>
<text text-anchor="middle" x="713.39" y="-119.5" font-family="Helvetica,sans-Serif" font-size="10.00">string</text>
</a>
</g>
</g>
<!-- Node16&#45;&gt;Node17 -->
<g id="edge31" class="edge">
<title>Node16&#45;&gt;Node17</title>
<path fill="none" stroke="midnightblue" d="M643.72,-168.32C656.55,-159.98 676.17,-147.21 691.33,-137.35"/>
<polygon fill="midnightblue" stroke="midnightblue" points="693.61,-140.04 700.08,-131.65 689.79,-134.17 693.61,-140.04"/>
</g>
<!-- Node18 -->
<g id="node18" class="node">
<title>Node18</title>
<g id="a_node18"><a xlink:title=" ">
<polygon fill="white" stroke="#bfbfbf" points="541.39,-112.5 541.39,-131.5 597.39,-131.5 597.39,-112.5 541.39,-112.5"/>
<text text-anchor="middle" x="569.39" y="-119.5" font-family="Helvetica,sans-Serif" font-size="10.00">sstream</text>
</a>
</g>
</g>
<!-- Node16&#45;&gt;Node18 -->
<g id="edge32" class="edge">
<title>Node16&#45;&gt;Node18</title>
<path fill="none" stroke="midnightblue" d="M620.59,-168.32C611.57,-160.34 597.98,-148.31 587.07,-138.65"/>
<polygon fill="midnightblue" stroke="midnightblue" points="589.17,-135.84 579.37,-131.83 584.53,-141.08 589.17,-135.84"/>
</g>
<!-- Node19&#45;&gt;Node8 -->
<g id="edge37" class="edge">
<title>Node19&#45;&gt;Node8</title>
<path fill="none" stroke="midnightblue" d="M613.98,-224.46C577.97,-204.63 497.87,-153.97 532.39,-112 585.04,-47.98 638.43,-106.81 715.39,-76 746.83,-63.41 779.14,-40.88 798.75,-25.94"/>
<polygon fill="midnightblue" stroke="midnightblue" points="801.07,-28.57 806.81,-19.67 796.77,-23.04 801.07,-28.57"/>
</g>
<!-- Node19&#45;&gt;Node16 -->
<g id="edge36" class="edge">
<title>Node19&#45;&gt;Node16</title>
<path fill="none" stroke="midnightblue" d="M630.39,-224.08C630.39,-217.01 630.39,-206.86 630.39,-197.99"/>
<polygon fill="midnightblue" stroke="midnightblue" points="633.89,-197.75 630.39,-187.75 626.89,-197.75 633.89,-197.75"/>
</g>
<!-- Node22&#45;&gt;Node4 -->
<g id="edge41" class="edge">
<title>Node22&#45;&gt;Node4</title>
<path fill="none" stroke="midnightblue" d="M742.7,-392.44C774.23,-383.24 824.52,-368.56 859.37,-358.39"/>
<polygon fill="midnightblue" stroke="midnightblue" points="860.59,-361.68 869.21,-355.52 858.63,-354.96 860.59,-361.68"/>
</g>
<!-- Node22&#45;&gt;Node17 -->
<g id="edge43" class="edge">
<title>Node22&#45;&gt;Node17</title>
<path fill="none" stroke="midnightblue" d="M713.39,-392.44C713.39,-373.94 713.39,-328.81 713.39,-291 713.39,-291 713.39,-291 713.39,-233 713.39,-200.95 713.39,-163.64 713.39,-141.75"/>
<polygon fill="midnightblue" stroke="midnightblue" points="716.89,-141.56 713.39,-131.56 709.89,-141.56 716.89,-141.56"/>
</g>
<!-- Node22&#45;&gt;Node18 -->
<g id="edge44" class="edge">
<title>Node22&#45;&gt;Node18</title>
<path fill="none" stroke="midnightblue" d="M680.39,-392.43C622.33,-375.37 503.41,-331.05 454.39,-244 428.46,-197.97 497.78,-156.14 539.83,-135.87"/>
<polygon fill="midnightblue" stroke="midnightblue" points="541.53,-138.94 549.11,-131.53 538.57,-132.59 541.53,-138.94"/>
</g>
<!-- Node23 -->
<g id="node23" class="node">
<title>Node23</title>
<g id="a_node23"><a xlink:title=" ">
<polygon fill="white" stroke="#bfbfbf" points="996.39,-336.5 996.39,-355.5 1054.39,-355.5 1054.39,-336.5 996.39,-336.5"/>
<text text-anchor="middle" x="1025.39" y="-343.5" font-family="Helvetica,sans-Serif" font-size="10.00">memory</text>
</a>
</g>
</g>
<!-- Node22&#45;&gt;Node23 -->
<g id="edge42" class="edge">
<title>Node22&#45;&gt;Node23</title>
<path fill="none" stroke="midnightblue" d="M750.4,-394.59C809.76,-384.32 925.7,-364.25 986.33,-353.76"/>
<polygon fill="midnightblue" stroke="midnightblue" points="987.02,-357.19 996.27,-352.04 985.82,-350.3 987.02,-357.19"/>
</g>
<!-- Node24&#45;&gt;Node5 -->
<g id="edge47" class="edge">
<title>Node24&#45;&gt;Node5</title>
<path fill="none" stroke="midnightblue" d="M799.86,-448.43C803.34,-428.53 812.61,-377.75 823.39,-336 825.69,-327.08 828.68,-317.29 831.3,-309.14"/>
<polygon fill="midnightblue" stroke="midnightblue" points="834.65,-310.15 834.45,-299.56 828,-307.96 834.65,-310.15"/>
</g>
<!-- Node24&#45;&gt;Node22 -->
<g id="edge46" class="edge">
<title>Node24&#45;&gt;Node22</title>
<path fill="none" stroke="midnightblue" d="M784.73,-448.32C771.47,-439.9 751.12,-426.97 735.54,-417.07"/>
<polygon fill="midnightblue" stroke="midnightblue" points="737.33,-414.06 727.01,-411.65 733.57,-419.97 737.33,-414.06"/>
</g>
<!-- Node25&#45;&gt;Node5 -->
<g id="edge50" class="edge">
<title>Node25&#45;&gt;Node5</title>
<path fill="none" stroke="midnightblue" d="M635.42,-448.07C640.36,-434.59 651.24,-408.84 667.39,-392 707.62,-350.03 769.03,-319.39 805.98,-303.45"/>
<polygon fill="midnightblue" stroke="midnightblue" points="807.41,-306.65 815.27,-299.54 804.69,-300.2 807.41,-306.65"/>
</g>
<!-- Node25&#45;&gt;Node22 -->
<g id="edge49" class="edge">
<title>Node25&#45;&gt;Node22</title>
<path fill="none" stroke="midnightblue" d="M645.4,-448.32C657.92,-439.98 677.07,-427.21 691.86,-417.35"/>
<polygon fill="midnightblue" stroke="midnightblue" points="694.03,-420.11 700.41,-411.65 690.14,-414.29 694.03,-420.11"/>
</g>
<!-- Node26&#45;&gt;Node3 -->
<g id="edge55" class="edge">
<title>Node26&#45;&gt;Node3</title>
<path fill="none" stroke="midnightblue" d="M479.21,-747.4C388.67,-744.84 62.13,-733.55 28.39,-703 -0.51,-676.84 -7.39,-646.08 17.39,-616 59.9,-564.39 539.21,-527.16 676.72,-517.48"/>
<polygon fill="midnightblue" stroke="midnightblue" points="677.02,-520.97 686.76,-516.78 676.54,-513.98 677.02,-520.97"/>
</g>
<!-- Node26&#45;&gt;Node20 -->
<g id="edge54" class="edge">
<title>Node26&#45;&gt;Node20</title>
<path fill="none" stroke="midnightblue" d="M525.53,-747.18C624.73,-743.51 1014.41,-727.81 1134.39,-703 1220.96,-685.1 1320.39,-720.91 1320.39,-632.5 1320.39,-632.5 1320.39,-632.5 1320.39,-401 1320.39,-313.62 1185.09,-295.52 1120.25,-291.87"/>
<polygon fill="midnightblue" stroke="midnightblue" points="1120.27,-288.37 1110.11,-291.38 1119.93,-295.36 1120.27,-288.37"/>
</g>
<!-- Node27 -->
<g id="node27" class="node">
<title>Node27</title>
<g id="a_node27"><a xlink:href="lseq__part_8h.html" target="_top" xlink:title=" ">
<polygon fill="white" stroke="black" points="619.89,-683.5 619.89,-702.5 690.89,-702.5 690.89,-683.5 619.89,-683.5"/>
<text text-anchor="middle" x="655.39" y="-690.5" font-family="Helvetica,sans-Serif" font-size="10.00">lseq_part.h</text>
</a>
</g>
</g>
<!-- Node26&#45;&gt;Node27 -->
<g id="edge56" class="edge">
<title>Node26&#45;&gt;Node27</title>
<path fill="none" stroke="midnightblue" d="M525.62,-739.8C551.12,-730.8 592.3,-716.27 621.42,-705.99"/>
<polygon fill="midnightblue" stroke="midnightblue" points="622.91,-709.18 631.17,-702.55 620.58,-702.57 622.91,-709.18"/>
</g>
<!-- Node28 -->
<g id="node28" class="node">
<title>Node28</title>
<g id="a_node28"><a xlink:href="type__map_8h.html" target="_top" xlink:title=" ">
<polygon fill="white" stroke="black" points="1043.39,-622 1043.39,-641 1169.39,-641 1169.39,-622 1043.39,-622"/>
<text text-anchor="middle" x="1106.39" y="-629" font-family="Helvetica,sans-Serif" font-size="10.00">type_map/type_map.h</text>
</a>
</g>
</g>
<!-- Node26&#45;&gt;Node28 -->
<g id="edge85" class="edge">
<title>Node26&#45;&gt;Node28</title>
<path fill="none" stroke="midnightblue" d="M525.69,-743.54C613.4,-726.77 925.03,-667.18 1051.98,-642.9"/>
<polygon fill="midnightblue" stroke="midnightblue" points="1052.71,-646.33 1061.88,-641.01 1051.4,-639.45 1052.71,-646.33"/>
</g>
<!-- Node37 -->
<g id="node37" class="node">
<title>Node37</title>
<g id="a_node37"><a xlink:href="lseq__input_8h.html" target="_top" xlink:title=" ">
<polygon fill="white" stroke="black" points="35.89,-622 35.89,-641 164.89,-641 164.89,-622 35.89,-622"/>
<text text-anchor="middle" x="100.39" y="-629" font-family="Helvetica,sans-Serif" font-size="10.00">lseq_input/lseq_input.h</text>
</a>
</g>
</g>
<!-- Node26&#45;&gt;Node37 -->
<g id="edge77" class="edge">
<title>Node26&#45;&gt;Node37</title>
<path fill="none" stroke="midnightblue" d="M479.33,-741.38C413.35,-722.42 223.18,-667.78 140.07,-643.9"/>
<polygon fill="midnightblue" stroke="midnightblue" points="140.82,-640.47 130.24,-641.08 138.89,-647.2 140.82,-640.47"/>
</g>
<!-- Node38 -->
<g id="node38" class="node">
<title>Node38</title>
<g id="a_node38"><a xlink:href="lpart__vec_8h.html" target="_top" xlink:title=" ">
<polygon fill="white" stroke="black" points="1180.89,-392.5 1180.89,-411.5 1251.89,-411.5 1251.89,-392.5 1180.89,-392.5"/>
<text text-anchor="middle" x="1216.39" y="-399.5" font-family="Helvetica,sans-Serif" font-size="10.00">lpart_vec.h</text>
</a>
</g>
</g>
<!-- Node26&#45;&gt;Node38 -->
<g id="edge78" class="edge">
<title>Node26&#45;&gt;Node38</title>
<path fill="none" stroke="midnightblue" d="M525.73,-747.07C655.51,-741.59 1282.39,-711.04 1282.39,-632.5 1282.39,-632.5 1282.39,-632.5 1282.39,-513 1282.39,-474.86 1252.85,-438.52 1233.29,-418.64"/>
<polygon fill="midnightblue" stroke="midnightblue" points="1235.72,-416.12 1226.13,-411.63 1230.83,-421.12 1235.72,-416.12"/>
</g>
<!-- Node39 -->
<g id="node39" class="node">
<title>Node39</title>
<g id="a_node39"><a xlink:href="lseq__rays_8h.html" target="_top" xlink:title=" ">
<polygon fill="white" stroke="black" points="37.89,-683.5 37.89,-702.5 162.89,-702.5 162.89,-683.5 37.89,-683.5"/>
<text text-anchor="middle" x="100.39" y="-690.5" font-family="Helvetica,sans-Serif" font-size="10.00">lseq_input/lseq_rays.h</text>
</a>
</g>
</g>
<!-- Node26&#45;&gt;Node39 -->
<g id="edge82" class="edge">
<title>Node26&#45;&gt;Node39</title>
<path fill="none" stroke="midnightblue" d="M479.33,-744.9C421.04,-737.07 265.83,-716.22 173.13,-703.77"/>
<polygon fill="midnightblue" stroke="midnightblue" points="173.35,-700.27 162.98,-702.41 172.42,-707.21 173.35,-700.27"/>
</g>
<!-- Node27&#45;&gt;Node2 -->
<g id="edge58" class="edge">
<title>Node27&#45;&gt;Node2</title>
<path fill="none" stroke="midnightblue" d="M619.54,-691.06C518.93,-688.05 239.53,-677.04 212.39,-647 181.36,-612.66 252.55,-590.28 303.19,-579.2"/>
<polygon fill="midnightblue" stroke="midnightblue" points="303.94,-582.62 313.01,-577.14 302.5,-575.77 303.94,-582.62"/>
</g>
<!-- Node27&#45;&gt;Node3 -->
<g id="edge59" class="edge">
<title>Node27&#45;&gt;Node3</title>
<path fill="none" stroke="midnightblue" d="M691,-687.96C769.2,-678.93 949.69,-657.08 958.39,-647 1022.09,-573.14 832.99,-533.69 750.16,-520.3"/>
<polygon fill="midnightblue" stroke="midnightblue" points="750.57,-516.82 740.15,-518.73 749.48,-523.74 750.57,-516.82"/>
</g>
<!-- Node27&#45;&gt;Node23 -->
<g id="edge57" class="edge">
<title>Node27&#45;&gt;Node23</title>
<path fill="none" stroke="midnightblue" d="M691.02,-688.11C772.79,-679.05 967.75,-656.56 978.39,-647 1023.36,-606.58 1011.39,-575.47 1011.39,-515 1011.39,-515 1011.39,-515 1011.39,-457 1011.39,-424.54 1017.46,-387.12 1021.61,-365.36"/>
<polygon fill="midnightblue" stroke="midnightblue" points="1025.05,-366 1023.56,-355.51 1018.18,-364.64 1025.05,-366"/>
</g>
<!-- Node27&#45;&gt;Node28 -->
<g id="edge60" class="edge">
<title>Node27&#45;&gt;Node28</title>
<path fill="none" stroke="midnightblue" d="M691.08,-688.5C757.73,-681.79 905.61,-666.08 1029.39,-647 1037.32,-645.78 1045.69,-644.35 1053.87,-642.87"/>
<polygon fill="midnightblue" stroke="midnightblue" points="1054.51,-646.31 1063.71,-641.06 1053.24,-639.43 1054.51,-646.31"/>
</g>
<!-- Node31 -->
<g id="node31" class="node">
<title>Node31</title>
<g id="a_node31"><a xlink:href="lseq__part__rays_8h.html" target="_top" xlink:title=" ">
<polygon fill="white" stroke="black" points="221.39,-616.5 221.39,-646.5 339.39,-646.5 339.39,-616.5 221.39,-616.5"/>
<text text-anchor="start" x="229.39" y="-634.5" font-family="Helvetica,sans-Serif" font-size="10.00">lseq_part_result/lseq</text>
<text text-anchor="middle" x="280.39" y="-623.5" font-family="Helvetica,sans-Serif" font-size="10.00">_part_rays.h</text>
</a>
</g>
</g>
<!-- Node27&#45;&gt;Node31 -->
<g id="edge64" class="edge">
<title>Node27&#45;&gt;Node31</title>
<path fill="none" stroke="midnightblue" d="M619.81,-687.54C564.28,-680.42 453.42,-665.55 349.69,-647.17"/>
<polygon fill="midnightblue" stroke="midnightblue" points="350.14,-643.69 339.68,-645.38 348.91,-650.58 350.14,-643.69"/>
</g>
<!-- Node33 -->
<g id="node33" class="node">
<title>Node33</title>
<g id="a_node33"><a xlink:href="lseq__part__global__position_8h.html" target="_top" xlink:title=" ">
<polygon fill="white" stroke="black" points="819.39,-616.5 819.39,-646.5 949.39,-646.5 949.39,-616.5 819.39,-616.5"/>
<text text-anchor="start" x="827.39" y="-634.5" font-family="Helvetica,sans-Serif" font-size="10.00">lseq_part_result/lseq</text>
<text text-anchor="middle" x="884.39" y="-623.5" font-family="Helvetica,sans-Serif" font-size="10.00">_part_global_position.h</text>
</a>
</g>
</g>
<!-- Node27&#45;&gt;Node33 -->
<g id="edge67" class="edge">
<title>Node27&#45;&gt;Node33</title>
<path fill="none" stroke="midnightblue" d="M688.2,-683.48C722.62,-674.53 777.59,-660.25 820.6,-649.07"/>
<polygon fill="midnightblue" stroke="midnightblue" points="821.62,-652.43 830.42,-646.52 819.86,-645.65 821.62,-652.43"/>
</g>
<!-- Node34 -->
<g id="node34" class="node">
<title>Node34</title>
<g id="a_node34"><a xlink:href="lseq__part__semi__diameter_8h.html" target="_top" xlink:title=" ">
<polygon fill="white" stroke="black" points="673.39,-616.5 673.39,-646.5 801.39,-646.5 801.39,-616.5 673.39,-616.5"/>
<text text-anchor="start" x="681.39" y="-634.5" font-family="Helvetica,sans-Serif" font-size="10.00">lseq_part_result/lseq</text>
<text text-anchor="middle" x="737.39" y="-623.5" font-family="Helvetica,sans-Serif" font-size="10.00">_part_semi_diameter.h</text>
</a>
</g>
</g>
<!-- Node27&#45;&gt;Node34 -->
<g id="edge70" class="edge">
<title>Node27&#45;&gt;Node34</title>
<path fill="none" stroke="midnightblue" d="M667.14,-683.48C678.24,-675.42 695.32,-663.02 709.86,-652.47"/>
<polygon fill="midnightblue" stroke="midnightblue" points="712.02,-655.23 718.06,-646.52 707.91,-649.56 712.02,-655.23"/>
</g>
<!-- Node35 -->
<g id="node35" class="node">
<title>Node35</title>
<g id="a_node35"><a xlink:href="lseq__part__global__rays_8h.html" target="_top" xlink:title=" ">
<polygon fill="white" stroke="black" points="357.39,-616.5 357.39,-646.5 475.39,-646.5 475.39,-616.5 357.39,-616.5"/>
<text text-anchor="start" x="365.39" y="-634.5" font-family="Helvetica,sans-Serif" font-size="10.00">lseq_part_result/lseq</text>
<text text-anchor="middle" x="416.39" y="-623.5" font-family="Helvetica,sans-Serif" font-size="10.00">_part_global_rays.h</text>
</a>
</g>
</g>
<!-- Node27&#45;&gt;Node35 -->
<g id="edge72" class="edge">
<title>Node27&#45;&gt;Node35</title>
<path fill="none" stroke="midnightblue" d="M621.14,-683.48C585.14,-674.51 527.61,-660.19 482.68,-649"/>
<polygon fill="midnightblue" stroke="midnightblue" points="483.26,-645.54 472.71,-646.52 481.57,-652.34 483.26,-645.54"/>
</g>
<!-- Node36 -->
<g id="node36" class="node">
<title>Node36</title>
<g id="a_node36"><a xlink:href="lseq__part__propagation__direction_8h.html" target="_top" xlink:title=" ">
<polygon fill="white" stroke="black" points="493.39,-616.5 493.39,-646.5 655.39,-646.5 655.39,-616.5 493.39,-616.5"/>
<text text-anchor="start" x="501.39" y="-634.5" font-family="Helvetica,sans-Serif" font-size="10.00">lseq_part_result/lseq</text>
<text text-anchor="middle" x="574.39" y="-623.5" font-family="Helvetica,sans-Serif" font-size="10.00">_part_propagation_direction.h</text>
</a>
</g>
</g>
<!-- Node27&#45;&gt;Node36 -->
<g id="edge75" class="edge">
<title>Node27&#45;&gt;Node36</title>
<path fill="none" stroke="midnightblue" d="M643.78,-683.48C632.81,-675.42 615.94,-663.02 601.58,-652.47"/>
<polygon fill="midnightblue" stroke="midnightblue" points="603.61,-649.62 593.48,-646.52 599.46,-655.26 603.61,-649.62"/>
</g>
<!-- Node28&#45;&gt;Node23 -->
<g id="edge62" class="edge">
<title>Node28&#45;&gt;Node23</title>
<path fill="none" stroke="midnightblue" d="M1098.7,-621.94C1083.14,-603.7 1049.39,-559.05 1049.39,-515 1049.39,-515 1049.39,-515 1049.39,-457 1049.39,-424.06 1038.99,-386.82 1031.88,-365.21"/>
<polygon fill="midnightblue" stroke="midnightblue" points="1035.17,-364.03 1028.62,-355.7 1028.55,-366.29 1035.17,-364.03"/>
</g>
<!-- Node29 -->
<g id="node29" class="node">
<title>Node29</title>
<g id="a_node29"><a xlink:title=" ">
<polygon fill="white" stroke="#bfbfbf" points="1160.89,-560.5 1160.89,-579.5 1253.89,-579.5 1253.89,-560.5 1160.89,-560.5"/>
<text text-anchor="middle" x="1207.39" y="-567.5" font-family="Helvetica,sans-Serif" font-size="10.00">unordered_map</text>
</a>
</g>
</g>
<!-- Node28&#45;&gt;Node29 -->
<g id="edge61" class="edge">
<title>Node28&#45;&gt;Node29</title>
<path fill="none" stroke="midnightblue" d="M1120.86,-621.98C1137.36,-612.25 1164.57,-596.23 1184.07,-584.74"/>
<polygon fill="midnightblue" stroke="midnightblue" points="1186.1,-587.6 1192.94,-579.51 1182.55,-581.57 1186.1,-587.6"/>
</g>
<!-- Node30 -->
<g id="node30" class="node">
<title>Node30</title>
<g id="a_node30"><a xlink:title=" ">
<polygon fill="white" stroke="#bfbfbf" points="1077.89,-560.5 1077.89,-579.5 1142.89,-579.5 1142.89,-560.5 1077.89,-560.5"/>
<text text-anchor="middle" x="1110.39" y="-567.5" font-family="Helvetica,sans-Serif" font-size="10.00">typeindex</text>
</a>
</g>
</g>
<!-- Node28&#45;&gt;Node30 -->
<g id="edge63" class="edge">
<title>Node28&#45;&gt;Node30</title>
<path fill="none" stroke="midnightblue" d="M1106.96,-621.98C1107.52,-613.58 1108.4,-600.48 1109.13,-589.66"/>
<polygon fill="midnightblue" stroke="midnightblue" points="1112.64,-589.72 1109.81,-579.51 1105.65,-589.25 1112.64,-589.72"/>
</g>
<!-- Node31&#45;&gt;Node2 -->
<g id="edge66" class="edge">
<title>Node31&#45;&gt;Node2</title>
<path fill="none" stroke="midnightblue" d="M296.5,-616.4C306.79,-607.4 320.13,-595.72 330.71,-586.47"/>
<polygon fill="midnightblue" stroke="midnightblue" points="333.27,-588.88 338.49,-579.66 328.66,-583.61 333.27,-588.88"/>
</g>
<!-- Node32 -->
<g id="node32" class="node">
<title>Node32</title>
<g id="a_node32"><a xlink:href="lseq__part__result_8h.html" target="_top" xlink:title=" ">
<polygon fill="white" stroke="black" points="522.39,-560.5 522.39,-579.5 626.39,-579.5 626.39,-560.5 522.39,-560.5"/>
<text text-anchor="middle" x="574.39" y="-567.5" font-family="Helvetica,sans-Serif" font-size="10.00">lseq_part_result.h</text>
</a>
</g>
</g>
<!-- Node31&#45;&gt;Node32 -->
<g id="edge65" class="edge">
<title>Node31&#45;&gt;Node32</title>
<path fill="none" stroke="midnightblue" d="M339.71,-617.8C342.65,-617.19 345.55,-616.58 348.39,-616 407.22,-603.87 474.78,-590.49 520.59,-581.5"/>
<polygon fill="midnightblue" stroke="midnightblue" points="521.46,-584.89 530.6,-579.54 520.12,-578.03 521.46,-584.89"/>
</g>
<!-- Node33&#45;&gt;Node5 -->
<g id="edge69" class="edge">
<title>Node33&#45;&gt;Node5</title>
<path fill="none" stroke="midnightblue" d="M883.13,-616.27C880.33,-585.49 873.18,-510.49 864.39,-448 857.35,-397.95 846.6,-339.35 841.03,-309.92"/>
<polygon fill="midnightblue" stroke="midnightblue" points="844.41,-308.99 839.1,-299.82 837.54,-310.3 844.41,-308.99"/>
</g>
<!-- Node33&#45;&gt;Node32 -->
<g id="edge68" class="edge">
<title>Node33&#45;&gt;Node32</title>
<path fill="none" stroke="midnightblue" d="M819.02,-617.67C816.1,-617.11 813.21,-616.55 810.39,-616 748.45,-604.03 677.32,-590.49 629.49,-581.42"/>
<polygon fill="midnightblue" stroke="midnightblue" points="630.12,-577.98 619.64,-579.56 628.82,-584.86 630.12,-577.98"/>
</g>
<!-- Node34&#45;&gt;Node32 -->
<g id="edge71" class="edge">
<title>Node34&#45;&gt;Node32</title>
<path fill="none" stroke="midnightblue" d="M698.76,-616.4C671.04,-606.28 634.08,-592.79 607.67,-583.15"/>
<polygon fill="midnightblue" stroke="midnightblue" points="608.7,-579.8 598.1,-579.66 606.3,-586.37 608.7,-579.8"/>
</g>
<!-- Node35&#45;&gt;Node2 -->
<g id="edge74" class="edge">
<title>Node35&#45;&gt;Node2</title>
<path fill="none" stroke="midnightblue" d="M400.27,-616.4C389.98,-607.4 376.64,-595.72 366.06,-586.47"/>
<polygon fill="midnightblue" stroke="midnightblue" points="368.11,-583.61 358.28,-579.66 363.5,-588.88 368.11,-583.61"/>
</g>
<!-- Node35&#45;&gt;Node32 -->
<g id="edge73" class="edge">
<title>Node35&#45;&gt;Node32</title>
<path fill="none" stroke="midnightblue" d="M453.83,-616.4C480.58,-606.33 516.21,-592.91 541.79,-583.28"/>
<polygon fill="midnightblue" stroke="midnightblue" points="543.27,-586.46 551.4,-579.66 540.8,-579.91 543.27,-586.46"/>
</g>
<!-- Node36&#45;&gt;Node32 -->
<g id="edge76" class="edge">
<title>Node36&#45;&gt;Node32</title>
<path fill="none" stroke="midnightblue" d="M574.39,-616.4C574.39,-608.47 574.39,-598.46 574.39,-589.86"/>
<polygon fill="midnightblue" stroke="midnightblue" points="577.89,-589.66 574.39,-579.66 570.89,-589.66 577.89,-589.66"/>
</g>
<!-- Node38&#45;&gt;Node8 -->
<g id="edge81" class="edge">
<title>Node38&#45;&gt;Node8</title>
<path fill="none" stroke="midnightblue" d="M1246.85,-392.4C1288.57,-378.53 1358.39,-346.98 1358.39,-291 1358.39,-291 1358.39,-291 1358.39,-121 1358.39,-69.9 982.97,-27.6 857.6,-14.9"/>
<polygon fill="midnightblue" stroke="midnightblue" points="857.93,-11.42 847.63,-13.9 857.23,-18.38 857.93,-11.42"/>
</g>
<!-- Node38&#45;&gt;Node20 -->
<g id="edge79" class="edge">
<title>Node38&#45;&gt;Node20</title>
<path fill="none" stroke="midnightblue" d="M1206.19,-392.37C1184.16,-373.73 1131.93,-329.53 1104.27,-306.13"/>
<polygon fill="midnightblue" stroke="midnightblue" points="1106.43,-303.38 1096.54,-299.59 1101.91,-308.72 1106.43,-303.38"/>
</g>
<!-- Node38&#45;&gt;Node23 -->
<g id="edge80" class="edge">
<title>Node38&#45;&gt;Node23</title>
<path fill="none" stroke="midnightblue" d="M1186.12,-392.44C1153.14,-383.12 1100.28,-368.17 1064.25,-357.99"/>
<polygon fill="midnightblue" stroke="midnightblue" points="1065.15,-354.6 1054.57,-355.25 1063.24,-361.34 1065.15,-354.6"/>
</g>
<!-- Node39&#45;&gt;Node2 -->
<g id="edge84" class="edge">
<title>Node39&#45;&gt;Node2</title>
<path fill="none" stroke="midnightblue" d="M73.46,-683.36C56.67,-676.41 36.41,-664.82 26.39,-647 19.63,-634.99 17.34,-626.39 26.39,-616 61.71,-575.4 223.07,-570.31 303.1,-570.36"/>
<polygon fill="midnightblue" stroke="midnightblue" points="303.36,-573.86 313.37,-570.4 303.38,-566.86 303.36,-573.86"/>
</g>
<!-- Node39&#45;&gt;Node37 -->
<g id="edge83" class="edge">
<title>Node39&#45;&gt;Node37</title>
<path fill="none" stroke="midnightblue" d="M100.39,-683.48C100.39,-675.08 100.39,-661.98 100.39,-651.16"/>
<polygon fill="midnightblue" stroke="midnightblue" points="103.89,-651.01 100.39,-641.01 96.89,-651.01 103.89,-651.01"/>
</g>
</g>
</svg>
