<?xml version="1.0" encoding="UTF-8" standalone="no"?>
<!DOCTYPE svg PUBLIC "-//W3C//DTD SVG 1.1//EN"
 "http://www.w3.org/Graphics/SVG/1.1/DTD/svg11.dtd">
<!-- Generated by graphviz version 2.43.0 (0)
 -->
<!-- Title: src/pinyo/src/pinyo.h Pages: 1 -->
<svg width="707pt" height="532pt"
 viewBox="0.00 0.00 707.29 532.00" xmlns="http://www.w3.org/2000/svg" xmlns:xlink="http://www.w3.org/1999/xlink">
<g id="graph0" class="graph" transform="scale(1 1) rotate(0) translate(4 528)">
<title>src/pinyo/src/pinyo.h</title>
<polygon fill="white" stroke="transparent" points="-4,4 -4,-528 703.29,-528 703.29,4 -4,4"/>
<!-- Node1 -->
<g id="node1" class="node">
<title>Node1</title>
<g id="a_node1"><a xlink:title=" ">
<polygon fill="#bfbfbf" stroke="black" points="374,-504.5 374,-523.5 491,-523.5 491,-504.5 374,-504.5"/>
<text text-anchor="middle" x="432.5" y="-511.5" font-family="Helvetica,sans-Serif" font-size="10.00">src/pinyo/src/pinyo.h</text>
</a>
</g>
</g>
<!-- Node2 -->
<g id="node2" class="node">
<title>Node2</title>
<g id="a_node2"><a xlink:href="bun_8h.html" target="_top" xlink:title=" ">
<polygon fill="white" stroke="black" points="251,-336.5 251,-355.5 316,-355.5 316,-336.5 251,-336.5"/>
<text text-anchor="middle" x="283.5" y="-343.5" font-family="Helvetica,sans-Serif" font-size="10.00">bun/bun.h</text>
</a>
</g>
</g>
<!-- Node1&#45;&gt;Node2 -->
<g id="edge1" class="edge">
<title>Node1&#45;&gt;Node2</title>
<path fill="none" stroke="midnightblue" d="M373.67,-506.26C348.15,-500.29 320.12,-489.07 302.5,-468 278.13,-438.88 278.52,-391.51 280.98,-365.52"/>
<polygon fill="midnightblue" stroke="midnightblue" points="284.46,-365.85 282.13,-355.51 277.51,-365.05 284.46,-365.85"/>
</g>
<!-- Node20 -->
<g id="node20" class="node">
<title>Node20</title>
<g id="a_node20"><a xlink:href="lpart_8h.html" target="_top" xlink:title=" ">
<polygon fill="white" stroke="black" points="497.5,-392.5 497.5,-411.5 571.5,-411.5 571.5,-392.5 497.5,-392.5"/>
<text text-anchor="middle" x="534.5" y="-399.5" font-family="Helvetica,sans-Serif" font-size="10.00">lpart/lpart.h</text>
</a>
</g>
</g>
<!-- Node1&#45;&gt;Node20 -->
<g id="edge38" class="edge">
<title>Node1&#45;&gt;Node20</title>
<path fill="none" stroke="midnightblue" d="M491.06,-506.96C516.12,-501.13 543.11,-489.84 558.5,-468 568.85,-453.32 558.96,-433.65 548.92,-419.81"/>
<polygon fill="midnightblue" stroke="midnightblue" points="551.45,-417.36 542.52,-411.67 545.95,-421.69 551.45,-417.36"/>
</g>
<!-- Node22 -->
<g id="node22" class="node">
<title>Node22</title>
<g id="a_node22"><a xlink:href="transfer__part_8h.html" target="_top" xlink:title=" ">
<polygon fill="white" stroke="black" points="311.5,-448.5 311.5,-467.5 425.5,-467.5 425.5,-448.5 311.5,-448.5"/>
<text text-anchor="middle" x="368.5" y="-455.5" font-family="Helvetica,sans-Serif" font-size="10.00">lpart/transfer_part.h</text>
</a>
</g>
</g>
<!-- Node1&#45;&gt;Node22 -->
<g id="edge43" class="edge">
<title>Node1&#45;&gt;Node22</title>
<path fill="none" stroke="midnightblue" d="M422.22,-504.32C412.66,-496.26 398.22,-484.08 386.72,-474.37"/>
<polygon fill="midnightblue" stroke="midnightblue" points="388.87,-471.61 378.97,-467.83 384.36,-476.96 388.87,-471.61"/>
</g>
<!-- Node23 -->
<g id="node23" class="node">
<title>Node23</title>
<g id="a_node23"><a xlink:href="shape__part_8h.html" target="_top" xlink:title=" ">
<polygon fill="white" stroke="black" points="444,-448.5 444,-467.5 549,-467.5 549,-448.5 444,-448.5"/>
<text text-anchor="middle" x="496.5" y="-455.5" font-family="Helvetica,sans-Serif" font-size="10.00">lpart/shape_part.h</text>
</a>
</g>
</g>
<!-- Node1&#45;&gt;Node23 -->
<g id="edge46" class="edge">
<title>Node1&#45;&gt;Node23</title>
<path fill="none" stroke="midnightblue" d="M442.78,-504.32C452.34,-496.26 466.78,-484.08 478.28,-474.37"/>
<polygon fill="midnightblue" stroke="midnightblue" points="480.64,-476.96 486.03,-467.83 476.13,-471.61 480.64,-476.96"/>
</g>
<!-- Node3 -->
<g id="node3" class="node">
<title>Node3</title>
<g id="a_node3"><a xlink:href="poaky_8h.html" target="_top" xlink:title=" ">
<polygon fill="white" stroke="black" points="342,-280.5 342,-299.5 395,-299.5 395,-280.5 342,-280.5"/>
<text text-anchor="middle" x="368.5" y="-287.5" font-family="Helvetica,sans-Serif" font-size="10.00">poaky.h</text>
</a>
</g>
</g>
<!-- Node2&#45;&gt;Node3 -->
<g id="edge2" class="edge">
<title>Node2&#45;&gt;Node3</title>
<path fill="none" stroke="midnightblue" d="M297.16,-336.32C310.42,-327.9 330.77,-314.97 346.35,-305.07"/>
<polygon fill="midnightblue" stroke="midnightblue" points="348.31,-307.97 354.88,-299.65 344.56,-302.06 348.31,-307.97"/>
</g>
<!-- Node18 -->
<g id="node18" class="node">
<title>Node18</title>
<g id="a_node18"><a xlink:title=" ">
<polygon fill="white" stroke="#bfbfbf" points="172,-280.5 172,-299.5 219,-299.5 219,-280.5 172,-280.5"/>
<text text-anchor="middle" x="195.5" y="-287.5" font-family="Helvetica,sans-Serif" font-size="10.00">vector</text>
</a>
</g>
</g>
<!-- Node2&#45;&gt;Node18 -->
<g id="edge36" class="edge">
<title>Node2&#45;&gt;Node18</title>
<path fill="none" stroke="midnightblue" d="M269.36,-336.32C255.63,-327.9 234.56,-314.97 218.44,-305.07"/>
<polygon fill="midnightblue" stroke="midnightblue" points="219.96,-301.9 209.6,-299.65 216.3,-307.87 219.96,-301.9"/>
</g>
<!-- Node19 -->
<g id="node19" class="node">
<title>Node19</title>
<g id="a_node19"><a xlink:title=" ">
<polygon fill="white" stroke="#bfbfbf" points="237.5,-280.5 237.5,-299.5 323.5,-299.5 323.5,-280.5 237.5,-280.5"/>
<text text-anchor="middle" x="280.5" y="-287.5" font-family="Helvetica,sans-Serif" font-size="10.00">unordered_set</text>
</a>
</g>
</g>
<!-- Node2&#45;&gt;Node19 -->
<g id="edge37" class="edge">
<title>Node2&#45;&gt;Node19</title>
<path fill="none" stroke="midnightblue" d="M283,-336.08C282.61,-329.01 282.05,-318.86 281.55,-309.99"/>
<polygon fill="midnightblue" stroke="midnightblue" points="285.04,-309.54 280.99,-299.75 278.05,-309.93 285.04,-309.54"/>
</g>
<!-- Node4 -->
<g id="node4" class="node">
<title>Node4</title>
<g id="a_node4"><a xlink:href="Vec3_8h.html" target="_top" xlink:title=" ">
<polygon fill="white" stroke="black" points="239,-56.5 239,-75.5 314,-75.5 314,-56.5 239,-56.5"/>
<text text-anchor="middle" x="276.5" y="-63.5" font-family="Helvetica,sans-Serif" font-size="10.00">base/Vec3.h</text>
</a>
</g>
</g>
<!-- Node3&#45;&gt;Node4 -->
<g id="edge3" class="edge">
<title>Node3&#45;&gt;Node4</title>
<path fill="none" stroke="midnightblue" d="M341.8,-281.17C304.18,-268.52 236.97,-239.64 208.5,-188 187.41,-149.75 230.27,-105.01 257.1,-82.14"/>
<polygon fill="midnightblue" stroke="midnightblue" points="259.33,-84.84 264.82,-75.78 254.88,-79.44 259.33,-84.84"/>
</g>
<!-- Node8 -->
<g id="node8" class="node">
<title>Node8</title>
<g id="a_node8"><a xlink:href="Vec2_8h.html" target="_top" xlink:title=" ">
<polygon fill="white" stroke="black" points="95,-112.5 95,-131.5 170,-131.5 170,-112.5 95,-112.5"/>
<text text-anchor="middle" x="132.5" y="-119.5" font-family="Helvetica,sans-Serif" font-size="10.00">base/Vec2.h</text>
</a>
</g>
</g>
<!-- Node3&#45;&gt;Node8 -->
<g id="edge7" class="edge">
<title>Node3&#45;&gt;Node8</title>
<path fill="none" stroke="midnightblue" d="M341.78,-282.26C338.65,-281.49 335.51,-280.72 332.5,-280 262.88,-263.32 228.97,-291.6 175.5,-244 145.62,-217.4 136.5,-168.64 133.72,-141.85"/>
<polygon fill="midnightblue" stroke="midnightblue" points="137.18,-141.22 132.85,-131.55 130.2,-141.81 137.18,-141.22"/>
</g>
<!-- Node9 -->
<g id="node9" class="node">
<title>Node9</title>
<g id="a_node9"><a xlink:href="Mat3_8h.html" target="_top" xlink:title=" ">
<polygon fill="white" stroke="black" points="0,-112.5 0,-131.5 77,-131.5 77,-112.5 0,-112.5"/>
<text text-anchor="middle" x="38.5" y="-119.5" font-family="Helvetica,sans-Serif" font-size="10.00">base/Mat3.h</text>
</a>
</g>
</g>
<!-- Node3&#45;&gt;Node9 -->
<g id="edge11" class="edge">
<title>Node3&#45;&gt;Node9</title>
<path fill="none" stroke="midnightblue" d="M341.79,-282.19C338.67,-281.43 335.52,-280.69 332.5,-280 254.64,-262.31 226.57,-282.27 156.5,-244 109.05,-218.08 68.77,-166.78 49.92,-140.07"/>
<polygon fill="midnightblue" stroke="midnightblue" points="52.73,-137.98 44.17,-131.73 46.97,-141.95 52.73,-137.98"/>
</g>
<!-- Node10 -->
<g id="node10" class="node">
<title>Node10</title>
<g id="a_node10"><a xlink:href="ray_8h.html" target="_top" xlink:title=" ">
<polygon fill="white" stroke="black" points="265,-112.5 265,-131.5 324,-131.5 324,-112.5 265,-112.5"/>
<text text-anchor="middle" x="294.5" y="-119.5" font-family="Helvetica,sans-Serif" font-size="10.00">ray/ray.h</text>
</a>
</g>
</g>
<!-- Node3&#45;&gt;Node10 -->
<g id="edge13" class="edge">
<title>Node3&#45;&gt;Node10</title>
<path fill="none" stroke="midnightblue" d="M366.93,-280.36C362.98,-259.9 351.41,-207.25 330.5,-168 324.98,-157.65 316.97,-147.33 309.9,-139.2"/>
<polygon fill="midnightblue" stroke="midnightblue" points="312.33,-136.67 303.02,-131.6 307.14,-141.36 312.33,-136.67"/>
</g>
<!-- Node11 -->
<g id="node11" class="node">
<title>Node11</title>
<g id="a_node11"><a xlink:href="transfer_8h.html" target="_top" xlink:title=" ">
<polygon fill="white" stroke="black" points="217.5,-168.5 217.5,-187.5 321.5,-187.5 321.5,-168.5 217.5,-168.5"/>
<text text-anchor="middle" x="269.5" y="-175.5" font-family="Helvetica,sans-Serif" font-size="10.00">transfer/transfer.h</text>
</a>
</g>
</g>
<!-- Node3&#45;&gt;Node11 -->
<g id="edge16" class="edge">
<title>Node3&#45;&gt;Node11</title>
<path fill="none" stroke="midnightblue" d="M360.73,-280.37C344.18,-261.97 305.2,-218.67 283.95,-195.05"/>
<polygon fill="midnightblue" stroke="midnightblue" points="286.52,-192.68 277.23,-187.59 281.32,-197.37 286.52,-192.68"/>
</g>
<!-- Node12 -->
<g id="node12" class="node">
<title>Node12</title>
<g id="a_node12"><a xlink:href="rop_8h.html" target="_top" xlink:title=" ">
<polygon fill="white" stroke="black" points="377.5,-168.5 377.5,-187.5 437.5,-187.5 437.5,-168.5 377.5,-168.5"/>
<text text-anchor="middle" x="407.5" y="-175.5" font-family="Helvetica,sans-Serif" font-size="10.00">rop/rop.h</text>
</a>
</g>
</g>
<!-- Node3&#45;&gt;Node12 -->
<g id="edge20" class="edge">
<title>Node3&#45;&gt;Node12</title>
<path fill="none" stroke="midnightblue" d="M371.56,-280.37C377.88,-262.54 392.5,-221.3 401.02,-197.27"/>
<polygon fill="midnightblue" stroke="midnightblue" points="404.41,-198.19 404.45,-187.59 397.81,-195.85 404.41,-198.19"/>
</g>
<!-- Node13 -->
<g id="node13" class="node">
<title>Node13</title>
<g id="a_node13"><a xlink:href="plane_8h.html" target="_top" xlink:title=" ">
<polygon fill="white" stroke="black" points="535,-224.5 535,-243.5 620,-243.5 620,-224.5 535,-224.5"/>
<text text-anchor="middle" x="577.5" y="-231.5" font-family="Helvetica,sans-Serif" font-size="10.00">shape/plane.h</text>
</a>
</g>
</g>
<!-- Node3&#45;&gt;Node13 -->
<g id="edge24" class="edge">
<title>Node3&#45;&gt;Node13</title>
<path fill="none" stroke="midnightblue" d="M395.4,-282.05C430.64,-272.95 492.85,-256.87 534.63,-246.08"/>
<polygon fill="midnightblue" stroke="midnightblue" points="535.71,-249.41 544.51,-243.52 533.96,-242.64 535.71,-249.41"/>
</g>
<!-- Node17 -->
<g id="node17" class="node">
<title>Node17</title>
<g id="a_node17"><a xlink:href="standard_8h.html" target="_top" xlink:title=" ">
<polygon fill="white" stroke="black" points="416,-224.5 416,-243.5 517,-243.5 517,-224.5 416,-224.5"/>
<text text-anchor="middle" x="466.5" y="-231.5" font-family="Helvetica,sans-Serif" font-size="10.00">shape/standard.h</text>
</a>
</g>
</g>
<!-- Node3&#45;&gt;Node17 -->
<g id="edge33" class="edge">
<title>Node3&#45;&gt;Node17</title>
<path fill="none" stroke="midnightblue" d="M384.25,-280.32C399.82,-271.74 423.88,-258.49 441.96,-248.52"/>
<polygon fill="midnightblue" stroke="midnightblue" points="443.72,-251.55 450.79,-243.65 440.35,-245.42 443.72,-251.55"/>
</g>
<!-- Node5 -->
<g id="node5" class="node">
<title>Node5</title>
<g id="a_node5"><a xlink:title=" ">
<polygon fill="white" stroke="#bfbfbf" points="462,-0.5 462,-19.5 509,-19.5 509,-0.5 462,-0.5"/>
<text text-anchor="middle" x="485.5" y="-7.5" font-family="Helvetica,sans-Serif" font-size="10.00">cmath</text>
</a>
</g>
</g>
<!-- Node4&#45;&gt;Node5 -->
<g id="edge4" class="edge">
<title>Node4&#45;&gt;Node5</title>
<path fill="none" stroke="midnightblue" d="M309.62,-56.44C348.61,-46.37 412.99,-29.74 452.1,-19.63"/>
<polygon fill="midnightblue" stroke="midnightblue" points="453.14,-22.98 461.94,-17.09 451.39,-16.2 453.14,-22.98"/>
</g>
<!-- Node6 -->
<g id="node6" class="node">
<title>Node6</title>
<g id="a_node6"><a xlink:title=" ">
<polygon fill="white" stroke="#bfbfbf" points="312.5,-0.5 312.5,-19.5 372.5,-19.5 372.5,-0.5 312.5,-0.5"/>
<text text-anchor="middle" x="342.5" y="-7.5" font-family="Helvetica,sans-Serif" font-size="10.00">iostream</text>
</a>
</g>
</g>
<!-- Node4&#45;&gt;Node6 -->
<g id="edge5" class="edge">
<title>Node4&#45;&gt;Node6</title>
<path fill="none" stroke="midnightblue" d="M287.1,-56.32C296.96,-48.26 311.85,-36.08 323.72,-26.37"/>
<polygon fill="midnightblue" stroke="midnightblue" points="326.18,-28.88 331.7,-19.83 321.75,-23.46 326.18,-28.88"/>
</g>
<!-- Node7 -->
<g id="node7" class="node">
<title>Node7</title>
<g id="a_node7"><a xlink:title=" ">
<polygon fill="white" stroke="#bfbfbf" points="94,-0.5 94,-19.5 171,-19.5 171,-0.5 94,-0.5"/>
<text text-anchor="middle" x="132.5" y="-7.5" font-family="Helvetica,sans-Serif" font-size="10.00">Eigen/Dense</text>
</a>
</g>
</g>
<!-- Node4&#45;&gt;Node7 -->
<g id="edge6" class="edge">
<title>Node4&#45;&gt;Node7</title>
<path fill="none" stroke="midnightblue" d="M253.68,-56.44C229.67,-47.44 191.67,-33.19 164.63,-23.05"/>
<polygon fill="midnightblue" stroke="midnightblue" points="165.8,-19.75 155.21,-19.52 163.34,-26.3 165.8,-19.75"/>
</g>
<!-- Node8&#45;&gt;Node4 -->
<g id="edge10" class="edge">
<title>Node8&#45;&gt;Node4</title>
<path fill="none" stroke="midnightblue" d="M155.32,-112.44C179.33,-103.44 217.33,-89.19 244.37,-79.05"/>
<polygon fill="midnightblue" stroke="midnightblue" points="245.66,-82.3 253.79,-75.52 243.2,-75.75 245.66,-82.3"/>
</g>
<!-- Node8&#45;&gt;Node6 -->
<g id="edge9" class="edge">
<title>Node8&#45;&gt;Node6</title>
<path fill="none" stroke="midnightblue" d="M143.66,-112.37C161.21,-99.07 196.68,-73.28 229.5,-56 254.56,-42.8 284.39,-31.08 307.1,-22.91"/>
<polygon fill="midnightblue" stroke="midnightblue" points="308.42,-26.16 316.68,-19.52 306.09,-19.56 308.42,-26.16"/>
</g>
<!-- Node8&#45;&gt;Node7 -->
<g id="edge8" class="edge">
<title>Node8&#45;&gt;Node7</title>
<path fill="none" stroke="midnightblue" d="M132.5,-112.37C132.5,-94.62 132.5,-53.67 132.5,-29.6"/>
<polygon fill="midnightblue" stroke="midnightblue" points="136,-29.59 132.5,-19.59 129,-29.59 136,-29.59"/>
</g>
<!-- Node9&#45;&gt;Node7 -->
<g id="edge12" class="edge">
<title>Node9&#45;&gt;Node7</title>
<path fill="none" stroke="midnightblue" d="M45.88,-112.37C61.53,-94.05 98.28,-51.05 118.52,-27.36"/>
<polygon fill="midnightblue" stroke="midnightblue" points="121.32,-29.47 125.16,-19.59 116,-24.92 121.32,-29.47"/>
</g>
<!-- Node10&#45;&gt;Node4 -->
<g id="edge14" class="edge">
<title>Node10&#45;&gt;Node4</title>
<path fill="none" stroke="midnightblue" d="M291.53,-112.08C289.12,-104.85 285.64,-94.41 282.63,-85.4"/>
<polygon fill="midnightblue" stroke="midnightblue" points="285.9,-84.13 279.42,-75.75 279.26,-86.34 285.9,-84.13"/>
</g>
<!-- Node10&#45;&gt;Node6 -->
<g id="edge15" class="edge">
<title>Node10&#45;&gt;Node6</title>
<path fill="none" stroke="midnightblue" d="M300.78,-112.41C306.98,-103.63 316.4,-89.4 322.5,-76 329.38,-60.89 334.74,-42.77 338.17,-29.5"/>
<polygon fill="midnightblue" stroke="midnightblue" points="341.6,-30.22 340.59,-19.67 334.8,-28.55 341.6,-30.22"/>
</g>
<!-- Node11&#45;&gt;Node4 -->
<g id="edge17" class="edge">
<title>Node11&#45;&gt;Node4</title>
<path fill="none" stroke="midnightblue" d="M265.15,-168.16C259.56,-155.65 251.05,-132.06 255.5,-112 257.62,-102.43 262.01,-92.48 266.22,-84.37"/>
<polygon fill="midnightblue" stroke="midnightblue" points="269.32,-86 271.12,-75.56 263.2,-82.6 269.32,-86"/>
</g>
<!-- Node11&#45;&gt;Node9 -->
<g id="edge18" class="edge">
<title>Node11&#45;&gt;Node9</title>
<path fill="none" stroke="midnightblue" d="M232.9,-168.44C192.77,-159.06 128.3,-143.99 84.72,-133.8"/>
<polygon fill="midnightblue" stroke="midnightblue" points="85.47,-130.38 74.93,-131.52 83.87,-137.2 85.47,-130.38"/>
</g>
<!-- Node11&#45;&gt;Node10 -->
<g id="edge19" class="edge">
<title>Node11&#45;&gt;Node10</title>
<path fill="none" stroke="midnightblue" d="M273.63,-168.08C277.01,-160.77 281.92,-150.18 286.12,-141.1"/>
<polygon fill="midnightblue" stroke="midnightblue" points="289.42,-142.3 290.45,-131.75 283.07,-139.36 289.42,-142.3"/>
</g>
<!-- Node12&#45;&gt;Node4 -->
<g id="edge21" class="edge">
<title>Node12&#45;&gt;Node4</title>
<path fill="none" stroke="midnightblue" d="M397.89,-168.47C383.72,-155.93 356.31,-131.87 332.5,-112 320.26,-101.78 306.28,-90.55 295.35,-81.86"/>
<polygon fill="midnightblue" stroke="midnightblue" points="297.34,-78.98 287.33,-75.51 293,-84.46 297.34,-78.98"/>
</g>
<!-- Node12&#45;&gt;Node5 -->
<g id="edge23" class="edge">
<title>Node12&#45;&gt;Node5</title>
<path fill="none" stroke="midnightblue" d="M411.69,-168.08C424.08,-141.72 460.65,-63.88 477.2,-28.66"/>
<polygon fill="midnightblue" stroke="midnightblue" points="480.39,-30.11 481.47,-19.57 474.05,-27.13 480.39,-30.11"/>
</g>
<!-- Node12&#45;&gt;Node10 -->
<g id="edge22" class="edge">
<title>Node12&#45;&gt;Node10</title>
<path fill="none" stroke="midnightblue" d="M389.59,-168.44C371.25,-159.68 342.49,-145.94 321.41,-135.86"/>
<polygon fill="midnightblue" stroke="midnightblue" points="322.85,-132.67 312.32,-131.52 319.83,-138.99 322.85,-132.67"/>
</g>
<!-- Node13&#45;&gt;Node5 -->
<g id="edge32" class="edge">
<title>Node13&#45;&gt;Node5</title>
<path fill="none" stroke="midnightblue" d="M597.83,-224.4C638.34,-205.97 722.75,-160.42 692.5,-112 654.31,-50.86 567.26,-25.75 519.1,-16.24"/>
<polygon fill="midnightblue" stroke="midnightblue" points="519.63,-12.78 509.16,-14.39 518.35,-19.66 519.63,-12.78"/>
</g>
<!-- Node13&#45;&gt;Node6 -->
<g id="edge31" class="edge">
<title>Node13&#45;&gt;Node6</title>
<path fill="none" stroke="midnightblue" d="M591.4,-224.35C621.88,-204.29 689.6,-153.18 659.5,-112 626.31,-66.59 460.15,-31.82 382.55,-17.78"/>
<polygon fill="midnightblue" stroke="midnightblue" points="383.11,-14.32 372.65,-16.01 381.88,-21.22 383.11,-14.32"/>
</g>
<!-- Node14 -->
<g id="node14" class="node">
<title>Node14</title>
<g id="a_node14"><a xlink:href="shape_8h.html" target="_top" xlink:title=" ">
<polygon fill="white" stroke="black" points="495,-168.5 495,-187.5 582,-187.5 582,-168.5 495,-168.5"/>
<text text-anchor="middle" x="538.5" y="-175.5" font-family="Helvetica,sans-Serif" font-size="10.00">shape/shape.h</text>
</a>
</g>
</g>
<!-- Node13&#45;&gt;Node14 -->
<g id="edge25" class="edge">
<title>Node13&#45;&gt;Node14</title>
<path fill="none" stroke="midnightblue" d="M571.06,-224.08C565.55,-216.46 557.47,-205.26 550.74,-195.94"/>
<polygon fill="midnightblue" stroke="midnightblue" points="553.51,-193.81 544.82,-187.75 547.84,-197.91 553.51,-193.81"/>
</g>
<!-- Node14&#45;&gt;Node4 -->
<g id="edge27" class="edge">
<title>Node14&#45;&gt;Node4</title>
<path fill="none" stroke="midnightblue" d="M517.94,-168.37C471.83,-149.01 360.02,-102.06 306.29,-79.51"/>
<polygon fill="midnightblue" stroke="midnightblue" points="307.54,-76.24 296.96,-75.59 304.83,-82.69 307.54,-76.24"/>
</g>
<!-- Node14&#45;&gt;Node5 -->
<g id="edge28" class="edge">
<title>Node14&#45;&gt;Node5</title>
<path fill="none" stroke="midnightblue" d="M535.58,-168.39C532.52,-159.34 527.61,-144.69 523.5,-132 511.73,-95.65 498.46,-52.99 491.13,-29.27"/>
<polygon fill="midnightblue" stroke="midnightblue" points="494.41,-28.05 488.12,-19.52 487.73,-30.11 494.41,-28.05"/>
</g>
<!-- Node14&#45;&gt;Node10 -->
<g id="edge26" class="edge">
<title>Node14&#45;&gt;Node10</title>
<path fill="none" stroke="midnightblue" d="M499.84,-168.44C454.49,-158.41 379.71,-141.86 334,-131.74"/>
<polygon fill="midnightblue" stroke="midnightblue" points="334.68,-128.31 324.16,-129.56 333.16,-135.14 334.68,-128.31"/>
</g>
<!-- Node15 -->
<g id="node15" class="node">
<title>Node15</title>
<g id="a_node15"><a xlink:title=" ">
<polygon fill="white" stroke="#bfbfbf" points="532.5,-112.5 532.5,-131.5 576.5,-131.5 576.5,-112.5 532.5,-112.5"/>
<text text-anchor="middle" x="554.5" y="-119.5" font-family="Helvetica,sans-Serif" font-size="10.00">string</text>
</a>
</g>
</g>
<!-- Node14&#45;&gt;Node15 -->
<g id="edge29" class="edge">
<title>Node14&#45;&gt;Node15</title>
<path fill="none" stroke="midnightblue" d="M541.14,-168.08C543.29,-160.85 546.38,-150.41 549.05,-141.4"/>
<polygon fill="midnightblue" stroke="midnightblue" points="552.42,-142.33 551.91,-131.75 545.71,-140.34 552.42,-142.33"/>
</g>
<!-- Node16 -->
<g id="node16" class="node">
<title>Node16</title>
<g id="a_node16"><a xlink:title=" ">
<polygon fill="white" stroke="#bfbfbf" points="594.5,-112.5 594.5,-131.5 650.5,-131.5 650.5,-112.5 594.5,-112.5"/>
<text text-anchor="middle" x="622.5" y="-119.5" font-family="Helvetica,sans-Serif" font-size="10.00">sstream</text>
</a>
</g>
</g>
<!-- Node14&#45;&gt;Node16 -->
<g id="edge30" class="edge">
<title>Node14&#45;&gt;Node16</title>
<path fill="none" stroke="midnightblue" d="M552,-168.32C565.1,-159.9 585.21,-146.97 600.61,-137.07"/>
<polygon fill="midnightblue" stroke="midnightblue" points="602.52,-140.01 609.04,-131.65 598.73,-134.12 602.52,-140.01"/>
</g>
<!-- Node17&#45;&gt;Node6 -->
<g id="edge35" class="edge">
<title>Node17&#45;&gt;Node6</title>
<path fill="none" stroke="midnightblue" d="M464.66,-224.29C461.78,-211.54 455.59,-187.21 446.5,-168 420.52,-113.06 377.43,-55.13 355.78,-27.52"/>
<polygon fill="midnightblue" stroke="midnightblue" points="358.51,-25.32 349.56,-19.66 353.03,-29.67 358.51,-25.32"/>
</g>
<!-- Node17&#45;&gt;Node14 -->
<g id="edge34" class="edge">
<title>Node17&#45;&gt;Node14</title>
<path fill="none" stroke="midnightblue" d="M478.07,-224.32C488.92,-216.18 505.38,-203.84 518.38,-194.09"/>
<polygon fill="midnightblue" stroke="midnightblue" points="520.82,-196.63 526.72,-187.83 516.62,-191.03 520.82,-196.63"/>
</g>
<!-- Node20&#45;&gt;Node2 -->
<g id="edge39" class="edge">
<title>Node20&#45;&gt;Node2</title>
<path fill="none" stroke="midnightblue" d="M497.46,-393.03C451.76,-383.2 374.21,-366.51 326.09,-356.16"/>
<polygon fill="midnightblue" stroke="midnightblue" points="326.8,-352.74 316.29,-354.05 325.33,-359.58 326.8,-352.74"/>
</g>
<!-- Node20&#45;&gt;Node15 -->
<g id="edge41" class="edge">
<title>Node20&#45;&gt;Node15</title>
<path fill="none" stroke="midnightblue" d="M555.14,-392.42C588,-377.23 648.5,-342.29 648.5,-291 648.5,-291 648.5,-291 648.5,-233 648.5,-189.93 606.34,-155.21 578.49,-136.98"/>
<polygon fill="midnightblue" stroke="midnightblue" points="580.35,-134.01 570.02,-131.65 576.62,-139.94 580.35,-134.01"/>
</g>
<!-- Node20&#45;&gt;Node16 -->
<g id="edge42" class="edge">
<title>Node20&#45;&gt;Node16</title>
<path fill="none" stroke="midnightblue" d="M569.37,-392.4C614.25,-379 686.5,-348.49 686.5,-291 686.5,-291 686.5,-291 686.5,-233 686.5,-195.33 658.11,-159.04 639.15,-139.01"/>
<polygon fill="midnightblue" stroke="midnightblue" points="641.45,-136.36 631.94,-131.69 636.46,-141.27 641.45,-136.36"/>
</g>
<!-- Node21 -->
<g id="node21" class="node">
<title>Node21</title>
<g id="a_node21"><a xlink:title=" ">
<polygon fill="white" stroke="#bfbfbf" points="505.5,-336.5 505.5,-355.5 563.5,-355.5 563.5,-336.5 505.5,-336.5"/>
<text text-anchor="middle" x="534.5" y="-343.5" font-family="Helvetica,sans-Serif" font-size="10.00">memory</text>
</a>
</g>
</g>
<!-- Node20&#45;&gt;Node21 -->
<g id="edge40" class="edge">
<title>Node20&#45;&gt;Node21</title>
<path fill="none" stroke="midnightblue" d="M534.5,-392.08C534.5,-385.01 534.5,-374.86 534.5,-365.99"/>
<polygon fill="midnightblue" stroke="midnightblue" points="538,-365.75 534.5,-355.75 531,-365.75 538,-365.75"/>
</g>
<!-- Node22&#45;&gt;Node3 -->
<g id="edge45" class="edge">
<title>Node22&#45;&gt;Node3</title>
<path fill="none" stroke="midnightblue" d="M368.5,-448.08C368.5,-421.95 368.5,-345.21 368.5,-309.58"/>
<polygon fill="midnightblue" stroke="midnightblue" points="372,-309.57 368.5,-299.57 365,-309.57 372,-309.57"/>
</g>
<!-- Node22&#45;&gt;Node20 -->
<g id="edge44" class="edge">
<title>Node22&#45;&gt;Node20</title>
<path fill="none" stroke="midnightblue" d="M394.8,-448.44C422.85,-439.32 467.44,-424.81 498.68,-414.65"/>
<polygon fill="midnightblue" stroke="midnightblue" points="499.89,-417.94 508.32,-411.52 497.73,-411.28 499.89,-417.94"/>
</g>
<!-- Node23&#45;&gt;Node3 -->
<g id="edge48" class="edge">
<title>Node23&#45;&gt;Node3</title>
<path fill="none" stroke="midnightblue" d="M489.62,-448.08C469.12,-421.49 408.24,-342.54 381.43,-307.76"/>
<polygon fill="midnightblue" stroke="midnightblue" points="383.98,-305.35 375.11,-299.57 378.44,-309.62 383.98,-305.35"/>
</g>
<!-- Node23&#45;&gt;Node20 -->
<g id="edge47" class="edge">
<title>Node23&#45;&gt;Node20</title>
<path fill="none" stroke="midnightblue" d="M502.77,-448.08C508.14,-440.46 516.02,-429.26 522.58,-419.94"/>
<polygon fill="midnightblue" stroke="midnightblue" points="525.45,-421.94 528.34,-411.75 519.72,-417.91 525.45,-421.94"/>
</g>
</g>
</svg>
