<?xml version="1.0" encoding="UTF-8" standalone="no"?>
<!DOCTYPE svg PUBLIC "-//W3C//DTD SVG 1.1//EN"
 "http://www.w3.org/Graphics/SVG/1.1/DTD/svg11.dtd">
<!-- Generated by graphviz version 2.43.0 (0)
 -->
<!-- Title: src/poaky/src/shape/plane.h Pages: 1 -->
<svg width="352pt" height="263pt"
 viewBox="0.00 0.00 351.59 263.00" xmlns="http://www.w3.org/2000/svg" xmlns:xlink="http://www.w3.org/1999/xlink">
<g id="graph0" class="graph" transform="scale(1 1) rotate(0) translate(4 259)">
<title>src/poaky/src/shape/plane.h</title>
<polygon fill="white" stroke="transparent" points="-4,4 -4,-259 347.59,-259 347.59,4 -4,4"/>
<!-- Node1 -->
<g id="node1" class="node">
<title>Node1</title>
<g id="a_node1"><a xlink:title=" ">
<polygon fill="#bfbfbf" stroke="black" points="104.09,-224.5 104.09,-254.5 217.09,-254.5 217.09,-224.5 104.09,-224.5"/>
<text text-anchor="start" x="112.09" y="-242.5" font-family="Helvetica,sans-Serif" font-size="10.00">src/poaky/src/shape</text>
<text text-anchor="middle" x="160.59" y="-231.5" font-family="Helvetica,sans-Serif" font-size="10.00">/plane.h</text>
</a>
</g>
</g>
<!-- Node2 -->
<g id="node2" class="node">
<title>Node2</title>
<g id="a_node2"><a xlink:href="shape_8h.html" target="_top" xlink:title=" ">
<polygon fill="white" stroke="black" points="117.09,-168.5 117.09,-187.5 204.09,-187.5 204.09,-168.5 117.09,-168.5"/>
<text text-anchor="middle" x="160.59" y="-175.5" font-family="Helvetica,sans-Serif" font-size="10.00">shape/shape.h</text>
</a>
</g>
</g>
<!-- Node1&#45;&gt;Node2 -->
<g id="edge1" class="edge">
<title>Node1&#45;&gt;Node2</title>
<path fill="none" stroke="midnightblue" d="M160.59,-224.4C160.59,-216.47 160.59,-206.46 160.59,-197.86"/>
<polygon fill="midnightblue" stroke="midnightblue" points="164.09,-197.66 160.59,-187.66 157.09,-197.66 164.09,-197.66"/>
</g>
<!-- Node5 -->
<g id="node5" class="node">
<title>Node5</title>
<g id="a_node5"><a xlink:title=" ">
<polygon fill="white" stroke="#bfbfbf" points="123.09,-0.5 123.09,-19.5 170.09,-19.5 170.09,-0.5 123.09,-0.5"/>
<text text-anchor="middle" x="146.59" y="-7.5" font-family="Helvetica,sans-Serif" font-size="10.00">cmath</text>
</a>
</g>
</g>
<!-- Node1&#45;&gt;Node5 -->
<g id="edge13" class="edge">
<title>Node1&#45;&gt;Node5</title>
<path fill="none" stroke="midnightblue" d="M122.16,-224.46C84.73,-208.46 30,-178.37 5.59,-132 -22.15,-79.28 63.52,-39.65 113.41,-21.66"/>
<polygon fill="midnightblue" stroke="midnightblue" points="114.58,-24.96 122.86,-18.36 112.27,-18.35 114.58,-24.96"/>
</g>
<!-- Node6 -->
<g id="node6" class="node">
<title>Node6</title>
<g id="a_node6"><a xlink:title=" ">
<polygon fill="white" stroke="#bfbfbf" points="283.59,-0.5 283.59,-19.5 343.59,-19.5 343.59,-0.5 283.59,-0.5"/>
<text text-anchor="middle" x="313.59" y="-7.5" font-family="Helvetica,sans-Serif" font-size="10.00">iostream</text>
</a>
</g>
</g>
<!-- Node1&#45;&gt;Node6 -->
<g id="edge12" class="edge">
<title>Node1&#45;&gt;Node6</title>
<path fill="none" stroke="midnightblue" d="M189.13,-224.47C220.76,-207.31 270.59,-175.13 295.59,-132 314.26,-99.8 315.8,-54.98 314.92,-29.91"/>
<polygon fill="midnightblue" stroke="midnightblue" points="318.4,-29.42 314.38,-19.62 311.41,-29.79 318.4,-29.42"/>
</g>
<!-- Node3 -->
<g id="node3" class="node">
<title>Node3</title>
<g id="a_node3"><a xlink:href="ray_8h.html" target="_top" xlink:title=" ">
<polygon fill="white" stroke="black" points="227.09,-112.5 227.09,-131.5 286.09,-131.5 286.09,-112.5 227.09,-112.5"/>
<text text-anchor="middle" x="256.59" y="-119.5" font-family="Helvetica,sans-Serif" font-size="10.00">ray/ray.h</text>
</a>
</g>
</g>
<!-- Node2&#45;&gt;Node3 -->
<g id="edge2" class="edge">
<title>Node2&#45;&gt;Node3</title>
<path fill="none" stroke="midnightblue" d="M176.02,-168.32C191.13,-159.82 214.41,-146.73 232.06,-136.8"/>
<polygon fill="midnightblue" stroke="midnightblue" points="234.21,-139.61 241.21,-131.65 230.78,-133.51 234.21,-139.61"/>
</g>
<!-- Node4 -->
<g id="node4" class="node">
<title>Node4</title>
<g id="a_node4"><a xlink:href="Vec3_8h.html" target="_top" xlink:title=" ">
<polygon fill="white" stroke="black" points="189.09,-56.5 189.09,-75.5 264.09,-75.5 264.09,-56.5 189.09,-56.5"/>
<text text-anchor="middle" x="226.59" y="-63.5" font-family="Helvetica,sans-Serif" font-size="10.00">base/Vec3.h</text>
</a>
</g>
</g>
<!-- Node2&#45;&gt;Node4 -->
<g id="edge8" class="edge">
<title>Node2&#45;&gt;Node4</title>
<path fill="none" stroke="midnightblue" d="M165.77,-168.37C176.62,-150.3 201.89,-108.18 216.21,-84.31"/>
<polygon fill="midnightblue" stroke="midnightblue" points="219.29,-85.97 221.44,-75.59 213.29,-82.37 219.29,-85.97"/>
</g>
<!-- Node2&#45;&gt;Node5 -->
<g id="edge9" class="edge">
<title>Node2&#45;&gt;Node5</title>
<path fill="none" stroke="midnightblue" d="M159.84,-168.08C157.64,-141.95 151.17,-65.21 148.16,-29.58"/>
<polygon fill="midnightblue" stroke="midnightblue" points="151.64,-29.24 147.32,-19.57 144.67,-29.83 151.64,-29.24"/>
</g>
<!-- Node8 -->
<g id="node8" class="node">
<title>Node8</title>
<g id="a_node8"><a xlink:title=" ">
<polygon fill="white" stroke="#bfbfbf" points="14.59,-112.5 14.59,-131.5 58.59,-131.5 58.59,-112.5 14.59,-112.5"/>
<text text-anchor="middle" x="36.59" y="-119.5" font-family="Helvetica,sans-Serif" font-size="10.00">string</text>
</a>
</g>
</g>
<!-- Node2&#45;&gt;Node8 -->
<g id="edge10" class="edge">
<title>Node2&#45;&gt;Node8</title>
<path fill="none" stroke="midnightblue" d="M140.95,-168.44C120.63,-159.6 88.69,-145.69 65.5,-135.59"/>
<polygon fill="midnightblue" stroke="midnightblue" points="66.72,-132.3 56.15,-131.52 63.92,-138.72 66.72,-132.3"/>
</g>
<!-- Node9 -->
<g id="node9" class="node">
<title>Node9</title>
<g id="a_node9"><a xlink:title=" ">
<polygon fill="white" stroke="#bfbfbf" points="76.59,-112.5 76.59,-131.5 132.59,-131.5 132.59,-112.5 76.59,-112.5"/>
<text text-anchor="middle" x="104.59" y="-119.5" font-family="Helvetica,sans-Serif" font-size="10.00">sstream</text>
</a>
</g>
</g>
<!-- Node2&#45;&gt;Node9 -->
<g id="edge11" class="edge">
<title>Node2&#45;&gt;Node9</title>
<path fill="none" stroke="midnightblue" d="M151.6,-168.32C143.4,-160.42 131.09,-148.55 121.12,-138.94"/>
<polygon fill="midnightblue" stroke="midnightblue" points="123.38,-136.26 113.75,-131.83 118.52,-141.29 123.38,-136.26"/>
</g>
<!-- Node3&#45;&gt;Node4 -->
<g id="edge3" class="edge">
<title>Node3&#45;&gt;Node4</title>
<path fill="none" stroke="midnightblue" d="M251.64,-112.08C247.49,-104.61 241.44,-93.72 236.33,-84.52"/>
<polygon fill="midnightblue" stroke="midnightblue" points="239.37,-82.79 231.46,-75.75 233.25,-86.19 239.37,-82.79"/>
</g>
<!-- Node3&#45;&gt;Node6 -->
<g id="edge7" class="edge">
<title>Node3&#45;&gt;Node6</title>
<path fill="none" stroke="midnightblue" d="M261.07,-112.37C270.39,-94.38 292.06,-52.55 304.46,-28.63"/>
<polygon fill="midnightblue" stroke="midnightblue" points="307.65,-30.08 309.14,-19.59 301.43,-26.86 307.65,-30.08"/>
</g>
<!-- Node4&#45;&gt;Node5 -->
<g id="edge4" class="edge">
<title>Node4&#45;&gt;Node5</title>
<path fill="none" stroke="midnightblue" d="M213.74,-56.32C201.38,-47.98 182.46,-35.21 167.86,-25.35"/>
<polygon fill="midnightblue" stroke="midnightblue" points="169.66,-22.35 159.41,-19.65 165.75,-28.15 169.66,-22.35"/>
</g>
<!-- Node4&#45;&gt;Node6 -->
<g id="edge5" class="edge">
<title>Node4&#45;&gt;Node6</title>
<path fill="none" stroke="midnightblue" d="M240.57,-56.32C254.14,-47.9 274.97,-34.97 290.92,-25.07"/>
<polygon fill="midnightblue" stroke="midnightblue" points="293,-27.9 299.65,-19.65 289.31,-21.95 293,-27.9"/>
</g>
<!-- Node7 -->
<g id="node7" class="node">
<title>Node7</title>
<g id="a_node7"><a xlink:title=" ">
<polygon fill="white" stroke="#bfbfbf" points="188.09,-0.5 188.09,-19.5 265.09,-19.5 265.09,-0.5 188.09,-0.5"/>
<text text-anchor="middle" x="226.59" y="-7.5" font-family="Helvetica,sans-Serif" font-size="10.00">Eigen/Dense</text>
</a>
</g>
</g>
<!-- Node4&#45;&gt;Node7 -->
<g id="edge6" class="edge">
<title>Node4&#45;&gt;Node7</title>
<path fill="none" stroke="midnightblue" d="M226.59,-56.08C226.59,-49.01 226.59,-38.86 226.59,-29.99"/>
<polygon fill="midnightblue" stroke="midnightblue" points="230.09,-29.75 226.59,-19.75 223.09,-29.75 230.09,-29.75"/>
</g>
</g>
</svg>
