<?xml version="1.0" encoding="UTF-8" standalone="no"?>
<!DOCTYPE svg PUBLIC "-//W3C//DTD SVG 1.1//EN"
 "http://www.w3.org/Graphics/SVG/1.1/DTD/svg11.dtd">
<!-- Generated by graphviz version 2.43.0 (0)
 -->
<!-- Title: src/poaky/src/poaky.h Pages: 1 -->
<svg width="664pt" height="308pt"
 viewBox="0.00 0.00 664.48 308.00" xmlns="http://www.w3.org/2000/svg" xmlns:xlink="http://www.w3.org/1999/xlink">
<g id="graph0" class="graph" transform="scale(1 1) rotate(0) translate(4 304)">
<title>src/poaky/src/poaky.h</title>
<polygon fill="white" stroke="transparent" points="-4,4 -4,-304 660.48,-304 660.48,4 -4,4"/>
<!-- Node1 -->
<g id="node1" class="node">
<title>Node1</title>
<g id="a_node1"><a xlink:title=" ">
<polygon fill="#bfbfbf" stroke="black" points="252.5,-280.5 252.5,-299.5 372.5,-299.5 372.5,-280.5 252.5,-280.5"/>
<text text-anchor="middle" x="312.5" y="-287.5" font-family="Helvetica,sans-Serif" font-size="10.00">src/poaky/src/poaky.h</text>
</a>
</g>
</g>
<!-- Node2 -->
<g id="node2" class="node">
<title>Node2</title>
<g id="a_node2"><a xlink:href="Vec3_8h.html" target="_top" xlink:title=" ">
<polygon fill="white" stroke="black" points="233,-56.5 233,-75.5 308,-75.5 308,-56.5 233,-56.5"/>
<text text-anchor="middle" x="270.5" y="-63.5" font-family="Helvetica,sans-Serif" font-size="10.00">base/Vec3.h</text>
</a>
</g>
</g>
<!-- Node1&#45;&gt;Node2 -->
<g id="edge1" class="edge">
<title>Node1&#45;&gt;Node2</title>
<path fill="none" stroke="midnightblue" d="M294.23,-280.35C266.01,-265.83 212.84,-233.6 191.5,-188 172.33,-147.02 219.37,-103.73 248.85,-81.72"/>
<polygon fill="midnightblue" stroke="midnightblue" points="251.28,-84.29 257.35,-75.6 247.19,-78.61 251.28,-84.29"/>
</g>
<!-- Node6 -->
<g id="node6" class="node">
<title>Node6</title>
<g id="a_node6"><a xlink:href="Vec2_8h.html" target="_top" xlink:title=" ">
<polygon fill="white" stroke="black" points="95,-112.5 95,-131.5 170,-131.5 170,-112.5 95,-112.5"/>
<text text-anchor="middle" x="132.5" y="-119.5" font-family="Helvetica,sans-Serif" font-size="10.00">base/Vec2.h</text>
</a>
</g>
</g>
<!-- Node1&#45;&gt;Node6 -->
<g id="edge5" class="edge">
<title>Node1&#45;&gt;Node6</title>
<path fill="none" stroke="midnightblue" d="M252.18,-285.86C220.08,-281 182.4,-269.7 158.5,-244 132.37,-215.9 130.04,-168.13 131.03,-141.8"/>
<polygon fill="midnightblue" stroke="midnightblue" points="134.53,-141.84 131.61,-131.65 127.54,-141.43 134.53,-141.84"/>
</g>
<!-- Node7 -->
<g id="node7" class="node">
<title>Node7</title>
<g id="a_node7"><a xlink:href="Mat3_8h.html" target="_top" xlink:title=" ">
<polygon fill="white" stroke="black" points="0,-112.5 0,-131.5 77,-131.5 77,-112.5 0,-112.5"/>
<text text-anchor="middle" x="38.5" y="-119.5" font-family="Helvetica,sans-Serif" font-size="10.00">base/Mat3.h</text>
</a>
</g>
</g>
<!-- Node1&#45;&gt;Node7 -->
<g id="edge9" class="edge">
<title>Node1&#45;&gt;Node7</title>
<path fill="none" stroke="midnightblue" d="M252.35,-282.26C217.85,-276.26 174.89,-265 141.5,-244 98.84,-217.17 64.62,-167.02 48.51,-140.49"/>
<polygon fill="midnightblue" stroke="midnightblue" points="51.35,-138.41 43.25,-131.58 45.32,-141.97 51.35,-138.41"/>
</g>
<!-- Node8 -->
<g id="node8" class="node">
<title>Node8</title>
<g id="a_node8"><a xlink:href="ray_8h.html" target="_top" xlink:title=" ">
<polygon fill="white" stroke="black" points="303,-112.5 303,-131.5 362,-131.5 362,-112.5 303,-112.5"/>
<text text-anchor="middle" x="332.5" y="-119.5" font-family="Helvetica,sans-Serif" font-size="10.00">ray/ray.h</text>
</a>
</g>
</g>
<!-- Node1&#45;&gt;Node8 -->
<g id="edge11" class="edge">
<title>Node1&#45;&gt;Node8</title>
<path fill="none" stroke="midnightblue" d="M313.58,-280.08C316.72,-253.95 325.97,-177.21 330.26,-141.58"/>
<polygon fill="midnightblue" stroke="midnightblue" points="333.75,-141.92 331.47,-131.57 326.8,-141.08 333.75,-141.92"/>
</g>
<!-- Node9 -->
<g id="node9" class="node">
<title>Node9</title>
<g id="a_node9"><a xlink:href="transfer_8h.html" target="_top" xlink:title=" ">
<polygon fill="white" stroke="black" points="200.5,-168.5 200.5,-187.5 304.5,-187.5 304.5,-168.5 200.5,-168.5"/>
<text text-anchor="middle" x="252.5" y="-175.5" font-family="Helvetica,sans-Serif" font-size="10.00">transfer/transfer.h</text>
</a>
</g>
</g>
<!-- Node1&#45;&gt;Node9 -->
<g id="edge14" class="edge">
<title>Node1&#45;&gt;Node9</title>
<path fill="none" stroke="midnightblue" d="M307.79,-280.37C297.98,-262.38 275.16,-220.55 262.11,-196.63"/>
<polygon fill="midnightblue" stroke="midnightblue" points="265.05,-194.69 257.19,-187.59 258.9,-198.05 265.05,-194.69"/>
</g>
<!-- Node10 -->
<g id="node10" class="node">
<title>Node10</title>
<g id="a_node10"><a xlink:href="rop_8h.html" target="_top" xlink:title=" ">
<polygon fill="white" stroke="black" points="360.5,-168.5 360.5,-187.5 420.5,-187.5 420.5,-168.5 360.5,-168.5"/>
<text text-anchor="middle" x="390.5" y="-175.5" font-family="Helvetica,sans-Serif" font-size="10.00">rop/rop.h</text>
</a>
</g>
</g>
<!-- Node1&#45;&gt;Node10 -->
<g id="edge18" class="edge">
<title>Node1&#45;&gt;Node10</title>
<path fill="none" stroke="midnightblue" d="M319.15,-280.47C326.11,-271.49 337.27,-256.9 346.5,-244 357.99,-227.95 370.56,-209.25 379.31,-196.04"/>
<polygon fill="midnightblue" stroke="midnightblue" points="382.36,-197.78 384.94,-187.51 376.51,-193.93 382.36,-197.78"/>
</g>
<!-- Node11 -->
<g id="node11" class="node">
<title>Node11</title>
<g id="a_node11"><a xlink:href="plane_8h.html" target="_top" xlink:title=" ">
<polygon fill="white" stroke="black" points="566,-224.5 566,-243.5 651,-243.5 651,-224.5 566,-224.5"/>
<text text-anchor="middle" x="608.5" y="-231.5" font-family="Helvetica,sans-Serif" font-size="10.00">shape/plane.h</text>
</a>
</g>
</g>
<!-- Node1&#45;&gt;Node11 -->
<g id="edge22" class="edge">
<title>Node1&#45;&gt;Node11</title>
<path fill="none" stroke="midnightblue" d="M359.4,-280.44C412.81,-270.7 499.86,-254.82 555.63,-244.65"/>
<polygon fill="midnightblue" stroke="midnightblue" points="556.45,-248.05 565.66,-242.82 555.2,-241.17 556.45,-248.05"/>
</g>
<!-- Node15 -->
<g id="node15" class="node">
<title>Node15</title>
<g id="a_node15"><a xlink:href="standard_8h.html" target="_top" xlink:title=" ">
<polygon fill="white" stroke="black" points="416,-224.5 416,-243.5 517,-243.5 517,-224.5 416,-224.5"/>
<text text-anchor="middle" x="466.5" y="-231.5" font-family="Helvetica,sans-Serif" font-size="10.00">shape/standard.h</text>
</a>
</g>
</g>
<!-- Node1&#45;&gt;Node15 -->
<g id="edge31" class="edge">
<title>Node1&#45;&gt;Node15</title>
<path fill="none" stroke="midnightblue" d="M336.9,-280.44C362.7,-271.4 403.58,-257.06 432.52,-246.92"/>
<polygon fill="midnightblue" stroke="midnightblue" points="433.93,-250.13 442.21,-243.52 431.62,-243.52 433.93,-250.13"/>
</g>
<!-- Node3 -->
<g id="node3" class="node">
<title>Node3</title>
<g id="a_node3"><a xlink:title=" ">
<polygon fill="white" stroke="#bfbfbf" points="548,-0.5 548,-19.5 595,-19.5 595,-0.5 548,-0.5"/>
<text text-anchor="middle" x="571.5" y="-7.5" font-family="Helvetica,sans-Serif" font-size="10.00">cmath</text>
</a>
</g>
</g>
<!-- Node2&#45;&gt;Node3 -->
<g id="edge2" class="edge">
<title>Node2&#45;&gt;Node3</title>
<path fill="none" stroke="midnightblue" d="M308.01,-58.27C367.21,-47.65 481.36,-27.17 537.98,-17.01"/>
<polygon fill="midnightblue" stroke="midnightblue" points="538.63,-20.45 547.85,-15.24 537.39,-13.56 538.63,-20.45"/>
</g>
<!-- Node4 -->
<g id="node4" class="node">
<title>Node4</title>
<g id="a_node4"><a xlink:title=" ">
<polygon fill="white" stroke="#bfbfbf" points="306.5,-0.5 306.5,-19.5 366.5,-19.5 366.5,-0.5 306.5,-0.5"/>
<text text-anchor="middle" x="336.5" y="-7.5" font-family="Helvetica,sans-Serif" font-size="10.00">iostream</text>
</a>
</g>
</g>
<!-- Node2&#45;&gt;Node4 -->
<g id="edge3" class="edge">
<title>Node2&#45;&gt;Node4</title>
<path fill="none" stroke="midnightblue" d="M281.1,-56.32C290.96,-48.26 305.85,-36.08 317.72,-26.37"/>
<polygon fill="midnightblue" stroke="midnightblue" points="320.18,-28.88 325.7,-19.83 315.75,-23.46 320.18,-28.88"/>
</g>
<!-- Node5 -->
<g id="node5" class="node">
<title>Node5</title>
<g id="a_node5"><a xlink:title=" ">
<polygon fill="white" stroke="#bfbfbf" points="94,-0.5 94,-19.5 171,-19.5 171,-0.5 94,-0.5"/>
<text text-anchor="middle" x="132.5" y="-7.5" font-family="Helvetica,sans-Serif" font-size="10.00">Eigen/Dense</text>
</a>
</g>
</g>
<!-- Node2&#45;&gt;Node5 -->
<g id="edge4" class="edge">
<title>Node2&#45;&gt;Node5</title>
<path fill="none" stroke="midnightblue" d="M248.63,-56.44C225.72,-47.48 189.52,-33.31 163.63,-23.18"/>
<polygon fill="midnightblue" stroke="midnightblue" points="164.85,-19.9 154.26,-19.52 162.3,-26.42 164.85,-19.9"/>
</g>
<!-- Node6&#45;&gt;Node2 -->
<g id="edge8" class="edge">
<title>Node6&#45;&gt;Node2</title>
<path fill="none" stroke="midnightblue" d="M154.37,-112.44C177.28,-103.48 213.48,-89.31 239.37,-79.18"/>
<polygon fill="midnightblue" stroke="midnightblue" points="240.7,-82.42 248.74,-75.52 238.15,-75.9 240.7,-82.42"/>
</g>
<!-- Node6&#45;&gt;Node4 -->
<g id="edge7" class="edge">
<title>Node6&#45;&gt;Node4</title>
<path fill="none" stroke="midnightblue" d="M142.87,-112.31C159.21,-98.92 192.31,-73.02 223.5,-56 248.04,-42.6 277.43,-31.03 300.08,-22.97"/>
<polygon fill="midnightblue" stroke="midnightblue" points="301.36,-26.23 309.65,-19.63 299.06,-19.62 301.36,-26.23"/>
</g>
<!-- Node6&#45;&gt;Node5 -->
<g id="edge6" class="edge">
<title>Node6&#45;&gt;Node5</title>
<path fill="none" stroke="midnightblue" d="M132.5,-112.37C132.5,-94.62 132.5,-53.67 132.5,-29.6"/>
<polygon fill="midnightblue" stroke="midnightblue" points="136,-29.59 132.5,-19.59 129,-29.59 136,-29.59"/>
</g>
<!-- Node7&#45;&gt;Node5 -->
<g id="edge10" class="edge">
<title>Node7&#45;&gt;Node5</title>
<path fill="none" stroke="midnightblue" d="M45.88,-112.37C61.53,-94.05 98.28,-51.05 118.52,-27.36"/>
<polygon fill="midnightblue" stroke="midnightblue" points="121.32,-29.47 125.16,-19.59 116,-24.92 121.32,-29.47"/>
</g>
<!-- Node8&#45;&gt;Node2 -->
<g id="edge12" class="edge">
<title>Node8&#45;&gt;Node2</title>
<path fill="none" stroke="midnightblue" d="M322.54,-112.32C313.37,-104.34 299.56,-92.31 288.47,-82.65"/>
<polygon fill="midnightblue" stroke="midnightblue" points="290.48,-79.76 280.64,-75.83 285.88,-85.04 290.48,-79.76"/>
</g>
<!-- Node8&#45;&gt;Node4 -->
<g id="edge13" class="edge">
<title>Node8&#45;&gt;Node4</title>
<path fill="none" stroke="midnightblue" d="M332.81,-112.37C333.46,-94.62 334.95,-53.67 335.82,-29.6"/>
<polygon fill="midnightblue" stroke="midnightblue" points="339.32,-29.71 336.19,-19.59 332.33,-29.46 339.32,-29.71"/>
</g>
<!-- Node9&#45;&gt;Node2 -->
<g id="edge15" class="edge">
<title>Node9&#45;&gt;Node2</title>
<path fill="none" stroke="midnightblue" d="M253.32,-168.13C254.54,-155.58 257.06,-131.94 260.5,-112 262.01,-103.22 264.1,-93.56 265.98,-85.45"/>
<polygon fill="midnightblue" stroke="midnightblue" points="269.42,-86.12 268.34,-75.58 262.61,-84.49 269.42,-86.12"/>
</g>
<!-- Node9&#45;&gt;Node7 -->
<g id="edge16" class="edge">
<title>Node9&#45;&gt;Node7</title>
<path fill="none" stroke="midnightblue" d="M218.59,-168.44C181.65,-159.12 122.45,-144.18 82.08,-134"/>
<polygon fill="midnightblue" stroke="midnightblue" points="82.8,-130.57 72.25,-131.52 81.09,-137.36 82.8,-130.57"/>
</g>
<!-- Node9&#45;&gt;Node8 -->
<g id="edge17" class="edge">
<title>Node9&#45;&gt;Node8</title>
<path fill="none" stroke="midnightblue" d="M265.35,-168.32C277.72,-159.98 296.63,-147.21 311.24,-137.35"/>
<polygon fill="midnightblue" stroke="midnightblue" points="313.35,-140.15 319.68,-131.65 309.43,-134.35 313.35,-140.15"/>
</g>
<!-- Node10&#45;&gt;Node2 -->
<g id="edge19" class="edge">
<title>Node10&#45;&gt;Node2</title>
<path fill="none" stroke="midnightblue" d="M360.48,-169.78C339.15,-163.21 311.24,-151.5 293.5,-132 281.8,-119.15 275.98,-99.96 273.12,-85.77"/>
<polygon fill="midnightblue" stroke="midnightblue" points="276.53,-84.94 271.42,-75.67 269.63,-86.11 276.53,-84.94"/>
</g>
<!-- Node10&#45;&gt;Node3 -->
<g id="edge21" class="edge">
<title>Node10&#45;&gt;Node3</title>
<path fill="none" stroke="midnightblue" d="M400.23,-168.08C429.59,-141.15 517.51,-60.51 554.65,-26.45"/>
<polygon fill="midnightblue" stroke="midnightblue" points="557.15,-28.91 562.16,-19.57 552.42,-23.75 557.15,-28.91"/>
</g>
<!-- Node10&#45;&gt;Node8 -->
<g id="edge20" class="edge">
<title>Node10&#45;&gt;Node8</title>
<path fill="none" stroke="midnightblue" d="M381.18,-168.32C372.61,-160.34 359.69,-148.31 349.31,-138.65"/>
<polygon fill="midnightblue" stroke="midnightblue" points="351.69,-136.09 341.99,-131.83 346.92,-141.21 351.69,-136.09"/>
</g>
<!-- Node11&#45;&gt;Node3 -->
<g id="edge30" class="edge">
<title>Node11&#45;&gt;Node3</title>
<path fill="none" stroke="midnightblue" d="M622.29,-224.19C633.33,-216.24 648,-203.45 654.5,-188 657.95,-179.81 655.51,-176.83 654.5,-168 648.68,-117.23 655.87,-99.15 628.5,-56 620.51,-43.4 607.72,-32.83 596.28,-25.11"/>
<polygon fill="midnightblue" stroke="midnightblue" points="597.83,-21.95 587.51,-19.54 594.08,-27.86 597.83,-21.95"/>
</g>
<!-- Node11&#45;&gt;Node4 -->
<g id="edge29" class="edge">
<title>Node11&#45;&gt;Node4</title>
<path fill="none" stroke="midnightblue" d="M612.97,-224.41C623.35,-203.14 646.37,-147.2 621.5,-112 565.4,-32.6 441.32,-15.22 376.98,-11.68"/>
<polygon fill="midnightblue" stroke="midnightblue" points="376.96,-8.18 366.81,-11.21 376.63,-15.17 376.96,-8.18"/>
</g>
<!-- Node12 -->
<g id="node12" class="node">
<title>Node12</title>
<g id="a_node12"><a xlink:href="shape_8h.html" target="_top" xlink:title=" ">
<polygon fill="white" stroke="black" points="495,-168.5 495,-187.5 582,-187.5 582,-168.5 495,-168.5"/>
<text text-anchor="middle" x="538.5" y="-175.5" font-family="Helvetica,sans-Serif" font-size="10.00">shape/shape.h</text>
</a>
</g>
</g>
<!-- Node11&#45;&gt;Node12 -->
<g id="edge23" class="edge">
<title>Node11&#45;&gt;Node12</title>
<path fill="none" stroke="midnightblue" d="M597.25,-224.32C586.7,-216.18 570.7,-203.84 558.06,-194.09"/>
<polygon fill="midnightblue" stroke="midnightblue" points="560.01,-191.17 549.95,-187.83 555.73,-196.71 560.01,-191.17"/>
</g>
<!-- Node12&#45;&gt;Node2 -->
<g id="edge25" class="edge">
<title>Node12&#45;&gt;Node2</title>
<path fill="none" stroke="midnightblue" d="M517.47,-168.37C470.31,-149.01 355.93,-102.06 300.97,-79.51"/>
<polygon fill="midnightblue" stroke="midnightblue" points="302.01,-76.15 291.43,-75.59 299.35,-82.63 302.01,-76.15"/>
</g>
<!-- Node12&#45;&gt;Node3 -->
<g id="edge26" class="edge">
<title>Node12&#45;&gt;Node3</title>
<path fill="none" stroke="midnightblue" d="M570.68,-168.49C589.04,-161.8 610.52,-150.45 621.5,-132 642.51,-96.71 608.95,-50.95 587.39,-27.09"/>
<polygon fill="midnightblue" stroke="midnightblue" points="589.77,-24.51 580.37,-19.61 584.66,-29.3 589.77,-24.51"/>
</g>
<!-- Node12&#45;&gt;Node8 -->
<g id="edge24" class="edge">
<title>Node12&#45;&gt;Node8</title>
<path fill="none" stroke="midnightblue" d="M505.86,-168.44C469.62,-158.94 411.11,-143.61 372.24,-133.42"/>
<polygon fill="midnightblue" stroke="midnightblue" points="372.87,-129.97 362.31,-130.82 371.1,-136.74 372.87,-129.97"/>
</g>
<!-- Node13 -->
<g id="node13" class="node">
<title>Node13</title>
<g id="a_node13"><a xlink:title=" ">
<polygon fill="white" stroke="#bfbfbf" points="494.5,-112.5 494.5,-131.5 538.5,-131.5 538.5,-112.5 494.5,-112.5"/>
<text text-anchor="middle" x="516.5" y="-119.5" font-family="Helvetica,sans-Serif" font-size="10.00">string</text>
</a>
</g>
</g>
<!-- Node12&#45;&gt;Node13 -->
<g id="edge27" class="edge">
<title>Node12&#45;&gt;Node13</title>
<path fill="none" stroke="midnightblue" d="M534.87,-168.08C531.89,-160.77 527.57,-150.18 523.88,-141.1"/>
<polygon fill="midnightblue" stroke="midnightblue" points="527.08,-139.69 520.07,-131.75 520.6,-142.33 527.08,-139.69"/>
</g>
<!-- Node14 -->
<g id="node14" class="node">
<title>Node14</title>
<g id="a_node14"><a xlink:title=" ">
<polygon fill="white" stroke="#bfbfbf" points="556.5,-112.5 556.5,-131.5 612.5,-131.5 612.5,-112.5 556.5,-112.5"/>
<text text-anchor="middle" x="584.5" y="-119.5" font-family="Helvetica,sans-Serif" font-size="10.00">sstream</text>
</a>
</g>
</g>
<!-- Node12&#45;&gt;Node14 -->
<g id="edge28" class="edge">
<title>Node12&#45;&gt;Node14</title>
<path fill="none" stroke="midnightblue" d="M546.1,-168.08C552.73,-160.3 562.52,-148.8 570.56,-139.37"/>
<polygon fill="midnightblue" stroke="midnightblue" points="573.23,-141.63 577.05,-131.75 567.9,-137.09 573.23,-141.63"/>
</g>
<!-- Node15&#45;&gt;Node4 -->
<g id="edge33" class="edge">
<title>Node15&#45;&gt;Node4</title>
<path fill="none" stroke="midnightblue" d="M461.52,-224.14C454.46,-211.6 441.11,-187.99 429.5,-168 400.04,-117.27 364.54,-57.79 347.15,-28.76"/>
<polygon fill="midnightblue" stroke="midnightblue" points="349.94,-26.6 341.8,-19.82 343.94,-30.2 349.94,-26.6"/>
</g>
<!-- Node15&#45;&gt;Node12 -->
<g id="edge32" class="edge">
<title>Node15&#45;&gt;Node12</title>
<path fill="none" stroke="midnightblue" d="M478.07,-224.32C488.92,-216.18 505.38,-203.84 518.38,-194.09"/>
<polygon fill="midnightblue" stroke="midnightblue" points="520.82,-196.63 526.72,-187.83 516.62,-191.03 520.82,-196.63"/>
</g>
</g>
</svg>
