<?xml version="1.0" encoding="UTF-8" standalone="no"?>
<!DOCTYPE svg PUBLIC "-//W3C//DTD SVG 1.1//EN"
 "http://www.w3.org/Graphics/SVG/1.1/DTD/svg11.dtd">
<!-- Generated by graphviz version 2.43.0 (0)
 -->
<!-- Title: src/pewit/src/ray_pack.h Pages: 1 -->
<svg width="357pt" height="341pt"
 viewBox="0.00 0.00 357.00 341.00" xmlns="http://www.w3.org/2000/svg" xmlns:xlink="http://www.w3.org/1999/xlink">
<g id="graph0" class="graph" transform="scale(1 1) rotate(0) translate(4 337)">
<title>src/pewit/src/ray_pack.h</title>
<polygon fill="white" stroke="transparent" points="-4,4 -4,-337 353,-337 353,4 -4,4"/>
<!-- Node1 -->
<g id="node1" class="node">
<title>Node1</title>
<g id="a_node1"><a xlink:title=" ">
<polygon fill="#bfbfbf" stroke="black" points="160.5,-313.5 160.5,-332.5 294.5,-332.5 294.5,-313.5 160.5,-313.5"/>
<text text-anchor="middle" x="227.5" y="-320.5" font-family="Helvetica,sans-Serif" font-size="10.00">src/pewit/src/ray_pack.h</text>
</a>
</g>
</g>
<!-- Node2 -->
<g id="node2" class="node">
<title>Node2</title>
<g id="a_node2"><a xlink:href="lseq__rays_8h.html" target="_top" xlink:title=" ">
<polygon fill="white" stroke="black" points="0,-168.5 0,-198.5 105,-198.5 105,-168.5 0,-168.5"/>
<text text-anchor="start" x="8" y="-186.5" font-family="Helvetica,sans-Serif" font-size="10.00">src/pewit/src/lseq</text>
<text text-anchor="middle" x="52.5" y="-175.5" font-family="Helvetica,sans-Serif" font-size="10.00">_input/lseq_rays.h</text>
</a>
</g>
</g>
<!-- Node1&#45;&gt;Node2 -->
<g id="edge1" class="edge">
<title>Node1&#45;&gt;Node2</title>
<path fill="none" stroke="midnightblue" d="M150.18,-315.5C97.43,-309.27 34.21,-297.67 17.5,-277 -1.61,-253.37 22.44,-218.19 39.1,-198.74"/>
<polygon fill="midnightblue" stroke="midnightblue" points="149.91,-318.99 160.24,-316.64 150.69,-312.03 149.91,-318.99"/>
</g>
<!-- Node4 -->
<g id="node4" class="node">
<title>Node4</title>
<g id="a_node4"><a xlink:href="pewit_8h.html" target="_top" xlink:title=" ">
<polygon fill="white" stroke="black" points="232,-56.5 232,-75.5 349,-75.5 349,-56.5 232,-56.5"/>
<text text-anchor="middle" x="290.5" y="-63.5" font-family="Helvetica,sans-Serif" font-size="10.00">src/pewit/src/pewit.h</text>
</a>
</g>
</g>
<!-- Node1&#45;&gt;Node4 -->
<g id="edge11" class="edge">
<title>Node1&#45;&gt;Node4</title>
<path fill="none" stroke="midnightblue" d="M272,-309.81C288.29,-302.95 305.04,-292.54 314.5,-277 355.71,-209.29 310.29,-106.34 295.09,-75.82"/>
<polygon fill="midnightblue" stroke="midnightblue" points="270.6,-306.6 262.51,-313.45 273.1,-313.13 270.6,-306.6"/>
</g>
<!-- Node6 -->
<g id="node6" class="node">
<title>Node6</title>
<g id="a_node6"><a xlink:href="lseq__part_8h.html" target="_top" xlink:title=" ">
<polygon fill="white" stroke="black" points="177,-168.5 177,-198.5 278,-198.5 278,-168.5 177,-168.5"/>
<text text-anchor="start" x="185" y="-186.5" font-family="Helvetica,sans-Serif" font-size="10.00">src/pewit/src/lseq</text>
<text text-anchor="middle" x="227.5" y="-175.5" font-family="Helvetica,sans-Serif" font-size="10.00">_part.h</text>
</a>
</g>
</g>
<!-- Node1&#45;&gt;Node6 -->
<g id="edge5" class="edge">
<title>Node1&#45;&gt;Node6</title>
<path fill="none" stroke="midnightblue" d="M261.32,-308.96C275.14,-301.76 289.68,-291.32 297.5,-277 306.44,-260.62 306,-251.62 297.5,-235 289.31,-218.99 273.42,-206.89 258.84,-198.56"/>
<polygon fill="midnightblue" stroke="midnightblue" points="259.48,-305.97 251.97,-313.44 262.5,-312.28 259.48,-305.97"/>
</g>
<!-- Node7 -->
<g id="node7" class="node">
<title>Node7</title>
<g id="a_node7"><a xlink:href="lseq__part__global__rays_8h.html" target="_top" xlink:title=" ">
<polygon fill="white" stroke="black" points="26.5,-235.5 26.5,-276.5 148.5,-276.5 148.5,-235.5 26.5,-235.5"/>
<text text-anchor="start" x="34.5" y="-264.5" font-family="Helvetica,sans-Serif" font-size="10.00">src/pewit/src/lseq</text>
<text text-anchor="start" x="34.5" y="-253.5" font-family="Helvetica,sans-Serif" font-size="10.00">_part_result/lseq_part</text>
<text text-anchor="middle" x="87.5" y="-242.5" font-family="Helvetica,sans-Serif" font-size="10.00">_global_rays.h</text>
</a>
</g>
</g>
<!-- Node1&#45;&gt;Node7 -->
<g id="edge7" class="edge">
<title>Node1&#45;&gt;Node7</title>
<path fill="none" stroke="midnightblue" d="M199.74,-309.11C179.76,-299.84 152.45,-287.16 129.77,-276.63"/>
<polygon fill="midnightblue" stroke="midnightblue" points="198.37,-312.33 208.91,-313.37 201.31,-305.98 198.37,-312.33"/>
</g>
<!-- Node8 -->
<g id="node8" class="node">
<title>Node8</title>
<g id="a_node8"><a xlink:href="lseq__part__rays_8h.html" target="_top" xlink:title=" ">
<polygon fill="white" stroke="black" points="166.5,-235.5 166.5,-276.5 288.5,-276.5 288.5,-235.5 166.5,-235.5"/>
<text text-anchor="start" x="174.5" y="-264.5" font-family="Helvetica,sans-Serif" font-size="10.00">src/pewit/src/lseq</text>
<text text-anchor="start" x="174.5" y="-253.5" font-family="Helvetica,sans-Serif" font-size="10.00">_part_result/lseq_part</text>
<text text-anchor="middle" x="227.5" y="-242.5" font-family="Helvetica,sans-Serif" font-size="10.00">_rays.h</text>
</a>
</g>
</g>
<!-- Node1&#45;&gt;Node8 -->
<g id="edge9" class="edge">
<title>Node1&#45;&gt;Node8</title>
<path fill="none" stroke="midnightblue" d="M227.5,-303.04C227.5,-294.71 227.5,-284.94 227.5,-276.54"/>
<polygon fill="midnightblue" stroke="midnightblue" points="224,-303.23 227.5,-313.23 231,-303.23 224,-303.23"/>
</g>
<!-- Node3 -->
<g id="node3" class="node">
<title>Node3</title>
<g id="a_node3"><a xlink:href="lseq_8h.html" target="_top" xlink:title=" ">
<polygon fill="white" stroke="black" points="172.5,-112.5 172.5,-131.5 282.5,-131.5 282.5,-112.5 172.5,-112.5"/>
<text text-anchor="middle" x="227.5" y="-119.5" font-family="Helvetica,sans-Serif" font-size="10.00">src/pewit/src/lseq.h</text>
</a>
</g>
</g>
<!-- Node2&#45;&gt;Node3 -->
<g id="edge2" class="edge">
<title>Node2&#45;&gt;Node3</title>
<path fill="none" stroke="midnightblue" d="M103.75,-165.08C136.16,-154.05 176.64,-140.29 202.29,-131.57"/>
<polygon fill="midnightblue" stroke="midnightblue" points="102.31,-161.87 93.97,-168.4 104.57,-168.49 102.31,-161.87"/>
</g>
<!-- Node3&#45;&gt;Node4 -->
<g id="edge3" class="edge">
<title>Node3&#45;&gt;Node4</title>
<path fill="none" stroke="midnightblue" d="M245.54,-105.54C256.77,-95.91 270.82,-83.87 280.19,-75.83"/>
<polygon fill="midnightblue" stroke="midnightblue" points="242.94,-103.16 237.62,-112.32 247.49,-108.47 242.94,-103.16"/>
</g>
<!-- Node5 -->
<g id="node5" class="node">
<title>Node5</title>
<g id="a_node5"><a xlink:href="robintrace_8h.html" target="_top" xlink:title=" ">
<polygon fill="white" stroke="black" points="234,-0.5 234,-19.5 347,-19.5 347,-0.5 234,-0.5"/>
<text text-anchor="middle" x="290.5" y="-7.5" font-family="Helvetica,sans-Serif" font-size="10.00">include/robintrace.h</text>
</a>
</g>
</g>
<!-- Node4&#45;&gt;Node5 -->
<g id="edge4" class="edge">
<title>Node4&#45;&gt;Node5</title>
<path fill="none" stroke="midnightblue" d="M290.5,-45.8C290.5,-36.91 290.5,-26.78 290.5,-19.75"/>
<polygon fill="midnightblue" stroke="midnightblue" points="287,-46.08 290.5,-56.08 294,-46.08 287,-46.08"/>
</g>
<!-- Node6&#45;&gt;Node3 -->
<g id="edge6" class="edge">
<title>Node6&#45;&gt;Node3</title>
<path fill="none" stroke="midnightblue" d="M227.5,-158.29C227.5,-148.86 227.5,-138.65 227.5,-131.66"/>
<polygon fill="midnightblue" stroke="midnightblue" points="224,-158.4 227.5,-168.4 231,-158.4 224,-158.4"/>
</g>
<!-- Node7&#45;&gt;Node6 -->
<g id="edge8" class="edge">
<title>Node7&#45;&gt;Node6</title>
<path fill="none" stroke="midnightblue" d="M135.7,-230.73C156.93,-220.04 181.14,-207.85 199.36,-198.67"/>
<polygon fill="midnightblue" stroke="midnightblue" points="133.86,-227.74 126.5,-235.36 137,-233.99 133.86,-227.74"/>
</g>
<!-- Node8&#45;&gt;Node6 -->
<g id="edge10" class="edge">
<title>Node8&#45;&gt;Node6</title>
<path fill="none" stroke="midnightblue" d="M227.5,-225.08C227.5,-216.01 227.5,-206.45 227.5,-198.89"/>
<polygon fill="midnightblue" stroke="midnightblue" points="224,-225.36 227.5,-235.36 231,-225.36 224,-225.36"/>
</g>
</g>
</svg>
