<?xml version="1.0" encoding="UTF-8" standalone="no"?>
<!DOCTYPE svg PUBLIC "-//W3C//DTD SVG 1.1//EN"
 "http://www.w3.org/Graphics/SVG/1.1/DTD/svg11.dtd">
<!-- Generated by graphviz version 2.43.0 (0)
 -->
<!-- Title: src/poaky/src/ray/ray.h Pages: 1 -->
<svg width="229pt" height="140pt"
 viewBox="0.00 0.00 228.50 140.00" xmlns="http://www.w3.org/2000/svg" xmlns:xlink="http://www.w3.org/1999/xlink">
<g id="graph0" class="graph" transform="scale(1 1) rotate(0) translate(4 136)">
<title>src/poaky/src/ray/ray.h</title>
<polygon fill="white" stroke="transparent" points="-4,4 -4,-136 224.5,-136 224.5,4 -4,4"/>
<!-- Node1 -->
<g id="node1" class="node">
<title>Node1</title>
<g id="a_node1"><a xlink:title=" ">
<polygon fill="#bfbfbf" stroke="black" points="84,-112.5 84,-131.5 209,-131.5 209,-112.5 84,-112.5"/>
<text text-anchor="middle" x="146.5" y="-119.5" font-family="Helvetica,sans-Serif" font-size="10.00">src/poaky/src/ray/ray.h</text>
</a>
</g>
</g>
<!-- Node2 -->
<g id="node2" class="node">
<title>Node2</title>
<g id="a_node2"><a xlink:href="Vec3_8h.html" target="_top" xlink:title=" ">
<polygon fill="white" stroke="black" points="76,-56.5 76,-75.5 151,-75.5 151,-56.5 76,-56.5"/>
<text text-anchor="middle" x="113.5" y="-63.5" font-family="Helvetica,sans-Serif" font-size="10.00">base/Vec3.h</text>
</a>
</g>
</g>
<!-- Node1&#45;&gt;Node2 -->
<g id="edge1" class="edge">
<title>Node1&#45;&gt;Node2</title>
<path fill="none" stroke="midnightblue" d="M141.05,-112.08C136.49,-104.61 129.83,-93.72 124.21,-84.52"/>
<polygon fill="midnightblue" stroke="midnightblue" points="127.05,-82.46 118.85,-75.75 121.08,-86.11 127.05,-82.46"/>
</g>
<!-- Node4 -->
<g id="node4" class="node">
<title>Node4</title>
<g id="a_node4"><a xlink:title=" ">
<polygon fill="white" stroke="#bfbfbf" points="160.5,-0.5 160.5,-19.5 220.5,-19.5 220.5,-0.5 160.5,-0.5"/>
<text text-anchor="middle" x="190.5" y="-7.5" font-family="Helvetica,sans-Serif" font-size="10.00">iostream</text>
</a>
</g>
</g>
<!-- Node1&#45;&gt;Node4 -->
<g id="edge5" class="edge">
<title>Node1&#45;&gt;Node4</title>
<path fill="none" stroke="midnightblue" d="M149.95,-112.37C157.12,-94.46 173.73,-52.92 183.32,-28.95"/>
<polygon fill="midnightblue" stroke="midnightblue" points="186.6,-30.18 187.06,-19.59 180.1,-27.58 186.6,-30.18"/>
</g>
<!-- Node3 -->
<g id="node3" class="node">
<title>Node3</title>
<g id="a_node3"><a xlink:title=" ">
<polygon fill="white" stroke="#bfbfbf" points="0,-0.5 0,-19.5 47,-19.5 47,-0.5 0,-0.5"/>
<text text-anchor="middle" x="23.5" y="-7.5" font-family="Helvetica,sans-Serif" font-size="10.00">cmath</text>
</a>
</g>
</g>
<!-- Node2&#45;&gt;Node3 -->
<g id="edge2" class="edge">
<title>Node2&#45;&gt;Node3</title>
<path fill="none" stroke="midnightblue" d="M99.04,-56.32C85,-47.9 63.45,-34.97 46.96,-25.07"/>
<polygon fill="midnightblue" stroke="midnightblue" points="48.3,-21.8 37.92,-19.65 44.7,-27.8 48.3,-21.8"/>
</g>
<!-- Node2&#45;&gt;Node4 -->
<g id="edge3" class="edge">
<title>Node2&#45;&gt;Node4</title>
<path fill="none" stroke="midnightblue" d="M125.87,-56.32C137.66,-48.06 155.63,-35.45 169.64,-25.63"/>
<polygon fill="midnightblue" stroke="midnightblue" points="171.98,-28.26 178.16,-19.65 167.96,-22.53 171.98,-28.26"/>
</g>
<!-- Node5 -->
<g id="node5" class="node">
<title>Node5</title>
<g id="a_node5"><a xlink:title=" ">
<polygon fill="white" stroke="#bfbfbf" points="65,-0.5 65,-19.5 142,-19.5 142,-0.5 65,-0.5"/>
<text text-anchor="middle" x="103.5" y="-7.5" font-family="Helvetica,sans-Serif" font-size="10.00">Eigen/Dense</text>
</a>
</g>
</g>
<!-- Node2&#45;&gt;Node5 -->
<g id="edge4" class="edge">
<title>Node2&#45;&gt;Node5</title>
<path fill="none" stroke="midnightblue" d="M111.85,-56.08C110.52,-48.93 108.62,-38.64 106.96,-29.69"/>
<polygon fill="midnightblue" stroke="midnightblue" points="110.38,-28.95 105.12,-19.75 103.5,-30.22 110.38,-28.95"/>
</g>
</g>
</svg>
