<?xml version="1.0" encoding="UTF-8" standalone="no"?>
<!DOCTYPE svg PUBLIC "-//W3C//DTD SVG 1.1//EN"
 "http://www.w3.org/Graphics/SVG/1.1/DTD/svg11.dtd">
<!-- Generated by graphviz version 2.43.0 (0)
 -->
<!-- Title: src/poaky/src/ray/ray.h Pages: 1 -->
<svg width="602pt" height="844pt"
 viewBox="0.00 0.00 602.00 844.00" xmlns="http://www.w3.org/2000/svg" xmlns:xlink="http://www.w3.org/1999/xlink">
<g id="graph0" class="graph" transform="scale(1 1) rotate(0) translate(4 840)">
<title>src/poaky/src/ray/ray.h</title>
<polygon fill="white" stroke="transparent" points="-4,4 -4,-840 598,-840 598,4 -4,4"/>
<!-- Node1 -->
<g id="node1" class="node">
<title>Node1</title>
<g id="a_node1"><a xlink:title=" ">
<polygon fill="#bfbfbf" stroke="black" points="134.5,-816.5 134.5,-835.5 259.5,-835.5 259.5,-816.5 134.5,-816.5"/>
<text text-anchor="middle" x="197" y="-823.5" font-family="Helvetica,sans-Serif" font-size="10.00">src/poaky/src/ray/ray.h</text>
</a>
</g>
</g>
<!-- Node2 -->
<g id="node2" class="node">
<title>Node2</title>
<g id="a_node2"><a xlink:href="poaky_8h.html" target="_top" xlink:title=" ">
<polygon fill="white" stroke="black" points="180,-626.5 180,-645.5 300,-645.5 300,-626.5 180,-626.5"/>
<text text-anchor="middle" x="240" y="-633.5" font-family="Helvetica,sans-Serif" font-size="10.00">src/poaky/src/poaky.h</text>
</a>
</g>
</g>
<!-- Node1&#45;&gt;Node2 -->
<g id="edge1" class="edge">
<title>Node1&#45;&gt;Node2</title>
<path fill="none" stroke="midnightblue" d="M161.37,-813.12C99.47,-790.63 -17.08,-738.95 29,-682 47.7,-658.89 124.35,-647.14 179.88,-641.54"/>
<polygon fill="midnightblue" stroke="midnightblue" points="160.2,-816.42 170.8,-816.47 162.55,-809.82 160.2,-816.42"/>
</g>
<!-- Node17 -->
<g id="node17" class="node">
<title>Node17</title>
<g id="a_node17"><a xlink:href="rop_8h.html" target="_top" xlink:title=" ">
<polygon fill="white" stroke="black" points="38.5,-688 38.5,-707 165.5,-707 165.5,-688 38.5,-688"/>
<text text-anchor="middle" x="102" y="-695" font-family="Helvetica,sans-Serif" font-size="10.00">src/poaky/src/rop/rop.h</text>
</a>
</g>
</g>
<!-- Node1&#45;&gt;Node17 -->
<g id="edge30" class="edge">
<title>Node1&#45;&gt;Node17</title>
<path fill="none" stroke="midnightblue" d="M184.32,-808.12C163.85,-780.86 124.21,-728.08 108.58,-707.26"/>
<polygon fill="midnightblue" stroke="midnightblue" points="181.67,-810.41 190.47,-816.31 187.26,-806.21 181.67,-810.41"/>
</g>
<!-- Node18 -->
<g id="node18" class="node">
<title>Node18</title>
<g id="a_node18"><a xlink:href="shape_8h.html" target="_top" xlink:title=" ">
<polygon fill="white" stroke="black" points="183.5,-749.5 183.5,-779.5 296.5,-779.5 296.5,-749.5 183.5,-749.5"/>
<text text-anchor="start" x="191.5" y="-767.5" font-family="Helvetica,sans-Serif" font-size="10.00">src/poaky/src/shape</text>
<text text-anchor="middle" x="240" y="-756.5" font-family="Helvetica,sans-Serif" font-size="10.00">/shape.h</text>
</a>
</g>
</g>
<!-- Node1&#45;&gt;Node18 -->
<g id="edge32" class="edge">
<title>Node1&#45;&gt;Node18</title>
<path fill="none" stroke="midnightblue" d="M209.11,-808.25C215.66,-799.19 223.65,-788.12 229.87,-779.52"/>
<polygon fill="midnightblue" stroke="midnightblue" points="206.18,-806.32 203.16,-816.48 211.86,-810.42 206.18,-806.32"/>
</g>
<!-- Node21 -->
<g id="node21" class="node">
<title>Node21</title>
<g id="a_node21"><a xlink:href="transfer_8h.html" target="_top" xlink:title=" ">
<polygon fill="white" stroke="black" points="355,-749.5 355,-779.5 477,-779.5 477,-749.5 355,-749.5"/>
<text text-anchor="start" x="363" y="-767.5" font-family="Helvetica,sans-Serif" font-size="10.00">src/poaky/src/transfer</text>
<text text-anchor="middle" x="416" y="-756.5" font-family="Helvetica,sans-Serif" font-size="10.00">/transfer.h</text>
</a>
</g>
</g>
<!-- Node1&#45;&gt;Node21 -->
<g id="edge37" class="edge">
<title>Node1&#45;&gt;Node21</title>
<path fill="none" stroke="midnightblue" d="M238.47,-813.73C274.21,-804.02 325.97,-789.96 364.39,-779.52"/>
<polygon fill="midnightblue" stroke="midnightblue" points="237.11,-810.48 228.38,-816.48 238.95,-817.23 237.11,-810.48"/>
</g>
<!-- Node3 -->
<g id="node3" class="node">
<title>Node3</title>
<g id="a_node3"><a xlink:href="lseq__part__global__position_8h.html" target="_top" xlink:title=" ">
<polygon fill="white" stroke="black" points="472,-492.5 472,-533.5 594,-533.5 594,-492.5 472,-492.5"/>
<text text-anchor="start" x="480" y="-521.5" font-family="Helvetica,sans-Serif" font-size="10.00">src/pewit/src/lseq</text>
<text text-anchor="start" x="480" y="-510.5" font-family="Helvetica,sans-Serif" font-size="10.00">_part_result/lseq_part</text>
<text text-anchor="middle" x="533" y="-499.5" font-family="Helvetica,sans-Serif" font-size="10.00">_global_position.h</text>
</a>
</g>
</g>
<!-- Node2&#45;&gt;Node3 -->
<g id="edge2" class="edge">
<title>Node2&#45;&gt;Node3</title>
<path fill="none" stroke="midnightblue" d="M295.06,-624.24C328.26,-616.76 370.95,-605.37 407,-590 442.95,-574.67 480.94,-550.52 505.68,-533.56"/>
<polygon fill="midnightblue" stroke="midnightblue" points="294.1,-620.87 285.09,-626.43 295.6,-627.7 294.1,-620.87"/>
</g>
<!-- Node7 -->
<g id="node7" class="node">
<title>Node7</title>
<g id="a_node7"><a xlink:href="robintrace_8h.html" target="_top" xlink:title=" ">
<polygon fill="white" stroke="black" points="4.5,-0.5 4.5,-19.5 117.5,-19.5 117.5,-0.5 4.5,-0.5"/>
<text text-anchor="middle" x="61" y="-7.5" font-family="Helvetica,sans-Serif" font-size="10.00">include/robintrace.h</text>
</a>
</g>
</g>
<!-- Node2&#45;&gt;Node7 -->
<g id="edge29" class="edge">
<title>Node2&#45;&gt;Node7</title>
<path fill="none" stroke="midnightblue" d="M169.52,-629.03C98.71,-618.72 0,-590.61 0,-514 0,-514 0,-514 0,-121 0,-78.42 35.39,-36.88 52.26,-19.51"/>
<polygon fill="midnightblue" stroke="midnightblue" points="169.37,-632.55 179.75,-630.43 170.31,-625.61 169.37,-632.55"/>
</g>
<!-- Node8 -->
<g id="node8" class="node">
<title>Node8</title>
<g id="a_node8"><a xlink:href="bun_8h.html" target="_top" xlink:title=" ">
<polygon fill="white" stroke="black" points="268.5,-570.5 268.5,-589.5 397.5,-589.5 397.5,-570.5 268.5,-570.5"/>
<text text-anchor="middle" x="333" y="-577.5" font-family="Helvetica,sans-Serif" font-size="10.00">src/pinyo/src/bun/bun.h</text>
</a>
</g>
</g>
<!-- Node2&#45;&gt;Node8 -->
<g id="edge7" class="edge">
<title>Node2&#45;&gt;Node8</title>
<path fill="none" stroke="midnightblue" d="M263.81,-621.18C280.92,-611.24 303.47,-598.15 318.1,-589.65"/>
<polygon fill="midnightblue" stroke="midnightblue" points="261.83,-618.28 254.94,-626.32 265.35,-624.33 261.83,-618.28"/>
</g>
<!-- Node10 -->
<g id="node10" class="node">
<title>Node10</title>
<g id="a_node10"><a xlink:href="shape__part_8h.html" target="_top" xlink:title=" ">
<polygon fill="white" stroke="black" points="28,-425.5 28,-455.5 132,-455.5 132,-425.5 28,-425.5"/>
<text text-anchor="start" x="36" y="-443.5" font-family="Helvetica,sans-Serif" font-size="10.00">src/pinyo/src/lpart</text>
<text text-anchor="middle" x="80" y="-432.5" font-family="Helvetica,sans-Serif" font-size="10.00">/shape_part.h</text>
</a>
</g>
</g>
<!-- Node2&#45;&gt;Node10 -->
<g id="edge27" class="edge">
<title>Node2&#45;&gt;Node10</title>
<path fill="none" stroke="midnightblue" d="M210.66,-622.16C178.05,-606.31 126.39,-576.18 99,-534 83.2,-509.66 80.16,-474.76 79.8,-455.54"/>
<polygon fill="midnightblue" stroke="midnightblue" points="209.18,-625.33 219.72,-626.44 212.17,-619 209.18,-625.33"/>
</g>
<!-- Node16 -->
<g id="node16" class="node">
<title>Node16</title>
<g id="a_node16"><a xlink:href="transfer__part_8h.html" target="_top" xlink:title=" ">
<polygon fill="white" stroke="black" points="188,-425.5 188,-455.5 292,-455.5 292,-425.5 188,-425.5"/>
<text text-anchor="start" x="196" y="-443.5" font-family="Helvetica,sans-Serif" font-size="10.00">src/pinyo/src/lpart</text>
<text text-anchor="middle" x="240" y="-432.5" font-family="Helvetica,sans-Serif" font-size="10.00">/transfer_part.h</text>
</a>
</g>
</g>
<!-- Node2&#45;&gt;Node16 -->
<g id="edge28" class="edge">
<title>Node2&#45;&gt;Node16</title>
<path fill="none" stroke="midnightblue" d="M240,-616.11C240,-577.41 240,-489.89 240,-455.63"/>
<polygon fill="midnightblue" stroke="midnightblue" points="236.5,-616.44 240,-626.44 243.5,-616.44 236.5,-616.44"/>
</g>
<!-- Node4 -->
<g id="node4" class="node">
<title>Node4</title>
<g id="a_node4"><a xlink:href="lseq__part_8h.html" target="_top" xlink:title=" ">
<polygon fill="white" stroke="black" points="213.5,-168.5 213.5,-198.5 314.5,-198.5 314.5,-168.5 213.5,-168.5"/>
<text text-anchor="start" x="221.5" y="-186.5" font-family="Helvetica,sans-Serif" font-size="10.00">src/pewit/src/lseq</text>
<text text-anchor="middle" x="264" y="-175.5" font-family="Helvetica,sans-Serif" font-size="10.00">_part.h</text>
</a>
</g>
</g>
<!-- Node3&#45;&gt;Node4 -->
<g id="edge3" class="edge">
<title>Node3&#45;&gt;Node4</title>
<path fill="none" stroke="midnightblue" d="M545.71,-482.95C556.07,-456.6 569,-416.44 569,-380 569,-380 569,-380 569,-322 569,-264.75 524.55,-261.88 474,-235 446.77,-220.52 367.82,-203.8 314.87,-193.69"/>
<polygon fill="midnightblue" stroke="midnightblue" points="542.42,-481.75 541.9,-492.33 548.91,-484.38 542.42,-481.75"/>
</g>
<!-- Node5 -->
<g id="node5" class="node">
<title>Node5</title>
<g id="a_node5"><a xlink:href="lseq_8h.html" target="_top" xlink:title=" ">
<polygon fill="white" stroke="black" points="209,-112.5 209,-131.5 319,-131.5 319,-112.5 209,-112.5"/>
<text text-anchor="middle" x="264" y="-119.5" font-family="Helvetica,sans-Serif" font-size="10.00">src/pewit/src/lseq.h</text>
</a>
</g>
</g>
<!-- Node4&#45;&gt;Node5 -->
<g id="edge4" class="edge">
<title>Node4&#45;&gt;Node5</title>
<path fill="none" stroke="midnightblue" d="M264,-158.29C264,-148.86 264,-138.65 264,-131.66"/>
<polygon fill="midnightblue" stroke="midnightblue" points="260.5,-158.4 264,-168.4 267.5,-158.4 260.5,-158.4"/>
</g>
<!-- Node6 -->
<g id="node6" class="node">
<title>Node6</title>
<g id="a_node6"><a xlink:href="pewit_8h.html" target="_top" xlink:title=" ">
<polygon fill="white" stroke="black" points="205.5,-56.5 205.5,-75.5 322.5,-75.5 322.5,-56.5 205.5,-56.5"/>
<text text-anchor="middle" x="264" y="-63.5" font-family="Helvetica,sans-Serif" font-size="10.00">src/pewit/src/pewit.h</text>
</a>
</g>
</g>
<!-- Node5&#45;&gt;Node6 -->
<g id="edge5" class="edge">
<title>Node5&#45;&gt;Node6</title>
<path fill="none" stroke="midnightblue" d="M264,-101.8C264,-92.91 264,-82.78 264,-75.75"/>
<polygon fill="midnightblue" stroke="midnightblue" points="260.5,-102.08 264,-112.08 267.5,-102.08 260.5,-102.08"/>
</g>
<!-- Node6&#45;&gt;Node7 -->
<g id="edge6" class="edge">
<title>Node6&#45;&gt;Node7</title>
<path fill="none" stroke="midnightblue" d="M222.01,-53.83C183.68,-43.63 127.85,-28.78 93.02,-19.52"/>
<polygon fill="midnightblue" stroke="midnightblue" points="221.27,-57.26 231.83,-56.44 223.07,-50.49 221.27,-57.26"/>
</g>
<!-- Node9 -->
<g id="node9" class="node">
<title>Node9</title>
<g id="a_node9"><a xlink:href="lpart_8h.html" target="_top" xlink:title=" ">
<polygon fill="white" stroke="black" points="108,-498 108,-528 212,-528 212,-498 108,-498"/>
<text text-anchor="start" x="116" y="-516" font-family="Helvetica,sans-Serif" font-size="10.00">src/pinyo/src/lpart</text>
<text text-anchor="middle" x="160" y="-505" font-family="Helvetica,sans-Serif" font-size="10.00">/lpart.h</text>
</a>
</g>
</g>
<!-- Node8&#45;&gt;Node9 -->
<g id="edge8" class="edge">
<title>Node8&#45;&gt;Node9</title>
<path fill="none" stroke="midnightblue" d="M300.65,-566.85C271.33,-555.83 228.12,-539.59 197.34,-528.03"/>
<polygon fill="midnightblue" stroke="midnightblue" points="299.43,-570.13 310.03,-570.37 301.9,-563.57 299.43,-570.13"/>
</g>
<!-- Node11 -->
<g id="node11" class="node">
<title>Node11</title>
<g id="a_node11"><a xlink:href="pinyo_8h.html" target="_top" xlink:title=" ">
<polygon fill="white" stroke="black" points="89.5,-369.5 89.5,-388.5 206.5,-388.5 206.5,-369.5 89.5,-369.5"/>
<text text-anchor="middle" x="148" y="-376.5" font-family="Helvetica,sans-Serif" font-size="10.00">src/pinyo/src/pinyo.h</text>
</a>
</g>
</g>
<!-- Node8&#45;&gt;Node11 -->
<g id="edge26" class="edge">
<title>Node8&#45;&gt;Node11</title>
<path fill="none" stroke="midnightblue" d="M334.79,-560.12C336.74,-528.05 335.78,-462.73 301,-425 277.07,-399.05 239.03,-387.78 206.86,-383.01"/>
<polygon fill="midnightblue" stroke="midnightblue" points="331.29,-560.08 334,-570.32 338.27,-560.63 331.29,-560.08"/>
</g>
<!-- Node9&#45;&gt;Node10 -->
<g id="edge9" class="edge">
<title>Node9&#45;&gt;Node10</title>
<path fill="none" stroke="midnightblue" d="M136.13,-490.96C123.13,-479.5 107.39,-465.64 95.89,-455.5"/>
<polygon fill="midnightblue" stroke="midnightblue" points="133.99,-493.75 143.81,-497.73 138.62,-488.5 133.99,-493.75"/>
</g>
<!-- Node9&#45;&gt;Node11 -->
<g id="edge25" class="edge">
<title>Node9&#45;&gt;Node11</title>
<path fill="none" stroke="midnightblue" d="M157.8,-487.82C155.08,-457.88 150.58,-408.41 148.78,-388.6"/>
<polygon fill="midnightblue" stroke="midnightblue" points="154.32,-488.23 158.72,-497.87 161.3,-487.6 154.32,-488.23"/>
</g>
<!-- Node9&#45;&gt;Node16 -->
<g id="edge23" class="edge">
<title>Node9&#45;&gt;Node16</title>
<path fill="none" stroke="midnightblue" d="M183.87,-490.96C196.87,-479.5 212.61,-465.64 224.11,-455.5"/>
<polygon fill="midnightblue" stroke="midnightblue" points="181.38,-488.5 176.19,-497.73 186.01,-493.75 181.38,-488.5"/>
</g>
<!-- Node10&#45;&gt;Node11 -->
<g id="edge10" class="edge">
<title>Node10&#45;&gt;Node11</title>
<path fill="none" stroke="midnightblue" d="M103.89,-418.6C115.64,-408.32 129.16,-396.48 138.11,-388.66"/>
<polygon fill="midnightblue" stroke="midnightblue" points="101.34,-416.18 96.12,-425.4 105.95,-421.45 101.34,-416.18"/>
</g>
<!-- Node11&#45;&gt;Node4 -->
<g id="edge12" class="edge">
<title>Node11&#45;&gt;Node4</title>
<path fill="none" stroke="midnightblue" d="M148.03,-359.28C148.98,-330.04 154.54,-272.97 182,-235 193.66,-218.88 212.2,-206.83 228.7,-198.56"/>
<polygon fill="midnightblue" stroke="midnightblue" points="144.53,-359.28 147.86,-369.34 151.53,-359.4 144.53,-359.28"/>
</g>
<!-- Node11&#45;&gt;Node5 -->
<g id="edge11" class="edge">
<title>Node11&#45;&gt;Node5</title>
<path fill="none" stroke="midnightblue" d="M145.63,-359.19C142.85,-331.07 140.52,-276.92 157,-235 170.4,-200.91 179.49,-194.29 205,-168 219,-153.58 237.84,-140.02 250.43,-131.63"/>
<polygon fill="midnightblue" stroke="midnightblue" points="142.16,-359.68 146.75,-369.22 149.11,-358.9 142.16,-359.68"/>
</g>
<!-- Node11&#45;&gt;Node7 -->
<g id="edge22" class="edge">
<title>Node11&#45;&gt;Node7</title>
<path fill="none" stroke="midnightblue" d="M127.47,-362.99C101.75,-342.29 61,-302.33 61,-257 61,-257 61,-257 61,-121 61,-83.19 61,-38.06 61,-19.56"/>
<polygon fill="midnightblue" stroke="midnightblue" points="125.49,-365.89 135.54,-369.26 129.78,-360.36 125.49,-365.89"/>
</g>
<!-- Node12 -->
<g id="node12" class="node">
<title>Node12</title>
<g id="a_node12"><a xlink:href="ray__pack_8h.html" target="_top" xlink:title=" ">
<polygon fill="white" stroke="black" points="267,-313.5 267,-332.5 401,-332.5 401,-313.5 267,-313.5"/>
<text text-anchor="middle" x="334" y="-320.5" font-family="Helvetica,sans-Serif" font-size="10.00">src/pewit/src/ray_pack.h</text>
</a>
</g>
</g>
<!-- Node11&#45;&gt;Node12 -->
<g id="edge13" class="edge">
<title>Node11&#45;&gt;Node12</title>
<path fill="none" stroke="midnightblue" d="M187.38,-366.57C222.47,-356.38 273.02,-341.7 304.67,-332.52"/>
<polygon fill="midnightblue" stroke="midnightblue" points="186.1,-363.29 177.47,-369.44 188.05,-370.02 186.1,-363.29"/>
</g>
<!-- Node12&#45;&gt;Node4 -->
<g id="edge16" class="edge">
<title>Node12&#45;&gt;Node4</title>
<path fill="none" stroke="midnightblue" d="M257,-314.92C232.92,-308.65 208.8,-297.31 194,-277 183,-261.92 185.5,-251.62 194,-235 202.19,-218.99 218.08,-206.89 232.66,-198.56"/>
<polygon fill="midnightblue" stroke="midnightblue" points="256.4,-318.38 266.93,-317.24 257.99,-311.56 256.4,-318.38"/>
</g>
<!-- Node12&#45;&gt;Node6 -->
<g id="edge21" class="edge">
<title>Node12&#45;&gt;Node6</title>
<path fill="none" stroke="midnightblue" d="M398.79,-311.5C436.78,-303.87 479.53,-292.23 491,-277 503.83,-259.97 483.05,-172.03 480,-168 438.77,-113.54 360.96,-87.33 310.85,-75.57"/>
<polygon fill="midnightblue" stroke="midnightblue" points="397.89,-308.11 388.74,-313.45 399.22,-314.98 397.89,-308.11"/>
</g>
<!-- Node13 -->
<g id="node13" class="node">
<title>Node13</title>
<g id="a_node13"><a xlink:href="lseq__rays_8h.html" target="_top" xlink:title=" ">
<polygon fill="white" stroke="black" points="365.5,-168.5 365.5,-198.5 470.5,-198.5 470.5,-168.5 365.5,-168.5"/>
<text text-anchor="start" x="373.5" y="-186.5" font-family="Helvetica,sans-Serif" font-size="10.00">src/pewit/src/lseq</text>
<text text-anchor="middle" x="418" y="-175.5" font-family="Helvetica,sans-Serif" font-size="10.00">_input/lseq_rays.h</text>
</a>
</g>
</g>
<!-- Node12&#45;&gt;Node13 -->
<g id="edge14" class="edge">
<title>Node12&#45;&gt;Node13</title>
<path fill="none" stroke="midnightblue" d="M411,-314.92C435.08,-308.65 459.2,-297.31 474,-277 485,-261.92 481.59,-252.06 474,-235 467.3,-219.93 453.63,-207.46 441.47,-198.68"/>
<polygon fill="midnightblue" stroke="midnightblue" points="410.01,-311.56 401.07,-317.24 411.6,-318.38 410.01,-311.56"/>
</g>
<!-- Node14 -->
<g id="node14" class="node">
<title>Node14</title>
<g id="a_node14"><a xlink:href="lseq__part__global__rays_8h.html" target="_top" xlink:title=" ">
<polygon fill="white" stroke="black" points="203,-235.5 203,-276.5 325,-276.5 325,-235.5 203,-235.5"/>
<text text-anchor="start" x="211" y="-264.5" font-family="Helvetica,sans-Serif" font-size="10.00">src/pewit/src/lseq</text>
<text text-anchor="start" x="211" y="-253.5" font-family="Helvetica,sans-Serif" font-size="10.00">_part_result/lseq_part</text>
<text text-anchor="middle" x="264" y="-242.5" font-family="Helvetica,sans-Serif" font-size="10.00">_global_rays.h</text>
</a>
</g>
</g>
<!-- Node12&#45;&gt;Node14 -->
<g id="edge17" class="edge">
<title>Node12&#45;&gt;Node14</title>
<path fill="none" stroke="midnightblue" d="M317.15,-306.36C307.51,-297.4 295.32,-286.08 285.05,-276.54"/>
<polygon fill="midnightblue" stroke="midnightblue" points="314.85,-308.99 324.56,-313.23 319.61,-303.86 314.85,-308.99"/>
</g>
<!-- Node15 -->
<g id="node15" class="node">
<title>Node15</title>
<g id="a_node15"><a xlink:href="lseq__part__rays_8h.html" target="_top" xlink:title=" ">
<polygon fill="white" stroke="black" points="343,-235.5 343,-276.5 465,-276.5 465,-235.5 343,-235.5"/>
<text text-anchor="start" x="351" y="-264.5" font-family="Helvetica,sans-Serif" font-size="10.00">src/pewit/src/lseq</text>
<text text-anchor="start" x="351" y="-253.5" font-family="Helvetica,sans-Serif" font-size="10.00">_part_result/lseq_part</text>
<text text-anchor="middle" x="404" y="-242.5" font-family="Helvetica,sans-Serif" font-size="10.00">_rays.h</text>
</a>
</g>
</g>
<!-- Node12&#45;&gt;Node15 -->
<g id="edge19" class="edge">
<title>Node12&#45;&gt;Node15</title>
<path fill="none" stroke="midnightblue" d="M350.85,-306.36C360.49,-297.4 372.68,-286.08 382.95,-276.54"/>
<polygon fill="midnightblue" stroke="midnightblue" points="348.39,-303.86 343.44,-313.23 353.15,-308.99 348.39,-303.86"/>
</g>
<!-- Node13&#45;&gt;Node5 -->
<g id="edge15" class="edge">
<title>Node13&#45;&gt;Node5</title>
<path fill="none" stroke="midnightblue" d="M371.82,-164.66C343.58,-153.75 308.71,-140.27 286.41,-131.66"/>
<polygon fill="midnightblue" stroke="midnightblue" points="370.91,-168.06 381.5,-168.4 373.44,-161.53 370.91,-168.06"/>
</g>
<!-- Node14&#45;&gt;Node4 -->
<g id="edge18" class="edge">
<title>Node14&#45;&gt;Node4</title>
<path fill="none" stroke="midnightblue" d="M264,-225.08C264,-216.01 264,-206.45 264,-198.89"/>
<polygon fill="midnightblue" stroke="midnightblue" points="260.5,-225.36 264,-235.36 267.5,-225.36 260.5,-225.36"/>
</g>
<!-- Node15&#45;&gt;Node4 -->
<g id="edge20" class="edge">
<title>Node15&#45;&gt;Node4</title>
<path fill="none" stroke="midnightblue" d="M355.8,-230.73C334.57,-220.04 310.36,-207.85 292.14,-198.67"/>
<polygon fill="midnightblue" stroke="midnightblue" points="354.5,-233.99 365,-235.36 357.64,-227.74 354.5,-233.99"/>
</g>
<!-- Node16&#45;&gt;Node11 -->
<g id="edge24" class="edge">
<title>Node16&#45;&gt;Node11</title>
<path fill="none" stroke="midnightblue" d="M209.5,-419.78C193.2,-409.23 173.95,-396.78 161.39,-388.66"/>
<polygon fill="midnightblue" stroke="midnightblue" points="207.9,-422.91 218.2,-425.4 211.7,-417.03 207.9,-422.91"/>
</g>
<!-- Node17&#45;&gt;Node2 -->
<g id="edge31" class="edge">
<title>Node17&#45;&gt;Node2</title>
<path fill="none" stroke="midnightblue" d="M131.04,-683.98C157.84,-672.42 196.92,-655.58 220.26,-645.51"/>
<polygon fill="midnightblue" stroke="midnightblue" points="129.57,-680.8 121.77,-687.98 132.34,-687.23 129.57,-680.8"/>
</g>
<!-- Node19 -->
<g id="node19" class="node">
<title>Node19</title>
<g id="a_node19"><a xlink:href="plane_8h.html" target="_top" xlink:title=" ">
<polygon fill="white" stroke="black" points="314.5,-682.5 314.5,-712.5 427.5,-712.5 427.5,-682.5 314.5,-682.5"/>
<text text-anchor="start" x="322.5" y="-700.5" font-family="Helvetica,sans-Serif" font-size="10.00">src/poaky/src/shape</text>
<text text-anchor="middle" x="371" y="-689.5" font-family="Helvetica,sans-Serif" font-size="10.00">/plane.h</text>
</a>
</g>
</g>
<!-- Node18&#45;&gt;Node19 -->
<g id="edge33" class="edge">
<title>Node18&#45;&gt;Node19</title>
<path fill="none" stroke="midnightblue" d="M277.58,-744.85C298.29,-734.58 323.59,-722.03 342.63,-712.58"/>
<polygon fill="midnightblue" stroke="midnightblue" points="275.83,-741.82 268.43,-749.4 278.94,-748.09 275.83,-741.82"/>
</g>
<!-- Node20 -->
<g id="node20" class="node">
<title>Node20</title>
<g id="a_node20"><a xlink:href="standard_8h.html" target="_top" xlink:title=" ">
<polygon fill="white" stroke="black" points="183.5,-682.5 183.5,-712.5 296.5,-712.5 296.5,-682.5 183.5,-682.5"/>
<text text-anchor="start" x="191.5" y="-700.5" font-family="Helvetica,sans-Serif" font-size="10.00">src/poaky/src/shape</text>
<text text-anchor="middle" x="240" y="-689.5" font-family="Helvetica,sans-Serif" font-size="10.00">/standard.h</text>
</a>
</g>
</g>
<!-- Node18&#45;&gt;Node20 -->
<g id="edge35" class="edge">
<title>Node18&#45;&gt;Node20</title>
<path fill="none" stroke="midnightblue" d="M240,-739.11C240,-730.15 240,-720.32 240,-712.58"/>
<polygon fill="midnightblue" stroke="midnightblue" points="236.5,-739.4 240,-749.4 243.5,-739.4 236.5,-739.4"/>
</g>
<!-- Node19&#45;&gt;Node2 -->
<g id="edge34" class="edge">
<title>Node19&#45;&gt;Node2</title>
<path fill="none" stroke="midnightblue" d="M330.77,-678.23C306.92,-667.39 277.78,-654.16 259.06,-645.66"/>
<polygon fill="midnightblue" stroke="midnightblue" points="329.4,-681.45 339.95,-682.4 332.3,-675.08 329.4,-681.45"/>
</g>
<!-- Node20&#45;&gt;Node2 -->
<g id="edge36" class="edge">
<title>Node20&#45;&gt;Node2</title>
<path fill="none" stroke="midnightblue" d="M240,-672.29C240,-662.86 240,-652.65 240,-645.66"/>
<polygon fill="midnightblue" stroke="midnightblue" points="236.5,-672.4 240,-682.4 243.5,-672.4 236.5,-672.4"/>
</g>
<!-- Node21&#45;&gt;Node2 -->
<g id="edge38" class="edge">
<title>Node21&#45;&gt;Node2</title>
<path fill="none" stroke="midnightblue" d="M431.57,-740.7C441.54,-723 450.34,-698.73 437,-682 420.1,-660.81 351.85,-648.81 300.38,-642.62"/>
<polygon fill="midnightblue" stroke="midnightblue" points="428.56,-738.92 426.36,-749.28 434.54,-742.55 428.56,-738.92"/>
</g>
</g>
</svg>
