<?xml version="1.0" encoding="UTF-8" standalone="no"?>
<!DOCTYPE svg PUBLIC "-//W3C//DTD SVG 1.1//EN"
 "http://www.w3.org/Graphics/SVG/1.1/DTD/svg11.dtd">
<!-- Generated by graphviz version 2.43.0 (0)
 -->
<!-- Title: include/robintrace.h Pages: 1 -->
<svg width="1487pt" height="879pt"
 viewBox="0.00 0.00 1486.50 879.00" xmlns="http://www.w3.org/2000/svg" xmlns:xlink="http://www.w3.org/1999/xlink">
<g id="graph0" class="graph" transform="scale(1 1) rotate(0) translate(4 875)">
<title>include/robintrace.h</title>
<polygon fill="white" stroke="transparent" points="-4,4 -4,-875 1482.5,-875 1482.5,4 -4,4"/>
<!-- Node1 -->
<g id="node1" class="node">
<title>Node1</title>
<g id="a_node1"><a xlink:title=" ">
<polygon fill="#bfbfbf" stroke="black" points="80,-851.5 80,-870.5 193,-870.5 193,-851.5 80,-851.5"/>
<text text-anchor="middle" x="136.5" y="-858.5" font-family="Helvetica,sans-Serif" font-size="10.00">include/robintrace.h</text>
</a>
</g>
</g>
<!-- Node2 -->
<g id="node2" class="node">
<title>Node2</title>
<g id="a_node2"><a xlink:href="poaky_8h.html" target="_top" xlink:title=" ">
<polygon fill="white" stroke="black" points="306,-280.5 306,-299.5 359,-299.5 359,-280.5 306,-280.5"/>
<text text-anchor="middle" x="332.5" y="-287.5" font-family="Helvetica,sans-Serif" font-size="10.00">poaky.h</text>
</a>
</g>
</g>
<!-- Node1&#45;&gt;Node2 -->
<g id="edge1" class="edge">
<title>Node1&#45;&gt;Node2</title>
<path fill="none" stroke="midnightblue" d="M131.22,-851.23C120.77,-833.04 98.5,-789.6 98.5,-750 98.5,-750 98.5,-750 98.5,-401 98.5,-315.1 229.23,-296.16 295.26,-292.07"/>
<polygon fill="midnightblue" stroke="midnightblue" points="295.86,-295.54 305.66,-291.51 295.49,-288.55 295.86,-295.54"/>
</g>
<!-- Node17 -->
<g id="node17" class="node">
<title>Node17</title>
<g id="a_node17"><a xlink:href="pinyo_8h.html" target="_top" xlink:title=" ">
<polygon fill="white" stroke="black" points="314,-504.5 314,-523.5 367,-523.5 367,-504.5 314,-504.5"/>
<text text-anchor="middle" x="340.5" y="-511.5" font-family="Helvetica,sans-Serif" font-size="10.00">pinyo.h</text>
</a>
</g>
</g>
<!-- Node1&#45;&gt;Node17 -->
<g id="edge35" class="edge">
<title>Node1&#45;&gt;Node17</title>
<path fill="none" stroke="midnightblue" d="M136.5,-851.44C136.5,-832.94 136.5,-787.81 136.5,-750 136.5,-750 136.5,-750 136.5,-630.5 136.5,-554.48 245.1,-527.91 303.83,-519.09"/>
<polygon fill="midnightblue" stroke="midnightblue" points="304.41,-522.54 313.83,-517.69 303.44,-515.61 304.41,-522.54"/>
</g>
<!-- Node25 -->
<g id="node25" class="node">
<title>Node25</title>
<g id="a_node25"><a xlink:href="pewit_8h.html" target="_top" xlink:title=" ">
<polygon fill="white" stroke="black" points="1008,-795.5 1008,-814.5 1061,-814.5 1061,-795.5 1008,-795.5"/>
<text text-anchor="middle" x="1034.5" y="-802.5" font-family="Helvetica,sans-Serif" font-size="10.00">pewit.h</text>
</a>
</g>
</g>
<!-- Node1&#45;&gt;Node25 -->
<g id="edge51" class="edge">
<title>Node1&#45;&gt;Node25</title>
<path fill="none" stroke="midnightblue" d="M193.01,-856.6C361.57,-846.47 857.75,-816.63 997.49,-808.23"/>
<polygon fill="midnightblue" stroke="midnightblue" points="997.9,-811.71 1007.68,-807.61 997.48,-804.72 997.9,-811.71"/>
</g>
<!-- Node3 -->
<g id="node3" class="node">
<title>Node3</title>
<g id="a_node3"><a xlink:href="Vec3_8h.html" target="_top" xlink:title=" ">
<polygon fill="white" stroke="black" points="275,-56.5 275,-75.5 350,-75.5 350,-56.5 275,-56.5"/>
<text text-anchor="middle" x="312.5" y="-63.5" font-family="Helvetica,sans-Serif" font-size="10.00">base/Vec3.h</text>
</a>
</g>
</g>
<!-- Node2&#45;&gt;Node3 -->
<g id="edge2" class="edge">
<title>Node2&#45;&gt;Node3</title>
<path fill="none" stroke="midnightblue" d="M331.72,-280.3C328.77,-247.63 318.34,-131.87 314.21,-85.96"/>
<polygon fill="midnightblue" stroke="midnightblue" points="317.68,-85.53 313.3,-75.88 310.71,-86.16 317.68,-85.53"/>
</g>
<!-- Node7 -->
<g id="node7" class="node">
<title>Node7</title>
<g id="a_node7"><a xlink:href="Vec2_8h.html" target="_top" xlink:title=" ">
<polygon fill="white" stroke="black" points="95,-112.5 95,-131.5 170,-131.5 170,-112.5 95,-112.5"/>
<text text-anchor="middle" x="132.5" y="-119.5" font-family="Helvetica,sans-Serif" font-size="10.00">base/Vec2.h</text>
</a>
</g>
</g>
<!-- Node2&#45;&gt;Node7 -->
<g id="edge6" class="edge">
<title>Node2&#45;&gt;Node7</title>
<path fill="none" stroke="midnightblue" d="M305.65,-285.8C257.3,-278.43 156.61,-255.36 113.5,-188 104.13,-173.36 111.92,-153.94 120.18,-140.15"/>
<polygon fill="midnightblue" stroke="midnightblue" points="123.21,-141.92 125.76,-131.64 117.35,-138.08 123.21,-141.92"/>
</g>
<!-- Node8 -->
<g id="node8" class="node">
<title>Node8</title>
<g id="a_node8"><a xlink:href="Mat3_8h.html" target="_top" xlink:title=" ">
<polygon fill="white" stroke="black" points="0,-112.5 0,-131.5 77,-131.5 77,-112.5 0,-112.5"/>
<text text-anchor="middle" x="38.5" y="-119.5" font-family="Helvetica,sans-Serif" font-size="10.00">base/Mat3.h</text>
</a>
</g>
</g>
<!-- Node2&#45;&gt;Node8 -->
<g id="edge10" class="edge">
<title>Node2&#45;&gt;Node8</title>
<path fill="none" stroke="midnightblue" d="M305.83,-287.75C267.36,-284.88 195.28,-275.38 143.5,-244 99.86,-217.55 64.84,-166.86 48.5,-140.27"/>
<polygon fill="midnightblue" stroke="midnightblue" points="51.48,-138.43 43.34,-131.65 45.47,-142.02 51.48,-138.43"/>
</g>
<!-- Node9 -->
<g id="node9" class="node">
<title>Node9</title>
<g id="a_node9"><a xlink:href="ray_8h.html" target="_top" xlink:title=" ">
<polygon fill="white" stroke="black" points="341,-112.5 341,-131.5 400,-131.5 400,-112.5 341,-112.5"/>
<text text-anchor="middle" x="370.5" y="-119.5" font-family="Helvetica,sans-Serif" font-size="10.00">ray/ray.h</text>
</a>
</g>
</g>
<!-- Node2&#45;&gt;Node9 -->
<g id="edge12" class="edge">
<title>Node2&#45;&gt;Node9</title>
<path fill="none" stroke="midnightblue" d="M335.46,-280.45C338.5,-271.45 343.24,-256.85 346.5,-244 355.61,-208.15 363.35,-165.59 367.42,-141.7"/>
<polygon fill="midnightblue" stroke="midnightblue" points="370.92,-142.02 369.12,-131.58 364.02,-140.86 370.92,-142.02"/>
</g>
<!-- Node10 -->
<g id="node10" class="node">
<title>Node10</title>
<g id="a_node10"><a xlink:href="transfer_8h.html" target="_top" xlink:title=" ">
<polygon fill="white" stroke="black" points="122.5,-168.5 122.5,-187.5 226.5,-187.5 226.5,-168.5 122.5,-168.5"/>
<text text-anchor="middle" x="174.5" y="-175.5" font-family="Helvetica,sans-Serif" font-size="10.00">transfer/transfer.h</text>
</a>
</g>
</g>
<!-- Node2&#45;&gt;Node10 -->
<g id="edge15" class="edge">
<title>Node2&#45;&gt;Node10</title>
<path fill="none" stroke="midnightblue" d="M320.1,-280.37C293.1,-261.57 228.75,-216.77 195.38,-193.53"/>
<polygon fill="midnightblue" stroke="midnightblue" points="197.05,-190.43 186.84,-187.59 193.05,-196.18 197.05,-190.43"/>
</g>
<!-- Node11 -->
<g id="node11" class="node">
<title>Node11</title>
<g id="a_node11"><a xlink:href="rop_8h.html" target="_top" xlink:title=" ">
<polygon fill="white" stroke="black" points="244.5,-168.5 244.5,-187.5 304.5,-187.5 304.5,-168.5 244.5,-168.5"/>
<text text-anchor="middle" x="274.5" y="-175.5" font-family="Helvetica,sans-Serif" font-size="10.00">rop/rop.h</text>
</a>
</g>
</g>
<!-- Node2&#45;&gt;Node11 -->
<g id="edge19" class="edge">
<title>Node2&#45;&gt;Node11</title>
<path fill="none" stroke="midnightblue" d="M327.95,-280.37C318.46,-262.38 296.41,-220.55 283.79,-196.63"/>
<polygon fill="midnightblue" stroke="midnightblue" points="286.79,-194.8 279.03,-187.59 280.6,-198.07 286.79,-194.8"/>
</g>
<!-- Node12 -->
<g id="node12" class="node">
<title>Node12</title>
<g id="a_node12"><a xlink:href="plane_8h.html" target="_top" xlink:title=" ">
<polygon fill="white" stroke="black" points="399,-224.5 399,-243.5 484,-243.5 484,-224.5 399,-224.5"/>
<text text-anchor="middle" x="441.5" y="-231.5" font-family="Helvetica,sans-Serif" font-size="10.00">shape/plane.h</text>
</a>
</g>
</g>
<!-- Node2&#45;&gt;Node12 -->
<g id="edge23" class="edge">
<title>Node2&#45;&gt;Node12</title>
<path fill="none" stroke="midnightblue" d="M350.01,-280.32C367.57,-271.62 394.83,-258.12 415.03,-248.11"/>
<polygon fill="midnightblue" stroke="midnightblue" points="416.62,-251.23 424.03,-243.65 413.52,-244.96 416.62,-251.23"/>
</g>
<!-- Node16 -->
<g id="node16" class="node">
<title>Node16</title>
<g id="a_node16"><a xlink:href="standard_8h.html" target="_top" xlink:title=" ">
<polygon fill="white" stroke="black" points="502,-224.5 502,-243.5 603,-243.5 603,-224.5 502,-224.5"/>
<text text-anchor="middle" x="552.5" y="-231.5" font-family="Helvetica,sans-Serif" font-size="10.00">shape/standard.h</text>
</a>
</g>
</g>
<!-- Node2&#45;&gt;Node16 -->
<g id="edge32" class="edge">
<title>Node2&#45;&gt;Node16</title>
<path fill="none" stroke="midnightblue" d="M359.04,-282.49C395.91,-273.44 463.12,-256.94 507.8,-245.97"/>
<polygon fill="midnightblue" stroke="midnightblue" points="508.65,-249.37 517.53,-243.58 506.98,-242.57 508.65,-249.37"/>
</g>
<!-- Node4 -->
<g id="node4" class="node">
<title>Node4</title>
<g id="a_node4"><a xlink:title=" ">
<polygon fill="white" stroke="#bfbfbf" points="347,-0.5 347,-19.5 394,-19.5 394,-0.5 347,-0.5"/>
<text text-anchor="middle" x="370.5" y="-7.5" font-family="Helvetica,sans-Serif" font-size="10.00">cmath</text>
</a>
</g>
</g>
<!-- Node3&#45;&gt;Node4 -->
<g id="edge3" class="edge">
<title>Node3&#45;&gt;Node4</title>
<path fill="none" stroke="midnightblue" d="M321.82,-56.32C330.39,-48.34 343.31,-36.31 353.69,-26.65"/>
<polygon fill="midnightblue" stroke="midnightblue" points="356.08,-29.21 361.01,-19.83 351.31,-24.09 356.08,-29.21"/>
</g>
<!-- Node5 -->
<g id="node5" class="node">
<title>Node5</title>
<g id="a_node5"><a xlink:title=" ">
<polygon fill="white" stroke="#bfbfbf" points="474.5,-0.5 474.5,-19.5 534.5,-19.5 534.5,-0.5 474.5,-0.5"/>
<text text-anchor="middle" x="504.5" y="-7.5" font-family="Helvetica,sans-Serif" font-size="10.00">iostream</text>
</a>
</g>
</g>
<!-- Node3&#45;&gt;Node5 -->
<g id="edge4" class="edge">
<title>Node3&#45;&gt;Node5</title>
<path fill="none" stroke="midnightblue" d="M342.92,-56.44C375.78,-47.2 428.28,-32.44 464.47,-22.26"/>
<polygon fill="midnightblue" stroke="midnightblue" points="465.54,-25.59 474.22,-19.52 463.65,-18.85 465.54,-25.59"/>
</g>
<!-- Node6 -->
<g id="node6" class="node">
<title>Node6</title>
<g id="a_node6"><a xlink:title=" ">
<polygon fill="white" stroke="#bfbfbf" points="94,-0.5 94,-19.5 171,-19.5 171,-0.5 94,-0.5"/>
<text text-anchor="middle" x="132.5" y="-7.5" font-family="Helvetica,sans-Serif" font-size="10.00">Eigen/Dense</text>
</a>
</g>
</g>
<!-- Node3&#45;&gt;Node6 -->
<g id="edge5" class="edge">
<title>Node3&#45;&gt;Node6</title>
<path fill="none" stroke="midnightblue" d="M283.98,-56.44C253.43,-47.28 204.79,-32.69 170.9,-22.52"/>
<polygon fill="midnightblue" stroke="midnightblue" points="171.47,-19.04 160.89,-19.52 169.46,-25.74 171.47,-19.04"/>
</g>
<!-- Node7&#45;&gt;Node3 -->
<g id="edge9" class="edge">
<title>Node7&#45;&gt;Node3</title>
<path fill="none" stroke="midnightblue" d="M161.02,-112.44C191.57,-103.28 240.21,-88.69 274.1,-78.52"/>
<polygon fill="midnightblue" stroke="midnightblue" points="275.54,-81.74 284.11,-75.52 273.53,-75.04 275.54,-81.74"/>
</g>
<!-- Node7&#45;&gt;Node5 -->
<g id="edge8" class="edge">
<title>Node7&#45;&gt;Node5</title>
<path fill="none" stroke="midnightblue" d="M146.72,-112.45C170.48,-98.55 220.13,-71.05 265.5,-56 333.45,-33.46 416.24,-21.03 464.4,-15.22"/>
<polygon fill="midnightblue" stroke="midnightblue" points="464.89,-18.68 474.42,-14.04 464.08,-11.73 464.89,-18.68"/>
</g>
<!-- Node7&#45;&gt;Node6 -->
<g id="edge7" class="edge">
<title>Node7&#45;&gt;Node6</title>
<path fill="none" stroke="midnightblue" d="M132.5,-112.37C132.5,-94.62 132.5,-53.67 132.5,-29.6"/>
<polygon fill="midnightblue" stroke="midnightblue" points="136,-29.59 132.5,-19.59 129,-29.59 136,-29.59"/>
</g>
<!-- Node8&#45;&gt;Node6 -->
<g id="edge11" class="edge">
<title>Node8&#45;&gt;Node6</title>
<path fill="none" stroke="midnightblue" d="M45.88,-112.37C61.53,-94.05 98.28,-51.05 118.52,-27.36"/>
<polygon fill="midnightblue" stroke="midnightblue" points="121.32,-29.47 125.16,-19.59 116,-24.92 121.32,-29.47"/>
</g>
<!-- Node9&#45;&gt;Node3 -->
<g id="edge13" class="edge">
<title>Node9&#45;&gt;Node3</title>
<path fill="none" stroke="midnightblue" d="M361.18,-112.32C352.61,-104.34 339.69,-92.31 329.31,-82.65"/>
<polygon fill="midnightblue" stroke="midnightblue" points="331.69,-80.09 321.99,-75.83 326.92,-85.21 331.69,-80.09"/>
</g>
<!-- Node9&#45;&gt;Node5 -->
<g id="edge14" class="edge">
<title>Node9&#45;&gt;Node5</title>
<path fill="none" stroke="midnightblue" d="M381.01,-112.37C403.72,-93.73 457.56,-49.53 486.06,-26.13"/>
<polygon fill="midnightblue" stroke="midnightblue" points="488.53,-28.64 494.03,-19.59 484.08,-23.23 488.53,-28.64"/>
</g>
<!-- Node10&#45;&gt;Node3 -->
<g id="edge16" class="edge">
<title>Node10&#45;&gt;Node3</title>
<path fill="none" stroke="midnightblue" d="M185.33,-168.37C208.81,-149.65 264.64,-105.15 293.89,-81.83"/>
<polygon fill="midnightblue" stroke="midnightblue" points="296.08,-84.56 301.72,-75.59 291.72,-79.09 296.08,-84.56"/>
</g>
<!-- Node10&#45;&gt;Node8 -->
<g id="edge17" class="edge">
<title>Node10&#45;&gt;Node8</title>
<path fill="none" stroke="midnightblue" d="M152.95,-168.44C130.47,-159.52 95.01,-145.44 69.52,-135.32"/>
<polygon fill="midnightblue" stroke="midnightblue" points="70.53,-131.95 59.95,-131.52 67.95,-138.46 70.53,-131.95"/>
</g>
<!-- Node10&#45;&gt;Node9 -->
<g id="edge18" class="edge">
<title>Node10&#45;&gt;Node9</title>
<path fill="none" stroke="midnightblue" d="M205.56,-168.44C239.5,-159.09 293.96,-144.09 330.94,-133.9"/>
<polygon fill="midnightblue" stroke="midnightblue" points="332.16,-137.19 340.87,-131.16 330.3,-130.44 332.16,-137.19"/>
</g>
<!-- Node11&#45;&gt;Node3 -->
<g id="edge20" class="edge">
<title>Node11&#45;&gt;Node3</title>
<path fill="none" stroke="midnightblue" d="M277.48,-168.37C283.64,-150.54 297.89,-109.3 306.19,-85.27"/>
<polygon fill="midnightblue" stroke="midnightblue" points="309.57,-86.19 309.53,-75.59 302.96,-83.9 309.57,-86.19"/>
</g>
<!-- Node11&#45;&gt;Node4 -->
<g id="edge22" class="edge">
<title>Node11&#45;&gt;Node4</title>
<path fill="none" stroke="midnightblue" d="M270.61,-168.49C261.6,-147.41 241.84,-91.88 265.5,-56 281.26,-32.1 312.64,-20.84 337.01,-15.57"/>
<polygon fill="midnightblue" stroke="midnightblue" points="337.8,-18.98 346.96,-13.66 336.48,-12.11 337.8,-18.98"/>
</g>
<!-- Node11&#45;&gt;Node9 -->
<g id="edge21" class="edge">
<title>Node11&#45;&gt;Node9</title>
<path fill="none" stroke="midnightblue" d="M289.92,-168.32C305.04,-159.82 328.32,-146.73 345.97,-136.8"/>
<polygon fill="midnightblue" stroke="midnightblue" points="348.11,-139.61 355.11,-131.65 344.68,-133.51 348.11,-139.61"/>
</g>
<!-- Node12&#45;&gt;Node4 -->
<g id="edge31" class="edge">
<title>Node12&#45;&gt;Node4</title>
<path fill="none" stroke="midnightblue" d="M439.57,-224.4C435.01,-204.44 422.97,-153.55 409.5,-112 399.92,-82.45 386.45,-48.95 378.11,-28.92"/>
<polygon fill="midnightblue" stroke="midnightblue" points="381.26,-27.39 374.16,-19.53 374.81,-30.11 381.26,-27.39"/>
</g>
<!-- Node12&#45;&gt;Node5 -->
<g id="edge30" class="edge">
<title>Node12&#45;&gt;Node5</title>
<path fill="none" stroke="midnightblue" d="M443.97,-224.3C453.26,-191.56 486.23,-75.38 499.2,-29.67"/>
<polygon fill="midnightblue" stroke="midnightblue" points="502.62,-30.46 501.98,-19.88 495.88,-28.55 502.62,-30.46"/>
</g>
<!-- Node13 -->
<g id="node13" class="node">
<title>Node13</title>
<g id="a_node13"><a xlink:href="shape_8h.html" target="_top" xlink:title=" ">
<polygon fill="white" stroke="black" points="495,-168.5 495,-187.5 582,-187.5 582,-168.5 495,-168.5"/>
<text text-anchor="middle" x="538.5" y="-175.5" font-family="Helvetica,sans-Serif" font-size="10.00">shape/shape.h</text>
</a>
</g>
</g>
<!-- Node12&#45;&gt;Node13 -->
<g id="edge24" class="edge">
<title>Node12&#45;&gt;Node13</title>
<path fill="none" stroke="midnightblue" d="M457.08,-224.32C472.5,-215.74 496.31,-202.49 514.21,-192.52"/>
<polygon fill="midnightblue" stroke="midnightblue" points="515.92,-195.58 522.95,-187.65 512.51,-189.46 515.92,-195.58"/>
</g>
<!-- Node13&#45;&gt;Node3 -->
<g id="edge26" class="edge">
<title>Node13&#45;&gt;Node3</title>
<path fill="none" stroke="midnightblue" d="M521.89,-168.41C497.4,-155.81 450.14,-131.66 409.5,-112 386.48,-100.87 360.16,-88.69 340.74,-79.81"/>
<polygon fill="midnightblue" stroke="midnightblue" points="342.09,-76.58 331.54,-75.61 339.19,-82.95 342.09,-76.58"/>
</g>
<!-- Node13&#45;&gt;Node4 -->
<g id="edge27" class="edge">
<title>Node13&#45;&gt;Node4</title>
<path fill="none" stroke="midnightblue" d="M533.08,-168.25C519.67,-147.1 483.09,-92.27 442.5,-56 428.62,-43.59 410.9,-32.47 396.52,-24.39"/>
<polygon fill="midnightblue" stroke="midnightblue" points="398.08,-21.25 387.62,-19.53 394.72,-27.4 398.08,-21.25"/>
</g>
<!-- Node13&#45;&gt;Node9 -->
<g id="edge25" class="edge">
<title>Node13&#45;&gt;Node9</title>
<path fill="none" stroke="midnightblue" d="M511.88,-168.44C483.49,-159.32 438.36,-144.81 406.75,-134.65"/>
<polygon fill="midnightblue" stroke="midnightblue" points="407.59,-131.24 397,-131.52 405.44,-137.91 407.59,-131.24"/>
</g>
<!-- Node14 -->
<g id="node14" class="node">
<title>Node14</title>
<g id="a_node14"><a xlink:title=" ">
<polygon fill="white" stroke="#bfbfbf" points="626.5,-112.5 626.5,-131.5 670.5,-131.5 670.5,-112.5 626.5,-112.5"/>
<text text-anchor="middle" x="648.5" y="-119.5" font-family="Helvetica,sans-Serif" font-size="10.00">string</text>
</a>
</g>
</g>
<!-- Node13&#45;&gt;Node14 -->
<g id="edge28" class="edge">
<title>Node13&#45;&gt;Node14</title>
<path fill="none" stroke="midnightblue" d="M556.17,-168.32C573.89,-159.62 601.4,-146.12 621.79,-136.11"/>
<polygon fill="midnightblue" stroke="midnightblue" points="623.44,-139.2 630.87,-131.65 620.35,-132.92 623.44,-139.2"/>
</g>
<!-- Node15 -->
<g id="node15" class="node">
<title>Node15</title>
<g id="a_node15"><a xlink:title=" ">
<polygon fill="white" stroke="#bfbfbf" points="688.5,-112.5 688.5,-131.5 744.5,-131.5 744.5,-112.5 688.5,-112.5"/>
<text text-anchor="middle" x="716.5" y="-119.5" font-family="Helvetica,sans-Serif" font-size="10.00">sstream</text>
</a>
</g>
</g>
<!-- Node13&#45;&gt;Node15 -->
<g id="edge29" class="edge">
<title>Node13&#45;&gt;Node15</title>
<path fill="none" stroke="midnightblue" d="M566.7,-168.44C596.91,-159.28 645.01,-144.69 678.53,-134.52"/>
<polygon fill="midnightblue" stroke="midnightblue" points="679.87,-137.77 688.43,-131.52 677.84,-131.07 679.87,-137.77"/>
</g>
<!-- Node16&#45;&gt;Node5 -->
<g id="edge34" class="edge">
<title>Node16&#45;&gt;Node5</title>
<path fill="none" stroke="midnightblue" d="M563.49,-224.37C572.95,-216.17 585.94,-202.92 591.5,-188 594.61,-179.67 593.73,-176.61 591.5,-168 577.06,-112.16 538.03,-55 517.51,-27.62"/>
<polygon fill="midnightblue" stroke="midnightblue" points="520.17,-25.34 511.32,-19.52 514.61,-29.59 520.17,-25.34"/>
</g>
<!-- Node16&#45;&gt;Node13 -->
<g id="edge33" class="edge">
<title>Node16&#45;&gt;Node13</title>
<path fill="none" stroke="midnightblue" d="M550.19,-224.08C548.33,-216.93 545.66,-206.64 543.35,-197.69"/>
<polygon fill="midnightblue" stroke="midnightblue" points="546.67,-196.55 540.77,-187.75 539.89,-198.31 546.67,-196.55"/>
</g>
<!-- Node18 -->
<g id="node18" class="node">
<title>Node18</title>
<g id="a_node18"><a xlink:href="bun_8h.html" target="_top" xlink:title=" ">
<polygon fill="white" stroke="black" points="715,-336.5 715,-355.5 780,-355.5 780,-336.5 715,-336.5"/>
<text text-anchor="middle" x="747.5" y="-343.5" font-family="Helvetica,sans-Serif" font-size="10.00">bun/bun.h</text>
</a>
</g>
</g>
<!-- Node17&#45;&gt;Node18 -->
<g id="edge36" class="edge">
<title>Node17&#45;&gt;Node18</title>
<path fill="none" stroke="midnightblue" d="M367.26,-510.97C429.65,-505.13 587.57,-483.77 694.5,-412 712.95,-399.62 728.23,-378.91 737.57,-364.19"/>
<polygon fill="midnightblue" stroke="midnightblue" points="740.63,-365.9 742.82,-355.54 734.64,-362.27 740.63,-365.9"/>
</g>
<!-- Node21 -->
<g id="node21" class="node">
<title>Node21</title>
<g id="a_node21"><a xlink:href="lpart_8h.html" target="_top" xlink:title=" ">
<polygon fill="white" stroke="black" points="611.5,-392.5 611.5,-411.5 685.5,-411.5 685.5,-392.5 611.5,-392.5"/>
<text text-anchor="middle" x="648.5" y="-399.5" font-family="Helvetica,sans-Serif" font-size="10.00">lpart/lpart.h</text>
</a>
</g>
</g>
<!-- Node17&#45;&gt;Node21 -->
<g id="edge40" class="edge">
<title>Node17&#45;&gt;Node21</title>
<path fill="none" stroke="midnightblue" d="M365.47,-504.5C391.67,-495.54 434.05,-480.96 470.5,-468 521.5,-449.86 580.47,-428.19 616.1,-415.02"/>
<polygon fill="midnightblue" stroke="midnightblue" points="617.34,-418.29 625.5,-411.54 614.91,-411.73 617.34,-418.29"/>
</g>
<!-- Node23 -->
<g id="node23" class="node">
<title>Node23</title>
<g id="a_node23"><a xlink:href="transfer__part_8h.html" target="_top" xlink:title=" ">
<polygon fill="white" stroke="black" points="347.5,-448.5 347.5,-467.5 461.5,-467.5 461.5,-448.5 347.5,-448.5"/>
<text text-anchor="middle" x="404.5" y="-455.5" font-family="Helvetica,sans-Serif" font-size="10.00">lpart/transfer_part.h</text>
</a>
</g>
</g>
<!-- Node17&#45;&gt;Node23 -->
<g id="edge45" class="edge">
<title>Node17&#45;&gt;Node23</title>
<path fill="none" stroke="midnightblue" d="M350.78,-504.32C360.34,-496.26 374.78,-484.08 386.28,-474.37"/>
<polygon fill="midnightblue" stroke="midnightblue" points="388.64,-476.96 394.03,-467.83 384.13,-471.61 388.64,-476.96"/>
</g>
<!-- Node24 -->
<g id="node24" class="node">
<title>Node24</title>
<g id="a_node24"><a xlink:href="shape__part_8h.html" target="_top" xlink:title=" ">
<polygon fill="white" stroke="black" points="224,-448.5 224,-467.5 329,-467.5 329,-448.5 224,-448.5"/>
<text text-anchor="middle" x="276.5" y="-455.5" font-family="Helvetica,sans-Serif" font-size="10.00">lpart/shape_part.h</text>
</a>
</g>
</g>
<!-- Node17&#45;&gt;Node24 -->
<g id="edge48" class="edge">
<title>Node17&#45;&gt;Node24</title>
<path fill="none" stroke="midnightblue" d="M330.22,-504.32C320.66,-496.26 306.22,-484.08 294.72,-474.37"/>
<polygon fill="midnightblue" stroke="midnightblue" points="296.87,-471.61 286.97,-467.83 292.36,-476.96 296.87,-471.61"/>
</g>
<!-- Node18&#45;&gt;Node2 -->
<g id="edge37" class="edge">
<title>Node18&#45;&gt;Node2</title>
<path fill="none" stroke="midnightblue" d="M714.94,-340.76C638.77,-330.85 449.4,-306.21 369.26,-295.78"/>
<polygon fill="midnightblue" stroke="midnightblue" points="369.51,-292.29 359.15,-294.47 368.61,-299.23 369.51,-292.29"/>
</g>
<!-- Node19 -->
<g id="node19" class="node">
<title>Node19</title>
<g id="a_node19"><a xlink:title=" ">
<polygon fill="white" stroke="#bfbfbf" points="1116,-280.5 1116,-299.5 1163,-299.5 1163,-280.5 1116,-280.5"/>
<text text-anchor="middle" x="1139.5" y="-287.5" font-family="Helvetica,sans-Serif" font-size="10.00">vector</text>
</a>
</g>
</g>
<!-- Node18&#45;&gt;Node19 -->
<g id="edge38" class="edge">
<title>Node18&#45;&gt;Node19</title>
<path fill="none" stroke="midnightblue" d="M780.25,-340.49C853.73,-330.37 1031.15,-305.93 1105.66,-295.66"/>
<polygon fill="midnightblue" stroke="midnightblue" points="1106.45,-299.09 1115.88,-294.25 1105.49,-292.15 1106.45,-299.09"/>
</g>
<!-- Node20 -->
<g id="node20" class="node">
<title>Node20</title>
<g id="a_node20"><a xlink:title=" ">
<polygon fill="white" stroke="#bfbfbf" points="714.5,-280.5 714.5,-299.5 800.5,-299.5 800.5,-280.5 714.5,-280.5"/>
<text text-anchor="middle" x="757.5" y="-287.5" font-family="Helvetica,sans-Serif" font-size="10.00">unordered_set</text>
</a>
</g>
</g>
<!-- Node18&#45;&gt;Node20 -->
<g id="edge39" class="edge">
<title>Node18&#45;&gt;Node20</title>
<path fill="none" stroke="midnightblue" d="M749.15,-336.08C750.48,-328.93 752.38,-318.64 754.04,-309.69"/>
<polygon fill="midnightblue" stroke="midnightblue" points="757.5,-310.22 755.88,-299.75 750.62,-308.95 757.5,-310.22"/>
</g>
<!-- Node21&#45;&gt;Node14 -->
<g id="edge43" class="edge">
<title>Node21&#45;&gt;Node14</title>
<path fill="none" stroke="midnightblue" d="M648.5,-392.44C648.5,-373.94 648.5,-328.81 648.5,-291 648.5,-291 648.5,-291 648.5,-233 648.5,-200.95 648.5,-163.64 648.5,-141.75"/>
<polygon fill="midnightblue" stroke="midnightblue" points="652,-141.56 648.5,-131.56 645,-141.56 652,-141.56"/>
</g>
<!-- Node21&#45;&gt;Node15 -->
<g id="edge44" class="edge">
<title>Node21&#45;&gt;Node15</title>
<path fill="none" stroke="midnightblue" d="M653.78,-392.23C664.23,-374.04 686.5,-330.6 686.5,-291 686.5,-291 686.5,-291 686.5,-233 686.5,-199.64 699.5,-162.53 708.39,-141.07"/>
<polygon fill="midnightblue" stroke="midnightblue" points="711.71,-142.19 712.45,-131.62 705.28,-139.42 711.71,-142.19"/>
</g>
<!-- Node21&#45;&gt;Node18 -->
<g id="edge41" class="edge">
<title>Node21&#45;&gt;Node18</title>
<path fill="none" stroke="midnightblue" d="M664.41,-392.32C680.14,-383.74 704.44,-370.49 722.71,-360.52"/>
<polygon fill="midnightblue" stroke="midnightblue" points="724.53,-363.52 731.63,-355.65 721.18,-357.37 724.53,-363.52"/>
</g>
<!-- Node22 -->
<g id="node22" class="node">
<title>Node22</title>
<g id="a_node22"><a xlink:title=" ">
<polygon fill="white" stroke="#bfbfbf" points="1095.5,-336.5 1095.5,-355.5 1153.5,-355.5 1153.5,-336.5 1095.5,-336.5"/>
<text text-anchor="middle" x="1124.5" y="-343.5" font-family="Helvetica,sans-Serif" font-size="10.00">memory</text>
</a>
</g>
</g>
<!-- Node21&#45;&gt;Node22 -->
<g id="edge42" class="edge">
<title>Node21&#45;&gt;Node22</title>
<path fill="none" stroke="midnightblue" d="M685.85,-396.76C774.18,-386.74 995.26,-361.66 1085.36,-351.44"/>
<polygon fill="midnightblue" stroke="midnightblue" points="1085.89,-354.9 1095.43,-350.3 1085.1,-347.95 1085.89,-354.9"/>
</g>
<!-- Node23&#45;&gt;Node2 -->
<g id="edge47" class="edge">
<title>Node23&#45;&gt;Node2</title>
<path fill="none" stroke="midnightblue" d="M400.63,-448.08C389.25,-421.83 355.72,-344.55 340.36,-309.12"/>
<polygon fill="midnightblue" stroke="midnightblue" points="343.41,-307.35 336.22,-299.57 336.98,-310.14 343.41,-307.35"/>
</g>
<!-- Node23&#45;&gt;Node21 -->
<g id="edge46" class="edge">
<title>Node23&#45;&gt;Node21</title>
<path fill="none" stroke="midnightblue" d="M443.16,-448.44C486.01,-438.96 555.14,-423.66 601.19,-413.47"/>
<polygon fill="midnightblue" stroke="midnightblue" points="602.21,-416.83 611.22,-411.25 600.7,-409.99 602.21,-416.83"/>
</g>
<!-- Node24&#45;&gt;Node2 -->
<g id="edge50" class="edge">
<title>Node24&#45;&gt;Node2</title>
<path fill="none" stroke="midnightblue" d="M279.51,-448.08C288.36,-421.83 314.44,-344.55 326.39,-309.12"/>
<polygon fill="midnightblue" stroke="midnightblue" points="329.73,-310.16 329.61,-299.57 323.1,-307.92 329.73,-310.16"/>
</g>
<!-- Node24&#45;&gt;Node21 -->
<g id="edge49" class="edge">
<title>Node24&#45;&gt;Node21</title>
<path fill="none" stroke="midnightblue" d="M329.01,-449.38C401.59,-438.84 531.49,-419.99 601.2,-409.87"/>
<polygon fill="midnightblue" stroke="midnightblue" points="602.05,-413.28 611.44,-408.38 601.04,-406.35 602.05,-413.28"/>
</g>
<!-- Node26 -->
<g id="node26" class="node">
<title>Node26</title>
<g id="a_node26"><a xlink:href="ray__pack_8h.html" target="_top" xlink:title=" ">
<polygon fill="white" stroke="black" points="918.5,-560.5 918.5,-579.5 988.5,-579.5 988.5,-560.5 918.5,-560.5"/>
<text text-anchor="middle" x="953.5" y="-567.5" font-family="Helvetica,sans-Serif" font-size="10.00">ray_pack.h</text>
</a>
</g>
</g>
<!-- Node25&#45;&gt;Node26 -->
<g id="edge52" class="edge">
<title>Node25&#45;&gt;Node26</title>
<path fill="none" stroke="midnightblue" d="M1034.15,-795.24C1032.72,-767.45 1025.77,-679.42 993.5,-616 987.95,-605.1 979.12,-594.76 971.17,-586.75"/>
<polygon fill="midnightblue" stroke="midnightblue" points="973.31,-583.96 963.66,-579.58 968.47,-589.02 973.31,-583.96"/>
</g>
<!-- Node27 -->
<g id="node27" class="node">
<title>Node27</title>
<g id="a_node27"><a xlink:href="lseq_8h.html" target="_top" xlink:title=" ">
<polygon fill="white" stroke="black" points="1187.5,-739.5 1187.5,-758.5 1233.5,-758.5 1233.5,-739.5 1187.5,-739.5"/>
<text text-anchor="middle" x="1210.5" y="-746.5" font-family="Helvetica,sans-Serif" font-size="10.00">lseq.h</text>
</a>
</g>
</g>
<!-- Node25&#45;&gt;Node27 -->
<g id="edge56" class="edge">
<title>Node25&#45;&gt;Node27</title>
<path fill="none" stroke="midnightblue" d="M1061.23,-795.8C1092.43,-786.23 1144.03,-770.4 1177.64,-760.08"/>
<polygon fill="midnightblue" stroke="midnightblue" points="1178.92,-763.35 1187.45,-757.07 1176.87,-756.66 1178.92,-763.35"/>
</g>
<!-- Node26&#45;&gt;Node5 -->
<g id="edge54" class="edge">
<title>Node26&#45;&gt;Node5</title>
<path fill="none" stroke="midnightblue" d="M944.35,-560.25C927.11,-542.77 891.5,-501.53 891.5,-459 891.5,-459 891.5,-459 891.5,-121 891.5,-49.48 643.85,-21.99 544.77,-13.86"/>
<polygon fill="midnightblue" stroke="midnightblue" points="544.79,-10.35 534.55,-13.05 544.24,-17.33 544.79,-10.35"/>
</g>
<!-- Node26&#45;&gt;Node17 -->
<g id="edge53" class="edge">
<title>Node26&#45;&gt;Node17</title>
<path fill="none" stroke="midnightblue" d="M918.34,-565.9C810.87,-556.44 487.39,-527.94 377.5,-518.26"/>
<polygon fill="midnightblue" stroke="midnightblue" points="377.51,-514.75 367.25,-517.36 376.9,-521.72 377.51,-514.75"/>
</g>
<!-- Node26&#45;&gt;Node19 -->
<g id="edge55" class="edge">
<title>Node26&#45;&gt;Node19</title>
<path fill="none" stroke="midnightblue" d="M971.79,-560.35C1001.87,-544.69 1058.5,-508.63 1058.5,-459 1058.5,-459 1058.5,-459 1058.5,-401 1058.5,-369.54 1067.8,-361.29 1086.5,-336 1095.14,-324.32 1107.36,-313.68 1117.89,-305.68"/>
<polygon fill="midnightblue" stroke="midnightblue" points="1120.2,-308.33 1126.23,-299.62 1116.08,-302.67 1120.2,-308.33"/>
</g>
<!-- Node27&#45;&gt;Node17 -->
<g id="edge58" class="edge">
<title>Node27&#45;&gt;Node17</title>
<path fill="none" stroke="midnightblue" d="M1187.27,-747.46C1044.03,-743.89 284.8,-721.5 217.5,-647 197.1,-624.41 238.82,-562.73 241.5,-560 258.52,-542.61 283.5,-531.32 304.11,-524.4"/>
<polygon fill="midnightblue" stroke="midnightblue" points="305.33,-527.68 313.82,-521.35 303.23,-521.01 305.33,-527.68"/>
</g>
<!-- Node27&#45;&gt;Node19 -->
<g id="edge57" class="edge">
<title>Node27&#45;&gt;Node19</title>
<path fill="none" stroke="midnightblue" d="M1233.81,-748.46C1299.02,-748.41 1478.5,-738.64 1478.5,-632.5 1478.5,-632.5 1478.5,-632.5 1478.5,-401 1478.5,-337.22 1258.67,-304.83 1173.05,-294.63"/>
<polygon fill="midnightblue" stroke="midnightblue" points="1173.41,-291.15 1163.07,-293.47 1172.6,-298.1 1173.41,-291.15"/>
</g>
<!-- Node28 -->
<g id="node28" class="node">
<title>Node28</title>
<g id="a_node28"><a xlink:href="lseq__part_8h.html" target="_top" xlink:title=" ">
<polygon fill="white" stroke="black" points="806,-683.5 806,-702.5 877,-702.5 877,-683.5 806,-683.5"/>
<text text-anchor="middle" x="841.5" y="-690.5" font-family="Helvetica,sans-Serif" font-size="10.00">lseq_part.h</text>
</a>
</g>
</g>
<!-- Node27&#45;&gt;Node28 -->
<g id="edge59" class="edge">
<title>Node27&#45;&gt;Node28</title>
<path fill="none" stroke="midnightblue" d="M1187.42,-744.62C1127.62,-735.87 966.82,-712.34 887.3,-700.7"/>
<polygon fill="midnightblue" stroke="midnightblue" points="887.5,-697.19 877.1,-699.21 886.49,-704.12 887.5,-697.19"/>
</g>
<!-- Node29 -->
<g id="node29" class="node">
<title>Node29</title>
<g id="a_node29"><a xlink:href="type__map_8h.html" target="_top" xlink:title=" ">
<polygon fill="white" stroke="black" points="1138.5,-622 1138.5,-641 1264.5,-641 1264.5,-622 1138.5,-622"/>
<text text-anchor="middle" x="1201.5" y="-629" font-family="Helvetica,sans-Serif" font-size="10.00">type_map/type_map.h</text>
</a>
</g>
</g>
<!-- Node27&#45;&gt;Node29 -->
<g id="edge88" class="edge">
<title>Node27&#45;&gt;Node29</title>
<path fill="none" stroke="midnightblue" d="M1203.87,-739.27C1197.73,-730.61 1189.04,-716.67 1185.5,-703 1180.89,-685.21 1186.79,-664.7 1192.69,-650.41"/>
<polygon fill="midnightblue" stroke="midnightblue" points="1195.91,-651.78 1196.83,-641.22 1189.52,-648.9 1195.91,-651.78"/>
</g>
<!-- Node38 -->
<g id="node38" class="node">
<title>Node38</title>
<g id="a_node38"><a xlink:href="lseq__input_8h.html" target="_top" xlink:title=" ">
<polygon fill="white" stroke="black" points="1283,-622 1283,-641 1412,-641 1412,-622 1283,-622"/>
<text text-anchor="middle" x="1347.5" y="-629" font-family="Helvetica,sans-Serif" font-size="10.00">lseq_input/lseq_input.h</text>
</a>
</g>
</g>
<!-- Node27&#45;&gt;Node38 -->
<g id="edge80" class="edge">
<title>Node27&#45;&gt;Node38</title>
<path fill="none" stroke="midnightblue" d="M1233.51,-745.47C1260.19,-741.3 1303.66,-730.49 1328.5,-703 1341.36,-688.77 1345.65,-666.74 1347.02,-651.1"/>
<polygon fill="midnightblue" stroke="midnightblue" points="1350.52,-651.22 1347.57,-641.04 1343.53,-650.83 1350.52,-651.22"/>
</g>
<!-- Node39 -->
<g id="node39" class="node">
<title>Node39</title>
<g id="a_node39"><a xlink:href="lpart__vec_8h.html" target="_top" xlink:title=" ">
<polygon fill="white" stroke="black" points="1261,-392.5 1261,-411.5 1332,-411.5 1332,-392.5 1261,-392.5"/>
<text text-anchor="middle" x="1296.5" y="-399.5" font-family="Helvetica,sans-Serif" font-size="10.00">lpart_vec.h</text>
</a>
</g>
</g>
<!-- Node27&#45;&gt;Node39 -->
<g id="edge81" class="edge">
<title>Node27&#45;&gt;Node39</title>
<path fill="none" stroke="midnightblue" d="M1233.82,-747.01C1292.29,-743.15 1440.5,-724.32 1440.5,-632.5 1440.5,-632.5 1440.5,-632.5 1440.5,-513 1440.5,-460.76 1379.91,-430.01 1337.33,-414.85"/>
<polygon fill="midnightblue" stroke="midnightblue" points="1338.34,-411.49 1327.75,-411.58 1336.09,-418.12 1338.34,-411.49"/>
</g>
<!-- Node40 -->
<g id="node40" class="node">
<title>Node40</title>
<g id="a_node40"><a xlink:href="lseq__rays_8h.html" target="_top" xlink:title=" ">
<polygon fill="white" stroke="black" points="1194,-683.5 1194,-702.5 1319,-702.5 1319,-683.5 1194,-683.5"/>
<text text-anchor="middle" x="1256.5" y="-690.5" font-family="Helvetica,sans-Serif" font-size="10.00">lseq_input/lseq_rays.h</text>
</a>
</g>
</g>
<!-- Node27&#45;&gt;Node40 -->
<g id="edge85" class="edge">
<title>Node27&#45;&gt;Node40</title>
<path fill="none" stroke="midnightblue" d="M1218.1,-739.08C1224.73,-731.3 1234.52,-719.8 1242.56,-710.37"/>
<polygon fill="midnightblue" stroke="midnightblue" points="1245.23,-712.63 1249.05,-702.75 1239.9,-708.09 1245.23,-712.63"/>
</g>
<!-- Node28&#45;&gt;Node17 -->
<g id="edge62" class="edge">
<title>Node28&#45;&gt;Node17</title>
<path fill="none" stroke="midnightblue" d="M805.64,-692.12C680.8,-692.19 270.66,-689.16 231.5,-647 193.06,-605.62 271.77,-552.93 314.87,-528.53"/>
<polygon fill="midnightblue" stroke="midnightblue" points="316.67,-531.53 323.73,-523.63 313.28,-525.41 316.67,-531.53"/>
</g>
<!-- Node28&#45;&gt;Node22 -->
<g id="edge60" class="edge">
<title>Node28&#45;&gt;Node22</title>
<path fill="none" stroke="midnightblue" d="M877.22,-691.78C950.39,-689.24 1110.5,-672.14 1110.5,-571 1110.5,-571 1110.5,-571 1110.5,-457 1110.5,-424.54 1116.57,-387.12 1120.72,-365.36"/>
<polygon fill="midnightblue" stroke="midnightblue" points="1124.16,-366 1122.67,-355.51 1117.29,-364.64 1124.16,-366"/>
</g>
<!-- Node28&#45;&gt;Node26 -->
<g id="edge61" class="edge">
<title>Node28&#45;&gt;Node26</title>
<path fill="none" stroke="midnightblue" d="M877.14,-691.16C909.25,-688.28 954.78,-678.45 977.5,-647 990.35,-629.21 978.06,-604.29 966.85,-587.9"/>
<polygon fill="midnightblue" stroke="midnightblue" points="969.64,-585.78 960.9,-579.77 963.99,-589.91 969.64,-585.78"/>
</g>
<!-- Node28&#45;&gt;Node29 -->
<g id="edge63" class="edge">
<title>Node28&#45;&gt;Node29</title>
<path fill="none" stroke="midnightblue" d="M877.29,-686.64C931.05,-678.52 1035.78,-662.4 1124.5,-647 1131.86,-645.72 1139.61,-644.32 1147.24,-642.92"/>
<polygon fill="midnightblue" stroke="midnightblue" points="1147.97,-646.34 1157.16,-641.07 1146.69,-639.46 1147.97,-646.34"/>
</g>
<!-- Node32 -->
<g id="node32" class="node">
<title>Node32</title>
<g id="a_node32"><a xlink:href="lseq__part__rays_8h.html" target="_top" xlink:title=" ">
<polygon fill="white" stroke="black" points="850.5,-616.5 850.5,-646.5 968.5,-646.5 968.5,-616.5 850.5,-616.5"/>
<text text-anchor="start" x="858.5" y="-634.5" font-family="Helvetica,sans-Serif" font-size="10.00">lseq_part_result/lseq</text>
<text text-anchor="middle" x="909.5" y="-623.5" font-family="Helvetica,sans-Serif" font-size="10.00">_part_rays.h</text>
</a>
</g>
</g>
<!-- Node28&#45;&gt;Node32 -->
<g id="edge67" class="edge">
<title>Node28&#45;&gt;Node32</title>
<path fill="none" stroke="midnightblue" d="M851.24,-683.48C860.19,-675.64 873.83,-663.71 885.65,-653.37"/>
<polygon fill="midnightblue" stroke="midnightblue" points="888.25,-655.74 893.47,-646.52 883.64,-650.47 888.25,-655.74"/>
</g>
<!-- Node34 -->
<g id="node34" class="node">
<title>Node34</title>
<g id="a_node34"><a xlink:href="lseq__part__global__position_8h.html" target="_top" xlink:title=" ">
<polygon fill="white" stroke="black" points="240.5,-616.5 240.5,-646.5 370.5,-646.5 370.5,-616.5 240.5,-616.5"/>
<text text-anchor="start" x="248.5" y="-634.5" font-family="Helvetica,sans-Serif" font-size="10.00">lseq_part_result/lseq</text>
<text text-anchor="middle" x="305.5" y="-623.5" font-family="Helvetica,sans-Serif" font-size="10.00">_part_global_position.h</text>
</a>
</g>
</g>
<!-- Node28&#45;&gt;Node34 -->
<g id="edge70" class="edge">
<title>Node28&#45;&gt;Node34</title>
<path fill="none" stroke="midnightblue" d="M805.71,-689.69C729.49,-684.53 545.34,-670.71 381.1,-647.15"/>
<polygon fill="midnightblue" stroke="midnightblue" points="381.21,-643.62 370.81,-645.65 380.2,-650.55 381.21,-643.62"/>
</g>
<!-- Node35 -->
<g id="node35" class="node">
<title>Node35</title>
<g id="a_node35"><a xlink:href="lseq__part__semi__diameter_8h.html" target="_top" xlink:title=" ">
<polygon fill="white" stroke="black" points="568.5,-616.5 568.5,-646.5 696.5,-646.5 696.5,-616.5 568.5,-616.5"/>
<text text-anchor="start" x="576.5" y="-634.5" font-family="Helvetica,sans-Serif" font-size="10.00">lseq_part_result/lseq</text>
<text text-anchor="middle" x="632.5" y="-623.5" font-family="Helvetica,sans-Serif" font-size="10.00">_part_semi_diameter.h</text>
</a>
</g>
</g>
<!-- Node28&#45;&gt;Node35 -->
<g id="edge73" class="edge">
<title>Node28&#45;&gt;Node35</title>
<path fill="none" stroke="midnightblue" d="M811.56,-683.48C780.34,-674.59 730.6,-660.43 691.46,-649.29"/>
<polygon fill="midnightblue" stroke="midnightblue" points="692.33,-645.89 681.76,-646.52 690.42,-652.63 692.33,-645.89"/>
</g>
<!-- Node36 -->
<g id="node36" class="node">
<title>Node36</title>
<g id="a_node36"><a xlink:href="lseq__part__global__rays_8h.html" target="_top" xlink:title=" ">
<polygon fill="white" stroke="black" points="714.5,-616.5 714.5,-646.5 832.5,-646.5 832.5,-616.5 714.5,-616.5"/>
<text text-anchor="start" x="722.5" y="-634.5" font-family="Helvetica,sans-Serif" font-size="10.00">lseq_part_result/lseq</text>
<text text-anchor="middle" x="773.5" y="-623.5" font-family="Helvetica,sans-Serif" font-size="10.00">_part_global_rays.h</text>
</a>
</g>
</g>
<!-- Node28&#45;&gt;Node36 -->
<g id="edge75" class="edge">
<title>Node28&#45;&gt;Node36</title>
<path fill="none" stroke="midnightblue" d="M831.76,-683.48C822.81,-675.64 809.17,-663.71 797.35,-653.37"/>
<polygon fill="midnightblue" stroke="midnightblue" points="799.36,-650.47 789.53,-646.52 794.75,-655.74 799.36,-650.47"/>
</g>
<!-- Node37 -->
<g id="node37" class="node">
<title>Node37</title>
<g id="a_node37"><a xlink:href="lseq__part__propagation__direction_8h.html" target="_top" xlink:title=" ">
<polygon fill="white" stroke="black" points="388.5,-616.5 388.5,-646.5 550.5,-646.5 550.5,-616.5 388.5,-616.5"/>
<text text-anchor="start" x="396.5" y="-634.5" font-family="Helvetica,sans-Serif" font-size="10.00">lseq_part_result/lseq</text>
<text text-anchor="middle" x="469.5" y="-623.5" font-family="Helvetica,sans-Serif" font-size="10.00">_part_propagation_direction.h</text>
</a>
</g>
</g>
<!-- Node28&#45;&gt;Node37 -->
<g id="edge78" class="edge">
<title>Node28&#45;&gt;Node37</title>
<path fill="none" stroke="midnightblue" d="M805.88,-686.33C754.21,-678.11 655.17,-662.33 560.92,-647.23"/>
<polygon fill="midnightblue" stroke="midnightblue" points="561.36,-643.75 550.93,-645.63 560.25,-650.66 561.36,-643.75"/>
</g>
<!-- Node29&#45;&gt;Node22 -->
<g id="edge65" class="edge">
<title>Node29&#45;&gt;Node22</title>
<path fill="none" stroke="midnightblue" d="M1205.55,-621.73C1213.96,-602.72 1232.5,-556.11 1232.5,-515 1232.5,-515 1232.5,-515 1232.5,-457 1232.5,-411.21 1184.25,-377.49 1152.25,-360.16"/>
<polygon fill="midnightblue" stroke="midnightblue" points="1153.8,-357.02 1143.31,-355.51 1150.57,-363.23 1153.8,-357.02"/>
</g>
<!-- Node30 -->
<g id="node30" class="node">
<title>Node30</title>
<g id="a_node30"><a xlink:title=" ">
<polygon fill="white" stroke="#bfbfbf" points="1261,-560.5 1261,-579.5 1354,-579.5 1354,-560.5 1261,-560.5"/>
<text text-anchor="middle" x="1307.5" y="-567.5" font-family="Helvetica,sans-Serif" font-size="10.00">unordered_map</text>
</a>
</g>
</g>
<!-- Node29&#45;&gt;Node30 -->
<g id="edge64" class="edge">
<title>Node29&#45;&gt;Node30</title>
<path fill="none" stroke="midnightblue" d="M1216.69,-621.98C1234.16,-612.17 1263.08,-595.93 1283.58,-584.42"/>
<polygon fill="midnightblue" stroke="midnightblue" points="1285.33,-587.46 1292.34,-579.51 1281.91,-581.35 1285.33,-587.46"/>
</g>
<!-- Node31 -->
<g id="node31" class="node">
<title>Node31</title>
<g id="a_node31"><a xlink:title=" ">
<polygon fill="white" stroke="#bfbfbf" points="1139,-560.5 1139,-579.5 1204,-579.5 1204,-560.5 1139,-560.5"/>
<text text-anchor="middle" x="1171.5" y="-567.5" font-family="Helvetica,sans-Serif" font-size="10.00">typeindex</text>
</a>
</g>
</g>
<!-- Node29&#45;&gt;Node31 -->
<g id="edge66" class="edge">
<title>Node29&#45;&gt;Node31</title>
<path fill="none" stroke="midnightblue" d="M1197.2,-621.98C1192.84,-613.32 1185.94,-599.65 1180.4,-588.65"/>
<polygon fill="midnightblue" stroke="midnightblue" points="1183.42,-586.86 1175.79,-579.51 1177.17,-590.01 1183.42,-586.86"/>
</g>
<!-- Node32&#45;&gt;Node26 -->
<g id="edge69" class="edge">
<title>Node32&#45;&gt;Node26</title>
<path fill="none" stroke="midnightblue" d="M919.93,-616.4C926.26,-607.84 934.37,-596.87 941.03,-587.86"/>
<polygon fill="midnightblue" stroke="midnightblue" points="943.97,-589.78 947.1,-579.66 938.34,-585.62 943.97,-589.78"/>
</g>
<!-- Node33 -->
<g id="node33" class="node">
<title>Node33</title>
<g id="a_node33"><a xlink:href="lseq__part__result_8h.html" target="_top" xlink:title=" ">
<polygon fill="white" stroke="black" points="580.5,-560.5 580.5,-579.5 684.5,-579.5 684.5,-560.5 580.5,-560.5"/>
<text text-anchor="middle" x="632.5" y="-567.5" font-family="Helvetica,sans-Serif" font-size="10.00">lseq_part_result.h</text>
</a>
</g>
</g>
<!-- Node32&#45;&gt;Node33 -->
<g id="edge68" class="edge">
<title>Node32&#45;&gt;Node33</title>
<path fill="none" stroke="midnightblue" d="M850.42,-617.81C800.38,-607.06 729.46,-591.83 682.28,-581.69"/>
<polygon fill="midnightblue" stroke="midnightblue" points="682.8,-578.23 672.29,-579.55 681.33,-585.07 682.8,-578.23"/>
</g>
<!-- Node34&#45;&gt;Node2 -->
<g id="edge72" class="edge">
<title>Node34&#45;&gt;Node2</title>
<path fill="none" stroke="midnightblue" d="M370.63,-617.55C423.56,-602.79 489.5,-572.8 489.5,-515 489.5,-515 489.5,-515 489.5,-401 489.5,-342.4 415.23,-312.37 368.85,-299.33"/>
<polygon fill="midnightblue" stroke="midnightblue" points="369.7,-295.94 359.13,-296.73 367.89,-302.7 369.7,-295.94"/>
</g>
<!-- Node34&#45;&gt;Node33 -->
<g id="edge71" class="edge">
<title>Node34&#45;&gt;Node33</title>
<path fill="none" stroke="midnightblue" d="M370.86,-617.63C373.78,-617.07 376.67,-616.53 379.5,-616 445.69,-603.63 521.78,-590.2 573.08,-581.27"/>
<polygon fill="midnightblue" stroke="midnightblue" points="573.75,-584.7 583.01,-579.54 572.55,-577.81 573.75,-584.7"/>
</g>
<!-- Node35&#45;&gt;Node33 -->
<g id="edge74" class="edge">
<title>Node35&#45;&gt;Node33</title>
<path fill="none" stroke="midnightblue" d="M632.5,-616.4C632.5,-608.47 632.5,-598.46 632.5,-589.86"/>
<polygon fill="midnightblue" stroke="midnightblue" points="636,-589.66 632.5,-579.66 629,-589.66 636,-589.66"/>
</g>
<!-- Node36&#45;&gt;Node26 -->
<g id="edge77" class="edge">
<title>Node36&#45;&gt;Node26</title>
<path fill="none" stroke="midnightblue" d="M816.16,-616.4C847.13,-606.16 888.55,-592.47 917.78,-582.81"/>
<polygon fill="midnightblue" stroke="midnightblue" points="919.17,-586.03 927.57,-579.57 916.98,-579.39 919.17,-586.03"/>
</g>
<!-- Node36&#45;&gt;Node33 -->
<g id="edge76" class="edge">
<title>Node36&#45;&gt;Node33</title>
<path fill="none" stroke="midnightblue" d="M740.08,-616.4C716.53,-606.46 685.26,-593.26 662.51,-583.66"/>
<polygon fill="midnightblue" stroke="midnightblue" points="663.59,-580.32 653.02,-579.66 660.87,-586.77 663.59,-580.32"/>
</g>
<!-- Node37&#45;&gt;Node33 -->
<g id="edge79" class="edge">
<title>Node37&#45;&gt;Node33</title>
<path fill="none" stroke="midnightblue" d="M508.13,-616.4C535.84,-606.28 572.81,-592.79 599.22,-583.15"/>
<polygon fill="midnightblue" stroke="midnightblue" points="600.59,-586.37 608.78,-579.66 598.19,-579.8 600.59,-586.37"/>
</g>
<!-- Node39&#45;&gt;Node5 -->
<g id="edge84" class="edge">
<title>Node39&#45;&gt;Node5</title>
<path fill="none" stroke="midnightblue" d="M1293.13,-392.31C1286.3,-373.92 1271.5,-329.58 1271.5,-291 1271.5,-291 1271.5,-291 1271.5,-121 1271.5,-46.87 702.81,-18.84 544.8,-12.49"/>
<polygon fill="midnightblue" stroke="midnightblue" points="544.7,-8.98 534.57,-12.08 544.42,-15.97 544.7,-8.98"/>
</g>
<!-- Node39&#45;&gt;Node19 -->
<g id="edge82" class="edge">
<title>Node39&#45;&gt;Node19</title>
<path fill="none" stroke="midnightblue" d="M1284.18,-392.37C1257.35,-373.57 1193.41,-328.77 1160.24,-305.53"/>
<polygon fill="midnightblue" stroke="midnightblue" points="1161.96,-302.46 1151.76,-299.59 1157.94,-308.2 1161.96,-302.46"/>
</g>
<!-- Node39&#45;&gt;Node22 -->
<g id="edge83" class="edge">
<title>Node39&#45;&gt;Node22</title>
<path fill="none" stroke="midnightblue" d="M1269.25,-392.44C1240.06,-383.28 1193.58,-368.69 1161.19,-358.52"/>
<polygon fill="midnightblue" stroke="midnightblue" points="1162.22,-355.17 1151.63,-355.52 1160.12,-361.85 1162.22,-355.17"/>
</g>
<!-- Node40&#45;&gt;Node26 -->
<g id="edge87" class="edge">
<title>Node40&#45;&gt;Node26</title>
<path fill="none" stroke="midnightblue" d="M1230.53,-683.37C1204.73,-674.66 1164.12,-660.59 1129.5,-647 1076.63,-626.25 1016.04,-599.39 981.51,-583.79"/>
<polygon fill="midnightblue" stroke="midnightblue" points="982.64,-580.45 972.08,-579.51 979.75,-586.83 982.64,-580.45"/>
</g>
<!-- Node40&#45;&gt;Node38 -->
<g id="edge86" class="edge">
<title>Node40&#45;&gt;Node38</title>
<path fill="none" stroke="midnightblue" d="M1269.54,-683.48C1284.27,-673.84 1308.47,-658.02 1326.01,-646.55"/>
<polygon fill="midnightblue" stroke="midnightblue" points="1328.03,-649.41 1334.49,-641.01 1324.2,-643.55 1328.03,-649.41"/>
</g>
</g>
</svg>
