<?xml version="1.0" encoding="UTF-8" standalone="no"?>
<!DOCTYPE svg PUBLIC "-//W3C//DTD SVG 1.1//EN"
 "http://www.w3.org/Graphics/SVG/1.1/DTD/svg11.dtd">
<!-- Generated by graphviz version 2.43.0 (0)
 -->
<!-- Title: src/poaky/src/shape/shape.h Pages: 1 -->
<svg width="344pt" height="207pt"
 viewBox="0.00 0.00 344.00 207.00" xmlns="http://www.w3.org/2000/svg" xmlns:xlink="http://www.w3.org/1999/xlink">
<g id="graph0" class="graph" transform="scale(1 1) rotate(0) translate(4 203)">
<title>src/poaky/src/shape/shape.h</title>
<polygon fill="white" stroke="transparent" points="-4,4 -4,-203 340,-203 340,4 -4,4"/>
<!-- Node1 -->
<g id="node1" class="node">
<title>Node1</title>
<g id="a_node1"><a xlink:title=" ">
<polygon fill="#bfbfbf" stroke="black" points="133.5,-168.5 133.5,-198.5 246.5,-198.5 246.5,-168.5 133.5,-168.5"/>
<text text-anchor="start" x="141.5" y="-186.5" font-family="Helvetica,sans-Serif" font-size="10.00">src/poaky/src/shape</text>
<text text-anchor="middle" x="190" y="-175.5" font-family="Helvetica,sans-Serif" font-size="10.00">/shape.h</text>
</a>
</g>
</g>
<!-- Node2 -->
<g id="node2" class="node">
<title>Node2</title>
<g id="a_node2"><a xlink:href="ray_8h.html" target="_top" xlink:title=" ">
<polygon fill="white" stroke="black" points="64.5,-112.5 64.5,-131.5 123.5,-131.5 123.5,-112.5 64.5,-112.5"/>
<text text-anchor="middle" x="94" y="-119.5" font-family="Helvetica,sans-Serif" font-size="10.00">ray/ray.h</text>
</a>
</g>
</g>
<!-- Node1&#45;&gt;Node2 -->
<g id="edge1" class="edge">
<title>Node1&#45;&gt;Node2</title>
<path fill="none" stroke="midnightblue" d="M167.25,-168.4C152.01,-158.95 132.01,-146.56 116.76,-137.11"/>
<polygon fill="midnightblue" stroke="midnightblue" points="118.31,-133.95 107.97,-131.66 114.62,-139.9 118.31,-133.95"/>
</g>
<!-- Node3 -->
<g id="node3" class="node">
<title>Node3</title>
<g id="a_node3"><a xlink:href="Vec3_8h.html" target="_top" xlink:title=" ">
<polygon fill="white" stroke="black" points="79.5,-56.5 79.5,-75.5 154.5,-75.5 154.5,-56.5 79.5,-56.5"/>
<text text-anchor="middle" x="117" y="-63.5" font-family="Helvetica,sans-Serif" font-size="10.00">base/Vec3.h</text>
</a>
</g>
</g>
<!-- Node1&#45;&gt;Node3 -->
<g id="edge7" class="edge">
<title>Node1&#45;&gt;Node3</title>
<path fill="none" stroke="midnightblue" d="M181.05,-168.34C167.66,-147.15 142.44,-107.24 127.96,-84.34"/>
<polygon fill="midnightblue" stroke="midnightblue" points="130.78,-82.25 122.48,-75.67 124.86,-85.99 130.78,-82.25"/>
</g>
<!-- Node4 -->
<g id="node4" class="node">
<title>Node4</title>
<g id="a_node4"><a xlink:title=" ">
<polygon fill="white" stroke="#bfbfbf" points="173.5,-0.5 173.5,-19.5 220.5,-19.5 220.5,-0.5 173.5,-0.5"/>
<text text-anchor="middle" x="197" y="-7.5" font-family="Helvetica,sans-Serif" font-size="10.00">cmath</text>
</a>
</g>
</g>
<!-- Node1&#45;&gt;Node4 -->
<g id="edge8" class="edge">
<title>Node1&#45;&gt;Node4</title>
<path fill="none" stroke="midnightblue" d="M190.57,-168.47C191.83,-137.7 194.82,-64.33 196.24,-29.7"/>
<polygon fill="midnightblue" stroke="midnightblue" points="199.74,-29.69 196.65,-19.56 192.75,-29.41 199.74,-29.69"/>
</g>
<!-- Node7 -->
<g id="node7" class="node">
<title>Node7</title>
<g id="a_node7"><a xlink:title=" ">
<polygon fill="white" stroke="#bfbfbf" points="218,-112.5 218,-131.5 262,-131.5 262,-112.5 218,-112.5"/>
<text text-anchor="middle" x="240" y="-119.5" font-family="Helvetica,sans-Serif" font-size="10.00">string</text>
</a>
</g>
</g>
<!-- Node1&#45;&gt;Node7 -->
<g id="edge9" class="edge">
<title>Node1&#45;&gt;Node7</title>
<path fill="none" stroke="midnightblue" d="M201.85,-168.4C209.11,-159.75 218.45,-148.64 226.07,-139.58"/>
<polygon fill="midnightblue" stroke="midnightblue" points="228.97,-141.57 232.72,-131.66 223.61,-137.06 228.97,-141.57"/>
</g>
<!-- Node8 -->
<g id="node8" class="node">
<title>Node8</title>
<g id="a_node8"><a xlink:title=" ">
<polygon fill="white" stroke="#bfbfbf" points="280,-112.5 280,-131.5 336,-131.5 336,-112.5 280,-112.5"/>
<text text-anchor="middle" x="308" y="-119.5" font-family="Helvetica,sans-Serif" font-size="10.00">sstream</text>
</a>
</g>
</g>
<!-- Node1&#45;&gt;Node8 -->
<g id="edge10" class="edge">
<title>Node1&#45;&gt;Node8</title>
<path fill="none" stroke="midnightblue" d="M217.96,-168.4C237.32,-158.64 262.91,-145.74 281.86,-136.18"/>
<polygon fill="midnightblue" stroke="midnightblue" points="283.48,-139.29 290.83,-131.66 280.33,-133.04 283.48,-139.29"/>
</g>
<!-- Node2&#45;&gt;Node3 -->
<g id="edge2" class="edge">
<title>Node2&#45;&gt;Node3</title>
<path fill="none" stroke="midnightblue" d="M97.8,-112.08C100.91,-104.77 105.42,-94.18 109.29,-85.1"/>
<polygon fill="midnightblue" stroke="midnightblue" points="112.57,-86.32 113.27,-75.75 106.13,-83.58 112.57,-86.32"/>
</g>
<!-- Node5 -->
<g id="node5" class="node">
<title>Node5</title>
<g id="a_node5"><a xlink:title=" ">
<polygon fill="white" stroke="#bfbfbf" points="0,-0.5 0,-19.5 60,-19.5 60,-0.5 0,-0.5"/>
<text text-anchor="middle" x="30" y="-7.5" font-family="Helvetica,sans-Serif" font-size="10.00">iostream</text>
</a>
</g>
</g>
<!-- Node2&#45;&gt;Node5 -->
<g id="edge6" class="edge">
<title>Node2&#45;&gt;Node5</title>
<path fill="none" stroke="midnightblue" d="M88.98,-112.37C78.46,-94.3 53.96,-52.18 40.07,-28.31"/>
<polygon fill="midnightblue" stroke="midnightblue" points="43.05,-26.47 35,-19.59 37,-30 43.05,-26.47"/>
</g>
<!-- Node3&#45;&gt;Node4 -->
<g id="edge3" class="edge">
<title>Node3&#45;&gt;Node4</title>
<path fill="none" stroke="midnightblue" d="M129.85,-56.32C142.22,-47.98 161.13,-35.21 175.74,-25.35"/>
<polygon fill="midnightblue" stroke="midnightblue" points="177.85,-28.15 184.18,-19.65 173.93,-22.35 177.85,-28.15"/>
</g>
<!-- Node3&#45;&gt;Node5 -->
<g id="edge4" class="edge">
<title>Node3&#45;&gt;Node5</title>
<path fill="none" stroke="midnightblue" d="M103.02,-56.32C89.45,-47.9 68.62,-34.97 52.68,-25.07"/>
<polygon fill="midnightblue" stroke="midnightblue" points="54.29,-21.95 43.94,-19.65 50.59,-27.9 54.29,-21.95"/>
</g>
<!-- Node6 -->
<g id="node6" class="node">
<title>Node6</title>
<g id="a_node6"><a xlink:title=" ">
<polygon fill="white" stroke="#bfbfbf" points="78.5,-0.5 78.5,-19.5 155.5,-19.5 155.5,-0.5 78.5,-0.5"/>
<text text-anchor="middle" x="117" y="-7.5" font-family="Helvetica,sans-Serif" font-size="10.00">Eigen/Dense</text>
</a>
</g>
</g>
<!-- Node3&#45;&gt;Node6 -->
<g id="edge5" class="edge">
<title>Node3&#45;&gt;Node6</title>
<path fill="none" stroke="midnightblue" d="M117,-56.08C117,-49.01 117,-38.86 117,-29.99"/>
<polygon fill="midnightblue" stroke="midnightblue" points="120.5,-29.75 117,-19.75 113.5,-29.75 120.5,-29.75"/>
</g>
</g>
</svg>
