<?xml version="1.0" encoding="UTF-8" standalone="no"?>
<!DOCTYPE svg PUBLIC "-//W3C//DTD SVG 1.1//EN"
 "http://www.w3.org/Graphics/SVG/1.1/DTD/svg11.dtd">
<!-- Generated by graphviz version 2.43.0 (0)
 -->
<!-- Title: src/poaky/src/shape/standard.h Pages: 1 -->
<svg width="289pt" height="263pt"
 viewBox="0.00 0.00 289.20 263.00" xmlns="http://www.w3.org/2000/svg" xmlns:xlink="http://www.w3.org/1999/xlink">
<g id="graph0" class="graph" transform="scale(1 1) rotate(0) translate(4 259)">
<title>src/poaky/src/shape/standard.h</title>
<polygon fill="white" stroke="transparent" points="-4,4 -4,-259 285.2,-259 285.2,4 -4,4"/>
<!-- Node1 -->
<g id="node1" class="node">
<title>Node1</title>
<g id="a_node1"><a xlink:title=" ">
<polygon fill="#bfbfbf" stroke="black" points="139,-224.5 139,-254.5 252,-254.5 252,-224.5 139,-224.5"/>
<text text-anchor="start" x="147" y="-242.5" font-family="Helvetica,sans-Serif" font-size="10.00">src/poaky/src/shape</text>
<text text-anchor="middle" x="195.5" y="-231.5" font-family="Helvetica,sans-Serif" font-size="10.00">/standard.h</text>
</a>
</g>
</g>
<!-- Node2 -->
<g id="node2" class="node">
<title>Node2</title>
<g id="a_node2"><a xlink:href="shape_8h.html" target="_top" xlink:title=" ">
<polygon fill="white" stroke="black" points="85,-168.5 85,-187.5 172,-187.5 172,-168.5 85,-168.5"/>
<text text-anchor="middle" x="128.5" y="-175.5" font-family="Helvetica,sans-Serif" font-size="10.00">shape/shape.h</text>
</a>
</g>
</g>
<!-- Node1&#45;&gt;Node2 -->
<g id="edge1" class="edge">
<title>Node1&#45;&gt;Node2</title>
<path fill="none" stroke="midnightblue" d="M179.62,-224.4C169.48,-215.4 156.34,-203.72 145.91,-194.47"/>
<polygon fill="midnightblue" stroke="midnightblue" points="148.05,-191.68 138.25,-187.66 143.4,-196.92 148.05,-191.68"/>
</g>
<!-- Node6 -->
<g id="node6" class="node">
<title>Node6</title>
<g id="a_node6"><a xlink:title=" ">
<polygon fill="white" stroke="#bfbfbf" points="208.5,-0.5 208.5,-19.5 268.5,-19.5 268.5,-0.5 208.5,-0.5"/>
<text text-anchor="middle" x="238.5" y="-7.5" font-family="Helvetica,sans-Serif" font-size="10.00">iostream</text>
</a>
</g>
</g>
<!-- Node1&#45;&gt;Node6 -->
<g id="edge12" class="edge">
<title>Node1&#45;&gt;Node6</title>
<path fill="none" stroke="midnightblue" d="M211.67,-224.23C231.62,-205.42 264.49,-170.22 277.5,-132 290.06,-95.09 266.72,-51.5 251.04,-28.03"/>
<polygon fill="midnightblue" stroke="midnightblue" points="253.7,-25.73 245.11,-19.54 247.97,-29.74 253.7,-25.73"/>
</g>
<!-- Node3 -->
<g id="node3" class="node">
<title>Node3</title>
<g id="a_node3"><a xlink:href="ray_8h.html" target="_top" xlink:title=" ">
<polygon fill="white" stroke="black" points="209,-112.5 209,-131.5 268,-131.5 268,-112.5 209,-112.5"/>
<text text-anchor="middle" x="238.5" y="-119.5" font-family="Helvetica,sans-Serif" font-size="10.00">ray/ray.h</text>
</a>
</g>
</g>
<!-- Node2&#45;&gt;Node3 -->
<g id="edge2" class="edge">
<title>Node2&#45;&gt;Node3</title>
<path fill="none" stroke="midnightblue" d="M146.17,-168.32C163.89,-159.62 191.4,-146.12 211.79,-136.11"/>
<polygon fill="midnightblue" stroke="midnightblue" points="213.44,-139.2 220.87,-131.65 210.35,-132.92 213.44,-139.2"/>
</g>
<!-- Node4 -->
<g id="node4" class="node">
<title>Node4</title>
<g id="a_node4"><a xlink:href="Vec3_8h.html" target="_top" xlink:title=" ">
<polygon fill="white" stroke="black" points="98,-56.5 98,-75.5 173,-75.5 173,-56.5 98,-56.5"/>
<text text-anchor="middle" x="135.5" y="-63.5" font-family="Helvetica,sans-Serif" font-size="10.00">base/Vec3.h</text>
</a>
</g>
</g>
<!-- Node2&#45;&gt;Node4 -->
<g id="edge8" class="edge">
<title>Node2&#45;&gt;Node4</title>
<path fill="none" stroke="midnightblue" d="M107.8,-168.35C84.11,-157.1 50.19,-136.01 63.5,-112 71.59,-97.41 86.6,-86.92 100.84,-79.76"/>
<polygon fill="midnightblue" stroke="midnightblue" points="102.39,-82.9 110,-75.53 99.45,-76.55 102.39,-82.9"/>
</g>
<!-- Node5 -->
<g id="node5" class="node">
<title>Node5</title>
<g id="a_node5"><a xlink:title=" ">
<polygon fill="white" stroke="#bfbfbf" points="0,-0.5 0,-19.5 47,-19.5 47,-0.5 0,-0.5"/>
<text text-anchor="middle" x="23.5" y="-7.5" font-family="Helvetica,sans-Serif" font-size="10.00">cmath</text>
</a>
</g>
</g>
<!-- Node2&#45;&gt;Node5 -->
<g id="edge9" class="edge">
<title>Node2&#45;&gt;Node5</title>
<path fill="none" stroke="midnightblue" d="M106.83,-168.38C90.94,-160.99 70.05,-148.86 57.5,-132 34.45,-101.04 27.02,-55.08 24.63,-29.65"/>
<polygon fill="midnightblue" stroke="midnightblue" points="28.11,-29.23 23.85,-19.53 21.13,-29.77 28.11,-29.23"/>
</g>
<!-- Node8 -->
<g id="node8" class="node">
<title>Node8</title>
<g id="a_node8"><a xlink:title=" ">
<polygon fill="white" stroke="#bfbfbf" points="72.5,-112.5 72.5,-131.5 116.5,-131.5 116.5,-112.5 72.5,-112.5"/>
<text text-anchor="middle" x="94.5" y="-119.5" font-family="Helvetica,sans-Serif" font-size="10.00">string</text>
</a>
</g>
</g>
<!-- Node2&#45;&gt;Node8 -->
<g id="edge10" class="edge">
<title>Node2&#45;&gt;Node8</title>
<path fill="none" stroke="midnightblue" d="M122.89,-168.08C118.13,-160.53 111.18,-149.49 105.35,-140.23"/>
<polygon fill="midnightblue" stroke="midnightblue" points="108.3,-138.35 100.01,-131.75 102.38,-142.08 108.3,-138.35"/>
</g>
<!-- Node9 -->
<g id="node9" class="node">
<title>Node9</title>
<g id="a_node9"><a xlink:title=" ">
<polygon fill="white" stroke="#bfbfbf" points="134.5,-112.5 134.5,-131.5 190.5,-131.5 190.5,-112.5 134.5,-112.5"/>
<text text-anchor="middle" x="162.5" y="-119.5" font-family="Helvetica,sans-Serif" font-size="10.00">sstream</text>
</a>
</g>
</g>
<!-- Node2&#45;&gt;Node9 -->
<g id="edge11" class="edge">
<title>Node2&#45;&gt;Node9</title>
<path fill="none" stroke="midnightblue" d="M134.11,-168.08C138.87,-160.53 145.82,-149.49 151.65,-140.23"/>
<polygon fill="midnightblue" stroke="midnightblue" points="154.62,-142.08 156.99,-131.75 148.7,-138.35 154.62,-142.08"/>
</g>
<!-- Node3&#45;&gt;Node4 -->
<g id="edge3" class="edge">
<title>Node3&#45;&gt;Node4</title>
<path fill="none" stroke="midnightblue" d="M221.95,-112.32C205.51,-103.7 180.07,-90.36 161.03,-80.39"/>
<polygon fill="midnightblue" stroke="midnightblue" points="162.49,-77.2 152.01,-75.65 159.24,-83.4 162.49,-77.2"/>
</g>
<!-- Node3&#45;&gt;Node6 -->
<g id="edge7" class="edge">
<title>Node3&#45;&gt;Node6</title>
<path fill="none" stroke="midnightblue" d="M238.5,-112.37C238.5,-94.62 238.5,-53.67 238.5,-29.6"/>
<polygon fill="midnightblue" stroke="midnightblue" points="242,-29.59 238.5,-19.59 235,-29.59 242,-29.59"/>
</g>
<!-- Node4&#45;&gt;Node5 -->
<g id="edge4" class="edge">
<title>Node4&#45;&gt;Node5</title>
<path fill="none" stroke="midnightblue" d="M117.51,-56.32C99.46,-47.62 71.45,-34.12 50.7,-24.11"/>
<polygon fill="midnightblue" stroke="midnightblue" points="51.98,-20.84 41.45,-19.65 48.94,-27.15 51.98,-20.84"/>
</g>
<!-- Node4&#45;&gt;Node6 -->
<g id="edge5" class="edge">
<title>Node4&#45;&gt;Node6</title>
<path fill="none" stroke="midnightblue" d="M152.05,-56.32C168.49,-47.7 193.93,-34.36 212.97,-24.39"/>
<polygon fill="midnightblue" stroke="midnightblue" points="214.76,-27.4 221.99,-19.65 211.51,-21.2 214.76,-27.4"/>
</g>
<!-- Node7 -->
<g id="node7" class="node">
<title>Node7</title>
<g id="a_node7"><a xlink:title=" ">
<polygon fill="white" stroke="#bfbfbf" points="97,-0.5 97,-19.5 174,-19.5 174,-0.5 97,-0.5"/>
<text text-anchor="middle" x="135.5" y="-7.5" font-family="Helvetica,sans-Serif" font-size="10.00">Eigen/Dense</text>
</a>
</g>
</g>
<!-- Node4&#45;&gt;Node7 -->
<g id="edge6" class="edge">
<title>Node4&#45;&gt;Node7</title>
<path fill="none" stroke="midnightblue" d="M135.5,-56.08C135.5,-49.01 135.5,-38.86 135.5,-29.99"/>
<polygon fill="midnightblue" stroke="midnightblue" points="139,-29.75 135.5,-19.75 132,-29.75 139,-29.75"/>
</g>
</g>
</svg>
