<?xml version="1.0" encoding="UTF-8" standalone="no"?>
<!DOCTYPE svg PUBLIC "-//W3C//DTD SVG 1.1//EN"
 "http://www.w3.org/Graphics/SVG/1.1/DTD/svg11.dtd">
<!-- Generated by graphviz version 2.43.0 (0)
 -->
<!-- Title: src/poaky/src/transfer/transfer.h Pages: 1 -->
<svg width="237pt" height="207pt"
 viewBox="0.00 0.00 236.50 207.00" xmlns="http://www.w3.org/2000/svg" xmlns:xlink="http://www.w3.org/1999/xlink">
<g id="graph0" class="graph" transform="scale(1 1) rotate(0) translate(4 203)">
<title>src/poaky/src/transfer/transfer.h</title>
<polygon fill="white" stroke="transparent" points="-4,4 -4,-203 232.5,-203 232.5,4 -4,4"/>
<!-- Node1 -->
<g id="node1" class="node">
<title>Node1</title>
<g id="a_node1"><a xlink:title=" ">
<polygon fill="#bfbfbf" stroke="black" points="57.5,-168.5 57.5,-198.5 179.5,-198.5 179.5,-168.5 57.5,-168.5"/>
<text text-anchor="start" x="65.5" y="-186.5" font-family="Helvetica,sans-Serif" font-size="10.00">src/poaky/src/transfer</text>
<text text-anchor="middle" x="118.5" y="-175.5" font-family="Helvetica,sans-Serif" font-size="10.00">/transfer.h</text>
</a>
</g>
</g>
<!-- Node2 -->
<g id="node2" class="node">
<title>Node2</title>
<g id="a_node2"><a xlink:href="Vec3_8h.html" target="_top" xlink:title=" ">
<polygon fill="white" stroke="black" points="95,-56.5 95,-75.5 170,-75.5 170,-56.5 95,-56.5"/>
<text text-anchor="middle" x="132.5" y="-63.5" font-family="Helvetica,sans-Serif" font-size="10.00">base/Vec3.h</text>
</a>
</g>
</g>
<!-- Node1&#45;&gt;Node2 -->
<g id="edge1" class="edge">
<title>Node1&#45;&gt;Node2</title>
<path fill="none" stroke="midnightblue" d="M120.22,-168.34C122.73,-147.62 127.41,-109.02 130.21,-85.9"/>
<polygon fill="midnightblue" stroke="midnightblue" points="133.72,-86.02 131.45,-75.67 126.77,-85.18 133.72,-86.02"/>
</g>
<!-- Node6 -->
<g id="node6" class="node">
<title>Node6</title>
<g id="a_node6"><a xlink:href="Mat3_8h.html" target="_top" xlink:title=" ">
<polygon fill="white" stroke="black" points="0,-56.5 0,-75.5 77,-75.5 77,-56.5 0,-56.5"/>
<text text-anchor="middle" x="38.5" y="-63.5" font-family="Helvetica,sans-Serif" font-size="10.00">base/Mat3.h</text>
</a>
</g>
</g>
<!-- Node1&#45;&gt;Node6 -->
<g id="edge5" class="edge">
<title>Node1&#45;&gt;Node6</title>
<path fill="none" stroke="midnightblue" d="M108.69,-168.34C93.95,-147.05 66.13,-106.89 50.3,-84.03"/>
<polygon fill="midnightblue" stroke="midnightblue" points="53.08,-81.9 44.5,-75.67 47.32,-85.88 53.08,-81.9"/>
</g>
<!-- Node7 -->
<g id="node7" class="node">
<title>Node7</title>
<g id="a_node7"><a xlink:href="ray_8h.html" target="_top" xlink:title=" ">
<polygon fill="white" stroke="black" points="147,-112.5 147,-131.5 206,-131.5 206,-112.5 147,-112.5"/>
<text text-anchor="middle" x="176.5" y="-119.5" font-family="Helvetica,sans-Serif" font-size="10.00">ray/ray.h</text>
</a>
</g>
</g>
<!-- Node1&#45;&gt;Node7 -->
<g id="edge7" class="edge">
<title>Node1&#45;&gt;Node7</title>
<path fill="none" stroke="midnightblue" d="M132.25,-168.4C140.85,-159.58 151.95,-148.18 160.89,-139.02"/>
<polygon fill="midnightblue" stroke="midnightblue" points="163.59,-141.26 168.06,-131.66 158.57,-136.38 163.59,-141.26"/>
</g>
<!-- Node3 -->
<g id="node3" class="node">
<title>Node3</title>
<g id="a_node3"><a xlink:title=" ">
<polygon fill="white" stroke="#bfbfbf" points="103,-0.5 103,-19.5 150,-19.5 150,-0.5 103,-0.5"/>
<text text-anchor="middle" x="126.5" y="-7.5" font-family="Helvetica,sans-Serif" font-size="10.00">cmath</text>
</a>
</g>
</g>
<!-- Node2&#45;&gt;Node3 -->
<g id="edge2" class="edge">
<title>Node2&#45;&gt;Node3</title>
<path fill="none" stroke="midnightblue" d="M131.51,-56.08C130.71,-48.93 129.57,-38.64 128.58,-29.69"/>
<polygon fill="midnightblue" stroke="midnightblue" points="132.06,-29.3 127.47,-19.75 125.1,-30.08 132.06,-29.3"/>
</g>
<!-- Node4 -->
<g id="node4" class="node">
<title>Node4</title>
<g id="a_node4"><a xlink:title=" ">
<polygon fill="white" stroke="#bfbfbf" points="168.5,-0.5 168.5,-19.5 228.5,-19.5 228.5,-0.5 168.5,-0.5"/>
<text text-anchor="middle" x="198.5" y="-7.5" font-family="Helvetica,sans-Serif" font-size="10.00">iostream</text>
</a>
</g>
</g>
<!-- Node2&#45;&gt;Node4 -->
<g id="edge3" class="edge">
<title>Node2&#45;&gt;Node4</title>
<path fill="none" stroke="midnightblue" d="M143.1,-56.32C152.96,-48.26 167.85,-36.08 179.72,-26.37"/>
<polygon fill="midnightblue" stroke="midnightblue" points="182.18,-28.88 187.7,-19.83 177.75,-23.46 182.18,-28.88"/>
</g>
<!-- Node5 -->
<g id="node5" class="node">
<title>Node5</title>
<g id="a_node5"><a xlink:title=" ">
<polygon fill="white" stroke="#bfbfbf" points="4,-0.5 4,-19.5 81,-19.5 81,-0.5 4,-0.5"/>
<text text-anchor="middle" x="42.5" y="-7.5" font-family="Helvetica,sans-Serif" font-size="10.00">Eigen/Dense</text>
</a>
</g>
</g>
<!-- Node2&#45;&gt;Node5 -->
<g id="edge4" class="edge">
<title>Node2&#45;&gt;Node5</title>
<path fill="none" stroke="midnightblue" d="M118.04,-56.32C104,-47.9 82.45,-34.97 65.96,-25.07"/>
<polygon fill="midnightblue" stroke="midnightblue" points="67.3,-21.8 56.92,-19.65 63.7,-27.8 67.3,-21.8"/>
</g>
<!-- Node6&#45;&gt;Node5 -->
<g id="edge6" class="edge">
<title>Node6&#45;&gt;Node5</title>
<path fill="none" stroke="midnightblue" d="M39.16,-56.08C39.68,-49.01 40.44,-38.86 41.09,-29.99"/>
<polygon fill="midnightblue" stroke="midnightblue" points="44.6,-29.98 41.85,-19.75 37.62,-29.47 44.6,-29.98"/>
</g>
<!-- Node7&#45;&gt;Node2 -->
<g id="edge8" class="edge">
<title>Node7&#45;&gt;Node2</title>
<path fill="none" stroke="midnightblue" d="M169.23,-112.08C162.96,-104.38 153.71,-93.03 146.07,-83.65"/>
<polygon fill="midnightblue" stroke="midnightblue" points="148.66,-81.29 139.63,-75.75 143.23,-85.71 148.66,-81.29"/>
</g>
<!-- Node7&#45;&gt;Node4 -->
<g id="edge9" class="edge">
<title>Node7&#45;&gt;Node4</title>
<path fill="none" stroke="midnightblue" d="M178.23,-112.37C181.78,-94.62 189.97,-53.67 194.78,-29.6"/>
<polygon fill="midnightblue" stroke="midnightblue" points="198.25,-30.08 196.78,-19.59 191.39,-28.71 198.25,-30.08"/>
</g>
</g>
</svg>
