<?xml version="1.0" encoding="UTF-8" standalone="no"?>
<!DOCTYPE svg PUBLIC "-//W3C//DTD SVG 1.1//EN"
 "http://www.w3.org/Graphics/SVG/1.1/DTD/svg11.dtd">
<!-- Generated by graphviz version 2.43.0 (0)
 -->
<!-- Title: src/pinyo/src/lpart/transfer_part.h Pages: 1 -->
<svg width="446pt" height="464pt"
 viewBox="0.00 0.00 445.74 464.00" xmlns="http://www.w3.org/2000/svg" xmlns:xlink="http://www.w3.org/1999/xlink">
<g id="graph0" class="graph" transform="scale(1 1) rotate(0) translate(4 460)">
<title>src/pinyo/src/lpart/transfer_part.h</title>
<polygon fill="white" stroke="transparent" points="-4,4 -4,-460 441.74,-460 441.74,4 -4,4"/>
<!-- Node1 -->
<g id="node1" class="node">
<title>Node1</title>
<g id="a_node1"><a xlink:title=" ">
<polygon fill="#bfbfbf" stroke="black" points="6.5,-425.5 6.5,-455.5 110.5,-455.5 110.5,-425.5 6.5,-425.5"/>
<text text-anchor="start" x="14.5" y="-443.5" font-family="Helvetica,sans-Serif" font-size="10.00">src/pinyo/src/lpart</text>
<text text-anchor="middle" x="58.5" y="-432.5" font-family="Helvetica,sans-Serif" font-size="10.00">/transfer_part.h</text>
</a>
</g>
</g>
<!-- Node2 -->
<g id="node2" class="node">
<title>Node2</title>
<g id="a_node2"><a xlink:href="pinyo_8h.html" target="_top" xlink:title=" ">
<polygon fill="white" stroke="black" points="0,-369.5 0,-388.5 117,-388.5 117,-369.5 0,-369.5"/>
<text text-anchor="middle" x="58.5" y="-376.5" font-family="Helvetica,sans-Serif" font-size="10.00">src/pinyo/src/pinyo.h</text>
</a>
</g>
</g>
<!-- Node1&#45;&gt;Node2 -->
<g id="edge1" class="edge">
<title>Node1&#45;&gt;Node2</title>
<path fill="none" stroke="midnightblue" d="M58.5,-415.29C58.5,-405.86 58.5,-395.65 58.5,-388.66"/>
<polygon fill="midnightblue" stroke="midnightblue" points="55,-415.4 58.5,-425.4 62,-415.4 55,-415.4"/>
</g>
<!-- Node3 -->
<g id="node3" class="node">
<title>Node3</title>
<g id="a_node3"><a xlink:href="lseq_8h.html" target="_top" xlink:title=" ">
<polygon fill="white" stroke="black" points="106.5,-112.5 106.5,-131.5 216.5,-131.5 216.5,-112.5 106.5,-112.5"/>
<text text-anchor="middle" x="161.5" y="-119.5" font-family="Helvetica,sans-Serif" font-size="10.00">src/pewit/src/lseq.h</text>
</a>
</g>
</g>
<!-- Node2&#45;&gt;Node3 -->
<g id="edge2" class="edge">
<title>Node2&#45;&gt;Node3</title>
<path fill="none" stroke="midnightblue" d="M58.05,-358.81C58.01,-319.75 62.52,-229.54 101.5,-168 111.81,-151.72 130.25,-139.22 143.98,-131.58"/>
<polygon fill="midnightblue" stroke="midnightblue" points="54.55,-359.24 58.17,-369.19 61.55,-359.15 54.55,-359.24"/>
</g>
<!-- Node5 -->
<g id="node5" class="node">
<title>Node5</title>
<g id="a_node5"><a xlink:href="robintrace_8h.html" target="_top" xlink:title=" ">
<polygon fill="white" stroke="black" points="46,-0.5 46,-19.5 159,-19.5 159,-0.5 46,-0.5"/>
<text text-anchor="middle" x="102.5" y="-7.5" font-family="Helvetica,sans-Serif" font-size="10.00">include/robintrace.h</text>
</a>
</g>
</g>
<!-- Node2&#45;&gt;Node5 -->
<g id="edge16" class="edge">
<title>Node2&#45;&gt;Node5</title>
<path fill="none" stroke="midnightblue" d="M44.71,-361.15C27.84,-338.79 1.5,-297.41 1.5,-257 1.5,-257 1.5,-257 1.5,-121 1.5,-72 56.55,-35.39 85.37,-19.59"/>
<polygon fill="midnightblue" stroke="midnightblue" points="42.13,-363.54 51.05,-369.26 47.65,-359.23 42.13,-363.54"/>
</g>
<!-- Node6 -->
<g id="node6" class="node">
<title>Node6</title>
<g id="a_node6"><a xlink:href="lseq__part_8h.html" target="_top" xlink:title=" ">
<polygon fill="white" stroke="black" points="111,-168.5 111,-198.5 212,-198.5 212,-168.5 111,-168.5"/>
<text text-anchor="start" x="119" y="-186.5" font-family="Helvetica,sans-Serif" font-size="10.00">src/pewit/src/lseq</text>
<text text-anchor="middle" x="161.5" y="-175.5" font-family="Helvetica,sans-Serif" font-size="10.00">_part.h</text>
</a>
</g>
</g>
<!-- Node2&#45;&gt;Node6 -->
<g id="edge5" class="edge">
<title>Node2&#45;&gt;Node6</title>
<path fill="none" stroke="midnightblue" d="M65.55,-359.75C76.57,-331.98 99.26,-277.84 124.5,-235 132.11,-222.08 142.27,-208.41 150.02,-198.56"/>
<polygon fill="midnightblue" stroke="midnightblue" points="62.19,-358.73 61.8,-369.32 68.71,-361.29 62.19,-358.73"/>
</g>
<!-- Node7 -->
<g id="node7" class="node">
<title>Node7</title>
<g id="a_node7"><a xlink:href="ray__pack_8h.html" target="_top" xlink:title=" ">
<polygon fill="white" stroke="black" points="207.5,-313.5 207.5,-332.5 341.5,-332.5 341.5,-313.5 207.5,-313.5"/>
<text text-anchor="middle" x="274.5" y="-320.5" font-family="Helvetica,sans-Serif" font-size="10.00">src/pewit/src/ray_pack.h</text>
</a>
</g>
</g>
<!-- Node2&#45;&gt;Node7 -->
<g id="edge7" class="edge">
<title>Node2&#45;&gt;Node7</title>
<path fill="none" stroke="midnightblue" d="M102.66,-366.96C143.46,-356.76 203.21,-341.82 240.43,-332.52"/>
<polygon fill="midnightblue" stroke="midnightblue" points="101.58,-363.62 92.73,-369.44 103.28,-370.41 101.58,-363.62"/>
</g>
<!-- Node4 -->
<g id="node4" class="node">
<title>Node4</title>
<g id="a_node4"><a xlink:href="pewit_8h.html" target="_top" xlink:title=" ">
<polygon fill="white" stroke="black" points="103,-56.5 103,-75.5 220,-75.5 220,-56.5 103,-56.5"/>
<text text-anchor="middle" x="161.5" y="-63.5" font-family="Helvetica,sans-Serif" font-size="10.00">src/pewit/src/pewit.h</text>
</a>
</g>
</g>
<!-- Node3&#45;&gt;Node4 -->
<g id="edge3" class="edge">
<title>Node3&#45;&gt;Node4</title>
<path fill="none" stroke="midnightblue" d="M161.5,-101.8C161.5,-92.91 161.5,-82.78 161.5,-75.75"/>
<polygon fill="midnightblue" stroke="midnightblue" points="158,-102.08 161.5,-112.08 165,-102.08 158,-102.08"/>
</g>
<!-- Node4&#45;&gt;Node5 -->
<g id="edge4" class="edge">
<title>Node4&#45;&gt;Node5</title>
<path fill="none" stroke="midnightblue" d="M144.61,-49.54C134.09,-39.91 120.93,-27.87 112.15,-19.83"/>
<polygon fill="midnightblue" stroke="midnightblue" points="142.28,-52.15 152.02,-56.32 147.01,-46.99 142.28,-52.15"/>
</g>
<!-- Node6&#45;&gt;Node3 -->
<g id="edge6" class="edge">
<title>Node6&#45;&gt;Node3</title>
<path fill="none" stroke="midnightblue" d="M161.5,-158.29C161.5,-148.86 161.5,-138.65 161.5,-131.66"/>
<polygon fill="midnightblue" stroke="midnightblue" points="158,-158.4 161.5,-168.4 165,-158.4 158,-158.4"/>
</g>
<!-- Node7&#45;&gt;Node4 -->
<g id="edge15" class="edge">
<title>Node7&#45;&gt;Node4</title>
<path fill="none" stroke="midnightblue" d="M339.29,-311.5C377.28,-303.87 420.03,-292.23 431.5,-277 442.73,-262.09 435.73,-253.18 431.5,-235 423.97,-202.67 422.61,-190.82 398.5,-168 342.8,-115.27 255.36,-87.86 203.71,-75.51"/>
<polygon fill="midnightblue" stroke="midnightblue" points="338.39,-308.11 329.24,-313.45 339.72,-314.98 338.39,-308.11"/>
</g>
<!-- Node7&#45;&gt;Node6 -->
<g id="edge10" class="edge">
<title>Node7&#45;&gt;Node6</title>
<path fill="none" stroke="midnightblue" d="M197.5,-314.92C173.42,-308.65 149.3,-297.31 134.5,-277 117.06,-253.07 136.64,-218.01 150.39,-198.65"/>
<polygon fill="midnightblue" stroke="midnightblue" points="196.9,-318.38 207.43,-317.24 198.49,-311.56 196.9,-318.38"/>
</g>
<!-- Node8 -->
<g id="node8" class="node">
<title>Node8</title>
<g id="a_node8"><a xlink:href="lseq__rays_8h.html" target="_top" xlink:title=" ">
<polygon fill="white" stroke="black" points="284,-168.5 284,-198.5 389,-198.5 389,-168.5 284,-168.5"/>
<text text-anchor="start" x="292" y="-186.5" font-family="Helvetica,sans-Serif" font-size="10.00">src/pewit/src/lseq</text>
<text text-anchor="middle" x="336.5" y="-175.5" font-family="Helvetica,sans-Serif" font-size="10.00">_input/lseq_rays.h</text>
</a>
</g>
</g>
<!-- Node7&#45;&gt;Node8 -->
<g id="edge8" class="edge">
<title>Node7&#45;&gt;Node8</title>
<path fill="none" stroke="midnightblue" d="M351.5,-314.92C375.58,-308.65 399.7,-297.31 414.5,-277 425.5,-261.92 423.42,-251.4 414.5,-235 405.56,-218.56 388.71,-206.65 372.95,-198.54"/>
<polygon fill="midnightblue" stroke="midnightblue" points="350.51,-311.56 341.57,-317.24 352.1,-318.38 350.51,-311.56"/>
</g>
<!-- Node9 -->
<g id="node9" class="node">
<title>Node9</title>
<g id="a_node9"><a xlink:href="lseq__part__global__rays_8h.html" target="_top" xlink:title=" ">
<polygon fill="white" stroke="black" points="143.5,-235.5 143.5,-276.5 265.5,-276.5 265.5,-235.5 143.5,-235.5"/>
<text text-anchor="start" x="151.5" y="-264.5" font-family="Helvetica,sans-Serif" font-size="10.00">src/pewit/src/lseq</text>
<text text-anchor="start" x="151.5" y="-253.5" font-family="Helvetica,sans-Serif" font-size="10.00">_part_result/lseq_part</text>
<text text-anchor="middle" x="204.5" y="-242.5" font-family="Helvetica,sans-Serif" font-size="10.00">_global_rays.h</text>
</a>
</g>
</g>
<!-- Node7&#45;&gt;Node9 -->
<g id="edge11" class="edge">
<title>Node7&#45;&gt;Node9</title>
<path fill="none" stroke="midnightblue" d="M257.65,-306.36C248.01,-297.4 235.82,-286.08 225.55,-276.54"/>
<polygon fill="midnightblue" stroke="midnightblue" points="255.35,-308.99 265.06,-313.23 260.11,-303.86 255.35,-308.99"/>
</g>
<!-- Node10 -->
<g id="node10" class="node">
<title>Node10</title>
<g id="a_node10"><a xlink:href="lseq__part__rays_8h.html" target="_top" xlink:title=" ">
<polygon fill="white" stroke="black" points="283.5,-235.5 283.5,-276.5 405.5,-276.5 405.5,-235.5 283.5,-235.5"/>
<text text-anchor="start" x="291.5" y="-264.5" font-family="Helvetica,sans-Serif" font-size="10.00">src/pewit/src/lseq</text>
<text text-anchor="start" x="291.5" y="-253.5" font-family="Helvetica,sans-Serif" font-size="10.00">_part_result/lseq_part</text>
<text text-anchor="middle" x="344.5" y="-242.5" font-family="Helvetica,sans-Serif" font-size="10.00">_rays.h</text>
</a>
</g>
</g>
<!-- Node7&#45;&gt;Node10 -->
<g id="edge13" class="edge">
<title>Node7&#45;&gt;Node10</title>
<path fill="none" stroke="midnightblue" d="M291.35,-306.36C300.99,-297.4 313.18,-286.08 323.45,-276.54"/>
<polygon fill="midnightblue" stroke="midnightblue" points="288.89,-303.86 283.94,-313.23 293.65,-308.99 288.89,-303.86"/>
</g>
<!-- Node8&#45;&gt;Node3 -->
<g id="edge9" class="edge">
<title>Node8&#45;&gt;Node3</title>
<path fill="none" stroke="midnightblue" d="M285.25,-165.08C252.84,-154.05 212.36,-140.29 186.71,-131.57"/>
<polygon fill="midnightblue" stroke="midnightblue" points="284.43,-168.49 295.03,-168.4 286.69,-161.87 284.43,-168.49"/>
</g>
<!-- Node9&#45;&gt;Node6 -->
<g id="edge12" class="edge">
<title>Node9&#45;&gt;Node6</title>
<path fill="none" stroke="midnightblue" d="M187.15,-226.55C181.35,-217.05 175.14,-206.86 170.28,-198.89"/>
<polygon fill="midnightblue" stroke="midnightblue" points="184.33,-228.65 192.52,-235.36 190.3,-225 184.33,-228.65"/>
</g>
<!-- Node10&#45;&gt;Node6 -->
<g id="edge14" class="edge">
<title>Node10&#45;&gt;Node6</title>
<path fill="none" stroke="midnightblue" d="M284.06,-231.72C255.6,-220.75 222.58,-208.03 198,-198.56"/>
<polygon fill="midnightblue" stroke="midnightblue" points="282.93,-235.03 293.52,-235.36 285.45,-228.5 282.93,-235.03"/>
</g>
</g>
</svg>
