<?xml version="1.0" encoding="UTF-8" standalone="no"?>
<!DOCTYPE svg PUBLIC "-//W3C//DTD SVG 1.1//EN"
 "http://www.w3.org/Graphics/SVG/1.1/DTD/svg11.dtd">
<!-- Generated by graphviz version 2.43.0 (0)
 -->
<!-- Title: src/pinyo/src/lpart/transfer_part.h Pages: 1 -->
<svg width="746pt" height="487pt"
 viewBox="0.00 0.00 745.68 487.00" xmlns="http://www.w3.org/2000/svg" xmlns:xlink="http://www.w3.org/1999/xlink">
<g id="graph0" class="graph" transform="scale(1 1) rotate(0) translate(4 483)">
<title>src/pinyo/src/lpart/transfer_part.h</title>
<polygon fill="white" stroke="transparent" points="-4,4 -4,-483 741.68,-483 741.68,4 -4,4"/>
<!-- Node1 -->
<g id="node1" class="node">
<title>Node1</title>
<g id="a_node1"><a xlink:title=" ">
<polygon fill="#bfbfbf" stroke="black" points="396.5,-448.5 396.5,-478.5 500.5,-478.5 500.5,-448.5 396.5,-448.5"/>
<text text-anchor="start" x="404.5" y="-466.5" font-family="Helvetica,sans-Serif" font-size="10.00">src/pinyo/src/lpart</text>
<text text-anchor="middle" x="448.5" y="-455.5" font-family="Helvetica,sans-Serif" font-size="10.00">/transfer_part.h</text>
</a>
</g>
</g>
<!-- Node2 -->
<g id="node2" class="node">
<title>Node2</title>
<g id="a_node2"><a xlink:href="lpart_8h.html" target="_top" xlink:title=" ">
<polygon fill="white" stroke="black" points="496.5,-392.5 496.5,-411.5 570.5,-411.5 570.5,-392.5 496.5,-392.5"/>
<text text-anchor="middle" x="533.5" y="-399.5" font-family="Helvetica,sans-Serif" font-size="10.00">lpart/lpart.h</text>
</a>
</g>
</g>
<!-- Node1&#45;&gt;Node2 -->
<g id="edge1" class="edge">
<title>Node1&#45;&gt;Node2</title>
<path fill="none" stroke="midnightblue" d="M468.64,-448.4C481.89,-439.13 499.18,-427.03 512.58,-417.65"/>
<polygon fill="midnightblue" stroke="midnightblue" points="514.95,-420.26 521.13,-411.66 510.93,-414.53 514.95,-420.26"/>
</g>
<!-- Node4 -->
<g id="node4" class="node">
<title>Node4</title>
<g id="a_node4"><a xlink:href="poaky_8h.html" target="_top" xlink:title=" ">
<polygon fill="white" stroke="black" points="323,-280.5 323,-299.5 376,-299.5 376,-280.5 323,-280.5"/>
<text text-anchor="middle" x="349.5" y="-287.5" font-family="Helvetica,sans-Serif" font-size="10.00">poaky.h</text>
</a>
</g>
</g>
<!-- Node1&#45;&gt;Node4 -->
<g id="edge42" class="edge">
<title>Node1&#45;&gt;Node4</title>
<path fill="none" stroke="midnightblue" d="M440.4,-448.47C422.41,-417.3 379.18,-342.41 359.52,-308.37"/>
<polygon fill="midnightblue" stroke="midnightblue" points="362.47,-306.47 354.44,-299.56 356.41,-309.97 362.47,-306.47"/>
</g>
<!-- Node3 -->
<g id="node3" class="node">
<title>Node3</title>
<g id="a_node3"><a xlink:href="bun_8h.html" target="_top" xlink:title=" ">
<polygon fill="white" stroke="black" points="501,-336.5 501,-355.5 566,-355.5 566,-336.5 501,-336.5"/>
<text text-anchor="middle" x="533.5" y="-343.5" font-family="Helvetica,sans-Serif" font-size="10.00">bun/bun.h</text>
</a>
</g>
</g>
<!-- Node2&#45;&gt;Node3 -->
<g id="edge2" class="edge">
<title>Node2&#45;&gt;Node3</title>
<path fill="none" stroke="midnightblue" d="M533.5,-392.08C533.5,-385.01 533.5,-374.86 533.5,-365.99"/>
<polygon fill="midnightblue" stroke="midnightblue" points="537,-365.75 533.5,-355.75 530,-365.75 537,-365.75"/>
</g>
<!-- Node16 -->
<g id="node16" class="node">
<title>Node16</title>
<g id="a_node16"><a xlink:title=" ">
<polygon fill="white" stroke="#bfbfbf" points="676.5,-112.5 676.5,-131.5 720.5,-131.5 720.5,-112.5 676.5,-112.5"/>
<text text-anchor="middle" x="698.5" y="-119.5" font-family="Helvetica,sans-Serif" font-size="10.00">string</text>
</a>
</g>
</g>
<!-- Node2&#45;&gt;Node16 -->
<g id="edge40" class="edge">
<title>Node2&#45;&gt;Node16</title>
<path fill="none" stroke="midnightblue" d="M570.78,-392.68C617.77,-379.75 692.5,-349.91 692.5,-291 692.5,-291 692.5,-291 692.5,-233 692.5,-200.9 695.08,-163.61 696.86,-141.73"/>
<polygon fill="midnightblue" stroke="midnightblue" points="700.36,-141.81 697.72,-131.55 693.39,-141.22 700.36,-141.81"/>
</g>
<!-- Node17 -->
<g id="node17" class="node">
<title>Node17</title>
<g id="a_node17"><a xlink:title=" ">
<polygon fill="white" stroke="#bfbfbf" points="564.5,-112.5 564.5,-131.5 620.5,-131.5 620.5,-112.5 564.5,-112.5"/>
<text text-anchor="middle" x="592.5" y="-119.5" font-family="Helvetica,sans-Serif" font-size="10.00">sstream</text>
</a>
</g>
</g>
<!-- Node2&#45;&gt;Node17 -->
<g id="edge41" class="edge">
<title>Node2&#45;&gt;Node17</title>
<path fill="none" stroke="midnightblue" d="M543.88,-392.36C553.35,-383.97 567.12,-370.41 575.5,-356 601.73,-310.92 602.63,-295.55 610.5,-244 616.06,-207.57 605.81,-164.93 598.63,-141.24"/>
<polygon fill="midnightblue" stroke="midnightblue" points="601.9,-139.97 595.53,-131.51 595.23,-142.1 601.9,-139.97"/>
</g>
<!-- Node21 -->
<g id="node21" class="node">
<title>Node21</title>
<g id="a_node21"><a xlink:title=" ">
<polygon fill="white" stroke="#bfbfbf" points="424.5,-336.5 424.5,-355.5 482.5,-355.5 482.5,-336.5 424.5,-336.5"/>
<text text-anchor="middle" x="453.5" y="-343.5" font-family="Helvetica,sans-Serif" font-size="10.00">memory</text>
</a>
</g>
</g>
<!-- Node2&#45;&gt;Node21 -->
<g id="edge39" class="edge">
<title>Node2&#45;&gt;Node21</title>
<path fill="none" stroke="midnightblue" d="M520.65,-392.32C508.28,-383.98 489.37,-371.21 474.76,-361.35"/>
<polygon fill="midnightblue" stroke="midnightblue" points="476.57,-358.35 466.32,-355.65 472.65,-364.15 476.57,-358.35"/>
</g>
<!-- Node3&#45;&gt;Node4 -->
<g id="edge3" class="edge">
<title>Node3&#45;&gt;Node4</title>
<path fill="none" stroke="midnightblue" d="M504.34,-336.44C472.25,-327.02 420.61,-311.87 385.88,-301.68"/>
<polygon fill="midnightblue" stroke="midnightblue" points="386.71,-298.27 376.13,-298.82 384.74,-304.99 386.71,-298.27"/>
</g>
<!-- Node19 -->
<g id="node19" class="node">
<title>Node19</title>
<g id="a_node19"><a xlink:title=" ">
<polygon fill="white" stroke="#bfbfbf" points="527,-280.5 527,-299.5 574,-299.5 574,-280.5 527,-280.5"/>
<text text-anchor="middle" x="550.5" y="-287.5" font-family="Helvetica,sans-Serif" font-size="10.00">vector</text>
</a>
</g>
</g>
<!-- Node3&#45;&gt;Node19 -->
<g id="edge37" class="edge">
<title>Node3&#45;&gt;Node19</title>
<path fill="none" stroke="midnightblue" d="M536.31,-336.08C538.58,-328.85 541.87,-318.41 544.71,-309.4"/>
<polygon fill="midnightblue" stroke="midnightblue" points="548.08,-310.34 547.75,-299.75 541.4,-308.24 548.08,-310.34"/>
</g>
<!-- Node20 -->
<g id="node20" class="node">
<title>Node20</title>
<g id="a_node20"><a xlink:title=" ">
<polygon fill="white" stroke="#bfbfbf" points="422.5,-280.5 422.5,-299.5 508.5,-299.5 508.5,-280.5 422.5,-280.5"/>
<text text-anchor="middle" x="465.5" y="-287.5" font-family="Helvetica,sans-Serif" font-size="10.00">unordered_set</text>
</a>
</g>
</g>
<!-- Node3&#45;&gt;Node20 -->
<g id="edge38" class="edge">
<title>Node3&#45;&gt;Node20</title>
<path fill="none" stroke="midnightblue" d="M522.57,-336.32C512.33,-328.18 496.78,-315.84 484.5,-306.09"/>
<polygon fill="midnightblue" stroke="midnightblue" points="486.63,-303.31 476.62,-299.83 482.28,-308.79 486.63,-303.31"/>
</g>
<!-- Node5 -->
<g id="node5" class="node">
<title>Node5</title>
<g id="a_node5"><a xlink:href="Vec3_8h.html" target="_top" xlink:title=" ">
<polygon fill="white" stroke="black" points="239,-56.5 239,-75.5 314,-75.5 314,-56.5 239,-56.5"/>
<text text-anchor="middle" x="276.5" y="-63.5" font-family="Helvetica,sans-Serif" font-size="10.00">base/Vec3.h</text>
</a>
</g>
</g>
<!-- Node4&#45;&gt;Node5 -->
<g id="edge4" class="edge">
<title>Node4&#45;&gt;Node5</title>
<path fill="none" stroke="midnightblue" d="M322.8,-281.17C285.18,-268.52 217.97,-239.64 189.5,-188 166.78,-146.79 220.27,-103.05 253.14,-81.19"/>
<polygon fill="midnightblue" stroke="midnightblue" points="255.27,-83.98 261.78,-75.62 251.48,-78.09 255.27,-83.98"/>
</g>
<!-- Node9 -->
<g id="node9" class="node">
<title>Node9</title>
<g id="a_node9"><a xlink:href="Vec2_8h.html" target="_top" xlink:title=" ">
<polygon fill="white" stroke="black" points="95,-112.5 95,-131.5 170,-131.5 170,-112.5 95,-112.5"/>
<text text-anchor="middle" x="132.5" y="-119.5" font-family="Helvetica,sans-Serif" font-size="10.00">base/Vec2.h</text>
</a>
</g>
</g>
<!-- Node4&#45;&gt;Node9 -->
<g id="edge8" class="edge">
<title>Node4&#45;&gt;Node9</title>
<path fill="none" stroke="midnightblue" d="M322.91,-286.34C275.54,-281.04 179.34,-267.62 156.5,-244 129.91,-216.51 128.74,-168.5 130.46,-141.97"/>
<polygon fill="midnightblue" stroke="midnightblue" points="133.97,-142 131.34,-131.74 127,-141.4 133.97,-142"/>
</g>
<!-- Node10 -->
<g id="node10" class="node">
<title>Node10</title>
<g id="a_node10"><a xlink:href="Mat3_8h.html" target="_top" xlink:title=" ">
<polygon fill="white" stroke="black" points="0,-112.5 0,-131.5 77,-131.5 77,-112.5 0,-112.5"/>
<text text-anchor="middle" x="38.5" y="-119.5" font-family="Helvetica,sans-Serif" font-size="10.00">base/Mat3.h</text>
</a>
</g>
</g>
<!-- Node4&#45;&gt;Node10 -->
<g id="edge12" class="edge">
<title>Node4&#45;&gt;Node10</title>
<path fill="none" stroke="midnightblue" d="M322.95,-288.74C281.02,-287.19 198.23,-279.46 139.5,-244 96.71,-218.17 63.56,-167.59 48.08,-140.74"/>
<polygon fill="midnightblue" stroke="midnightblue" points="50.97,-138.73 43.03,-131.71 44.86,-142.15 50.97,-138.73"/>
</g>
<!-- Node11 -->
<g id="node11" class="node">
<title>Node11</title>
<g id="a_node11"><a xlink:href="ray_8h.html" target="_top" xlink:title=" ">
<polygon fill="white" stroke="black" points="265,-112.5 265,-131.5 324,-131.5 324,-112.5 265,-112.5"/>
<text text-anchor="middle" x="294.5" y="-119.5" font-family="Helvetica,sans-Serif" font-size="10.00">ray/ray.h</text>
</a>
</g>
</g>
<!-- Node4&#45;&gt;Node11 -->
<g id="edge14" class="edge">
<title>Node4&#45;&gt;Node11</title>
<path fill="none" stroke="midnightblue" d="M346.99,-280.44C341.14,-260.57 325.96,-209.83 311.5,-168 308.43,-159.11 304.77,-149.33 301.63,-141.17"/>
<polygon fill="midnightblue" stroke="midnightblue" points="304.79,-139.63 297.91,-131.57 298.26,-142.16 304.79,-139.63"/>
</g>
<!-- Node12 -->
<g id="node12" class="node">
<title>Node12</title>
<g id="a_node12"><a xlink:href="transfer_8h.html" target="_top" xlink:title=" ">
<polygon fill="white" stroke="black" points="198.5,-168.5 198.5,-187.5 302.5,-187.5 302.5,-168.5 198.5,-168.5"/>
<text text-anchor="middle" x="250.5" y="-175.5" font-family="Helvetica,sans-Serif" font-size="10.00">transfer/transfer.h</text>
</a>
</g>
</g>
<!-- Node4&#45;&gt;Node12 -->
<g id="edge17" class="edge">
<title>Node4&#45;&gt;Node12</title>
<path fill="none" stroke="midnightblue" d="M341.73,-280.37C325.18,-261.97 286.2,-218.67 264.95,-195.05"/>
<polygon fill="midnightblue" stroke="midnightblue" points="267.52,-192.68 258.23,-187.59 262.32,-197.37 267.52,-192.68"/>
</g>
<!-- Node13 -->
<g id="node13" class="node">
<title>Node13</title>
<g id="a_node13"><a xlink:href="rop_8h.html" target="_top" xlink:title=" ">
<polygon fill="white" stroke="black" points="358.5,-168.5 358.5,-187.5 418.5,-187.5 418.5,-168.5 358.5,-168.5"/>
<text text-anchor="middle" x="388.5" y="-175.5" font-family="Helvetica,sans-Serif" font-size="10.00">rop/rop.h</text>
</a>
</g>
</g>
<!-- Node4&#45;&gt;Node13 -->
<g id="edge21" class="edge">
<title>Node4&#45;&gt;Node13</title>
<path fill="none" stroke="midnightblue" d="M352.56,-280.37C358.88,-262.54 373.5,-221.3 382.02,-197.27"/>
<polygon fill="midnightblue" stroke="midnightblue" points="385.41,-198.19 385.45,-187.59 378.81,-195.85 385.41,-198.19"/>
</g>
<!-- Node14 -->
<g id="node14" class="node">
<title>Node14</title>
<g id="a_node14"><a xlink:href="plane_8h.html" target="_top" xlink:title=" ">
<polygon fill="white" stroke="black" points="516,-224.5 516,-243.5 601,-243.5 601,-224.5 516,-224.5"/>
<text text-anchor="middle" x="558.5" y="-231.5" font-family="Helvetica,sans-Serif" font-size="10.00">shape/plane.h</text>
</a>
</g>
</g>
<!-- Node4&#45;&gt;Node14 -->
<g id="edge25" class="edge">
<title>Node4&#45;&gt;Node14</title>
<path fill="none" stroke="midnightblue" d="M376.4,-282.05C411.64,-272.95 473.85,-256.87 515.63,-246.08"/>
<polygon fill="midnightblue" stroke="midnightblue" points="516.71,-249.41 525.51,-243.52 514.96,-242.64 516.71,-249.41"/>
</g>
<!-- Node18 -->
<g id="node18" class="node">
<title>Node18</title>
<g id="a_node18"><a xlink:href="standard_8h.html" target="_top" xlink:title=" ">
<polygon fill="white" stroke="black" points="397,-224.5 397,-243.5 498,-243.5 498,-224.5 397,-224.5"/>
<text text-anchor="middle" x="447.5" y="-231.5" font-family="Helvetica,sans-Serif" font-size="10.00">shape/standard.h</text>
</a>
</g>
</g>
<!-- Node4&#45;&gt;Node18 -->
<g id="edge34" class="edge">
<title>Node4&#45;&gt;Node18</title>
<path fill="none" stroke="midnightblue" d="M365.25,-280.32C380.82,-271.74 404.88,-258.49 422.96,-248.52"/>
<polygon fill="midnightblue" stroke="midnightblue" points="424.72,-251.55 431.79,-243.65 421.35,-245.42 424.72,-251.55"/>
</g>
<!-- Node6 -->
<g id="node6" class="node">
<title>Node6</title>
<g id="a_node6"><a xlink:title=" ">
<polygon fill="white" stroke="#bfbfbf" points="462,-0.5 462,-19.5 509,-19.5 509,-0.5 462,-0.5"/>
<text text-anchor="middle" x="485.5" y="-7.5" font-family="Helvetica,sans-Serif" font-size="10.00">cmath</text>
</a>
</g>
</g>
<!-- Node5&#45;&gt;Node6 -->
<g id="edge5" class="edge">
<title>Node5&#45;&gt;Node6</title>
<path fill="none" stroke="midnightblue" d="M309.62,-56.44C348.61,-46.37 412.99,-29.74 452.1,-19.63"/>
<polygon fill="midnightblue" stroke="midnightblue" points="453.14,-22.98 461.94,-17.09 451.39,-16.2 453.14,-22.98"/>
</g>
<!-- Node7 -->
<g id="node7" class="node">
<title>Node7</title>
<g id="a_node7"><a xlink:title=" ">
<polygon fill="white" stroke="#bfbfbf" points="312.5,-0.5 312.5,-19.5 372.5,-19.5 372.5,-0.5 312.5,-0.5"/>
<text text-anchor="middle" x="342.5" y="-7.5" font-family="Helvetica,sans-Serif" font-size="10.00">iostream</text>
</a>
</g>
</g>
<!-- Node5&#45;&gt;Node7 -->
<g id="edge6" class="edge">
<title>Node5&#45;&gt;Node7</title>
<path fill="none" stroke="midnightblue" d="M287.1,-56.32C296.96,-48.26 311.85,-36.08 323.72,-26.37"/>
<polygon fill="midnightblue" stroke="midnightblue" points="326.18,-28.88 331.7,-19.83 321.75,-23.46 326.18,-28.88"/>
</g>
<!-- Node8 -->
<g id="node8" class="node">
<title>Node8</title>
<g id="a_node8"><a xlink:title=" ">
<polygon fill="white" stroke="#bfbfbf" points="94,-0.5 94,-19.5 171,-19.5 171,-0.5 94,-0.5"/>
<text text-anchor="middle" x="132.5" y="-7.5" font-family="Helvetica,sans-Serif" font-size="10.00">Eigen/Dense</text>
</a>
</g>
</g>
<!-- Node5&#45;&gt;Node8 -->
<g id="edge7" class="edge">
<title>Node5&#45;&gt;Node8</title>
<path fill="none" stroke="midnightblue" d="M253.68,-56.44C229.67,-47.44 191.67,-33.19 164.63,-23.05"/>
<polygon fill="midnightblue" stroke="midnightblue" points="165.8,-19.75 155.21,-19.52 163.34,-26.3 165.8,-19.75"/>
</g>
<!-- Node9&#45;&gt;Node5 -->
<g id="edge11" class="edge">
<title>Node9&#45;&gt;Node5</title>
<path fill="none" stroke="midnightblue" d="M155.32,-112.44C179.33,-103.44 217.33,-89.19 244.37,-79.05"/>
<polygon fill="midnightblue" stroke="midnightblue" points="245.66,-82.3 253.79,-75.52 243.2,-75.75 245.66,-82.3"/>
</g>
<!-- Node9&#45;&gt;Node7 -->
<g id="edge10" class="edge">
<title>Node9&#45;&gt;Node7</title>
<path fill="none" stroke="midnightblue" d="M143.66,-112.37C161.21,-99.07 196.68,-73.28 229.5,-56 254.56,-42.8 284.39,-31.08 307.1,-22.91"/>
<polygon fill="midnightblue" stroke="midnightblue" points="308.42,-26.16 316.68,-19.52 306.09,-19.56 308.42,-26.16"/>
</g>
<!-- Node9&#45;&gt;Node8 -->
<g id="edge9" class="edge">
<title>Node9&#45;&gt;Node8</title>
<path fill="none" stroke="midnightblue" d="M132.5,-112.37C132.5,-94.62 132.5,-53.67 132.5,-29.6"/>
<polygon fill="midnightblue" stroke="midnightblue" points="136,-29.59 132.5,-19.59 129,-29.59 136,-29.59"/>
</g>
<!-- Node10&#45;&gt;Node8 -->
<g id="edge13" class="edge">
<title>Node10&#45;&gt;Node8</title>
<path fill="none" stroke="midnightblue" d="M45.88,-112.37C61.53,-94.05 98.28,-51.05 118.52,-27.36"/>
<polygon fill="midnightblue" stroke="midnightblue" points="121.32,-29.47 125.16,-19.59 116,-24.92 121.32,-29.47"/>
</g>
<!-- Node11&#45;&gt;Node5 -->
<g id="edge15" class="edge">
<title>Node11&#45;&gt;Node5</title>
<path fill="none" stroke="midnightblue" d="M291.53,-112.08C289.12,-104.85 285.64,-94.41 282.63,-85.4"/>
<polygon fill="midnightblue" stroke="midnightblue" points="285.9,-84.13 279.42,-75.75 279.26,-86.34 285.9,-84.13"/>
</g>
<!-- Node11&#45;&gt;Node7 -->
<g id="edge16" class="edge">
<title>Node11&#45;&gt;Node7</title>
<path fill="none" stroke="midnightblue" d="M300.78,-112.41C306.98,-103.63 316.4,-89.4 322.5,-76 329.38,-60.89 334.74,-42.77 338.17,-29.5"/>
<polygon fill="midnightblue" stroke="midnightblue" points="341.6,-30.22 340.59,-19.67 334.8,-28.55 341.6,-30.22"/>
</g>
<!-- Node12&#45;&gt;Node5 -->
<g id="edge18" class="edge">
<title>Node12&#45;&gt;Node5</title>
<path fill="none" stroke="midnightblue" d="M250.19,-168.43C249.96,-155.83 250.33,-131.7 255.5,-112 257.99,-102.51 262.41,-92.57 266.56,-84.46"/>
<polygon fill="midnightblue" stroke="midnightblue" points="269.66,-86.07 271.33,-75.61 263.5,-82.75 269.66,-86.07"/>
</g>
<!-- Node12&#45;&gt;Node10 -->
<g id="edge19" class="edge">
<title>Node12&#45;&gt;Node10</title>
<path fill="none" stroke="midnightblue" d="M216.91,-168.44C180.31,-159.12 121.66,-144.18 81.67,-134"/>
<polygon fill="midnightblue" stroke="midnightblue" points="82.49,-130.59 71.93,-131.52 80.76,-137.38 82.49,-130.59"/>
</g>
<!-- Node12&#45;&gt;Node11 -->
<g id="edge20" class="edge">
<title>Node12&#45;&gt;Node11</title>
<path fill="none" stroke="midnightblue" d="M257.77,-168.08C264.04,-160.38 273.29,-149.03 280.93,-139.65"/>
<polygon fill="midnightblue" stroke="midnightblue" points="283.77,-141.71 287.37,-131.75 278.34,-137.29 283.77,-141.71"/>
</g>
<!-- Node13&#45;&gt;Node5 -->
<g id="edge22" class="edge">
<title>Node13&#45;&gt;Node5</title>
<path fill="none" stroke="midnightblue" d="M381.72,-168.14C371.63,-155.2 351.78,-130.63 332.5,-112 321.32,-101.19 307.75,-90.24 296.76,-81.85"/>
<polygon fill="midnightblue" stroke="midnightblue" points="298.7,-78.93 288.61,-75.71 294.5,-84.52 298.7,-78.93"/>
</g>
<!-- Node13&#45;&gt;Node6 -->
<g id="edge24" class="edge">
<title>Node13&#45;&gt;Node6</title>
<path fill="none" stroke="midnightblue" d="M393.72,-168.08C409.18,-141.61 454.99,-63.21 475.44,-28.21"/>
<polygon fill="midnightblue" stroke="midnightblue" points="478.47,-29.97 480.49,-19.57 472.43,-26.44 478.47,-29.97"/>
</g>
<!-- Node13&#45;&gt;Node11 -->
<g id="edge23" class="edge">
<title>Node13&#45;&gt;Node11</title>
<path fill="none" stroke="midnightblue" d="M373.4,-168.32C358.6,-159.82 335.81,-146.73 318.52,-136.8"/>
<polygon fill="midnightblue" stroke="midnightblue" points="319.98,-133.6 309.57,-131.65 316.49,-139.67 319.98,-133.6"/>
</g>
<!-- Node14&#45;&gt;Node6 -->
<g id="edge33" class="edge">
<title>Node14&#45;&gt;Node6</title>
<path fill="none" stroke="midnightblue" d="M594.39,-224.47C655.1,-208.27 767.9,-169.45 729.5,-112 681.99,-40.92 574.22,-19.8 519.2,-13.57"/>
<polygon fill="midnightblue" stroke="midnightblue" points="519.55,-10.09 509.25,-12.55 518.83,-17.05 519.55,-10.09"/>
</g>
<!-- Node14&#45;&gt;Node7 -->
<g id="edge32" class="edge">
<title>Node14&#45;&gt;Node7</title>
<path fill="none" stroke="midnightblue" d="M570.44,-224.48C597.29,-204.28 657.93,-152.15 629.5,-112 600.29,-70.76 454.42,-34.74 382.59,-19.18"/>
<polygon fill="midnightblue" stroke="midnightblue" points="383.06,-15.7 372.55,-17.04 381.6,-22.55 383.06,-15.7"/>
</g>
<!-- Node15 -->
<g id="node15" class="node">
<title>Node15</title>
<g id="a_node15"><a xlink:href="shape_8h.html" target="_top" xlink:title=" ">
<polygon fill="white" stroke="black" points="495,-168.5 495,-187.5 582,-187.5 582,-168.5 495,-168.5"/>
<text text-anchor="middle" x="538.5" y="-175.5" font-family="Helvetica,sans-Serif" font-size="10.00">shape/shape.h</text>
</a>
</g>
</g>
<!-- Node14&#45;&gt;Node15 -->
<g id="edge26" class="edge">
<title>Node14&#45;&gt;Node15</title>
<path fill="none" stroke="midnightblue" d="M555.2,-224.08C552.52,-216.85 548.65,-206.41 545.31,-197.4"/>
<polygon fill="midnightblue" stroke="midnightblue" points="548.5,-195.91 541.74,-187.75 541.93,-198.34 548.5,-195.91"/>
</g>
<!-- Node15&#45;&gt;Node5 -->
<g id="edge28" class="edge">
<title>Node15&#45;&gt;Node5</title>
<path fill="none" stroke="midnightblue" d="M517.94,-168.37C471.83,-149.01 360.02,-102.06 306.29,-79.51"/>
<polygon fill="midnightblue" stroke="midnightblue" points="307.54,-76.24 296.96,-75.59 304.83,-82.69 307.54,-76.24"/>
</g>
<!-- Node15&#45;&gt;Node6 -->
<g id="edge29" class="edge">
<title>Node15&#45;&gt;Node6</title>
<path fill="none" stroke="midnightblue" d="M535.65,-168.08C527.27,-141.83 502.6,-64.55 491.28,-29.12"/>
<polygon fill="midnightblue" stroke="midnightblue" points="494.61,-28.03 488.24,-19.57 487.94,-30.16 494.61,-28.03"/>
</g>
<!-- Node15&#45;&gt;Node11 -->
<g id="edge27" class="edge">
<title>Node15&#45;&gt;Node11</title>
<path fill="none" stroke="midnightblue" d="M499.84,-168.44C454.49,-158.41 379.71,-141.86 334,-131.74"/>
<polygon fill="midnightblue" stroke="midnightblue" points="334.68,-128.31 324.16,-129.56 333.16,-135.14 334.68,-128.31"/>
</g>
<!-- Node15&#45;&gt;Node16 -->
<g id="edge30" class="edge">
<title>Node15&#45;&gt;Node16</title>
<path fill="none" stroke="midnightblue" d="M563.85,-168.44C591.72,-159.04 636.53,-143.91 666.72,-133.72"/>
<polygon fill="midnightblue" stroke="midnightblue" points="668,-136.99 676.36,-130.47 665.76,-130.35 668,-136.99"/>
</g>
<!-- Node15&#45;&gt;Node17 -->
<g id="edge31" class="edge">
<title>Node15&#45;&gt;Node17</title>
<path fill="none" stroke="midnightblue" d="M547.42,-168.08C555.28,-160.22 566.93,-148.57 576.42,-139.08"/>
<polygon fill="midnightblue" stroke="midnightblue" points="579.15,-141.3 583.75,-131.75 574.2,-136.35 579.15,-141.3"/>
</g>
<!-- Node18&#45;&gt;Node7 -->
<g id="edge36" class="edge">
<title>Node18&#45;&gt;Node7</title>
<path fill="none" stroke="midnightblue" d="M445.43,-224.4C442.27,-211.77 435.72,-187.6 427.5,-168 405.29,-115.08 370.74,-56.58 353.32,-28.25"/>
<polygon fill="midnightblue" stroke="midnightblue" points="356.17,-26.2 347.92,-19.55 350.22,-29.89 356.17,-26.2"/>
</g>
<!-- Node18&#45;&gt;Node15 -->
<g id="edge35" class="edge">
<title>Node18&#45;&gt;Node15</title>
<path fill="none" stroke="midnightblue" d="M462.12,-224.32C476.45,-215.82 498.51,-202.73 515.25,-192.8"/>
<polygon fill="midnightblue" stroke="midnightblue" points="517.1,-195.77 523.92,-187.65 513.53,-189.75 517.1,-195.77"/>
</g>
</g>
</svg>
