<?xml version="1.0" encoding="UTF-8" standalone="no"?>
<!DOCTYPE svg PUBLIC "-//W3C//DTD SVG 1.1//EN"
 "http://www.w3.org/Graphics/SVG/1.1/DTD/svg11.dtd">
<!-- Generated by graphviz version 2.43.0 (0)
 -->
<!-- Title: src/pewit/src/type_map/type_map.h Pages: 1 -->
<svg width="261pt" height="95pt"
 viewBox="0.00 0.00 261.00 95.00" xmlns="http://www.w3.org/2000/svg" xmlns:xlink="http://www.w3.org/1999/xlink">
<g id="graph0" class="graph" transform="scale(1 1) rotate(0) translate(4 91)">
<title>src/pewit/src/type_map/type_map.h</title>
<polygon fill="white" stroke="transparent" points="-4,4 -4,-91 257,-91 257,4 -4,4"/>
<!-- Node1 -->
<g id="node1" class="node">
<title>Node1</title>
<g id="a_node1"><a xlink:title=" ">
<polygon fill="#bfbfbf" stroke="black" points="88.5,-56.5 88.5,-86.5 192.5,-86.5 192.5,-56.5 88.5,-56.5"/>
<text text-anchor="start" x="96.5" y="-74.5" font-family="Helvetica,sans-Serif" font-size="10.00">src/pewit/src/type</text>
<text text-anchor="middle" x="140.5" y="-63.5" font-family="Helvetica,sans-Serif" font-size="10.00">_map/type_map.h</text>
</a>
</g>
</g>
<!-- Node2 -->
<g id="node2" class="node">
<title>Node2</title>
<g id="a_node2"><a xlink:title=" ">
<polygon fill="white" stroke="#bfbfbf" points="0,-0.5 0,-19.5 93,-19.5 93,-0.5 0,-0.5"/>
<text text-anchor="middle" x="46.5" y="-7.5" font-family="Helvetica,sans-Serif" font-size="10.00">unordered_map</text>
</a>
</g>
</g>
<!-- Node1&#45;&gt;Node2 -->
<g id="edge1" class="edge">
<title>Node1&#45;&gt;Node2</title>
<path fill="none" stroke="midnightblue" d="M118.22,-56.4C103.3,-46.95 83.72,-34.56 68.79,-25.11"/>
<polygon fill="midnightblue" stroke="midnightblue" points="70.5,-22.05 60.18,-19.66 66.76,-27.96 70.5,-22.05"/>
</g>
<!-- Node3 -->
<g id="node3" class="node">
<title>Node3</title>
<g id="a_node3"><a xlink:title=" ">
<polygon fill="white" stroke="#bfbfbf" points="111.5,-0.5 111.5,-19.5 169.5,-19.5 169.5,-0.5 111.5,-0.5"/>
<text text-anchor="middle" x="140.5" y="-7.5" font-family="Helvetica,sans-Serif" font-size="10.00">memory</text>
</a>
</g>
</g>
<!-- Node1&#45;&gt;Node3 -->
<g id="edge2" class="edge">
<title>Node1&#45;&gt;Node3</title>
<path fill="none" stroke="midnightblue" d="M140.5,-56.4C140.5,-48.47 140.5,-38.46 140.5,-29.86"/>
<polygon fill="midnightblue" stroke="midnightblue" points="144,-29.66 140.5,-19.66 137,-29.66 144,-29.66"/>
</g>
<!-- Node4 -->
<g id="node4" class="node">
<title>Node4</title>
<g id="a_node4"><a xlink:title=" ">
<polygon fill="white" stroke="#bfbfbf" points="188,-0.5 188,-19.5 253,-19.5 253,-0.5 188,-0.5"/>
<text text-anchor="middle" x="220.5" y="-7.5" font-family="Helvetica,sans-Serif" font-size="10.00">typeindex</text>
</a>
</g>
</g>
<!-- Node1&#45;&gt;Node4 -->
<g id="edge3" class="edge">
<title>Node1&#45;&gt;Node4</title>
<path fill="none" stroke="midnightblue" d="M159.46,-56.4C171.92,-47.13 188.2,-35.03 200.81,-25.65"/>
<polygon fill="midnightblue" stroke="midnightblue" points="202.92,-28.43 208.86,-19.66 198.75,-22.82 202.92,-28.43"/>
</g>
</g>
</svg>
