<?xml version="1.0" encoding="UTF-8" standalone="no"?>
<!DOCTYPE svg PUBLIC "-//W3C//DTD SVG 1.1//EN"
 "http://www.w3.org/Graphics/SVG/1.1/DTD/svg11.dtd">
<!-- Generated by graphviz version 2.43.0 (0)
 -->
<!-- Title: src/poaky/src/base/Vec2.h Pages: 1 -->
<svg width="229pt" height="151pt"
 viewBox="0.00 0.00 228.50 151.00" xmlns="http://www.w3.org/2000/svg" xmlns:xlink="http://www.w3.org/1999/xlink">
<g id="graph0" class="graph" transform="scale(1 1) rotate(0) translate(4 147)">
<title>src/poaky/src/base/Vec2.h</title>
<polygon fill="white" stroke="transparent" points="-4,4 -4,-147 224.5,-147 224.5,4 -4,4"/>
<!-- Node1 -->
<g id="node1" class="node">
<title>Node1</title>
<g id="a_node1"><a xlink:title=" ">
<polygon fill="#bfbfbf" stroke="black" points="65,-112.5 65,-142.5 172,-142.5 172,-112.5 65,-112.5"/>
<text text-anchor="start" x="73" y="-130.5" font-family="Helvetica,sans-Serif" font-size="10.00">src/poaky/src/base</text>
<text text-anchor="middle" x="118.5" y="-119.5" font-family="Helvetica,sans-Serif" font-size="10.00">/Vec2.h</text>
</a>
</g>
</g>
<!-- Node2 -->
<g id="node2" class="node">
<title>Node2</title>
<g id="a_node2"><a xlink:title=" ">
<polygon fill="white" stroke="#bfbfbf" points="0,-0.5 0,-19.5 77,-19.5 77,-0.5 0,-0.5"/>
<text text-anchor="middle" x="38.5" y="-7.5" font-family="Helvetica,sans-Serif" font-size="10.00">Eigen/Dense</text>
</a>
</g>
</g>
<!-- Node1&#45;&gt;Node2 -->
<g id="edge1" class="edge">
<title>Node1&#45;&gt;Node2</title>
<path fill="none" stroke="midnightblue" d="M108.69,-112.34C93.95,-91.05 66.13,-50.89 50.3,-28.03"/>
<polygon fill="midnightblue" stroke="midnightblue" points="53.08,-25.9 44.5,-19.67 47.32,-29.88 53.08,-25.9"/>
</g>
<!-- Node3 -->
<g id="node3" class="node">
<title>Node3</title>
<g id="a_node3"><a xlink:title=" ">
<polygon fill="white" stroke="#bfbfbf" points="160.5,-0.5 160.5,-19.5 220.5,-19.5 220.5,-0.5 160.5,-0.5"/>
<text text-anchor="middle" x="190.5" y="-7.5" font-family="Helvetica,sans-Serif" font-size="10.00">iostream</text>
</a>
</g>
</g>
<!-- Node1&#45;&gt;Node3 -->
<g id="edge2" class="edge">
<title>Node1&#45;&gt;Node3</title>
<path fill="none" stroke="midnightblue" d="M127.89,-112.44C134.58,-102.36 143.72,-88.43 151.5,-76 161.41,-60.18 172.31,-41.94 180.06,-28.81"/>
<polygon fill="midnightblue" stroke="midnightblue" points="183.25,-30.29 185.31,-19.9 177.22,-26.74 183.25,-30.29"/>
</g>
<!-- Node4 -->
<g id="node4" class="node">
<title>Node4</title>
<g id="a_node4"><a xlink:href="Vec3_8h.html" target="_top" xlink:title=" ">
<polygon fill="white" stroke="black" points="94,-56.5 94,-75.5 143,-75.5 143,-56.5 94,-56.5"/>
<text text-anchor="middle" x="118.5" y="-63.5" font-family="Helvetica,sans-Serif" font-size="10.00">Vec3.h</text>
</a>
</g>
</g>
<!-- Node1&#45;&gt;Node4 -->
<g id="edge3" class="edge">
<title>Node1&#45;&gt;Node4</title>
<path fill="none" stroke="midnightblue" d="M118.5,-112.4C118.5,-104.47 118.5,-94.46 118.5,-85.86"/>
<polygon fill="midnightblue" stroke="midnightblue" points="122,-85.66 118.5,-75.66 115,-85.66 122,-85.66"/>
</g>
<!-- Node4&#45;&gt;Node2 -->
<g id="edge6" class="edge">
<title>Node4&#45;&gt;Node2</title>
<path fill="none" stroke="midnightblue" d="M105.65,-56.32C93.28,-47.98 74.37,-35.21 59.76,-25.35"/>
<polygon fill="midnightblue" stroke="midnightblue" points="61.57,-22.35 51.32,-19.65 57.65,-28.15 61.57,-22.35"/>
</g>
<!-- Node4&#45;&gt;Node3 -->
<g id="edge5" class="edge">
<title>Node4&#45;&gt;Node3</title>
<path fill="none" stroke="midnightblue" d="M130.07,-56.32C140.92,-48.18 157.38,-35.84 170.38,-26.09"/>
<polygon fill="midnightblue" stroke="midnightblue" points="172.82,-28.63 178.72,-19.83 168.62,-23.03 172.82,-28.63"/>
</g>
<!-- Node5 -->
<g id="node5" class="node">
<title>Node5</title>
<g id="a_node5"><a xlink:title=" ">
<polygon fill="white" stroke="#bfbfbf" points="95,-0.5 95,-19.5 142,-19.5 142,-0.5 95,-0.5"/>
<text text-anchor="middle" x="118.5" y="-7.5" font-family="Helvetica,sans-Serif" font-size="10.00">cmath</text>
</a>
</g>
</g>
<!-- Node4&#45;&gt;Node5 -->
<g id="edge4" class="edge">
<title>Node4&#45;&gt;Node5</title>
<path fill="none" stroke="midnightblue" d="M118.5,-56.08C118.5,-49.01 118.5,-38.86 118.5,-29.99"/>
<polygon fill="midnightblue" stroke="midnightblue" points="122,-29.75 118.5,-19.75 115,-29.75 122,-29.75"/>
</g>
</g>
</svg>
